<svg width="295" height="269" viewBox="0 0 295 269" fill="none" xmlns="http://www.w3.org/2000/svg">
<rect width="295" height="269" fill="white"/>
<mask id="mask0_1_700" style="mask-type:luminance" maskUnits="userSpaceOnUse" x="5" y="51" width="286" height="167">
<path d="M290.048 51H5V218H290.048V51Z" fill="white"/>
</mask>
<g mask="url(#mask0_1_700)">
<path d="M293.418 169.386L299.423 215.34L287.591 218.913C287.591 218.913 279.074 194.022 277.58 177.292L293.418 169.39V169.386Z" fill="#FFAFBB"/>
<path d="M231.28 79.3382L217.571 80.3378" stroke="#D35742" stroke-width="0.75" stroke-linecap="round" stroke-linejoin="round"/>
<path d="M220.202 90.4474C219.993 96.5779 224.653 101.827 230.609 101.332L234.588 100.561L233.258 114.072C233.258 114.072 234.706 119.005 241.125 121.141C249.874 124.053 256.248 116.288 256.248 116.288L253.743 92.6252C253.743 92.6252 259.311 94.4837 259.767 86.7C260.185 79.6118 254.8 82.5003 254.8 82.5003L254.883 77.9813C255.184 73.6144 252.648 68.2175 245.591 66.9899L236.142 65.2416C236.142 65.2416 221.153 62.5773 220.202 90.4512V90.4474Z" fill="#FFAFBB"/>
<path d="M254.966 86.1565C254.966 86.1565 253.834 86.9622 254.731 87.5931C256.638 88.9423 253.765 89.083 254.301 89.9685" stroke="#300606" stroke-width="0.75" stroke-linecap="round" stroke-linejoin="round"/>
<path d="M256.537 84.0697C256.537 84.0697 258.893 82.6521 258.027 87.6803" stroke="#300606" stroke-width="0.75" stroke-linecap="round" stroke-linejoin="round"/>
<path d="M227.168 79.9044C225.975 83.5986 224.249 84.5336 224.249 84.5336C224.249 84.5336 223.25 85.1417 223.489 86.1071C223.732 87.0724 224.36 86.7076 225.059 87.3651" stroke="#300606" stroke-width="0.75" stroke-linecap="round" stroke-linejoin="round"/>
<path d="M227.142 87.0573C227.142 87.0573 227.286 87.0269 227.526 87.0991C227.765 87.1751 227.906 87.4449 227.906 87.4449" stroke="#300606" stroke-width="0.75" stroke-linecap="round" stroke-linejoin="round"/>
<path d="M229.164 85.4305C229.164 85.4305 230.334 86.4491 229.069 87.8249" stroke="#300606" stroke-width="0.75" stroke-linecap="round" stroke-linejoin="round"/>
<mask id="mask1_1_700" style="mask-type:luminance" maskUnits="userSpaceOnUse" x="220" y="76" width="8" height="9">
<path d="M222.269 76.826C222.269 76.826 221.365 79.9653 220.833 83.3745C220.833 83.3745 224.105 86.1148 227.161 80.9877C227.161 80.9877 225.713 77.7306 222.265 76.8298L222.269 76.826Z" fill="white"/>
</mask>
<g mask="url(#mask1_1_700)">
<path d="M225.02 82.6944C224.541 82.0749 224.036 81.5048 223.485 81.0487C222.938 80.5888 222.337 80.2544 221.699 80.1024C221.06 79.9427 220.376 79.9731 219.673 80.1328C218.966 80.281 218.259 80.5584 217.51 80.8435C217.453 80.8663 217.389 80.8359 217.366 80.7789C217.351 80.7409 217.358 80.6953 217.385 80.6649C217.917 80.0453 218.586 79.5437 219.373 79.2092C220.152 78.8747 221.087 78.7379 221.972 78.9584C222.862 79.1674 223.637 79.7109 224.177 80.3684C224.716 81.0335 225.089 81.7936 225.222 82.6184C225.233 82.6792 225.191 82.7362 225.131 82.7438C225.089 82.7514 225.051 82.7324 225.024 82.702L225.017 82.6944H225.02Z" fill="#300606"/>
</g>
<path d="M233.961 106.794L234.588 100.561L245.009 98.1019C245.009 98.1019 241.968 104.639 233.961 106.794Z" fill="#300606"/>
<path d="M223.43 90.0178C223.43 90.0178 226.018 90.8159 230.031 91.0744C230.031 91.0744 229.651 95.6883 225.995 95.1487C223.251 94.742 223.43 90.0178 223.43 90.0178Z" fill="#300606"/>
<path d="M230.764 83.3934C231.303 82.6105 232.086 82.0328 232.979 81.6451C233.873 81.2688 234.922 81.1244 235.913 81.3297L236.1 81.3601L236.278 81.4171L236.639 81.5311L236.997 81.6527L237.327 81.8275C237.54 81.953 237.772 82.0518 237.962 82.2038C238.156 82.352 238.342 82.5079 238.525 82.6637C238.718 82.8119 238.867 82.9981 239.019 83.1806L239.463 83.7279C239.707 84.1307 239.935 84.5374 240.117 84.9593C240.14 85.0163 240.117 85.0809 240.06 85.1075C240.026 85.1227 239.988 85.1189 239.957 85.0999L239.946 85.0923C239.555 84.8414 239.22 84.5564 238.882 84.2942L238.35 83.9407C238.175 83.8267 238.015 83.6899 237.825 83.6062C237.647 83.5074 237.468 83.4124 237.297 83.3098C237.122 83.2148 236.932 83.1578 236.753 83.0741L236.487 82.9563L236.21 82.8841L235.932 82.8043L235.796 82.7625L235.655 82.7435C234.91 82.5915 234.131 82.6143 233.337 82.7701C232.542 82.9259 231.737 83.2072 230.916 83.5606H230.904C230.847 83.591 230.783 83.5606 230.76 83.5074C230.745 83.4694 230.748 83.4314 230.771 83.401L230.764 83.3934Z" fill="#300606"/>
<path d="M234.295 77.8063C234.69 77.8595 235.253 77.9317 235.739 78.0305C236.244 78.1256 236.754 78.2396 237.255 78.3878C237.761 78.536 238.263 78.7071 238.78 78.8857C239.304 79.0529 239.821 79.2543 240.421 79.4064H240.437C240.581 79.4444 240.729 79.357 240.767 79.2125C240.786 79.1441 240.775 79.0719 240.741 79.0111C240.429 78.46 240.015 77.9887 239.543 77.5859C239.08 77.1678 238.532 76.8599 237.978 76.5711C237.419 76.2899 236.822 76.077 236.206 75.9174C235.572 75.773 234.994 75.6741 234.238 75.7198C233.664 75.754 233.231 76.248 233.265 76.8181C233.295 77.3198 233.679 77.7189 234.158 77.7835L234.295 77.8025V77.8063Z" fill="#300606"/>
<mask id="mask2_1_700" style="mask-type:luminance" maskUnits="userSpaceOnUse" x="222" y="71" width="6" height="7">
<path d="M224.497 71.9457C224.497 71.9457 222.988 74.2869 222.231 77.1526C222.231 77.1526 226.948 77.8899 227.833 75.8908C227.833 75.8908 226.845 72.9985 224.497 71.9457Z" fill="white"/>
</mask>
<g mask="url(#mask2_1_700)">
<path d="M226.275 74.6253C225.781 74.3554 225.378 74.2528 224.91 74.1616C224.454 74.0856 223.991 74.0704 223.531 74.116C223.071 74.1616 222.615 74.2528 222.193 74.4504C221.771 74.6367 221.387 74.9179 221.095 75.2942C220.996 75.4196 221.019 75.602 221.148 75.7009C221.182 75.7275 221.224 75.7465 221.266 75.7541H221.292C221.741 75.8529 222.109 75.8719 222.47 75.9289C222.828 75.9783 223.166 76.0049 223.5 76.0657C223.835 76.1227 224.162 76.1911 224.481 76.2786C224.789 76.347 225.154 76.4648 225.389 76.5104L225.587 76.5484C226.149 76.6548 226.689 76.2862 226.796 75.7275C226.883 75.2752 226.659 74.8343 226.275 74.6253Z" fill="#300606"/>
</g>
<path d="M229.437 93.1951C229.437 93.1951 225.823 92.4236 224.671 94.4569C224.671 94.4569 225.321 95.5211 227.469 95.0726C227.469 95.0726 228.829 94.7306 229.437 93.1989V93.1951Z" fill="#FF6F60"/>
<path d="M254.411 82.9219C254.411 82.9219 252.245 86.7035 251.675 84.2521C251.105 81.8007 249.277 76.5862 249.208 73.5115C249.208 73.5115 243.412 77.3426 240.873 75.0166C238.335 72.6906 239.783 70.49 239.783 70.49C239.783 70.49 224.66 78.0495 220.73 68.5631C215.284 55.4167 239.634 53.9496 251.101 58.5864C261.587 62.8279 258.634 68.8823 258.634 68.8823C258.634 68.8823 265.186 72.2269 256.034 82.1086C256.034 82.1086 254.807 82.5038 254.419 82.9219H254.411Z" fill="#300606"/>
<path d="M254.799 82.5002L241.09 83.4998" stroke="#D35742" stroke-width="0.75" stroke-linecap="round" stroke-linejoin="round"/>
<path d="M240.569 85.7685C241.893 82.9514 240.683 79.5941 237.866 78.2697C235.049 76.9453 231.692 78.1553 230.367 80.9724C229.043 83.7894 230.253 87.1468 233.07 88.4712C235.887 89.7956 239.244 88.5856 240.569 85.7685Z" stroke="#D35742" stroke-width="0.75" stroke-linecap="round" stroke-linejoin="round"/>
<path d="M226.728 80.5617C226.656 83.5832 224.546 85.9852 222.019 85.9243C219.491 85.8635 217.5 83.3627 217.572 80.3412C217.644 77.3197 219.754 74.9177 222.281 74.9785C224.808 75.0393 226.8 77.5401 226.728 80.5617Z" stroke="#D35742" stroke-width="0.75" stroke-linecap="round" stroke-linejoin="round"/>
<path d="M229.822 83.2262L226.424 82.4813" stroke="#D35742" stroke-width="0.75" stroke-linecap="round" stroke-linejoin="round"/>
<path d="M212.767 164.286C212.767 164.286 212.216 166.783 210.225 170.329C209.32 171.94 208.682 173.681 207.218 174.81C204.125 177.197 198.378 181.366 189.428 184.726C189.428 184.726 182.305 180.91 180.751 174.034C180.751 174.034 192.229 164.248 192.818 162.188C193.76 158.897 194.752 155.088 194.752 155.088C194.752 155.088 199.898 158.091 212.771 164.286H212.767Z" fill="#FFAFBB"/>
<path d="M193.365 162.971C193.365 162.971 195.604 163.769 197.991 163.834" stroke="#300606" stroke-width="0.75" stroke-linecap="round" stroke-linejoin="round"/>
<path d="M211.628 164.354C211.628 164.354 194.685 163.906 190.192 156.973C190.192 156.973 201.256 130.156 213.832 120.343C213.832 120.343 225.413 114.171 232.117 112.806C232.741 112.681 233.383 112.973 233.683 113.536C234.918 115.832 239.661 121.069 255.552 113.43C255.909 113.259 256.316 113.232 256.688 113.365C259.493 114.372 271.868 118.99 281.871 125.36C281.871 125.36 289.461 140.961 294.296 168.725C294.296 168.725 286.375 174.988 277.58 177.28L281.316 221.105L206.318 218.27L211.624 164.35L211.628 164.354Z" fill="#B1B889"/>
<path d="M274.315 138.921L278.561 190.746" stroke="#300606" stroke-width="0.75" stroke-linecap="round" stroke-linejoin="round"/>
<path d="M230.4 113.228C230.4 113.228 229.678 122.631 243.234 121.753C256.791 120.875 259.113 114.273 259.113 114.273" stroke="#300606" stroke-width="0.75" stroke-linecap="round" stroke-linejoin="round"/>
<path d="M238.617 145.514C238.617 145.514 236.215 134.299 225.542 139.806C214.87 145.313 228.75 171.313 238.738 181.225C238.738 181.225 267.114 153.64 260.349 141.201C253.58 128.761 240.49 142.767 238.617 145.511V145.514Z" stroke="#300606" stroke-width="0.75" stroke-linecap="round" stroke-linejoin="round"/>
<path d="M201.26 162.971C201.26 162.971 207.531 164.643 211.628 164.358" stroke="#300606" stroke-width="0.75" stroke-linecap="round" stroke-linejoin="round"/>
<path d="M192.039 152.797C192.039 152.797 201.609 158.672 211.628 159.098" stroke="#300606" stroke-width="0.75" stroke-linecap="round" stroke-linejoin="round"/>
<path d="M276.938 170.956C276.938 170.956 286.044 167.49 293.079 162.279" stroke="#300606" stroke-width="0.75" stroke-linecap="round" stroke-linejoin="round"/>
<path d="M148.492 193.953L151.494 181.806L194.688 182.848L198.5 195.158L148.492 193.953Z" fill="#FF6F60"/>
<path d="M140.565 218H206.441C202.603 201.626 198.498 195.162 198.498 195.162L148.485 193.957C148.485 193.957 142.351 203.447 140.561 218.003L140.565 218Z" fill="#ABDAEF"/>
<path d="M170.746 212.831L170.601 218.961" stroke="#300606" stroke-width="0.75" stroke-linecap="round" stroke-linejoin="round"/>
<path d="M174.31 212.698L167.275 212.956" stroke="#300606" stroke-width="0.75" stroke-linecap="round" stroke-linejoin="round"/>
<path d="M148.492 193.953L181.991 194.759" stroke="#300606" stroke-width="0.75" stroke-linecap="round" stroke-linejoin="round"/>
<path d="M197.87 117.807C197.87 117.807 186.244 112.923 170.441 111.631C154.638 110.339 147.01 111.844 140.625 116.488C134.24 121.137 184.552 147.418 197.87 117.803V117.807Z" fill="#FF6F60"/>
<path d="M140.906 184.467C141.286 177.143 147.983 143.583 147.983 143.583L142.175 161.477C142.175 161.477 124.377 146.095 116.89 136.738C116.89 136.738 132.944 119.491 144.452 114.178C144.452 114.178 163.85 134.739 197.87 117.807C200.682 119.077 203.947 120.202 206.661 122.342L217.607 130.977L211.073 169.96L196.372 153.674C196.372 153.674 203.027 182.414 205.03 190.529C205.03 190.529 175.309 190.529 140.906 184.463V184.467Z" fill="#6A0DAD"/>
<path d="M217.63 129.946C217.63 129.946 212.221 160.013 210.002 177.876" stroke="#300606" stroke-width="0.75" stroke-linecap="round" stroke-linejoin="round"/>
<path d="M215.414 129.251C215.414 129.251 206.71 121.163 198.972 118.313" stroke="#300606" stroke-width="0.75" stroke-linecap="round" stroke-linejoin="round"/>
<path d="M149.681 134.933L145.793 153.484" stroke="#300606" stroke-width="0.75" stroke-linecap="round" stroke-linejoin="round"/>
<path d="M165.914 188.028C165.914 188.028 191.591 190.403 205.03 190.532" stroke="#300606" stroke-width="0.75" stroke-linecap="round" stroke-linejoin="round"/>
<path d="M192.773 135.974L198.037 160.861" stroke="#300606" stroke-width="0.75" stroke-linecap="round" stroke-linejoin="round"/>
<path d="M145.85 115.458C145.85 115.458 157.647 127.001 178.349 124.059" stroke="#300606" stroke-width="0.75" stroke-linecap="round" stroke-linejoin="round"/>
<path d="M198.486 156.023L208.348 166.95" stroke="#300606" stroke-width="0.75" stroke-linecap="round" stroke-linejoin="round"/>
<path d="M141.762 177.584C141.762 177.584 180.429 181.928 202.91 182.486" stroke="#300606" stroke-width="0.75" stroke-linecap="round" stroke-linejoin="round"/>
<path d="M199.355 89.9335C197.835 94.8059 194.988 98.2531 190.112 96.7329C185.24 95.2126 182.522 90.0285 184.042 85.1523C185.563 80.2799 190.747 77.5624 195.623 79.0827C200.495 80.603 200.875 85.0573 199.355 89.9335Z" fill="black"/>
<path d="M146.99 91.9401C146.781 98.0706 151.441 103.319 157.397 102.825L161.376 102.054L160.046 115.565C160.046 115.565 161.809 118.427 168.228 120.567C176.978 123.478 183.036 117.784 183.036 117.784L180.531 94.1217C180.531 94.1217 186.099 95.9802 186.555 88.1965C186.973 81.1083 181.588 83.9968 181.588 83.9968L181.671 79.4779C181.972 75.1109 179.437 69.714 172.379 68.4864L162.93 66.7381C162.93 66.7381 147.941 64.0739 146.99 91.9477V91.9401Z" fill="#FF6F60"/>
<path d="M181.754 87.6455C181.754 87.6455 180.622 88.4513 181.519 89.0822C183.427 90.4314 180.553 90.572 181.089 91.4576" stroke="#300606" stroke-width="0.75" stroke-linecap="round" stroke-linejoin="round"/>
<path d="M183.327 85.5628C183.327 85.5628 185.684 84.1452 184.817 89.1734" stroke="#300606" stroke-width="0.75" stroke-linecap="round" stroke-linejoin="round"/>
<mask id="mask3_1_700" style="mask-type:luminance" maskUnits="userSpaceOnUse" x="147" y="78" width="7" height="8">
<path d="M149.056 78.3151C149.056 78.3151 148.152 81.4544 147.62 84.8636C147.62 84.8636 150.892 87.6038 153.948 82.4768C153.948 82.4768 152.5 79.2196 149.052 78.3189L149.056 78.3151Z" fill="white"/>
</mask>
<g mask="url(#mask3_1_700)">
<path d="M151.809 84.1833C151.33 83.5638 150.825 82.9937 150.274 82.5376C149.726 82.0778 149.126 81.7433 148.487 81.5913C147.849 81.4317 147.165 81.4621 146.462 81.6217C145.755 81.7699 145.048 82.0474 144.299 82.3324C144.242 82.3552 144.177 82.3248 144.155 82.2678C144.139 82.2298 144.147 82.1842 144.174 82.1538C144.706 81.5343 145.375 81.0326 146.161 80.6981C146.941 80.3637 147.875 80.2269 148.761 80.4473C149.65 80.6563 150.426 81.1998 150.965 81.8573C151.505 82.5224 151.878 83.2826 152.011 84.1073C152.022 84.1681 151.98 84.2251 151.919 84.2327C151.878 84.2403 151.84 84.2213 151.813 84.1909L151.805 84.1833H151.809Z" fill="#300606"/>
</g>
<path d="M160.749 108.287L161.376 102.054L171.797 99.5947C171.797 99.5947 168.757 106.132 160.749 108.287Z" fill="#300606"/>
<path d="M150.217 91.5106C150.217 91.5106 152.805 92.3088 156.818 92.5672C156.818 92.5672 156.438 97.1812 152.782 96.6415C150.038 96.2348 150.217 91.5106 150.217 91.5106Z" fill="#300606"/>
<path d="M161.083 79.2991C161.478 79.3523 162.041 79.4246 162.527 79.5234C163.033 79.6184 163.542 79.7324 164.044 79.8806C164.549 80.0289 165.051 80.1999 165.568 80.3785C166.092 80.5457 166.609 80.7472 167.209 80.8992H167.225C167.369 80.9372 167.517 80.8498 167.555 80.7054C167.574 80.637 167.563 80.5647 167.529 80.5039C167.217 79.9528 166.803 79.4816 166.331 79.0787C165.868 78.6606 165.321 78.3528 164.766 78.0639C164.207 77.7827 163.61 77.5698 162.995 77.4102C162.36 77.2658 161.782 77.167 161.026 77.2126C160.452 77.2468 160.019 77.7409 160.053 78.311C160.083 78.8126 160.467 79.2117 160.946 79.2763L161.083 79.2953V79.2991Z" fill="#300606"/>
<mask id="mask4_1_700" style="mask-type:luminance" maskUnits="userSpaceOnUse" x="149" y="73" width="6" height="6">
<path d="M151.285 73.4383C151.285 73.4383 149.777 75.7795 149.02 78.6452C149.02 78.6452 153.737 79.3825 154.622 77.3834C154.622 77.3834 153.634 74.4911 151.285 73.4383Z" fill="white"/>
</mask>
<g mask="url(#mask4_1_700)">
<path d="M153.068 76.1178C152.574 75.848 152.171 75.7453 151.703 75.6541C151.247 75.5781 150.784 75.5629 150.324 75.6085C149.864 75.6541 149.408 75.7453 148.986 75.943C148.564 76.1292 148.18 76.4104 147.887 76.7867C147.789 76.9121 147.811 77.0946 147.941 77.1934C147.975 77.22 148.017 77.239 148.058 77.2466H148.085C148.534 77.3454 148.902 77.3644 149.263 77.4214C149.621 77.4708 149.959 77.4974 150.293 77.5582C150.628 77.6152 150.955 77.6837 151.274 77.7711C151.582 77.8395 151.946 77.9573 152.182 78.0029L152.38 78.0409C152.942 78.1473 153.482 77.7787 153.588 77.22C153.676 76.7677 153.452 76.3268 153.068 76.1178Z" fill="#300606"/>
</g>
<path d="M156.23 94.6842C156.23 94.6842 152.616 93.9127 151.464 95.946C151.464 95.946 152.114 97.0102 154.261 96.5617C154.261 96.5617 155.622 96.2197 156.23 94.688V94.6842Z" fill="#FFAFBB"/>
<path d="M158.004 69.3303C158.004 69.3303 159.19 83.9856 181.591 83.9894C181.591 83.9894 187.022 81.2605 186.558 88.1891C186.099 95.0454 182.005 94.3461 180.534 94.1143L180.88 97.0066C180.88 97.0066 187.368 94.5399 189.143 89.5763C190.918 84.6089 196.387 57.7004 160.444 61.9077C160.444 61.9077 154.204 61.5428 149.327 65.8565C144.451 70.1741 141.103 86.627 144.048 85.9581C146.066 85.502 147.495 83.8336 148.316 81.2529C150.559 74.2103 151.418 70.9532 158.004 69.3227V69.3303Z" fill="black"/>
<path d="M157.461 65.963C157.461 65.963 156.91 79.2006 171.71 82.8074" stroke="#300606" stroke-width="0.75" stroke-linecap="round" stroke-linejoin="round"/>
<path d="M155.765 70.0334C155.765 70.0334 151.155 70.7821 148.916 79.3792" stroke="#300606" stroke-width="0.75" stroke-linecap="round" stroke-linejoin="round"/>
<path d="M190.34 77.7104C190.34 77.7104 191.697 76.8021 192.191 78.4629C192.693 80.1466 194.517 89.6938 186.996 95.6456C186.996 95.6456 185.65 96.1853 184.708 94.8779C184.708 94.8779 188.843 92.2365 189.888 86.8129C190.906 81.5301 190.34 77.7104 190.34 77.7104Z" fill="#300606"/>
<path d="M160.445 61.9112C160.445 61.9112 165.492 77.9993 183.378 83.438" stroke="#300606" stroke-width="0.75" stroke-linecap="round" stroke-linejoin="round"/>
<path d="M167.468 61.4667C167.468 61.4667 178.057 76.2626 190.485 79.7364" stroke="#300606" stroke-width="0.75" stroke-linecap="round" stroke-linejoin="round"/>
<path d="M190.196 91.678C190.196 91.678 194.992 94.6882 198.789 91.5146" stroke="#300606" stroke-width="0.75" stroke-linecap="round" stroke-linejoin="round"/>
<path d="M191.959 83.6433C191.959 83.6433 199.313 84.6581 200.058 86.8054" stroke="#300606" stroke-width="0.75" stroke-linecap="round" stroke-linejoin="round"/>
<path d="M144.831 85.7145C144.831 85.7145 146.416 68.3722 157.495 67.0458" stroke="#300606" stroke-width="0.75" stroke-linecap="round" stroke-linejoin="round"/>
<path d="M180.534 94.1179C180.534 94.1179 185.046 95.946 186.323 90.0475" stroke="#300606" stroke-width="0.75" stroke-linecap="round" stroke-linejoin="round"/>
<path d="M184.788 98.2795C184.757 99.4805 183.761 100.434 182.557 100.404C181.352 100.374 180.402 99.3779 180.432 98.1731C180.462 96.9721 181.553 92.1643 182.754 92.1909C183.955 92.2213 184.814 97.0747 184.784 98.2757L184.788 98.2795Z" fill="#300606"/>
<mask id="mask5_1_700" style="mask-type:luminance" maskUnits="userSpaceOnUse" x="147" y="78" width="7" height="10">
<path d="M149.114 78.885C149.114 78.885 147.932 81.3478 147.381 86.5509C147.381 86.5509 150.445 89.4128 153.375 82.7389C153.375 82.7389 152.691 79.4893 149.114 78.885Z" fill="white"/>
</mask>
<g mask="url(#mask5_1_700)">
<path d="M153.934 83.351C153.934 83.351 149.411 77.0571 143.885 82.4844C143.885 82.4844 145.094 85.5705 148.396 86.228C151.695 86.8817 153.934 83.3548 153.934 83.3548V83.351Z" fill="white"/>
<mask id="mask6_1_700" style="mask-type:luminance" maskUnits="userSpaceOnUse" x="143" y="80" width="11" height="7">
<path d="M153.935 83.351C153.935 83.351 149.412 77.0571 143.886 82.4844C143.886 82.4844 145.095 85.5705 148.397 86.228C151.696 86.8817 153.935 83.3548 153.935 83.3548V83.351Z" fill="white"/>
</mask>
<g mask="url(#mask6_1_700)">
<path d="M144.284 82.7774C144.01 84.5295 145.211 86.1752 146.967 86.445C148.719 86.7187 150.365 85.5177 150.634 83.7618C150.908 82.0097 149.707 80.364 147.951 80.0942C146.199 79.8205 144.553 81.0215 144.284 82.7774Z" fill="#300606"/>
</g>
<path d="M143.9 82.3782C143.9 82.3782 148.616 76.9775 153.949 83.2448" stroke="#300606" stroke-width="0.75" stroke-linecap="round" stroke-linejoin="round"/>
</g>
<path d="M167.484 84.8637C167.484 84.8637 162.961 78.5699 157.435 83.9972C157.435 83.9972 158.644 87.0833 161.947 87.7408C165.246 88.3945 167.484 84.8675 167.484 84.8675V84.8637Z" fill="white"/>
<mask id="mask7_1_700" style="mask-type:luminance" maskUnits="userSpaceOnUse" x="157" y="81" width="11" height="7">
<path d="M167.484 84.8637C167.484 84.8637 162.961 78.5699 157.435 83.9972C157.435 83.9972 158.644 87.0833 161.947 87.7408C165.246 88.3945 167.484 84.8675 167.484 84.8675V84.8637Z" fill="white"/>
</mask>
<g mask="url(#mask7_1_700)">
<path d="M157.432 84.1186C157.158 85.8707 158.359 87.5164 160.115 87.7862C161.867 88.0599 163.513 86.8589 163.783 85.103C164.056 83.3509 162.855 81.7052 161.099 81.4354C159.347 81.1617 157.702 82.3627 157.432 84.1186Z" fill="#300606"/>
</g>
<path d="M157.344 83.7994C158.02 83.0582 158.834 82.4729 159.742 82.0511C160.65 81.6368 161.676 81.4316 162.687 81.538C163.702 81.633 164.668 82.0245 165.507 82.5756C166.355 83.119 167.089 83.8108 167.746 84.5557L167.241 84.5823L168.096 83.6397C168.149 83.5827 168.24 83.5751 168.297 83.6283C168.347 83.6739 168.358 83.7423 168.328 83.7994L167.761 84.9395C167.693 85.0764 167.526 85.1334 167.389 85.065C167.37 85.0536 167.351 85.0422 167.336 85.0308L167.26 84.9662C166.655 84.2326 165.979 83.5599 165.203 83.0316C164.436 82.4957 163.562 82.1119 162.634 81.9979C161.711 81.8724 160.76 82.0283 159.89 82.3931C159.024 82.7618 158.214 83.3129 157.56 83.9894L157.553 83.997C157.5 84.054 157.408 84.054 157.351 83.997C157.294 83.9438 157.294 83.8564 157.348 83.7994H157.344Z" fill="#300606"/>
<path d="M153.957 81.3972C152.763 85.0914 151.038 86.0264 151.038 86.0264C151.038 86.0264 150.038 86.6345 150.278 87.5998C150.521 88.5652 151.148 88.2003 151.847 88.8578" stroke="#300606" stroke-width="0.75" stroke-linecap="round" stroke-linejoin="round"/>
<path d="M153.93 88.5498C153.93 88.5498 154.075 88.5194 154.314 88.5916C154.554 88.6676 154.694 88.9374 154.694 88.9374" stroke="#300606" stroke-width="0.75" stroke-linecap="round" stroke-linejoin="round"/>
<path d="M155.952 86.9196C155.952 86.9196 157.123 87.9382 155.857 89.314" stroke="#300606" stroke-width="0.75" stroke-linecap="round" stroke-linejoin="round"/>
<path d="M140.613 160.108C140.613 160.108 139.397 162.355 136.501 165.213C135.186 166.513 134.091 168.006 132.374 168.69C128.74 170.131 122.066 172.548 112.534 173.304C112.534 173.304 106.742 167.672 107.149 160.633C107.149 160.633 120.884 154.396 122.017 152.579C123.83 149.676 125.837 146.289 125.837 146.289C125.837 146.289 129.953 150.599 140.61 160.108H140.613Z" fill="#FF6F60"/>
<path d="M122.333 153.484C122.333 153.484 124.264 154.867 126.54 155.593" stroke="#300606" stroke-width="0.75" stroke-linecap="round" stroke-linejoin="round"/>
<path d="M37.8824 107.994C29.8593 92.0925 33.314 78.6268 46.392 77.0648L55.0499 76.2172C55.0499 76.2172 64.6237 75.2633 69.1959 86.8172C70.184 89.3142 70.1574 92.2749 72.8787 95.38C76.4589 99.4657 70.6591 100.492 70.6021 101.51C70.2258 108.352 69.002 114.186 62.4915 113.984L54.3962 113.543L51.846 125.238C51.846 125.238 51.025 153.173 40.159 149.36C33.1924 146.917 33.1848 121.711 33.1848 121.711L37.8824 107.994Z" fill="#6D2C25"/>
<path d="M65.2818 89.4662C65.3046 89.4662 65.2818 89.4624 65.2742 89.4586C65.2666 89.4548 65.2476 89.451 65.2324 89.4472C65.202 89.4396 65.1716 89.432 65.1336 89.4244C65.0652 89.4092 64.9892 89.3978 64.9132 89.3825C64.7611 89.3597 64.6015 89.3445 64.4381 89.3369C64.115 89.3217 63.7806 89.3293 63.4499 89.3788C63.1193 89.4282 62.7848 89.4928 62.4618 89.603C62.1349 89.7018 61.8195 89.8462 61.5078 90.0021L61.4584 90.0287C61.1087 90.2035 60.6603 90.0971 60.455 89.7892C60.284 89.5308 60.3448 89.2115 60.5767 89.0139C60.8959 88.744 61.2342 88.4818 61.618 88.2614C61.9943 88.0295 62.4086 87.8433 62.8418 87.6799C63.2751 87.5164 63.735 87.4024 64.2101 87.3188C64.4495 87.277 64.6889 87.2504 64.9398 87.2314C65.0652 87.2238 65.1906 87.2162 65.3236 87.2162C65.3883 87.2162 65.4567 87.2162 65.5251 87.2162H65.6353C65.6771 87.2238 65.7037 87.2238 65.7759 87.2352C66.4866 87.3606 66.9503 87.9611 66.8097 88.5768C66.6729 89.1925 65.9812 89.5916 65.2704 89.4662H65.2818Z" fill="#300606"/>
<path d="M50.8966 93.4073C50.8966 93.4073 49.2699 92.385 48.5782 93.0273C47.4646 94.0648 47.9435 96.3186 48.9355 97.8503" stroke="#300606" stroke-width="0.75" stroke-linecap="round" stroke-linejoin="round"/>
<path d="M51.7819 95.1253C51.7819 95.1253 50.0032 96.4783 51.5045 97.2765C53.0057 98.0746 50.8812 98.4395 50.8812 98.4395" stroke="#300606" stroke-width="0.75" stroke-linecap="round" stroke-linejoin="round"/>
<path d="M69.0479 98.5574C69.0479 98.5574 68.6375 99.8762 70.1957 100.241" stroke="#300606" stroke-width="0.75" stroke-linecap="round" stroke-linejoin="round"/>
<path d="M37.883 107.994C34.0063 110.556 33.6149 108.199 33.8315 103.471C34.0481 98.7435 30.7948 101.719 28.4004 94.5627C26.4925 88.8656 26.8611 80.9869 31.3231 79.8847C35.4962 78.8547 34.3522 75.3125 35.3518 73.1956C37.9552 67.6846 46.8183 64.4047 52.143 69.2125C54.963 71.7589 56.9052 69.6002 59.501 68.7032C64.9359 66.8295 70.8345 73.4768 70.1542 78.0224C69.6411 81.4315 70.4848 82.929 70.9371 83.4649C71.2032 83.7765 71.4388 84.1148 71.5984 84.4949C72.0773 85.6427 72.503 87.752 69.7969 88.7402C69.7969 88.7402 69.4739 87.4252 68.786 85.8441C68.786 85.8441 64.7877 86.8931 62.1386 84.0274C62.1386 84.0274 59.501 89.8538 54.0927 88.934C54.0927 88.934 56.2933 91.0472 55.2291 93.3123C54.1611 95.5775 53.2224 92.9171 52.105 91.9669C52.105 91.9669 49.5319 88.2613 46.6054 92.2406C43.6789 96.216 47.8673 103.11 52.7245 101.453C52.7245 101.453 50.4061 105.957 47.51 104.714C47.51 104.714 46.1418 110.468 37.8868 108.006L37.883 107.994Z" fill="#D35742"/>
<path d="M54.3966 113.543C54.3966 113.543 49.642 113.247 46.9474 109.99C46.9474 109.99 47.5327 117.693 53.036 119.788L54.4004 113.543H54.3966Z" fill="#300606"/>
<path d="M68.5615 107.006C65.559 106.193 64.8293 103.008 64.8293 103.008C69.0062 102.844 69.4623 104.277 69.4623 104.277C69.4623 104.277 70.2262 106.037 69.2874 106.854C69.0936 107.025 68.8124 107.071 68.5615 107.002V107.006Z" fill="#D35742"/>
<path d="M69.7549 105.6C69.7549 105.6 67.2997 105.125 64.8293 103.008" stroke="#300606" stroke-width="0.75" stroke-linecap="round" stroke-linejoin="round"/>
<path d="M52.2987 99.4998C52.2835 100.165 51.7324 100.689 51.0673 100.674C50.4022 100.659 49.8777 100.108 49.8929 99.4428C49.9081 98.7777 50.4592 98.2532 51.1243 98.2684C51.7894 98.2836 52.3139 98.8347 52.2987 99.4998Z" fill="white"/>
<path d="M59.1633 94.2357C59.1633 94.2357 62.6484 89.6635 66.7607 92.2442C68.1176 93.0955 68.2658 94.9844 67.08 96.0562C66.3807 96.6871 65.4305 97.2648 64.2029 97.4472C61.0636 97.9147 59.1671 94.2357 59.1671 94.2357H59.1633Z" fill="white"/>
<mask id="mask8_1_700" style="mask-type:luminance" maskUnits="userSpaceOnUse" x="59" y="91" width="9" height="7">
<path d="M59.1625 94.2356C59.1625 94.2356 62.6705 89.6369 66.7942 92.2669C68.1244 93.1182 68.2726 94.9616 67.1058 96.0257C66.4027 96.668 65.4411 97.2609 64.1945 97.4434C61.0552 97.9109 59.1587 94.2318 59.1587 94.2318L59.1625 94.2356Z" fill="white"/>
</mask>
<g mask="url(#mask8_1_700)">
<path d="M68.6521 94.0757C68.8041 95.8544 67.5803 97.4355 65.9156 97.6065C64.2509 97.7775 62.7801 96.4777 62.6242 94.699C62.4722 92.9203 63.696 91.3393 65.3607 91.1682C67.0254 90.9972 68.4962 92.297 68.6521 94.0757Z" fill="#300606"/>
</g>
<path d="M67.1215 93.0271C66.6465 92.4532 65.9889 91.9933 65.2782 91.7615C64.5637 91.522 63.7922 91.5258 63.0701 91.7272C62.3365 91.9059 61.6828 92.3277 61.0557 92.7572C60.7631 93.0081 60.459 93.2399 60.1778 93.5021L59.3682 94.3307H58.9806C58.9426 94.3307 58.9122 94.3079 58.897 94.2737L58.4219 93.1145C58.3915 93.0423 58.4257 92.9587 58.5017 92.9282C58.5625 92.9016 58.6347 92.9283 58.6727 92.9777L59.41 93.9924L58.9388 93.9354L59.8091 93.0993C60.1132 92.8332 60.44 92.5976 60.7555 92.343C61.4358 91.9059 62.1465 91.4802 62.9598 91.3054C63.758 91.1077 64.6207 91.1305 65.396 91.4194C66.1714 91.7044 66.8441 92.2023 67.3534 92.856C67.4028 92.9168 67.3914 93.0081 67.3268 93.0575C67.266 93.1031 67.1785 93.0955 67.1291 93.0347L67.1215 93.0233V93.0271Z" fill="#300606"/>
<path d="M7.9987 197.112L25.3296 218H5V201.836L7.9987 197.112Z" fill="#300606"/>
<path d="M73.9851 115.816C73.9851 115.816 83.8059 114.319 86.8882 114.117L73.7532 119.651L73.9851 115.82V115.816Z" fill="#6D2C25"/>
<path d="M5 131.269C5 131.269 14.2774 117.313 36.3667 112.418C36.3667 112.418 48.1904 145.126 49.4218 136.165C50.8319 125.937 53.785 116.333 53.785 116.333C53.785 116.333 63.8605 117.135 73.9854 115.812C73.9854 115.812 73.9854 130.27 67.4521 135.526C67.4521 135.526 61.4205 137.848 54.1993 140.334C54.1993 140.334 58.1861 153.902 52.0063 161.222C42.06 173 12.6811 175.961 5 205.351V131.269Z" fill="#D7B6EF"/>
<path d="M50.7977 129.894C50.7977 129.894 54.3019 137.784 55.252 145.978" stroke="#300606" stroke-width="0.75" stroke-linecap="round" stroke-linejoin="round"/>
<path d="M34.5161 112.84C34.5161 112.84 43.2575 143.435 49.5362 140.752" stroke="#300606" stroke-width="0.75" stroke-linecap="round" stroke-linejoin="round"/>
<path d="M9.37827 194.474C9.37827 194.474 15.0754 183.505 27.7962 176.588C39.3235 170.321 45.6287 166.547 45.6287 166.547" stroke="#300606" stroke-width="0.75" stroke-linecap="round" stroke-linejoin="round"/>
<path d="M61.9976 116.573C61.9976 116.573 69.2265 116.512 73.9887 115.816" stroke="#300606" stroke-width="0.75" stroke-linecap="round" stroke-linejoin="round"/>
<path d="M61.0438 218L69.409 192.046L113.447 193.106L118.183 218H61.0438Z" fill="#6A0DAD"/>
<path d="M93.0224 210.741L92.8475 218" stroke="white" stroke-width="0.75" stroke-linecap="round" stroke-linejoin="round"/>
<path d="M88.5002 210.148L96.8578 211.315" stroke="white" stroke-width="0.75" stroke-linecap="round" stroke-linejoin="round"/>
<path d="M122.899 94.4722C122.812 100.603 117.905 105.623 111.98 104.844L108.043 103.879L108.719 117.436C108.719 117.436 106.45 129.404 99.9359 131.228C91.0538 133.718 85.6493 118.542 85.6493 118.542L89.2903 95.0271C89.2903 95.0271 83.6387 96.6158 83.5589 88.8169C83.4867 81.7135 88.724 84.8604 88.724 84.8604L88.8608 80.3414C88.7734 75.9631 91.5631 70.6954 98.6741 69.8099L108.198 68.5215C108.198 68.5215 123.298 66.5831 122.903 94.4684L122.899 94.4722Z" fill="#FFAFBB"/>
<path d="M88.383 88.5089C88.383 88.5089 89.4738 89.3679 88.5502 89.957C86.5815 91.2112 89.4396 91.4924 88.8657 92.3514" stroke="#300606" stroke-width="0.75" stroke-linecap="round" stroke-linejoin="round"/>
<path d="M86.9111 86.3501C86.9111 86.3501 84.6269 84.8223 85.2502 89.8847" stroke="#300606" stroke-width="0.75" stroke-linecap="round" stroke-linejoin="round"/>
<path d="M116.446 83.6063C117.461 87.3537 119.137 88.3723 119.137 88.3723C119.137 88.3723 120.106 89.0298 119.821 89.98C119.532 90.9339 118.924 90.5349 118.194 91.162" stroke="#300606" stroke-width="0.75" stroke-linecap="round" stroke-linejoin="round"/>
<path d="M116.127 90.7513C116.127 90.7513 115.982 90.7133 115.739 90.7741C115.496 90.8387 115.344 91.101 115.344 91.101" stroke="#300606" stroke-width="0.75" stroke-linecap="round" stroke-linejoin="round"/>
<path d="M114.188 89.0258C114.188 89.0258 112.968 89.9874 114.169 91.4203" stroke="#300606" stroke-width="0.75" stroke-linecap="round" stroke-linejoin="round"/>
<mask id="mask9_1_700" style="mask-type:luminance" maskUnits="userSpaceOnUse" x="116" y="80" width="7" height="9">
<path d="M121.49 80.7634C121.49 80.7634 122.243 83.9445 122.607 87.3727C122.607 87.3727 119.21 89.9533 116.401 84.6818C116.401 84.6818 118.005 81.5007 121.49 80.7634Z" fill="white"/>
</mask>
<g mask="url(#mask9_1_700)">
<path d="M118.26 86.4074C118.431 85.5903 118.837 84.8491 119.411 84.2106C119.981 83.5797 120.78 83.0742 121.68 82.907C122.577 82.7284 123.505 82.9108 124.269 83.2833C125.036 83.6557 125.682 84.1878 126.184 84.8339C126.222 84.8833 126.214 84.9518 126.165 84.9898C126.131 85.0164 126.089 85.0202 126.051 85.005C125.318 84.6857 124.626 84.3741 123.927 84.1916C123.235 84.0016 122.547 83.937 121.905 84.0662C121.258 84.1878 120.647 84.4919 120.073 84.9252C119.499 85.3546 118.97 85.9019 118.461 86.4948L118.454 86.5024C118.416 86.548 118.343 86.5556 118.298 86.5138C118.267 86.4872 118.252 86.4454 118.26 86.4074Z" fill="#300606"/>
</g>
<path d="M108.366 110.135L108.039 103.879L97.7503 100.918C97.7503 100.918 100.472 107.596 108.366 110.135Z" fill="#300606"/>
<path d="M119.695 93.887C119.695 93.887 117.072 94.5597 113.051 94.6243C113.051 94.6243 113.211 99.2535 116.886 98.8886C119.645 98.615 119.695 93.887 119.695 93.887Z" fill="#300606"/>
<path d="M112.531 87.0688C111.725 86.6774 110.935 86.3581 110.152 86.1643C109.365 85.9704 108.59 85.9096 107.837 86.0274L107.693 86.0388L107.552 86.0731L107.275 86.1415L106.994 86.2023L106.72 86.3087C106.537 86.3809 106.347 86.4303 106.165 86.5177C105.986 86.6127 105.808 86.7002 105.622 86.7876C105.428 86.8636 105.264 86.989 105.082 87.0954L104.535 87.4223C104.181 87.6693 103.835 87.9354 103.432 88.1672L103.421 88.1748C103.368 88.2052 103.299 88.1862 103.269 88.133C103.25 88.0988 103.25 88.0608 103.269 88.0266C103.47 87.6123 103.717 87.217 103.98 86.8294L104.451 86.3049C104.611 86.1301 104.77 85.9514 104.968 85.8146C105.158 85.6664 105.352 85.522 105.553 85.3813C105.751 85.2407 105.986 85.1495 106.207 85.0355L106.545 84.8796L106.906 84.7732L107.271 84.6744L107.453 84.6288L107.643 84.606C108.647 84.4502 109.684 84.6402 110.559 85.0621C111.429 85.4954 112.185 86.1111 112.687 86.9168C112.721 86.97 112.702 87.0384 112.653 87.0688C112.618 87.0878 112.58 87.0916 112.546 87.0764H112.535L112.531 87.0688Z" fill="#300606"/>
<path d="M109.43 81.1662C109.035 81.2004 108.469 81.246 107.978 81.322C107.469 81.3942 106.956 81.4816 106.447 81.6071C105.934 81.7287 105.424 81.8769 104.9 82.0289C104.368 82.1696 103.84 82.3482 103.235 82.4698H103.22C103.072 82.5002 102.931 82.4052 102.901 82.2608C102.886 82.1886 102.901 82.1201 102.939 82.0631C103.277 81.5272 103.71 81.075 104.204 80.6987C104.691 80.3034 105.246 80.0222 105.816 79.76C106.39 79.5053 106.994 79.3191 107.614 79.1937C108.252 79.0796 108.837 79.0074 109.59 79.091C110.16 79.1556 110.57 79.6687 110.506 80.235C110.449 80.7367 110.05 81.113 109.567 81.1548L109.43 81.1662Z" fill="#300606"/>
<mask id="mask10_1_700" style="mask-type:luminance" maskUnits="userSpaceOnUse" x="115" y="75" width="7" height="7">
<path d="M119.499 75.7845C119.499 75.7845 120.894 78.198 121.513 81.094C121.513 81.094 116.766 81.6033 115.976 79.5662C115.976 79.5662 117.101 76.7233 119.499 75.7845Z" fill="white"/>
</mask>
<g mask="url(#mask10_1_700)">
<path d="M117.59 78.3766C118.096 78.1334 118.502 78.046 118.974 77.9814C119.434 77.9282 119.897 77.9358 120.353 78.0042C120.809 78.0726 121.262 78.1828 121.676 78.4032C122.09 78.6085 122.459 78.9087 122.733 79.3002C122.824 79.4294 122.793 79.6118 122.66 79.703C122.622 79.7297 122.581 79.7449 122.539 79.7525H122.512C122.06 79.8285 121.691 79.8285 121.326 79.8665C120.965 79.8969 120.631 79.9083 120.293 79.9539C119.958 79.9957 119.627 80.0489 119.301 80.1173C118.989 80.1705 118.62 80.2731 118.381 80.3036L118.183 80.3302C117.617 80.41 117.096 80.0185 117.013 79.4522C116.948 78.9961 117.195 78.5667 117.587 78.3766H117.59Z" fill="#300606"/>
</g>
<path d="M113.538 96.7717C113.538 96.7717 117.183 96.175 118.24 98.2616C118.24 98.2616 117.54 99.2953 115.416 98.7404C115.416 98.7404 114.074 98.3338 113.538 96.7717Z" fill="#D35742"/>
<path d="M88.7199 84.8641C88.7199 84.8641 95.7739 85.4912 96.1919 80.1551C96.8114 72.208 114.579 79.1859 113.557 73.5876C113.557 73.5876 116.13 75.4157 118.289 74.8038C118.608 74.7126 118.946 74.838 119.106 75.1269C119.687 76.1834 120.964 78.6843 121.512 81.0977C121.512 81.0977 120.987 76.9018 120.953 75.0357C120.953 75.0357 126.453 70.0682 122.401 64.7169C118.35 59.3656 114.488 59.5937 110.935 62.733C110.935 62.733 110.433 59.1794 102.858 59.5595C95.3444 59.9357 97.0661 66.1004 88.3968 68.0083C82.3766 69.3347 86.7968 76.8752 87.0134 84.2408C87.0134 84.2408 88.0016 84.4498 88.7237 84.8717L88.7199 84.8641Z" fill="#6D2C25"/>
<path d="M86.7359 93.5791L86.6523 97.1213" stroke="#300606" stroke-width="0.75" stroke-linecap="round" stroke-linejoin="round"/>
<path d="M87.5881 96.9616C87.5767 97.4747 87.1472 97.8813 86.6341 97.8699C86.1211 97.8585 85.7144 97.4291 85.7258 96.916C85.7372 96.4029 86.1667 95.9962 86.6798 96.0076C87.1928 96.019 87.5995 96.4485 87.5881 96.9616Z" fill="#300606"/>
<path d="M86.2854 114.441C86.2854 114.441 75.2407 116.767 64.4507 122.468C53.6607 128.169 50.7988 129.894 50.7988 129.894C50.7988 129.894 57.2713 146.917 55.0935 154.176L72.6145 152.082C72.6145 152.082 62.5998 183.871 60.3726 191.327C58.1454 198.784 68.5326 193.403 95.4753 195.44C118.792 197.203 122.806 197.956 122.783 191.126C122.756 184.296 118.462 148.034 118.462 148.034L145.366 157.145C145.366 157.145 147.905 145.226 149.6 135.428C149.6 135.428 137.518 124.546 127.283 117.907C127.283 117.907 120.491 114.752 108.527 113.483L100.648 128.663L86.2892 114.437L86.2854 114.441Z" fill="#FFC054"/>
<path d="M50.7988 129.894C50.7988 129.894 56.3591 145.062 55.409 152.671" stroke="#300606" stroke-width="0.75" stroke-linecap="round" stroke-linejoin="round"/>
<path d="M107.584 115.292L102.218 125.63" stroke="#300606" stroke-width="0.75" stroke-linecap="round" stroke-linejoin="round"/>
<path d="M86.2854 114.441L97.4593 125.516" stroke="#300606" stroke-width="0.75" stroke-linecap="round" stroke-linejoin="round"/>
<path d="M77.1829 117.048L88.6419 120.734L84.2255 125.196C84.2255 125.196 93.1646 125.443 98.7212 128.621" stroke="#300606" stroke-width="0.75" stroke-linecap="round" stroke-linejoin="round"/>
<path d="M93.8449 195.402L100.64 128.666C105.927 126.413 112.852 125.212 112.852 125.212L108.135 119.788L116.706 114.756" stroke="#300606" stroke-width="0.75" stroke-linecap="round" stroke-linejoin="round"/>
<path d="M56.3558 126.777C56.3558 126.777 66.3401 121.567 71.7826 119.066" stroke="#300606" stroke-width="0.75" stroke-linecap="round" stroke-linejoin="round"/>
<path d="M116.892 136.739L121.476 175.22" stroke="#300606" stroke-width="0.75" stroke-linecap="round" stroke-linejoin="round"/>
<path d="M69.0874 163.298L77.8479 134.743" stroke="#300606" stroke-width="0.75" stroke-linecap="round" stroke-linejoin="round"/>
<path d="M102.86 145.123C102.852 145.461 102.571 145.727 102.233 145.72C101.894 145.712 101.628 145.431 101.636 145.093C101.643 144.754 101.925 144.488 102.263 144.496C102.601 144.503 102.867 144.785 102.86 145.123Z" fill="#300606"/>
<path d="M101.959 157.076C101.952 157.414 101.67 157.68 101.332 157.673C100.994 157.665 100.728 157.384 100.735 157.045C100.743 156.707 101.024 156.441 101.363 156.449C101.701 156.456 101.967 156.738 101.959 157.076Z" fill="#300606"/>
<path d="M101.074 168.326C101.066 168.664 100.785 168.93 100.447 168.923C100.108 168.915 99.8424 168.634 99.85 168.296C99.8576 167.957 100.139 167.691 100.477 167.699C100.815 167.706 101.081 167.988 101.074 168.326Z" fill="#300606"/>
<path d="M100.195 179.397C100.188 179.735 99.9063 180.001 99.568 179.994C99.2298 179.986 98.9637 179.705 98.9713 179.367C98.9789 179.028 99.2602 178.762 99.5984 178.77C99.9367 178.778 100.203 179.059 100.195 179.397Z" fill="#300606"/>
<path d="M149.684 134.933L144.321 162.731" stroke="#300606" stroke-width="0.75" stroke-linecap="round" stroke-linejoin="round"/>
<path d="M125.033 150.265L142.448 156.16" stroke="#300606" stroke-width="0.75" stroke-linecap="round" stroke-linejoin="round"/>
<path d="M138.099 125.246C138.099 125.246 134.716 128.792 132.774 125.078C132.774 125.078 131.105 126.279 129.825 125.356C128.544 124.429 128.301 123.82 128.301 123.82C128.301 123.82 125.735 125.55 124.507 124.463C123.284 123.376 123.953 121.593 123.953 121.593C123.953 121.593 121.486 122.049 121.513 119.796C121.539 117.542 123.39 116.607 124.45 115.828C125.515 115.049 130.448 113.103 130.55 115.626C130.55 115.626 133.827 115.25 133.553 118.207C133.553 118.207 138.213 118.18 137.323 121.346C137.323 121.346 138.422 121.46 139.14 122.616C139.858 123.771 138.479 124.953 138.099 125.249V125.246Z" fill="#6D2C25"/>
<path d="M138.099 125.246C138.099 125.246 134.716 128.792 132.774 125.078C132.774 125.078 131.105 126.279 129.825 125.356C128.544 124.429 128.301 123.82 128.301 123.82C128.301 123.82 125.735 125.55 124.507 124.463C123.284 123.376 123.953 121.593 123.953 121.593C123.953 121.593 121.486 122.049 121.513 119.796C121.539 117.542 123.39 116.607 124.45 115.828" stroke="#300606" stroke-width="0.75" stroke-linecap="round" stroke-linejoin="round"/>
<path d="M132.774 125.079L136.358 121.932" stroke="#300606" stroke-width="0.75" stroke-linecap="round" stroke-linejoin="round"/>
<path d="M128.301 123.817L132.77 119.609" stroke="#300606" stroke-width="0.75" stroke-linecap="round" stroke-linejoin="round"/>
<path d="M123.952 121.59L129.486 117.208" stroke="#300606" stroke-width="0.75" stroke-linecap="round" stroke-linejoin="round"/>
<path d="M24.5624 168.287C24.5624 168.287 34.9799 188.336 45.3405 192.733C55.701 197.134 83.8333 165.414 83.8333 165.414C83.8333 165.414 80.0327 158.645 75.6202 156.562C75.6202 156.562 73.2942 159.937 68.798 162.579C63.1807 165.878 57.9092 166.402 53.014 170.845C53.014 170.845 48.6622 161.032 43.7328 153.868C43.7328 153.868 33.0416 160.044 24.5624 168.287Z" fill="#6D2C25"/>
<path d="M34.9837 135.823C36.7358 141.219 39.9094 148.79 44.8806 153.195C44.8806 153.195 32.5209 160.093 23.0764 169.99C23.0764 169.99 15.6233 154.62 13.1187 143.975C11.4198 136.75 13.9434 129.605 20.7352 127.834C26.8048 126.253 33.0492 129.856 34.9837 135.819V135.823Z" fill="#D7B6EF"/>
<path d="M39.3502 156.639C34.8958 159.607 28.5031 164.305 23.0758 169.994C23.0758 169.994 18.6747 160.922 15.5012 151.892" stroke="#300606" stroke-width="0.75" stroke-linecap="round" stroke-linejoin="round"/>
<path d="M13.1187 143.979C11.4198 136.754 13.9435 129.608 20.7352 127.837C26.8048 126.256 33.0493 129.859 34.9838 135.822C36.7359 141.219 42.5661 146.707 44.8806 153.195" stroke="#300606" stroke-width="0.75" stroke-linecap="round" stroke-linejoin="round"/>
<path d="M75.246 158.699C75.246 158.699 74.9496 150.656 77.9939 147.578C79.2557 146.305 81.0078 144.252 82.0834 144.994C84.0027 146.312 81.365 147.852 81.5893 149.763C81.6197 150.033 81.8705 150.204 82.0796 150.029C84.987 147.559 87.9477 143.192 87.9477 143.192C87.9477 143.192 89.5402 139.445 91.9004 140.919C94.101 142.295 89.0461 146.898 88.7687 147.502C88.7687 147.502 93.4587 139.775 95.6326 142.044C97.2099 143.69 92.3299 149.577 91.4747 150.463C94.2682 142.337 96.6284 145.488 96.6284 145.488C97.5938 146.989 96.3053 149.444 95.5756 149.991C95.7542 149.991 96.1267 147.76 97.3961 149.49C98.9164 151.561 93.9794 157.528 92.0942 159.805C88.3658 164.308 83.2654 165.536 83.2654 165.536L80.107 167.775L73.9044 161.264L75.246 158.695V158.699Z" fill="#6D2C25"/>
<path d="M92.197 143.082C92.197 143.082 89.6126 148.791 85.8766 152.443" stroke="#300606" stroke-width="0.75" stroke-linecap="round" stroke-linejoin="round"/>
<path d="M95.6324 144.811C95.6324 144.811 92.5234 151.618 88.7874 155.27" stroke="#300606" stroke-width="0.75" stroke-linecap="round" stroke-linejoin="round"/>
<path d="M96.4652 148.863C96.4652 148.863 94.4774 153.545 90.9238 157.296" stroke="#300606" stroke-width="0.75" stroke-linecap="round" stroke-linejoin="round"/>
</g>
</svg>
