<svg width="295" height="269" viewBox="0 0 295 269" fill="none" xmlns="http://www.w3.org/2000/svg">
<rect width="295" height="269" fill="white"/>
<g clip-path="url(#clip0_1_564)">
<path d="M295 223.225H5V225H295V223.225Z" fill="#2B0D06"/>
<path d="M59.6308 86.5778C57.3406 85.9788 55.9603 83.6049 56.5568 81.3052L59.0996 71.5381C59.6961 69.2384 62.0604 67.8525 64.3506 68.4515C66.6409 69.0504 68.0211 71.4244 67.4246 73.7241L64.8818 83.4912C64.2853 85.7909 61.9211 87.1768 59.6308 86.5778Z" fill="#FFA68F"/>
<path d="M62.8441 75.5166C61.2418 75.0969 59.8485 74.2181 58.7165 73.0115C58.7165 73.0115 60.4973 80.5619 65.0865 82.7042L66.95 75.5516C65.5959 75.8664 64.207 75.8751 62.8441 75.5166Z" fill="#EA735A"/>
<path d="M78.1575 67.8831C77.8135 69.1991 76.6074 70.0254 75.4667 69.7237C74.3215 69.4221 73.6728 68.1105 74.0167 66.7945C74.3607 65.4785 75.5668 64.6522 76.7076 64.9539C77.8527 65.2556 78.5015 66.5672 78.1575 67.8831Z" fill="#EA735A"/>
<path d="M52.7339 61.2114C52.39 62.5274 53.0387 63.839 54.1839 64.1407C55.329 64.4423 56.5307 63.616 56.8747 62.3001C57.2187 60.9841 56.5699 59.6725 55.4248 59.3708C54.2796 59.0691 53.0779 59.8955 52.7339 61.2114Z" fill="#FFA68F"/>
<path d="M76.455 66.0425C76.4986 65.9944 76.5639 65.9944 76.6031 66.0425C76.6423 66.0862 76.6423 66.1606 76.6031 66.2043C76.5944 66.213 75.8629 67.0218 75.8803 67.9443C75.8847 68.2241 75.9717 68.4865 76.1154 68.7357C76.6815 68.1498 76.2548 67.4241 76.233 67.3891C76.2025 67.3366 76.2156 67.2667 76.2635 67.2273C76.3114 67.1923 76.3767 67.2011 76.4115 67.2536C76.4159 67.2623 76.9645 68.1935 76.233 68.9193C76.3157 69.0242 76.4071 69.1291 76.516 69.2297C76.5595 69.269 76.5639 69.3434 76.5247 69.3915C76.4986 69.4264 76.455 69.4439 76.4159 69.4308C76.4028 69.4308 76.3854 69.4177 76.3767 69.409C75.9151 68.9936 75.6757 68.5083 75.667 67.9574C75.6452 66.9344 76.4202 66.0775 76.455 66.0381V66.0425Z" fill="#310B02"/>
<path d="M55.1156 60.4376C55.1026 60.3764 55.0416 60.3414 54.985 60.3589C54.9284 60.3764 54.8936 60.4419 54.9066 60.5031C54.9066 60.5119 55.1548 61.583 54.6889 62.3787C54.5452 62.6192 54.3449 62.8072 54.1011 62.9515C53.8965 62.1645 54.6193 61.7361 54.6541 61.7186C54.7063 61.688 54.7281 61.618 54.7063 61.5612C54.6802 61.5043 54.6192 61.4825 54.567 61.5131C54.5583 61.5175 53.6265 62.0596 53.9139 63.052C53.792 63.1045 53.657 63.1482 53.5133 63.1832C53.4567 63.1963 53.4175 63.2575 53.4262 63.3187C53.4349 63.3624 53.4654 63.3974 53.5002 63.4062C53.5133 63.4062 53.5307 63.4105 53.5481 63.4062C54.149 63.2706 54.5975 62.9646 54.8761 62.4924C55.3943 61.6093 55.133 60.4813 55.1243 60.4332L55.1156 60.4376Z" fill="#310B02"/>
<path d="M76.5757 65.4427C78.4404 58.2803 75.2973 51.2521 69.5555 49.745C63.8136 48.2378 57.6473 52.8223 55.7827 59.9848C53.918 67.1472 57.061 74.1754 62.8029 75.6825C68.5447 77.1897 74.711 72.6052 76.5757 65.4427Z" fill="#FFA68F"/>
<path d="M69.4058 68.0361C69.5494 67.4765 69.2664 66.9169 68.7657 66.7857C68.265 66.6546 67.7425 67 67.5988 67.5596L69.4101 68.0361H69.4058Z" fill="#EA735A"/>
<path d="M67.9863 67.1355C67.9602 67.1267 67.9384 67.1093 67.921 67.083C67.8905 67.0306 67.9123 66.9562 67.9602 66.9256C68.2084 66.7639 68.4958 66.7114 68.7657 66.7814H68.7701C69.04 66.8513 69.2621 67.0306 69.3971 67.2885C69.4275 67.341 69.4058 67.4153 69.3535 67.4459C69.3013 67.4809 69.236 67.4634 69.2098 67.4066C69.101 67.2011 68.9225 67.0655 68.7048 67C68.4871 66.9431 68.2606 66.9868 68.0604 67.1136C68.0342 67.1311 68.0037 67.1355 67.9776 67.1267L67.9863 67.1355Z" fill="#310B02"/>
<path d="M64.6903 64.4905C64.564 64.9845 64.2549 65.3299 64.011 65.2643C63.7629 65.1987 63.6671 64.7484 63.7933 64.2544C63.9196 63.7603 64.2244 63.4149 64.4726 63.4805C64.7208 63.5461 64.8165 63.9964 64.6903 64.4905Z" fill="#310B02"/>
<path d="M73.9123 66.9125C73.786 67.4066 73.4768 67.752 73.233 67.6864C72.9848 67.6208 72.889 67.1705 73.0153 66.6765C73.1416 66.1824 73.4464 65.837 73.6946 65.9026C73.9427 65.9682 74.0385 66.4185 73.9123 66.9125Z" fill="#310B02"/>
<path d="M65.0952 67.5552C64.9036 68.2897 63.8935 68.657 62.8311 68.3815C61.7687 68.1061 61.0677 67.2842 61.2593 66.5497C61.4508 65.8152 62.4653 65.4479 63.5234 65.7233C64.5814 65.9988 65.2868 66.8207 65.0952 67.5552Z" fill="#FF8F7F"/>
<path d="M74.9572 70.1434C74.7656 70.8779 73.7555 71.2452 72.6931 70.9698C71.635 70.6899 70.9297 69.8724 71.1213 69.1379C71.3128 68.4034 72.323 68.0361 73.3854 68.3116C74.4434 68.5914 75.1488 69.4089 74.9572 70.1434Z" fill="#FF8F7F"/>
<path d="M63.162 62.2826C63.1054 62.2695 63.0575 62.2301 63.0314 62.1689C62.9791 62.0552 63.0227 61.9153 63.1315 61.8541C65.0081 60.7742 65.9225 62.5842 65.9312 62.6017C65.9835 62.711 65.9443 62.8509 65.8398 62.9165C65.7353 62.9821 65.609 62.9427 65.5524 62.8334C65.5219 62.7722 64.8166 61.3907 63.3144 62.2607C63.2665 62.2869 63.2142 62.2957 63.162 62.2826Z" fill="#2B0D06"/>
<path d="M72.6409 64.7746C72.5842 64.7615 72.5364 64.7221 72.5102 64.6609C72.458 64.5473 72.5015 64.4074 72.6104 64.3462C74.487 63.2663 75.4013 65.0763 75.4101 65.0938C75.4623 65.2031 75.4231 65.343 75.3186 65.4086C75.2141 65.4741 75.0878 65.4348 75.0312 65.3255C75.0008 65.2643 74.2954 63.8827 72.7932 64.7527C72.7453 64.779 72.6931 64.7877 72.6409 64.7746Z" fill="#2B0D06"/>
<path d="M70.2243 69.9773C70.2243 69.9773 67.7294 71.455 65.757 68.8056L70.2243 69.9773Z" fill="white"/>
<path d="M80.918 50.347C79.8904 50.1765 78.8846 50.2377 77.9311 50.4869C77.487 50.5306 77.0515 50.6224 76.6336 50.7667C76.6205 48.5107 75.68 46.3684 73.3462 45.4197C70.5596 44.2874 67.8513 45.564 66.2229 47.75C64.9385 46.1804 62.8528 45.3192 60.7455 45.9487C59.2215 46.4078 57.9066 47.5358 57.2665 49.0004C56.8877 49.8704 56.7963 50.7623 56.8616 51.6542C56.8355 51.7897 56.8224 51.9296 56.8137 52.0739C56.1214 51.934 55.3899 51.9865 54.7063 52.2094C54.1969 52.2925 53.7093 52.5417 53.3392 52.9133C53.3217 52.9308 53.3087 52.9527 53.2913 52.9702C53.2042 53.0401 53.1127 53.1145 53.03 53.1888C51.4321 54.6578 51.1403 57.1979 51.911 59.1522C52.0547 59.5194 52.7339 59.9829 52.9386 60.3195C53.3696 59.7861 53.5612 59.3271 54.3058 59.3315C55.3725 59.3315 56.3827 60.0222 56.9008 60.9404C57.297 61.6355 57.3972 62.3962 57.3449 63.1701C59.2433 63.2051 61.0546 62.2826 62.3173 60.8354C63.1663 59.8605 63.789 58.7237 64.1634 57.4821C64.2287 57.2679 64.2853 57.0493 64.3376 56.8263C67.0937 57.3466 68.9312 56.3148 69.9805 55.3704C69.8281 56.459 69.9021 57.6045 70.0632 58.6144C70.3245 60.2583 71.0734 61.7973 72.1793 63.0345C73.7337 64.7659 75.9369 65.7015 78.1488 65.5747C78.5537 65.6665 78.9848 65.6971 79.4115 65.6577C81.7627 65.4566 83.8788 64.0445 85.0457 61.994C87.3403 57.9499 86.1429 51.2126 80.918 50.3426V50.347Z" fill="#2B0D06"/>
<path d="M35.2218 198.143L32.9446 212.579C32.9446 212.579 35.3132 216.632 39.7108 214.621L44.7485 200.442L35.2218 198.138V198.143Z" fill="#FFA68F"/>
<path d="M40.8908 212.041C40.8908 212.041 45.1839 216.409 47.0736 217.196C48.9633 217.983 51.7847 219.369 51.628 221.485L30.2102 215.862L32.9097 210.293C32.9097 210.293 36.5323 214.105 38.8923 212.885C38.8923 212.885 39.6325 211.346 40.8908 212.041Z" fill="#4252D4"/>
<path d="M38.496 218.027C38.496 218.027 38.4525 218.027 38.4307 218.018C38.3262 217.983 38.2696 217.869 38.3045 217.764C38.5701 216.964 39.049 216.392 39.7283 216.064C40.6513 215.618 41.7268 215.714 42.4191 215.854L39.2928 212.535C39.2188 212.457 39.2188 212.326 39.3016 212.251C39.3799 212.173 39.5105 212.177 39.5846 212.26L43.1941 216.094C43.2594 216.16 43.2681 216.265 43.2159 216.343C43.1636 216.422 43.0678 216.453 42.9808 216.422C42.9633 216.413 41.2086 215.793 39.9024 216.426C39.3233 216.706 38.914 217.2 38.6833 217.891C38.6571 217.974 38.5788 218.027 38.4917 218.027H38.496Z" fill="#471006"/>
<path d="M51.6237 221.485C51.7281 220.09 50.5308 219.01 49.1636 218.21C49.1113 218.289 49.0852 218.341 49.0896 218.346C49.0896 218.346 47.5613 218.202 47.1607 220.309L51.6237 221.481V221.485Z" fill="#FCD87A"/>
<path d="M29.4352 217.091L51.7499 222.95C52.1331 223.05 52.5293 222.818 52.6294 222.434C52.7296 222.049 52.4988 221.651 52.1157 221.55L29.8009 215.692C29.4178 215.591 29.0215 215.823 28.9214 216.208C28.8213 216.593 29.052 216.99 29.4352 217.091Z" fill="#471006"/>
<path d="M70.0414 202.663L74.3825 216.615C74.3825 216.615 78.2968 219.19 81.349 215.425L79.5943 200.477L70.0414 202.659V202.663Z" fill="#FFA68F"/>
<path d="M81.2663 212.592C81.2663 212.592 87.0442 214.59 89.0863 214.455C91.1283 214.315 94.2676 214.306 95.0601 216.269L73.3854 220.781L73.3419 214.586C73.3419 214.586 78.2707 216.387 79.8469 214.245C79.8469 214.245 79.8295 212.535 81.2663 212.601V212.592Z" fill="#4252D4"/>
<path d="M81.7627 219.023C81.7627 219.023 81.7235 219.041 81.7017 219.041C81.5928 219.054 81.4927 218.98 81.4753 218.87C81.3621 218.035 81.5362 217.31 81.9978 216.711C82.6248 215.897 83.6349 215.504 84.3142 215.325L80.0471 213.746C79.9426 213.707 79.8904 213.593 79.9296 213.488C79.9688 213.384 80.082 213.331 80.1865 213.37L85.1153 215.194C85.2024 215.224 85.2546 215.312 85.2459 215.408C85.2372 215.5 85.1632 215.574 85.0718 215.583C85.0543 215.583 83.2039 215.81 82.3156 216.96C81.9238 217.471 81.7714 218.097 81.8715 218.818C81.8846 218.905 81.8367 218.988 81.7627 219.023Z" fill="#471006"/>
<path d="M95.06 216.265C94.5376 214.966 92.9875 214.533 91.4113 214.428C91.4026 214.525 91.3983 214.581 91.4026 214.586C91.4026 214.586 89.9701 215.141 90.5405 217.205L95.06 216.265Z" fill="#FCD87A"/>
<path d="M73.233 222.219L95.8177 217.519C96.2052 217.441 96.4577 217.052 96.3793 216.663C96.301 216.273 95.9135 216.02 95.526 216.099L72.9413 220.798C72.5538 220.877 72.3012 221.266 72.3796 221.655C72.458 222.044 72.8455 222.298 73.233 222.219Z" fill="#471006"/>
<path d="M85.6335 104.459C85.7336 105.05 90.9411 119.359 89.7611 122.218C88.5812 125.082 75.2228 137.131 75.2228 137.131L74.1822 128.204C74.1822 128.204 79.4855 122.057 79.7816 119.394C80.0776 116.732 77.77 110.576 77.77 110.576L85.6335 104.459Z" fill="#FF957E"/>
<path d="M42.8327 130.739L44.0432 106.444L30.0099 101.587C30.0099 101.587 37.6644 79.023 56.657 79.5083C56.657 79.5083 59.387 84.4486 65.5611 79.8231C65.5611 79.8231 83.6045 80.8155 87.3533 103.773L75.9804 111.791L74.5305 131.47L42.8327 130.739Z" fill="#FCD87A"/>
<path d="M44.0432 106.807C43.9953 106.807 43.9474 106.798 43.8995 106.776C43.7166 106.698 43.6339 106.484 43.7122 106.3L49.1113 93.8528C49.1897 93.6692 49.403 93.5818 49.5859 93.6648C49.7688 93.7435 49.8515 93.9577 49.7731 94.1414L44.3741 106.588C44.3131 106.724 44.1825 106.807 44.0432 106.807Z" fill="#471006"/>
<path d="M75.9804 112.154C75.7801 112.154 75.619 111.992 75.619 111.796L75.5102 95.947C75.5102 95.7459 75.6713 95.5841 75.8672 95.5798C76.0632 95.5666 76.2286 95.7415 76.233 95.9383L76.3418 111.787C76.3418 111.988 76.1807 112.15 75.9848 112.154H75.9804Z" fill="#471006"/>
<path d="M90.027 103.554L85.634 97.5883C85.0779 96.8331 84.0173 96.6736 83.2651 97.232L69.5448 107.419C68.7927 107.977 68.6338 109.042 69.1899 109.797L73.583 115.763C74.1391 116.518 75.1997 116.678 75.9518 116.119L89.6721 105.933C90.4243 105.374 90.5832 104.309 90.027 103.554Z" fill="#2B0D06"/>
<path d="M82.7946 107.73C81.4187 108.753 79.4768 108.46 78.4579 107.078C77.4391 105.697 77.7308 103.747 79.1067 102.724C80.4826 101.701 82.4245 101.994 83.4434 103.375C84.4622 104.757 84.1705 106.707 82.7946 107.73Z" fill="white"/>
<path d="M85.0283 102.483L82.886 99.5714C82.6466 99.2479 82.7162 98.7845 83.0384 98.544C83.3606 98.3036 83.8222 98.3735 84.0617 98.697L86.2039 101.609C86.4433 101.932 86.3737 102.396 86.0515 102.636C85.7293 102.877 85.2677 102.807 85.0283 102.483Z" fill="white"/>
<path d="M32.5658 101.696L29.4308 115.625C29.4308 115.625 28.904 126.42 42.393 122.022L64.8949 116.95L63.924 111.599L39.7805 112.351L42.4234 106.025L32.5614 101.696H32.5658Z" fill="#FFA68F"/>
<path d="M63.014 117.409C63.014 117.409 66.876 116.369 67.8949 116.504C70.6554 116.871 75.5102 117.466 82.2939 114.668C82.2939 114.668 85.0021 112.631 84.7191 111.24C84.4361 109.85 82.9601 109.29 82.9601 109.29L73.2243 109.649C73.2243 109.649 73.516 108.403 74.13 108.106C74.7482 107.808 75.6495 106.65 75.3752 105.885C75.3752 105.885 68.2258 108.438 67.7381 109.238C67.2548 110.038 67.0981 110.829 65.757 111.057C64.4116 111.284 62.3129 111.546 62.3129 111.546C62.3129 111.546 58.969 114.913 63.0096 117.409H63.014Z" fill="#FFA68F"/>
<path d="M76.8251 114.891C76.8382 114.965 76.9035 115.013 76.9775 115.005C82.9688 114.292 83.0166 114.248 83.0602 114.213C83.1168 114.161 83.1211 114.073 83.0689 114.017C83.0297 113.973 82.9644 113.96 82.9121 113.982C82.6683 114.038 79.2199 114.458 76.9427 114.734C76.8643 114.742 76.8121 114.812 76.8208 114.891C76.8208 114.891 76.8208 114.895 76.8208 114.9L76.8251 114.891Z" fill="#EA735A"/>
<path d="M76.9035 113.23C76.9166 113.304 76.9862 113.356 77.0603 113.343C84.6407 112.333 84.6451 112.32 84.6886 112.224C84.7191 112.154 84.6886 112.071 84.619 112.04C84.5841 112.023 84.5449 112.023 84.5145 112.04C84.2489 112.102 79.9035 112.687 77.0254 113.072C76.9514 113.081 76.8948 113.151 76.9079 113.23C76.9079 113.23 76.9079 113.23 76.9079 113.234L76.9035 113.23Z" fill="#EA735A"/>
<path d="M76.2548 111.511C76.2678 111.586 76.3375 111.638 76.4115 111.625L84.3708 110.532C84.4492 110.523 84.5014 110.449 84.4883 110.375C84.4796 110.296 84.4056 110.244 84.3316 110.257L76.3723 111.35C76.2983 111.358 76.2417 111.433 76.2548 111.507C76.2548 111.507 76.2548 111.507 76.2548 111.511Z" fill="#EA735A"/>
<path d="M74.5305 131.47L83.1647 209.243L70.0981 211.429L58.9646 147.55L43.9561 209.807L30.6456 206.891L42.8327 130.74L74.5305 131.47Z" fill="#3C4875"/>
<path d="M47.4394 176.077L39.3408 174.604C38.3306 174.42 37.6557 173.441 37.8386 172.431C38.0215 171.417 38.9968 170.739 40.0026 170.923L48.1012 172.396C49.1113 172.58 49.7862 173.559 49.6034 174.569C49.4205 175.583 48.4452 176.261 47.4394 176.077Z" fill="#FFA68F"/>
<path d="M76.3114 174.958L68.1561 176.055C67.1416 176.191 66.1968 175.47 66.0618 174.451C65.9269 173.432 66.6453 172.483 67.6598 172.348L75.815 171.251C76.8295 171.115 77.7743 171.836 77.9093 172.855C78.0443 173.874 77.3259 174.822 76.3114 174.958Z" fill="#FFA68F"/>
<path d="M58.9647 147.948C58.7426 147.948 58.5641 147.768 58.5641 147.545V135.05C58.5641 134.906 58.6381 134.775 58.7644 134.705C58.8863 134.635 59.0387 134.635 59.165 134.705C59.3043 134.784 62.5829 136.624 64.1896 133.949C64.3028 133.761 64.5466 133.695 64.7382 133.813C64.9254 133.927 64.9864 134.176 64.8732 134.364C63.4624 136.712 60.9197 136.371 59.3609 135.702V147.55C59.3609 147.773 59.1824 147.952 58.9603 147.952L58.9647 147.948Z" fill="#471006"/>
<path d="M132.17 73.7547H95.047C92.4346 73.7547 90.2967 75.9014 90.2967 78.5246C90.2967 81.1478 92.4346 83.2944 95.047 83.2944H95.8612L97.6333 90.7181L100.677 83.2944H132.166C134.778 83.2944 136.916 81.1478 136.916 78.5246C136.916 75.9014 134.778 73.7547 132.166 73.7547H132.17Z" fill="#6A0DAD"/>
<path d="M99.2487 78.3715C99.2487 79.6788 98.195 80.7368 96.8888 80.7368C95.5826 80.7368 94.5332 79.6788 94.5332 78.3715C94.5332 77.0643 95.5869 76.0063 96.8888 76.0063C98.1907 76.0063 99.2487 77.0643 99.2487 78.3715Z" fill="white"/>
<path d="M132.07 78.3715C132.07 79.6788 131.016 80.7368 129.71 80.7368C128.404 80.7368 127.354 79.6788 127.354 78.3715C127.354 77.0643 128.408 76.0063 129.71 76.0063C131.012 76.0063 132.07 77.0643 132.07 78.3715Z" fill="white"/>
<path d="M120.418 78.3715C120.418 79.6788 119.365 80.7368 118.063 80.7368C116.761 80.7368 115.707 79.6788 115.707 78.3715C115.707 77.0643 116.761 76.0063 118.063 76.0063C119.365 76.0063 120.418 77.0643 120.418 78.3715Z" fill="white"/>
<path d="M109.337 78.3715C109.337 79.6788 108.283 80.7368 106.982 80.7368C105.68 80.7368 104.626 79.6788 104.626 78.3715C104.626 77.0643 105.68 76.0063 106.982 76.0063C108.283 76.0063 109.337 77.0643 109.337 78.3715Z" fill="white"/>
<path d="M192.026 194.383C191.068 220.903 173.338 223.614 150.514 223.614C127.69 223.614 107.722 224.742 109.189 194.466C109.968 178.386 127.69 165.318 150.514 165.318C173.338 165.318 192.605 178.294 192.026 194.383Z" fill="#AA6E2D"/>
<path d="M183.792 204.062C176.821 203.109 169.75 203.284 162.814 204.438C155.913 205.584 149.177 207.709 142.864 210.725C139.298 212.431 135.897 214.42 132.719 216.776C132.392 217.017 132.797 217.576 133.141 217.353C138.971 213.563 145.154 210.371 151.759 208.177C158.325 205.995 165.17 204.736 172.08 204.43C175.981 204.255 179.895 204.382 183.779 204.797C184.254 204.849 184.262 204.119 183.801 204.058L183.792 204.062Z" fill="#471006"/>
<path d="M148.607 208.102C146.835 206.524 144.779 205.23 142.75 204.01C140.717 202.79 138.614 201.684 136.459 200.705C132.096 198.724 127.363 196.989 122.574 196.499C119.822 196.219 116.992 196.403 114.405 197.435C113.804 197.675 114.188 198.576 114.793 198.361C119.399 196.696 124.359 197.504 128.918 198.921C133.311 200.285 137.543 202.156 141.54 204.447C143.822 205.754 145.933 207.293 148.141 208.714C148.559 208.985 148.99 208.434 148.615 208.098L148.607 208.102Z" fill="#471006"/>
<path d="M165.649 144.481C167.978 144.909 170.229 143.344 170.651 141.005L172.458 131.072C172.885 128.733 171.326 126.472 168.997 126.048C166.667 125.62 164.416 127.185 163.994 129.524L162.187 139.457C161.76 141.796 163.319 144.057 165.649 144.481Z" fill="#FFD199"/>
<path d="M167.39 133.092C169.019 133.389 170.651 133.188 172.184 132.571C172.184 132.571 167.39 138.657 162.331 138.653L163.654 131.382C164.752 132.243 166.006 132.838 167.39 133.092Z" fill="#FFB76B"/>
<path d="M156.727 119.678C156.483 121.016 157.228 122.275 158.39 122.49C159.553 122.704 160.694 121.79 160.938 120.452C161.181 119.114 160.437 117.855 159.274 117.641C158.112 117.427 156.971 118.34 156.727 119.683V119.678Z" fill="#FFB76B"/>
<path d="M182.577 124.413C182.333 125.751 181.193 126.665 180.03 126.451C178.868 126.236 178.123 124.977 178.367 123.639C178.611 122.301 179.752 121.388 180.914 121.598C182.077 121.812 182.821 123.071 182.577 124.409V124.413Z" fill="#FFD199"/>
<path d="M159.043 118.73C159.026 118.668 158.965 118.638 158.909 118.664C158.852 118.686 158.826 118.751 158.843 118.813C158.843 118.821 159.17 119.871 158.765 120.697C158.643 120.951 158.456 121.152 158.221 121.313C157.955 120.544 158.647 120.063 158.678 120.046C158.73 120.011 158.747 119.941 158.717 119.888C158.686 119.836 158.625 119.818 158.573 119.849C158.565 119.853 157.676 120.465 158.033 121.436C157.916 121.497 157.785 121.554 157.646 121.593C157.589 121.611 157.554 121.676 157.567 121.737C157.576 121.781 157.611 121.812 157.65 121.821C157.663 121.821 157.681 121.821 157.698 121.821C158.29 121.641 158.713 121.3 158.952 120.811C159.401 119.893 159.061 118.786 159.043 118.738V118.73Z" fill="#310B02"/>
<path d="M180.74 122.704C180.779 122.656 180.844 122.647 180.888 122.691C180.931 122.73 180.936 122.804 180.897 122.852C180.888 122.861 180.217 123.727 180.304 124.645C180.331 124.925 180.435 125.178 180.596 125.414C181.114 124.789 180.635 124.094 180.614 124.063C180.579 124.015 180.588 123.941 180.635 123.902C180.683 123.862 180.749 123.867 180.783 123.919C180.788 123.928 181.406 124.815 180.731 125.594C180.823 125.694 180.923 125.79 181.036 125.878C181.084 125.913 181.093 125.987 181.058 126.04C181.032 126.079 180.992 126.096 180.953 126.088C180.94 126.088 180.923 126.079 180.91 126.07C180.422 125.694 180.143 125.226 180.091 124.68C179.991 123.661 180.705 122.747 180.731 122.708L180.74 122.704Z" fill="#310B02"/>
<path d="M180.322 122.002C181.645 114.719 177.985 107.948 172.146 106.878C166.308 105.809 160.502 110.846 159.179 118.129C157.855 125.412 161.516 132.183 167.354 133.252C173.193 134.322 178.998 129.285 180.322 122.002Z" fill="#FFD199"/>
<path d="M164.595 123.526C164.699 122.957 165.196 122.573 165.701 122.664C166.21 122.756 166.537 123.294 166.432 123.862L164.591 123.526H164.595Z" fill="#FFB76B"/>
<path d="M166.263 123.316C166.289 123.32 166.319 123.316 166.341 123.294C166.389 123.255 166.402 123.185 166.371 123.132C166.215 122.879 165.98 122.712 165.701 122.66H165.697C165.422 122.608 165.144 122.677 164.913 122.857C164.865 122.896 164.852 122.966 164.882 123.019C164.913 123.071 164.978 123.084 165.03 123.045C165.213 122.905 165.435 122.857 165.657 122.892C165.879 122.935 166.067 123.067 166.193 123.272C166.21 123.298 166.232 123.316 166.258 123.32L166.263 123.316Z" fill="#310B02"/>
<path d="M170.36 122.315C170.268 122.817 170.399 123.259 170.651 123.307C170.904 123.355 171.183 122.984 171.274 122.485C171.366 121.987 171.235 121.541 170.982 121.493C170.73 121.445 170.451 121.816 170.36 122.315Z" fill="#310B02"/>
<path d="M160.985 120.596C160.894 121.099 161.025 121.541 161.277 121.589C161.53 121.637 161.808 121.265 161.9 120.767C161.991 120.269 161.861 119.823 161.608 119.774C161.355 119.726 161.077 120.098 160.985 120.596Z" fill="#310B02"/>
<path d="M168.701 124.92C168.566 125.668 169.328 126.433 170.403 126.63C171.479 126.827 172.463 126.381 172.598 125.637C172.733 124.89 171.971 124.125 170.895 123.928C169.82 123.731 168.836 124.177 168.701 124.92Z" fill="#FF8F7F"/>
<path d="M158.673 123.084C158.538 123.832 159.3 124.597 160.376 124.794C161.451 124.99 162.435 124.544 162.57 123.801C162.705 123.053 161.943 122.288 160.868 122.092C159.792 121.895 158.808 122.341 158.673 123.084Z" fill="#FF8F7F"/>
<path d="M172.676 120.964C172.733 120.972 172.794 120.959 172.846 120.916C172.937 120.837 172.959 120.688 172.889 120.592C171.644 118.817 170.051 120.072 170.038 120.085C169.942 120.164 169.92 120.308 169.985 120.408C170.051 120.509 170.186 120.531 170.281 120.457C170.334 120.417 171.557 119.464 172.554 120.885C172.585 120.933 172.633 120.959 172.68 120.968L172.676 120.964Z" fill="#2B0D06"/>
<path d="M163.032 119.197C163.088 119.206 163.149 119.193 163.202 119.149C163.293 119.071 163.315 118.922 163.245 118.826C162 117.051 160.406 118.305 160.393 118.319C160.297 118.397 160.276 118.542 160.341 118.642C160.406 118.743 160.541 118.765 160.637 118.69C160.689 118.651 161.913 117.698 162.91 119.119C162.94 119.167 162.988 119.193 163.036 119.202L163.032 119.197Z" fill="#2B0D06"/>
<path d="M163.036 124.942C163.036 124.942 164.673 127.342 167.577 125.773L163.036 124.942Z" fill="white"/>
<path d="M157.106 110.742C157.615 109.732 158.591 108.963 159.675 108.665C160.315 108.49 160.955 108.451 161.617 108.512C161.891 108.538 162.165 108.587 162.431 108.656C162.535 108.683 162.64 108.718 162.74 108.753C162.771 108.626 162.805 108.499 162.832 108.42C162.958 108.066 163.128 107.743 163.332 107.428C163.737 106.807 164.26 106.274 164.865 105.85C166.067 105.01 167.547 104.586 168.988 104.433C171.923 104.118 174.923 105.041 177.183 106.943C178.149 107.756 178.942 108.726 179.573 109.806C179.756 109.614 179.939 109.426 180.126 109.238C180.901 108.473 181.981 109.422 181.419 110.313C181.955 110.44 182.473 110.681 182.939 111.03C183.936 111.778 184.545 112.985 184.82 114.178C185.029 115.092 185.094 116.054 184.99 116.99C183.958 121.471 179.499 121.414 179.499 121.414C178.576 120.854 177.962 119.958 177.553 118.974C176.943 117.51 176.699 115.77 176.86 114.121C175.903 114.664 174.897 115.123 173.869 115.499C170.665 116.666 167.194 117.046 163.802 117.046C161.982 117.046 159.962 117.112 158.538 115.787C158.53 115.778 158.525 115.77 158.517 115.765C157.946 115.333 157.467 114.79 157.141 114.13C156.618 113.081 156.562 111.791 157.097 110.733L157.106 110.742Z" fill="#2B0D06"/>
<path d="M162.418 139.68C162.418 139.68 157.167 136.79 152.412 144.83C147.658 152.866 144.658 161.282 144.658 161.282L134.526 162.664L136.777 170.577L142.406 171.583C142.406 171.583 162.078 139.518 162.418 139.685V139.68Z" fill="#43115F"/>
<path d="M162.418 139.68C162.083 139.514 142.406 171.578 142.406 171.578L178.302 179.492C178.302 179.492 186.618 176.353 186.183 168.439C185.743 160.526 184.959 145.661 184.145 142.334C183.331 139.007 176.395 134.945 171.474 138.237C166.75 141.398 165.483 141.189 162.418 139.68Z" fill="#6A0DAD"/>
<path d="M166.419 167.045C166.28 167.045 166.149 166.966 166.088 166.835C166.001 166.651 166.08 166.433 166.263 166.345L170.355 164.413L173.943 149.39C173.991 149.194 174.187 149.076 174.383 149.119C174.579 149.167 174.701 149.364 174.653 149.561L171.026 164.754C171 164.863 170.926 164.95 170.826 164.999L166.572 167.01C166.519 167.032 166.467 167.045 166.415 167.045H166.419Z" fill="#471006"/>
<path d="M178.302 172.195C178.302 172.195 178.258 172.195 178.236 172.191C178.04 172.156 177.905 171.968 177.94 171.766C177.949 171.705 178.467 167.744 170.551 165.016C170.36 164.95 170.26 164.741 170.325 164.548C170.39 164.356 170.595 164.255 170.791 164.321C179.368 167.276 178.693 171.701 178.659 171.889C178.628 172.068 178.471 172.191 178.297 172.191L178.302 172.195Z" fill="#471006"/>
<path d="M121.781 195.869C121.781 195.869 115.128 196.779 111.371 195.847C107.613 194.916 100.111 195.528 100.729 201.334C101.561 209.125 124.842 203.101 124.842 203.101L121.781 195.869Z" fill="#4E1974"/>
<path d="M107.069 195.541C103.686 195.817 100.307 197.36 100.729 201.334C101.03 204.159 104.282 205.169 108.305 205.304C108.349 205.221 108.392 205.138 108.436 205.051C111.236 199.288 107.465 195.874 107.073 195.541H107.069Z" fill="#9747FF"/>
<path d="M153.405 195.31C152.595 194.903 151.646 194.859 150.792 195.165C148.929 195.834 145.045 196.892 142.755 195.144C139.655 192.783 131.304 189.722 129.153 195.043C127.023 200.311 143.325 209.226 153.549 201.216C153.792 201.024 154.01 200.797 154.193 200.543C154.938 199.507 156.435 196.835 153.409 195.31H153.405Z" fill="#4E1974"/>
<path d="M133.807 201.645C138.057 198.637 138.057 192.818 138.057 192.818V192.804C134.569 191.672 130.55 191.589 129.153 195.047C128.317 197.12 130.333 199.756 133.707 201.706C133.742 201.684 133.772 201.667 133.807 201.645Z" fill="#FCD87A"/>
<path d="M153.405 195.31C153.091 195.152 152.756 195.052 152.412 194.999C151.572 196.215 150.832 198.414 154.354 200.298C155.12 199.135 156.218 196.722 153.401 195.305L153.405 195.31Z" fill="#FCD87A"/>
<path d="M126.679 165.781L105.58 166.594L148.851 172.265L154.093 169.55L126.679 165.781Z" fill="#A38888"/>
<path d="M136.781 170.573L130.903 150.352L101.012 152.237L105.58 166.594L136.781 170.573Z" fill="#91A7CA"/>
<path d="M122.656 161.37C122.656 163.709 120.771 165.602 118.442 165.602C116.112 165.602 114.227 163.709 114.227 161.37C114.227 159.031 116.112 157.138 118.442 157.138C120.771 157.138 122.656 159.031 122.656 161.37Z" fill="white"/>
<path d="M149.16 172.186C149.16 172.186 173.438 156.102 178.21 178.578C182.987 201.055 162.588 211.945 150.649 195.563L125.486 204.229L121.298 194.763L123.288 193.364C123.288 193.364 92.3431 182.675 105.58 166.59L149.16 172.186Z" fill="#4252D4"/>
<path d="M147.17 196.731C147.022 196.731 146.882 196.639 146.826 196.49C146.756 196.298 146.856 196.088 147.044 196.018L172.711 186.627C172.903 186.557 173.112 186.658 173.181 186.846C173.251 187.038 173.151 187.248 172.964 187.318L147.296 196.709C147.257 196.722 147.213 196.731 147.17 196.731Z" fill="#471006"/>
<path d="M160.493 192.079C160.293 192.079 160.132 191.921 160.128 191.72C160.128 191.519 160.284 191.349 160.485 191.344L170.434 191.143H170.443C170.643 191.143 170.804 191.301 170.808 191.502C170.808 191.703 170.651 191.873 170.451 191.878L160.502 192.079H160.493Z" fill="#471006"/>
<path d="M133.751 184.966C133.677 184.966 133.607 184.944 133.542 184.9L117.623 173.712C117.458 173.594 117.418 173.367 117.532 173.2C117.649 173.034 117.876 172.995 118.041 173.109L133.96 184.297C134.125 184.415 134.164 184.642 134.051 184.808C133.981 184.909 133.868 184.966 133.751 184.966Z" fill="#471006"/>
<path d="M123.292 193.731C123.188 193.731 123.079 193.683 123.009 193.596C122.883 193.438 122.905 193.207 123.061 193.08L148.929 171.902C149.086 171.775 149.316 171.797 149.443 171.954C149.569 172.112 149.547 172.344 149.39 172.47L123.523 193.648C123.453 193.705 123.375 193.731 123.292 193.731Z" fill="#471006"/>
<path d="M133.903 121.322L126.951 130.519C126.339 131.329 126.496 132.484 127.303 133.098L132.803 137.291C133.609 137.905 134.759 137.747 135.371 136.937L142.324 127.74C142.936 126.93 142.778 125.776 141.972 125.161L136.472 120.969C135.665 120.354 134.515 120.512 133.903 121.322Z" fill="#6A0DAD"/>
<path d="M135.893 118.708C135.671 118.69 135.479 118.856 135.462 119.075L134.621 129.467L124.881 133.074C124.672 133.153 124.568 133.38 124.646 133.59C124.725 133.8 124.951 133.905 125.16 133.826L135.026 130.171C135.1 130.145 135.161 130.097 135.205 130.036C135.227 130.009 135.244 129.979 135.257 129.948C135.283 129.926 135.309 129.904 135.327 129.874C135.37 129.813 135.401 129.743 135.405 129.664L136.254 119.136C136.272 118.913 136.106 118.721 135.888 118.703L135.893 118.708Z" fill="#FEDEC4"/>
<path d="M120.775 141.735L114.659 131.957C114.121 131.096 112.989 130.837 112.132 131.377L106.284 135.065C105.427 135.606 105.168 136.742 105.707 137.603L111.822 147.381C112.361 148.242 113.492 148.501 114.35 147.96L120.198 144.273C121.055 143.732 121.313 142.596 120.775 141.735Z" fill="#FFC646"/>
<path d="M122.482 144.529C122.578 144.328 122.491 144.087 122.291 143.995L112.908 139.54L112.986 129.117C112.986 128.894 112.812 128.715 112.59 128.715C112.368 128.715 112.189 128.89 112.189 129.113L112.111 139.671C112.111 139.75 112.132 139.825 112.172 139.886C112.189 139.916 112.211 139.943 112.237 139.964C112.246 139.995 112.263 140.03 112.281 140.056C112.32 140.117 112.376 140.17 112.446 140.205L121.955 144.721C122.156 144.817 122.395 144.73 122.487 144.529H122.482Z" fill="#FEDEC4"/>
<path d="M124.94 117.258L116.122 109.847C115.346 109.194 114.19 109.297 113.54 110.077L109.108 115.394C108.458 116.173 108.561 117.334 109.337 117.987L118.155 125.398C118.931 126.05 120.087 125.947 120.737 125.168L125.169 119.851C125.819 119.071 125.717 117.91 124.94 117.258Z" fill="#4252D4"/>
<path d="M127.428 119.385C127.459 119.167 127.302 118.966 127.084 118.935L116.787 117.597L113.665 107.655C113.6 107.445 113.373 107.327 113.164 107.393C112.955 107.459 112.838 107.686 112.903 107.896L116.069 117.969C116.09 118.043 116.138 118.109 116.195 118.157C116.221 118.179 116.251 118.196 116.282 118.214C116.304 118.24 116.325 118.266 116.352 118.288C116.408 118.336 116.478 118.367 116.556 118.38L126.989 119.735C127.206 119.766 127.407 119.608 127.437 119.39L127.428 119.385Z" fill="#FEDEC4"/>
<path d="M259.579 173.34C258.704 173.34 257.99 174.057 257.99 174.936V198.803C257.903 198.781 257.816 198.768 257.725 198.768H224.742V174.936C224.742 174.057 224.028 173.34 223.153 173.34C222.278 173.34 221.564 174.057 221.564 174.936V213.239C221.564 214.118 222.278 214.835 223.153 214.835C224.028 214.835 224.742 214.118 224.742 213.239V201.02H257.725C257.816 201.02 257.903 201.006 257.99 200.985V213.239C257.99 214.118 258.704 214.835 259.579 214.835C260.455 214.835 261.169 214.118 261.169 213.239V174.936C261.169 174.057 260.455 173.34 259.579 173.34Z" fill="#846E6E"/>
<path d="M262.788 174.232C261.761 174.232 260.921 175.076 260.921 176.108V204.185C260.82 204.159 260.716 204.141 260.607 204.141H221.808V176.108C221.808 175.076 220.967 174.232 219.94 174.232C218.912 174.232 218.072 175.076 218.072 176.108V221.17C218.072 222.202 218.912 223.046 219.94 223.046C220.967 223.046 221.808 222.202 221.808 221.17V206.795H260.607C260.716 206.795 260.82 206.777 260.921 206.756V221.17C260.921 222.202 261.761 223.046 262.788 223.046C263.816 223.046 264.656 222.202 264.656 221.17V176.108C264.656 175.076 263.816 174.232 262.788 174.232Z" fill="white"/>
<path d="M262.736 167.46H214.401C212.167 167.46 210.356 169.278 210.356 171.522C210.356 173.765 212.167 175.583 214.401 175.583H262.736C264.97 175.583 266.781 173.765 266.781 171.522C266.781 169.278 264.97 167.46 262.736 167.46Z" fill="#4252D4"/>
<path d="M259.627 142.609C260.489 142.706 269.028 155.712 262.697 167.464H227.011L216.84 186.924L203.79 179.409L221.825 146.269C221.825 146.269 223.937 135.96 238.519 143.379V142.299L259.623 142.609H259.627Z" fill="#FCD87A"/>
<path d="M247.349 167.268C247.349 166.691 239.481 155.323 239.481 155.323C239.481 155.323 225.857 150.505 225.857 162.646C225.857 174.787 226.049 193.858 226.049 193.858H240.247L240.535 167.272H247.344L247.349 167.268Z" fill="#FCD87A"/>
<path d="M240.535 167.635C240.334 167.635 240.169 167.469 240.169 167.268V162.904C240.169 162.703 240.334 162.537 240.535 162.537C240.735 162.537 240.9 162.703 240.9 162.904V167.268C240.9 167.469 240.735 167.635 240.535 167.635Z" fill="#471006"/>
<path d="M258.565 151.441C258.521 151.441 258.474 151.432 258.43 151.415C251.006 148.402 239.707 143.917 238.597 143.742C238.514 143.759 238.109 143.383 238.205 143.204C238.419 142.815 238.48 142.697 248.755 146.75C253.684 148.695 258.656 150.711 258.709 150.733C258.896 150.807 258.987 151.021 258.909 151.209C258.852 151.354 258.713 151.437 258.569 151.437L258.565 151.441Z" fill="#471006"/>
<path d="M259.27 146.383C259.27 146.383 259.262 146.383 259.257 146.383L244.619 145.91C244.419 145.906 244.257 145.735 244.266 145.53C244.27 145.329 244.449 145.158 244.645 145.176L259.283 145.648C259.484 145.652 259.645 145.823 259.636 146.028C259.632 146.225 259.466 146.383 259.27 146.383Z" fill="#471006"/>
<path d="M225.87 168.321C225.692 168.321 225.535 168.186 225.509 168.002C225.469 167.718 224.612 160.968 228.648 157.514C231.234 155.301 235.218 154.995 240.474 156.6C240.487 156.604 240.504 156.609 240.517 156.617L262.005 166.38C262.188 166.463 262.27 166.682 262.188 166.865C262.105 167.049 261.887 167.132 261.704 167.049L240.239 157.299C235.244 155.778 231.509 156.04 229.123 158.073C225.387 161.26 226.223 167.836 226.231 167.906C226.258 168.107 226.118 168.291 225.918 168.317C225.901 168.317 225.883 168.317 225.87 168.317V168.321Z" fill="#471006"/>
<path d="M283.897 117.658C282.478 110.987 275.833 107.848 271.052 103.882C269.794 102.837 268.597 101.692 267.626 100.371C266.646 99.038 265.936 97.5472 265.414 95.982C264.369 92.8691 263.981 89.577 262.95 86.4554C262.453 84.9558 261.809 83.4999 260.916 82.1927C260.899 82.1664 260.881 82.1446 260.864 82.1184C259.175 79.4296 255.526 75.5035 248.607 75.556C241.48 75.6084 236.829 83.2944 234.57 88.2392C233.986 89.4415 233.49 90.6875 233.08 91.9598C233.002 92.1915 232.963 92.3226 232.963 92.3226C232.462 93.9534 232.114 95.6454 232.079 97.3548C232.044 99.0337 232.375 100.669 232.889 102.256C233.411 103.878 234.078 105.452 234.635 107.061C235.179 108.635 235.654 110.248 235.915 111.896C236.168 113.509 236.202 115.179 235.837 116.775C235.475 118.345 234.674 119.696 233.921 121.095C233.224 122.393 232.641 123.753 232.619 125.248C232.597 126.748 233.085 128.239 233.855 129.511C235.449 132.143 238.205 133.813 240.909 135.107C243.822 136.497 274.462 139.776 278.942 135.4C281.067 133.323 282.417 130.565 283.222 127.727C283.649 126.228 283.923 124.684 284.089 123.132C284.276 121.309 284.289 119.451 283.906 117.654L283.897 117.658Z" fill="#2B0D06"/>
<path d="M249.639 114.672C252.003 114.672 253.941 112.727 253.941 110.353V100.258C253.941 97.8838 252.003 95.9383 249.639 95.9383C247.275 95.9383 245.337 97.8838 245.337 100.258V110.353C245.337 112.727 247.275 114.672 249.639 114.672Z" fill="#E2A052"/>
<path d="M249.317 103.152C250.971 103.152 252.539 102.658 253.941 101.775C253.941 101.775 250.314 108.626 245.337 109.535V102.142C246.569 102.789 247.91 103.152 249.317 103.152Z" fill="#AA6E2D"/>
<path d="M236.424 91.8767C236.424 93.2364 237.382 94.3425 238.562 94.3425C239.742 94.3425 240.7 93.2408 240.7 91.8767C240.7 90.5126 239.742 89.4109 238.562 89.4109C237.382 89.4109 236.424 90.5126 236.424 91.8767Z" fill="#AA6E2D"/>
<path d="M262.706 91.8767C262.706 93.2364 261.748 94.3425 260.563 94.3425C259.379 94.3425 258.426 93.2408 258.426 91.8767C258.426 90.5126 259.384 89.4109 260.563 89.4109C261.743 89.4109 262.706 90.5126 262.706 91.8767Z" fill="#E2A052"/>
<path d="M238.536 90.5258C238.506 90.4689 238.44 90.4514 238.392 90.482C238.345 90.5126 238.327 90.587 238.353 90.6394C238.358 90.6482 238.863 91.6188 238.615 92.5063C238.536 92.7773 238.388 93.0091 238.188 93.2102C237.787 92.5019 238.384 91.9029 238.41 91.8767C238.453 91.833 238.458 91.763 238.419 91.7149C238.379 91.6668 238.314 91.6625 238.271 91.7062C238.262 91.7149 237.496 92.4757 238.027 93.3632C237.922 93.4463 237.805 93.5206 237.674 93.5905C237.622 93.6168 237.6 93.6867 237.622 93.7436C237.639 93.7873 237.678 93.8091 237.718 93.8091C237.731 93.8091 237.748 93.8091 237.761 93.8004C238.31 93.5162 238.662 93.1052 238.815 92.5806C239.093 91.5969 238.558 90.5695 238.536 90.5258Z" fill="#310B02"/>
<path d="M260.594 90.5258C260.624 90.4689 260.69 90.4514 260.738 90.482C260.79 90.5126 260.803 90.587 260.777 90.6394C260.772 90.6482 260.267 91.6188 260.516 92.5063C260.594 92.7773 260.742 93.0091 260.942 93.2102C261.343 92.5019 260.746 91.9029 260.72 91.8767C260.677 91.833 260.672 91.763 260.711 91.7149C260.751 91.6668 260.816 91.6625 260.86 91.7062C260.868 91.7149 261.635 92.4757 261.103 93.3632C261.208 93.4463 261.325 93.5206 261.456 93.5905C261.508 93.6168 261.53 93.6867 261.508 93.7436C261.491 93.7873 261.452 93.8091 261.413 93.8091C261.399 93.8091 261.382 93.8091 261.369 93.8004C260.82 93.5162 260.468 93.1052 260.315 92.5806C260.037 91.5969 260.572 90.5695 260.594 90.5258Z" fill="#310B02"/>
<path d="M249.317 103.323C255.252 103.323 260.063 97.3212 260.063 89.918C260.063 82.5149 255.252 76.5135 249.317 76.5135C243.382 76.5135 238.571 82.5149 238.571 89.918C238.571 97.3212 243.382 103.323 249.317 103.323Z" fill="#E2A052"/>
<path d="M244.854 94.2463C244.854 93.6692 245.272 93.2014 245.79 93.2014C246.308 93.2014 246.726 93.6692 246.726 94.2463H244.854Z" fill="#AA6E2D"/>
<path d="M246.456 93.7392C246.482 93.7392 246.508 93.7261 246.53 93.7042C246.569 93.6605 246.569 93.5862 246.53 93.5381C246.33 93.3195 246.069 93.1971 245.79 93.1927H245.786C245.507 93.1927 245.246 93.3107 245.05 93.525C245.011 93.5687 245.011 93.643 245.05 93.6911C245.089 93.7348 245.159 93.7348 245.198 93.6911C245.355 93.5206 245.564 93.4331 245.786 93.4244C246.008 93.4244 246.221 93.525 246.382 93.6998C246.404 93.7217 246.43 93.7348 246.456 93.7348V93.7392Z" fill="#310B02"/>
<path d="M250.31 92.0166C250.31 92.5281 250.519 92.9391 250.775 92.9391C251.032 92.9391 251.241 92.5281 251.241 92.0166C251.241 91.5051 251.032 91.0941 250.775 91.0941C250.519 91.0941 250.31 91.5051 250.31 92.0166Z" fill="#310B02"/>
<path d="M240.778 92.0166C240.778 92.5281 240.987 92.9391 241.244 92.9391C241.501 92.9391 241.71 92.5281 241.71 92.0166C241.71 91.5051 241.501 91.0941 241.244 91.0941C240.987 91.0941 240.778 91.5051 240.778 92.0166Z" fill="#310B02"/>
<path d="M249.147 94.8803C249.147 95.6366 250.035 96.2531 251.128 96.2531C252.221 96.2531 253.109 95.6366 253.109 94.8803C253.109 94.1239 252.221 93.5074 251.128 93.5074C250.035 93.5074 249.147 94.1239 249.147 94.8803Z" fill="#FF8F7F"/>
<path d="M238.95 94.8803C238.95 95.6366 239.838 96.2531 240.931 96.2531C242.024 96.2531 242.912 95.6366 242.912 94.8803C242.912 94.1239 242.024 93.5074 240.931 93.5074C239.838 93.5074 238.95 94.1239 238.95 94.8803Z" fill="#FF8F7F"/>
<path d="M252.347 90.2678C252.404 90.2678 252.465 90.2416 252.504 90.1891C252.582 90.0929 252.574 89.9486 252.487 89.8612C250.941 88.3397 249.604 89.8612 249.591 89.8743C249.513 89.9661 249.513 90.1148 249.6 90.2022C249.683 90.2897 249.818 90.2853 249.896 90.1935C249.94 90.1454 250.971 88.9868 252.208 90.2066C252.247 90.2459 252.299 90.2678 252.347 90.2678Z" fill="#2B0D06"/>
<path d="M242.546 90.2678C242.603 90.2678 242.659 90.2416 242.703 90.1891C242.781 90.0929 242.773 89.9486 242.686 89.8612C241.14 88.3397 239.803 89.8612 239.79 89.8743C239.712 89.9661 239.716 90.1148 239.799 90.2022C239.882 90.2897 240.017 90.2853 240.095 90.1935C240.138 90.1454 241.17 88.9868 242.407 90.2066C242.446 90.2459 242.498 90.2678 242.546 90.2678Z" fill="#2B0D06"/>
<path d="M243.574 95.9208C243.574 95.9208 245.616 97.9844 248.193 95.9208H243.574Z" fill="white"/>
<path d="M249.225 76.2162C244.392 76.2162 240.304 80.2034 238.898 85.7122C239.742 85.3886 245.742 83.0103 247.392 79.9542C247.392 79.9542 248.372 84.5711 253.819 84.6935C253.819 84.6935 253.179 87.8326 257.206 89.5464C258.395 90.0536 259.357 89.9486 260.071 89.4284C259.867 82.0878 255.09 76.2205 249.23 76.2205L249.225 76.2162Z" fill="#2B0D06"/>
<path d="M244.514 78.4677C244.149 79.3203 243.774 80.1335 243.23 80.8898C242.973 81.2483 242.699 81.5894 242.398 81.9129C242.08 82.2539 241.706 82.5599 241.419 82.9272C241.227 83.1764 241.458 83.5043 241.754 83.3644C242.185 83.1633 242.555 82.7917 242.882 82.4506C243.221 82.0965 243.539 81.7205 243.818 81.3183C244.362 80.5445 244.858 79.6351 245.111 78.717C245.207 78.3716 244.662 78.1136 244.514 78.4634V78.4677Z" fill="#471006"/>
<path d="M253.88 83.3382C253.719 83.0977 253.388 83.0758 253.131 82.9709C252.887 82.8704 252.67 82.7305 252.447 82.5905C251.99 82.302 251.577 81.9522 251.228 81.5369C250.553 80.7324 250.088 79.6307 250.061 78.5727C250.053 78.236 249.578 78.2448 249.548 78.5727C249.439 79.8537 249.835 81.0385 250.632 82.0397C251.015 82.5206 251.485 82.9491 252.021 83.2595C252.286 83.4125 252.591 83.5262 252.879 83.6223C253.135 83.7054 253.532 83.8715 253.78 83.7098C253.897 83.6355 253.958 83.4649 253.876 83.3425L253.88 83.3382Z" fill="#471006"/>
<path d="M258.012 87.496C257.868 87.3036 257.681 87.308 257.468 87.2424C257.289 87.1855 257.154 87.0894 257.002 86.9801C256.684 86.7527 256.436 86.4685 256.257 86.1144C255.826 85.2444 255.979 84.1863 256.244 83.2945C256.275 83.1983 256.244 83.0584 256.166 82.9928C256.109 82.9447 256.053 82.8966 255.97 82.901C255.961 82.901 255.953 82.901 255.944 82.901C255.8 82.9097 255.691 82.9928 255.643 83.1283C255.273 84.2257 255.056 85.4586 255.587 86.5429C255.8 86.9801 256.144 87.4041 256.566 87.6577C256.754 87.7714 257.002 87.8545 257.215 87.9025C257.446 87.9506 257.794 88.025 257.964 87.8151C258.034 87.732 258.082 87.5921 258.008 87.4916L258.012 87.496Z" fill="#471006"/>
<path d="M266.076 108.722L266.093 108.683C266.093 108.683 261.935 102.326 253.858 105.412C253.823 105.426 254.894 111.538 249.635 111.354C246.347 111.24 245.329 109.417 245.329 107.03C245.329 106.746 245.359 106.466 245.411 106.199C243.308 105.592 239.12 105.242 235.658 110.283C235.562 110.423 235.48 110.563 235.406 110.698C229.336 120.679 238.527 142.295 238.527 142.295L260.533 142.36L260.372 125.699L270.225 121.388C270.578 115.709 267.935 111.035 266.08 108.718L266.076 108.722Z" fill="#FF1A1A"/>
<path d="M260.237 125.567C260.037 125.567 259.871 125.401 259.871 125.2V117.549C259.871 117.348 260.037 117.182 260.237 117.182C260.437 117.182 260.603 117.348 260.603 117.549V125.2C260.603 125.401 260.437 125.567 260.237 125.567Z" fill="#471006"/>
<path d="M239.633 125.567C239.433 125.567 239.268 125.401 239.268 125.2V117.549C239.268 117.348 239.433 117.182 239.633 117.182C239.834 117.182 239.999 117.348 239.999 117.549V125.2C239.999 125.401 239.834 125.567 239.633 125.567Z" fill="#471006"/>
<path d="M214.754 140.301L214.336 119.329C214.319 118.463 215.007 117.746 215.869 117.737L237.835 117.431C238.71 117.418 239.424 118.135 239.411 119.009L239.159 140.598C239.15 141.464 238.44 142.159 237.574 142.142C233.163 142.059 220.658 141.836 216.3 141.827C215.455 141.827 214.767 141.145 214.75 140.297L214.754 140.301Z" fill="#91A7CA"/>
<path d="M219.631 120.933C219.631 121.519 219.16 121.991 218.577 121.991C217.994 121.991 217.523 121.519 217.523 120.933C217.523 120.347 217.994 119.875 218.577 119.875C219.16 119.875 219.631 120.347 219.631 120.933Z" fill="white"/>
<path d="M260.498 125.602C260.498 125.602 260.642 139.147 259.706 139.042C258.77 138.937 241.384 140.336 241.384 140.336L241.166 143.287C241.166 143.287 265.392 147.545 266.637 144.935C267.887 142.321 269.071 121.838 269.071 121.838L260.498 125.602Z" fill="#E2A052"/>
<path d="M241.741 143.278C241.741 143.278 233.603 143.204 232.654 142.43C231.705 141.656 228.195 137.175 228.818 136.056C229.436 134.937 233.333 138.578 233.333 138.578L236.163 138.487C236.163 138.487 234.056 138.006 233.834 137.232C233.616 136.458 237.909 137.477 237.909 137.477C237.909 137.477 240.552 140.013 242.524 140.546C244.497 141.079 243.443 143.313 241.736 143.278H241.741Z" fill="#E2A052"/>
<path d="M228.639 136.082C228.618 136.121 228.613 136.165 228.631 136.213C229.732 139.142 232.628 141.643 232.654 141.67C232.719 141.726 232.815 141.718 232.871 141.652C232.928 141.586 232.919 141.49 232.854 141.433C232.824 141.407 229.989 138.954 228.918 136.104C228.887 136.025 228.8 135.986 228.722 136.012C228.687 136.025 228.661 136.051 228.644 136.082H228.639Z" fill="#AA6E2D"/>
<path d="M229.558 135.868C229.536 135.907 229.532 135.955 229.549 135.999C230.651 138.933 233.246 140.909 233.272 140.926C233.342 140.979 233.437 140.961 233.485 140.896C233.533 140.826 233.525 140.73 233.455 140.681C233.429 140.664 230.903 138.74 229.832 135.894C229.802 135.815 229.715 135.776 229.636 135.802C229.602 135.815 229.575 135.842 229.558 135.872V135.868Z" fill="#AA6E2D"/>
<path d="M205.758 180.589L199.689 193.876C199.689 193.876 200.882 198.423 205.658 197.671L214.314 185.381L205.758 180.585V180.589Z" fill="#E2A052"/>
<path d="M201.165 189.115C201.165 189.115 196.471 195.751 193.193 196.149C189.918 196.547 182.037 193.784 180.47 196.656C180.47 196.656 185.943 203.21 193.136 203.831L203.264 208.369L209.573 193.46C209.573 193.46 207.696 192.044 206.682 193.898C205.667 195.751 203.764 199.393 203.764 199.393L200.699 195.38L202.628 191.475C202.628 191.475 203.237 189.32 201.165 189.123V189.115Z" fill="#FFC646"/>
<path d="M206.682 193.893L202.423 191.773L200.695 195.371L203.764 199.384L206.682 193.893Z" fill="#471006"/>
<path d="M196.658 206.017L196.419 205.824C199.663 201.78 205.497 202.685 205.554 202.694L205.506 202.996C205.449 202.987 199.785 202.113 196.654 206.017H196.658Z" fill="#471006"/>
<path d="M193.136 203.826C185.943 203.21 180.47 196.652 180.47 196.652C182.016 202.567 196.158 205.991 196.158 205.991L195.796 207.027L202.65 209.952L203.268 208.365L193.14 203.826H193.136Z" fill="#471006"/>
<path d="M229.022 193.989L230.455 208.535C230.455 208.535 233.768 211.858 237.517 208.789L238.819 193.793L229.022 193.985V193.989Z" fill="#E2A052"/>
<path d="M228.905 198.06C228.905 198.06 227.816 206.126 225.099 208.006C222.382 209.886 214.127 211.114 214.066 214.389C214.066 214.389 221.943 217.642 228.6 214.835L239.673 214.131L238.362 197.985C238.362 197.985 236.046 197.605 236.002 199.721C235.958 201.837 235.959 205.947 235.959 205.947L231.387 203.822L231.291 199.463C231.291 199.463 230.834 197.268 228.905 198.064V198.06Z" fill="#FFC646"/>
<path d="M236.002 199.717L231.252 199.826L231.387 203.822L235.959 205.947L236.002 199.717Z" fill="#471006"/>
<path d="M232.736 215.132L232.436 215.071C233.437 209.978 239.024 208.058 239.08 208.037L239.176 208.325C239.12 208.343 233.699 210.21 232.736 215.128V215.132Z" fill="#471006"/>
<path d="M228.6 214.835C221.943 217.642 214.066 214.389 214.066 214.389C218.172 218.91 232.279 215.342 232.279 215.342L232.44 216.431L239.86 215.823L239.673 214.131L228.6 214.835Z" fill="#471006"/>
<path d="M210.073 105.443C210.326 105.491 216.583 111.979 216.583 111.979L214.98 104.437L210.073 105.443Z" fill="#FFFFFD"/>
<path d="M220.837 83.4781H194.464V105.461H220.837V83.4781Z" fill="#FFFFFD"/>
<path d="M216.896 86.9276H210.557V93.2932H216.896V86.9276Z" fill="#4252D4"/>
<path d="M216.896 95.5404H210.557V101.906H216.896V95.5404Z" fill="#4252D4"/>
<path d="M197.412 87.0587H207.596C207.657 87.0587 207.709 87.1112 207.709 87.1724C207.709 87.2336 207.657 87.2861 207.596 87.2861H197.412C197.351 87.2861 197.299 87.2336 197.299 87.1724C197.299 87.1112 197.351 87.0587 197.412 87.0587Z" fill="#4252D4"/>
<path d="M207.596 88.1998H197.412C197.349 88.1998 197.299 88.2507 197.299 88.3135C197.299 88.3763 197.349 88.4271 197.412 88.4271H207.596C207.658 88.4271 207.709 88.3763 207.709 88.3135C207.709 88.2507 207.658 88.1998 207.596 88.1998Z" fill="#4252D4"/>
<path d="M197.412 89.6207H201.805C201.866 89.6207 201.918 89.5683 201.918 89.507C201.918 89.4458 201.866 89.3934 201.805 89.3934H197.412C197.351 89.3934 197.299 89.4458 197.299 89.507C197.299 89.5683 197.351 89.6207 197.412 89.6207Z" fill="#4252D4"/>
<path d="M197.368 95.7853H207.552C207.613 95.7853 207.666 95.8377 207.666 95.8989C207.666 95.9602 207.613 96.0126 207.552 96.0126H197.368C197.307 96.0126 197.255 95.9602 197.255 95.8989C197.255 95.8377 197.307 95.7853 197.368 95.7853Z" fill="#4252D4"/>
<path d="M197.368 96.922H207.552C207.613 96.922 207.666 96.9745 207.666 97.0357C207.666 97.0969 207.613 97.1493 207.552 97.1493H197.368C197.307 97.1493 197.255 97.0969 197.255 97.0357C197.255 96.9745 197.307 96.922 197.368 96.922Z" fill="#4252D4"/>
<path d="M197.368 98.3473H201.761C201.822 98.3473 201.875 98.2948 201.875 98.2336C201.875 98.1724 201.822 98.1199 201.761 98.1199H197.368C197.307 98.1199 197.255 98.1724 197.255 98.2336C197.255 98.2948 197.307 98.3473 197.368 98.3473Z" fill="#4252D4"/>
<path d="M215.908 92.8254C215.856 92.8254 215.808 92.8079 215.769 92.7686L210.883 87.8632C210.805 87.7845 210.805 87.6577 210.883 87.579C210.962 87.5003 211.088 87.5003 211.166 87.579L216.052 92.4844C216.13 92.5631 216.13 92.6899 216.052 92.7686C216.012 92.8079 215.96 92.8254 215.912 92.8254H215.908Z" fill="#2B0D06"/>
<path d="M211.023 92.8254C210.97 92.8254 210.922 92.8079 210.883 92.7686C210.805 92.6899 210.805 92.5631 210.883 92.4844L215.769 87.579C215.847 87.5003 215.973 87.5003 216.052 87.579C216.13 87.6577 216.13 87.7845 216.052 87.8632L211.166 92.7686C211.127 92.8079 211.075 92.8254 211.027 92.8254H211.023Z" fill="#2B0D06"/>
<path d="M216.178 101.285C216.126 101.285 216.074 101.268 216.039 101.228L211.153 96.323C211.075 96.2443 211.075 96.1175 211.153 96.0389C211.232 95.9602 211.358 95.9602 211.436 96.0389L216.322 100.944C216.4 101.023 216.4 101.15 216.322 101.228C216.283 101.268 216.23 101.285 216.182 101.285H216.178Z" fill="#2B0D06"/>
<path d="M211.288 101.285C211.236 101.285 211.188 101.268 211.149 101.228C211.07 101.15 211.07 101.023 211.149 100.944L216.034 96.0389C216.113 95.9602 216.239 95.9602 216.317 96.0389C216.396 96.1175 216.396 96.2443 216.317 96.323L211.432 101.228C211.393 101.268 211.34 101.285 211.293 101.285H211.288Z" fill="#2B0D06"/>
</g>
<defs>
<clipPath id="clip0_1_564">
<rect width="290" height="180" fill="white" transform="translate(5 45)"/>
</clipPath>
</defs>
</svg>
