<svg width="295" height="269" viewBox="0 0 295 269" fill="none" xmlns="http://www.w3.org/2000/svg">
<rect width="295" height="269" fill="white"/>
<g clip-path="url(#clip0_1_563)">
<path d="M98.3945 253.651C98.3945 253.651 103.535 251.776 112.032 249.805C140.942 243.089 172.818 245.749 198.583 256.88C198.583 256.88 171.764 272.672 138.084 268.215C104.404 263.758 98.3945 253.657 98.3945 253.657V253.651Z" fill="#F5EDE9"/>
<path d="M171.081 251.512C171.081 251.512 174.885 250.128 181.171 248.667C202.561 243.694 226.145 245.665 245.205 253.903C245.205 253.903 225.36 265.585 200.446 262.284C175.527 258.983 171.087 251.512 171.087 251.512H171.081Z" fill="#F5EDE9"/>
<path d="M49.7952 247.372C49.7952 247.372 53.6 245.605 59.8854 243.736C81.276 237.391 104.86 239.902 123.919 250.416C123.919 250.416 104.075 265.333 79.1609 261.122C54.2411 256.91 49.8012 247.366 49.8012 247.366L49.7952 247.372Z" fill="#F5EDE9"/>
<path d="M54.4328 23.8422C54.0194 23.8422 53.594 23.8841 53.2165 24.0579C52.6473 24.3275 52.2638 24.8846 52.0122 25.4538C50.5801 28.653 52.3777 32.4992 55.05 34.7698C57.7283 37.0344 61.1316 38.2026 64.2354 39.8262C66.68 41.1083 68.9509 42.6779 71.2218 44.2535C76.129 47.6564 81.3718 51.5027 83.0196 57.242C81.5815 43.6784 72.8456 31.0673 60.4905 25.1722C58.6031 24.2735 56.524 23.8242 54.4268 23.8482L54.4328 23.8422Z" fill="#43115F"/>
<path d="M119.539 7.27707C120.163 8.9905 119.707 10.9436 118.79 12.5132C117.874 14.0888 116.538 15.3709 115.261 16.665C108.437 23.5966 102.715 31.8042 99.7726 41.0723C97.0583 31.3909 99.9164 20.9366 104.584 12.0339C106.13 9.08636 108.041 6.07887 111.055 4.65302C114.063 3.22117 118.395 4.14378 119.533 7.27108L119.539 7.27707Z" fill="#9E5FCC"/>
<path d="M241.939 75.3708C244.54 67.3429 252.305 61.262 260.723 60.6569C262.713 60.5131 264.786 60.6689 266.571 61.5556C268.357 62.4422 269.819 64.1736 269.963 66.1626C270.179 69.0683 267.602 71.5306 264.834 72.4592C262.072 73.3878 259.076 73.244 256.182 73.6274C252.179 74.1606 248.321 75.7483 245.097 78.1806C243.066 79.7143 241.214 81.7093 240.687 84.1956C241.232 80.0378 240.639 79.3548 241.933 75.3648L241.939 75.3708Z" fill="#7F9DFF"/>
<path d="M236.541 21.338C238.428 20.2356 240.933 20.7508 242.694 22.0509C244.45 23.3509 245.606 25.298 246.619 27.2391C248.039 29.959 249.285 32.8167 249.777 35.8422C250.741 41.7553 248.752 47.7643 246.169 53.1682C243.767 58.1946 240.417 63.3049 235.151 65.1202C238.584 58.2006 240.747 50.2086 238.764 42.7438C237.392 37.5736 234.096 32.8766 233.88 27.5267C233.784 25.1662 234.498 22.5242 236.541 21.332V21.338Z" fill="#BC73F0"/>
<path d="M27.41 197.941C29.4172 196.281 32.1015 195.688 34.702 195.526C40.4241 195.161 46.32 196.677 50.9097 200.115C55.4994 203.554 58.663 208.964 58.9926 214.686C53.3424 206.574 41.7483 203.237 32.6468 207.095C30.5796 207.97 28.153 209.162 26.2476 207.97C24.9773 207.173 24.474 205.543 24.492 204.04C24.5219 201.715 25.6184 199.421 27.41 197.941Z" fill="#7F9DFF"/>
<path d="M264.211 182.688C263.863 180.639 262.156 179.009 260.208 178.296C258.261 177.583 256.104 177.655 254.055 177.985C247.835 178.991 242.029 182.358 238.075 187.259C234.114 192.159 232.047 198.54 232.37 204.83C232.814 199.876 237.296 196.371 241.526 193.747C243.042 192.806 244.6 191.884 246.295 191.345C248.656 190.59 251.185 190.596 253.665 190.47C256.146 190.35 258.704 190.063 260.849 188.816C262.994 187.57 264.624 185.132 264.217 182.688H264.211Z" fill="#6A0DAD"/>
<path d="M255.385 152.445C255.96 152.942 256.368 153.607 256.691 154.296C259.016 159.245 257.32 165.428 253.593 169.424C249.866 173.42 244.486 175.51 239.105 176.463C242.005 173.102 245.007 169.561 246.026 165.242C246.523 163.127 246.517 160.928 246.835 158.778C247.146 156.627 247.853 154.416 249.453 152.948C251.053 151.481 253.743 151.037 255.397 152.451L255.385 152.445Z" fill="#097D6A"/>
<path d="M41.4667 19.2831L43.9413 24.2975L49.4777 25.1003L45.4692 29.0064L46.4159 34.5182L41.4667 31.9121L36.5175 34.5182L37.4642 29.0064L33.4557 25.1003L38.9921 24.2975L41.4667 19.2831Z" fill="#E53F33"/>
<path d="M96.1895 44.2116L96.3273 47.3629L98.9996 49.0344L96.0457 50.1367L95.2788 53.1921L93.3194 50.7238L90.1738 50.9395L91.9114 48.3154L90.737 45.3918L93.7748 46.2366L96.1895 44.2116Z" fill="#7F9DFF"/>
<path d="M219.308 12.2856L222.322 15.7304L226.87 15.1972L224.521 19.1273L226.433 23.291L221.969 22.2726L218.601 25.3699L218.188 20.8167L214.197 18.5701L218.41 16.7668L219.308 12.2856Z" fill="#FFAC1C"/>
<path d="M257.752 84.0877L259.244 87.1132L262.587 87.5984L260.166 89.9529L260.742 93.2839L257.752 91.7083L254.762 93.2839L255.337 89.9529L252.916 87.5984L256.26 87.1132L257.752 84.0877Z" fill="#E53F33"/>
<path d="M252.934 129.841L252.239 136.689L257.482 141.146L250.759 142.602L248.141 148.964L244.678 143.015L237.817 142.494L242.407 137.366L240.777 130.68L247.074 133.454L252.934 129.841Z" fill="#FFAC1C"/>
<path d="M27.404 179.728L30.1782 180.83L32.6528 179.171L32.461 182.148L34.8038 183.988L31.9158 184.725L30.8852 187.522L29.2914 185.006L26.3135 184.892L28.2189 182.598L27.404 179.728Z" fill="#097D6A"/>
<path d="M217.798 240.782C217.002 239.764 216.396 238.608 216.007 237.391C215.809 236.762 215.665 236.115 215.581 235.456C215.504 234.815 215.168 234.24 214.629 233.887L209.608 230.598C208.679 229.987 207.433 230.196 206.756 231.077L205.857 232.239L201.273 238.182L220.309 250.638C220.902 247.145 219.997 243.568 217.804 240.776L217.798 240.782Z" fill="#E53F33"/>
<path d="M208.889 242.274C208.751 242.49 208.601 242.693 208.439 242.879L201.267 238.188L205.851 232.245C206.216 232.401 206.57 232.593 206.911 232.814C210.069 234.881 210.956 239.117 208.889 242.274Z" fill="#232163"/>
<path d="M220.309 250.64L201.272 238.184L200.163 239.879L219.2 252.335L220.309 250.64Z" fill="#232163"/>
<path d="M179.595 164.355C180.667 163.63 181.86 163.103 183.106 162.803C183.747 162.648 184.406 162.552 185.071 162.516C185.712 162.48 186.312 162.186 186.701 161.671L190.326 156.89C190.997 156.004 190.877 154.752 190.045 154.009L188.948 153.032L183.334 148.048L169.589 166.17C173.028 167.003 176.665 166.344 179.601 164.355H179.595Z" fill="#E53F33"/>
<path d="M178.726 155.363C178.522 155.207 178.331 155.045 178.151 154.871L183.328 148.042L188.942 153.026C188.762 153.38 188.547 153.721 188.301 154.045C186.018 157.052 181.734 157.639 178.726 155.363Z" fill="#232163"/>
<path d="M169.583 166.156L183.332 148.031L181.719 146.808L167.97 164.932L169.583 166.156Z" fill="#232163"/>
<path d="M229.063 76.9105C230.843 72.6509 230.621 67.7503 229.261 63.3409C227.901 58.9315 225.672 55.0433 223.077 51.2211C223.347 48.5491 223.035 45.7753 221.831 43.3729C220.627 40.9705 218.482 38.9874 215.881 38.3105C213.287 37.6335 210.177 38.7838 208.463 40.8506C204.874 42.1447 202.112 45.29 200.824 48.8846C199.536 52.4792 199.631 56.4692 200.602 60.1596C201.573 63.8501 203.382 67.271 205.473 70.4702C204.599 78.564 201.555 86.0767 196.797 92.6848C195.245 94.8416 193.49 96.8965 192.441 99.3408C191.393 101.785 191.165 104.775 192.645 106.979C192.807 105.757 193.49 104.595 194.293 103.666C194.071 109.436 197.606 115.499 202.885 117.829C208.289 111.67 213.832 105.601 218.505 98.8735C223.179 92.1456 225.905 84.4651 229.063 76.9105Z" fill="#643427"/>
<path d="M195.521 157.951L189.068 155.303C189.068 155.303 184.898 157.352 185.862 161.3L191.231 165.338L195.527 157.957L195.521 157.951Z" fill="#F27E55"/>
<path d="M235.546 170.125C235.252 176.583 234.671 181.328 233.641 182.472C230.537 185.935 222.22 183.736 213.79 180.124C202.783 175.409 191.59 168.297 191.59 168.297C191.59 168.297 189.134 160.108 194.323 155.716L206.025 158.52L210.962 159.706L216.888 115.87L223.467 115.073L232.478 113.977L234.803 117.26C234.803 117.26 236.415 151.103 235.546 170.125Z" fill="#232163"/>
<path d="M210.093 225.212L207.978 231.856C207.978 231.856 210.363 235.846 214.215 234.564L217.798 228.884L210.093 225.206V225.212Z" fill="#F27E55"/>
<path d="M228.194 117.769C228.194 117.769 231.783 132.663 227.859 133.28L223.862 117.835L228.194 117.775V117.769Z" fill="#171642"/>
<path d="M235.546 170.125C235.252 176.583 234.671 181.328 233.641 182.472C230.537 185.935 222.22 183.736 213.79 180.123L214.036 178.494L206.025 158.52L210.962 159.706L216.888 115.87L223.467 115.073L223.557 115.109C224.096 115.331 224.497 115.798 224.629 116.361C225.025 118.051 232.7 150.804 235.546 170.125Z" fill="#171642"/>
<path d="M234.803 180.675C234.863 194.059 220.279 231.203 220.279 231.203C220.279 231.203 218.517 231.365 216.121 230.712C215.929 230.664 215.737 230.61 215.54 230.544C213.412 229.879 210.902 228.567 208.697 226.009L215.887 178.278L205.102 151.397C205.102 151.397 185.329 137.539 199.344 112.18L205.102 109.52L222.879 116.775C222.879 116.775 234.749 167.297 234.803 180.675Z" fill="#232163"/>
<path d="M261.664 112.359V117.284C261.664 117.284 242.053 119.471 233.665 114.546L232.478 95.3089L236.109 93.7332L240.046 92.0258L242.497 105.613L261.664 112.359Z" fill="#F27E55"/>
<path d="M261.664 117.284C261.664 117.284 242.053 119.471 233.665 114.546L232.478 95.3089L236.109 93.7332L237.404 94.2005C237.404 94.2005 236.061 112.815 239.656 113.593C243.251 114.378 261.664 117.284 261.664 117.284Z" fill="#E86E43"/>
<path d="M191.986 68.9544L190.985 74.6998L190.967 74.7238L188.223 78.9295C188.223 78.9295 175.664 77.228 169.373 69.8771C162.153 60.7947 172.621 37.3879 173.1 36.3454C173.1 36.3215 173.112 36.3095 173.112 36.3095L177.941 37.6814V61.3878L188.223 63.7543L191.986 68.9544Z" fill="#F27E55"/>
<path d="M190.967 74.7238L188.223 78.9295C188.223 78.9295 175.664 77.228 169.373 69.8771C162.153 60.7947 172.621 37.3879 173.1 36.3454C172.746 37.5556 164.28 66.57 173.112 69.8771C179.769 72.3753 187.42 74.0288 190.967 74.7238Z" fill="#E86E43"/>
<path d="M228.194 69.8771L228.991 69.1042C228.991 69.1042 232.119 69.9609 234.306 74.4302C236.493 78.8995 241.418 92.8526 241.418 92.8526C241.418 92.8526 238.68 96.2974 233.485 96.2255L228.194 69.883V69.8771Z" fill="#FF951C"/>
<path d="M234.659 95.902L236.457 116.673C218.583 123.562 199.344 112.18 199.344 112.18L204.802 96.3034L198.912 80.0258L188.223 78.9295C185.227 73.1362 188.223 63.7542 188.223 63.7542L207.397 64.8506L211.795 68.3434L222.035 69.877L225.252 67.8461L228.991 69.1042C228.991 69.1042 235.558 80.0258 237.056 86.0168C238.554 92.0078 234.659 95.902 234.659 95.902Z" fill="#FFAC1C"/>
<path d="M226.121 84.0637C219.386 86.4242 209.356 73.0942 207.397 64.8506L212.957 65.1921L212.867 58.8656L212.819 55.4148L219.242 56.8107L220.225 62.2924L220.92 66.1686L225.252 67.8461C225.252 67.8461 232.862 81.7033 226.121 84.0637Z" fill="#F27E55"/>
<path d="M220.225 62.2924C219.464 62.2924 218.583 62.1786 217.589 61.885C215.755 61.3339 214.143 60.2675 212.867 58.8656L212.819 55.4148L219.242 56.8107L220.225 62.2924Z" fill="#CC5D32"/>
<path d="M177.312 38.4123L177.947 37.6754C177.947 37.6754 183.783 34.5541 183.04 33.7453C182.291 32.9365 180.212 33.7453 180.212 33.7453C180.212 33.7453 182.357 29.2641 181.608 28.5811C180.859 27.8981 178.618 32.1877 178.618 32.1877C178.618 32.1877 180.799 27.4608 179.739 27.2091C178.678 26.9575 176.815 31.5047 176.815 31.5047C176.815 31.5047 178.181 26.652 177.372 26.2805C176.563 25.9091 174.885 31.0733 174.885 31.0733C174.885 31.0733 176.006 26.8437 174.885 26.8437C173.765 26.8437 172.333 33.7154 173.112 36.3155L174.634 39.0414L177.312 38.4183V38.4123Z" fill="#F27E55"/>
<path d="M260.741 116.99L261.664 117.284C261.664 117.284 266.829 121.43 267.278 120.423C267.728 119.417 266.17 117.823 266.17 117.823C266.17 117.823 271.131 118.039 271.467 117.08C271.802 116.122 266.973 115.75 266.973 115.75C266.973 115.75 272.18 115.894 271.994 114.828C271.808 113.755 266.895 113.821 266.895 113.821C266.895 113.821 271.898 113.174 271.922 112.281C271.946 111.389 266.536 111.874 266.536 111.874C266.536 111.874 270.868 111.245 270.43 110.214C269.993 109.184 263.108 110.568 261.023 112.305L259.118 114.774L260.741 116.99Z" fill="#F27E55"/>
<path d="M209.362 44.9845C209.458 42.8457 211.465 41.324 213.562 41.7553C215.959 42.2526 219.021 43.5646 220.585 46.9735C223.383 53.0663 221.286 57.8591 221.286 57.8591C221.286 57.8591 219.093 59.0334 215.731 58.0269C213.311 57.302 211.267 55.6664 209.883 53.5516L209.104 52.3654C209.104 52.3654 210.405 50.4662 209.602 47.3749C209.386 46.5421 209.332 45.7273 209.362 44.9845Z" fill="#F27E55"/>
<path d="M236.457 116.673C218.583 123.562 199.344 112.18 199.344 112.18L204.802 96.3034L198.912 80.0258L188.223 78.9295C185.227 73.1362 188.223 63.7542 188.223 63.7542C188.223 63.7542 189.062 75.233 191.59 76.4312L196.941 77.204C201.225 77.8211 204.808 80.7867 206.216 84.8785L207.654 89.0602C208.913 92.7147 211.747 95.6384 215.396 96.9144C218.488 97.9988 222.418 98.3882 226.475 96.2195C226.475 96.2195 223.826 101.33 215.755 100.563C212.795 100.281 210.039 102.127 209.039 104.924L208.625 106.069C207.636 108.843 208.805 111.946 211.405 113.318C215.863 115.666 223.952 118.296 236.457 116.673Z" fill="#FF951C"/>
<path d="M226.534 182.232C226.534 182.232 226.534 182.274 226.534 182.292C226.534 182.328 226.534 182.364 226.522 182.394C224.899 198.839 221.411 215.063 216.127 230.712C215.935 230.664 215.743 230.61 215.546 230.544C220.83 214.925 224.318 198.732 225.935 182.31C221.19 163.54 216.444 144.765 211.699 125.995C209.368 124.85 207.648 122.568 207.337 119.68C207.295 119.297 207.894 119.303 207.936 119.68C208.212 122.25 209.71 124.287 211.753 125.366C211.909 125.27 212.142 125.3 212.196 125.527C212.202 125.545 212.208 125.563 212.214 125.581C213.652 126.216 215.318 126.396 217.014 125.971C217.385 125.875 217.547 126.456 217.169 126.546C215.492 126.971 213.85 126.84 212.394 126.294C217.091 144.878 221.789 163.457 226.481 182.041C226.522 182.089 226.546 182.148 226.54 182.232H226.534Z" fill="#171642"/>
<path d="M213.466 47.5845C212.927 47.6085 212.394 48.1117 212.028 48.4772C211.633 48.8726 211.249 49.3579 211.07 49.8911C210.992 50.1187 211.285 50.2445 211.447 50.1067C211.843 49.7652 212.184 49.3639 212.586 49.0284C212.951 48.7228 213.496 48.4832 213.76 48.0818C213.898 47.8721 213.718 47.5665 213.472 47.5785L213.466 47.5845Z" fill="#643427"/>
<path d="M213.442 51.6464C213.442 51.6464 212.4 49.957 212.933 49.4657C213.466 48.9804 215.252 50.2985 215.252 50.2985L213.562 50.1666L213.448 51.6404L213.442 51.6464Z" fill="#643427"/>
<path d="M215.995 46.59C216.217 46.0988 216.876 45.7872 217.355 45.5775C217.87 45.3499 218.458 45.1702 219.021 45.2061C219.26 45.2181 219.272 45.5356 219.087 45.6375C218.625 45.8831 218.128 46.0508 217.667 46.3025C217.247 46.5301 216.828 46.9495 216.36 47.0453C216.115 47.0933 215.893 46.8177 215.995 46.59Z" fill="#643427"/>
<path d="M219.782 48.0518C219.782 48.0518 218.589 46.4642 217.942 46.7817C217.295 47.0993 217.87 49.244 217.87 49.244L218.368 47.6205L219.782 48.0518Z" fill="#643427"/>
<path d="M219.374 50.7897C218.871 50.5561 218.308 50.5022 217.804 50.2386C217.271 49.957 216.876 49.5017 216.468 49.0703C216.456 49.0583 216.426 49.0703 216.432 49.0883C216.75 49.945 217.822 50.9934 218.829 51.1911C218.763 51.251 218.691 51.3169 218.625 51.3828C218.386 51.6045 218.116 51.7723 217.858 51.964C217.559 52.1916 217.84 52.7009 218.158 52.4792C218.434 52.2815 218.661 52.0418 218.889 51.7962C219.057 51.6165 219.218 51.4368 219.296 51.2151C219.482 51.1672 219.59 50.8916 219.374 50.7957V50.7897Z" fill="#CC5D32"/>
<path d="M214.785 53.7253C216.36 54.5221 218.338 54.4562 219.854 53.5516C219.943 53.965 219.985 54.5401 219.949 54.9595C219.914 55.3848 219.722 55.8162 219.362 56.0438C219.015 56.2595 218.577 56.2595 218.176 56.1876C216.738 55.942 215.342 55.0733 214.791 53.7193L214.785 53.7253Z" fill="white"/>
<path d="M107.352 237.877C107.933 236.714 108.293 235.468 108.437 234.192C108.509 233.533 108.515 232.874 108.467 232.209C108.419 231.568 108.634 230.933 109.09 230.484L113.356 226.266C114.147 225.481 115.405 225.439 116.25 226.17L117.364 227.129L123.039 232.042L106.861 248.037C105.585 244.736 105.764 241.046 107.352 237.877Z" fill="#9EBA00"/>
<path d="M116.382 237.559C116.561 237.739 116.747 237.913 116.945 238.068L123.039 232.042L117.364 227.129C117.035 227.357 116.729 227.608 116.442 227.896C113.757 230.55 113.733 234.875 116.388 237.559H116.382Z" fill="#232163"/>
<path d="M108.277 249.488L124.453 233.493L123.029 232.053L106.853 248.048L108.277 249.488Z" fill="#232163"/>
<path d="M83.6367 225.134C84.0382 223.9 84.2119 222.612 84.158 221.33C84.128 220.671 84.0382 220.012 83.8884 219.365C83.7446 218.736 83.8584 218.082 84.2479 217.567L87.837 212.756C88.502 211.864 89.7423 211.636 90.683 212.229L91.9233 213.014L98.2686 217.022L84.6613 235.253C82.9057 232.179 82.5282 228.501 83.6307 225.134H83.6367Z" fill="#9EBA00"/>
<path d="M92.5165 223.474C92.7202 223.63 92.9299 223.768 93.1456 223.894L98.2746 217.028L91.9293 213.02C91.6417 213.29 91.3721 213.589 91.1324 213.919C88.8735 216.944 89.4966 221.228 92.5225 223.486L92.5165 223.474Z" fill="#232163"/>
<path d="M86.2922 236.475L99.8982 218.244L98.2751 217.033L84.6691 235.264L86.2922 236.475Z" fill="#232163"/>
<path d="M110.869 221.18L114.818 226.931C114.818 226.931 113.691 231.442 109.629 231.329L104.554 226.931L110.869 221.18Z" fill="#F27E55"/>
<path d="M84.871 208.048L89.3708 213.374C89.3708 213.374 88.6997 217.975 84.6493 218.268L79.1608 214.398L84.871 208.048Z" fill="#F27E55"/>
<path d="M112.415 220.653C112.415 220.653 111.708 222.432 110.108 224.331C109.982 224.487 109.851 224.637 109.707 224.786C107.975 226.704 105.345 228.609 101.648 228.854C101.648 228.854 79.2627 197.749 76.1829 189.889C73.1091 182.029 61.4851 146.652 61.4851 146.652L62.3419 135.035L84.7272 129.05L87.9148 131.267C87.9148 131.267 93.9605 141.014 93.619 154.344C93.2774 167.674 93.631 184.593 93.631 184.593L112.415 220.653Z" fill="#232163"/>
<path d="M85.9016 206.13C85.9016 207.311 85.6679 208.419 85.2785 209.437C83.4989 214.152 78.4838 217.022 78.4838 217.022C78.4838 217.022 56.47 204.687 48.6867 198.618C40.9094 192.543 33.4197 187.421 33.4197 180.213C33.4197 175.846 53.2405 136.85 53.2405 136.85L57.8002 133.729L69.7538 135.622L73.5466 159.341L68.9808 164.721L68.9389 164.769L65.3918 168.95L57.6085 178.122L85.9016 206.13Z" fill="#232163"/>
<path d="M38.7823 118.236L33.4197 122.143L27.3979 160.623L31.5502 162.27C31.5502 162.27 45.9724 138.905 47.021 125.875L38.7823 118.236Z" fill="#F27E55"/>
<path d="M117.724 81.9909C112.481 91.7262 96.6029 93.0742 96.6029 93.0742L94.2541 91.6843L92.5585 90.6778L91.3601 80.1936L94.5058 76.6409L108.586 76.1856L109.03 52.611L113.182 50.5081C113.182 50.5081 113.248 50.6519 113.362 50.9215C114.674 53.965 122.541 73.0463 117.724 81.9909Z" fill="#F27E55"/>
<path d="M117.724 81.9909C112.481 91.7263 96.6029 93.0742 96.6029 93.0742L94.2542 91.6843L94.8294 87.221C94.8294 87.221 110.192 85.0643 114.584 81.2959C118.982 77.5276 113.188 50.9515 113.188 50.9515L113.362 50.9215C114.674 53.965 122.541 73.0463 117.724 81.9909Z" fill="#E86E43"/>
<path d="M45.6609 93.8231L38.7823 92.7747C38.7823 92.7747 36.6313 94.3024 35.7864 105.506C34.9715 116.319 33.4197 122.143 33.4197 122.143C33.4197 122.143 40.1305 127.972 47.021 125.875L49.6334 110.897L45.6669 93.8231H45.6609Z" fill="#829900"/>
<path d="M86.4169 94.572L87.9148 131.267C87.9148 131.267 69.6459 142.284 53.2404 136.85L53.0487 136.233L46.0922 114.043C46.0922 114.043 38.7823 104.008 38.7823 92.7747C38.7823 92.7747 45.1755 82.59 60.7062 77.1981C60.7062 77.1981 78.7774 75.3528 94.5057 76.6409C93.9605 80.3673 94.1343 83.8661 94.8293 87.221C95.2487 89.216 95.8539 91.1631 96.6029 93.0742L86.4169 94.572Z" fill="#9EBA00"/>
<path d="M59.3581 63.5326C59.3581 63.5326 60.2868 57.3319 57.1052 54.9295C54.6665 53.0903 53.2345 55.253 53.2345 55.253L46.0863 59.6264C46.0863 59.6264 41.8441 61.0703 43.7375 64.581C45.1456 67.1931 48.4051 69.236 48.4051 69.236L50.4243 68.1397L59.3521 63.5206L59.3581 63.5326Z" fill="#232163"/>
<path d="M54.4688 57.5116C55.1399 56.6729 55.4275 55.4627 54.9481 54.4982C54.4508 53.4977 53.2525 52.9944 52.138 53.0543C51.0235 53.1142 49.9869 53.6295 49.0462 54.2345C48.1055 54.8396 47.2247 55.5346 46.2241 56.0199C45.2175 56.5051 44.0491 56.7628 42.9826 56.4213C43.0784 56.9065 43.396 57.3678 43.8334 57.5955C43.1803 57.6314 42.4793 57.5955 41.8741 57.3379C42.2815 58.5481 43.2402 59.4168 44.4505 59.8242C43.6836 59.956 42.7848 59.8361 42.1078 59.4647C42.4733 60.5431 43.3301 61.6694 44.3667 62.1427C45.4032 62.616 46.6316 62.6459 47.6861 62.2146C48.3991 61.0523 49.6874 60.2855 50.8737 59.6145C52.0601 58.9375 53.618 58.5601 54.4748 57.4996L54.4688 57.5116Z" fill="#232163"/>
<path d="M48.1475 68.2715C47.7999 68.1397 47.4464 68.0138 47.0749 67.9899C46.7034 67.9659 46.314 68.0558 46.0384 68.3014C45.6848 68.6189 45.583 69.1581 45.7148 69.6134C45.8466 70.0688 46.1941 70.4402 46.5956 70.6918C47.5063 71.261 48.7646 71.2011 49.6274 70.56L48.1475 68.2715Z" fill="#F27E55"/>
<path d="M57.8301 61.6454C57.902 61.28 57.9859 60.9145 58.1597 60.591C58.3334 60.2675 58.6211 59.9799 58.9746 59.8781C59.4299 59.7463 59.9392 59.944 60.2568 60.2975C60.5744 60.6509 60.7062 61.1422 60.7062 61.6155C60.7062 62.6879 59.9932 63.7303 58.9866 64.1137L57.8301 61.6454Z" fill="#F27E55"/>
<path d="M61.2275 83.4647C58.651 84.4652 55.1878 82.7997 56.6498 78.8097L55.2237 75.5985L53.9894 72.8187L59.8134 69.5356L61.9405 73.939L62.8093 75.7303C62.8093 75.7303 64.8046 76.2275 65.3019 78.8875C65.8052 81.5535 63.073 82.7517 61.2275 83.4647Z" fill="#F27E55"/>
<path d="M61.9405 73.939C61.0597 75.5206 59.8194 76.1317 59.8194 76.1317C58.0878 76.5151 56.5539 76.2395 55.2237 75.5985L53.9894 72.8187L59.8134 69.5356L61.9405 73.939Z" fill="#CC5D32"/>
<path d="M51.7845 58.2126C49.975 58.3743 48.2014 59.2071 47.1528 60.6869C46.1043 62.1666 45.8047 64.1557 46.3679 65.8811C46.3679 65.8811 50.1427 75.7782 57.3748 74.1726C57.3748 74.1726 63.6422 71.0753 58.0818 60.8187C57.4347 59.6205 55.733 56.8646 54.0134 56.9006C52.5035 56.9305 52.4735 58.1467 51.7785 58.2126H51.7845Z" fill="#F27E55"/>
<path d="M110.606 53.0064C110.606 53.0064 103.709 52.4972 103.751 51.3649C103.955 50.4962 106.597 50.6998 106.597 50.6998C106.597 50.6998 103.338 48.2435 103.751 47.3748C104.165 46.5062 107.796 48.9625 107.796 48.9625C107.796 48.9625 104.746 46.2246 105.644 45.2301C106.106 44.7208 109.174 47.8901 109.174 47.8901C109.174 47.8901 107.334 44.7148 107.843 44.0498C108.353 43.3848 110.863 47.0693 110.863 47.0693C110.863 47.0693 109.839 44.4512 110.863 43.972C111.888 43.4867 113.578 49.8851 113.116 51.6225L110.612 53.0124L110.606 53.0064Z" fill="#F27E55"/>
<path d="M31.2926 161.414C31.2926 161.414 34.2106 167.482 33.2459 168.082C32.4071 168.399 31.1069 166.093 31.1069 166.093C31.1069 166.093 30.8852 170.166 29.9325 170.31C28.9798 170.454 28.9918 166.069 28.9918 166.069C28.9918 166.069 28.4226 170.124 27.0924 169.939C26.4093 169.843 27.3321 165.523 27.3321 165.523C27.3321 165.523 25.7263 168.824 24.8874 168.771C24.0486 168.717 25.7083 164.583 25.7083 164.583C25.7083 164.583 24.1085 166.889 23.1378 166.314C22.1671 165.733 26.5351 160.767 28.2368 160.173L31.2926 161.42V161.414Z" fill="#F27E55"/>
<path d="M86.4169 94.572L87.9148 131.267C87.9148 131.267 69.6459 142.284 53.2404 136.85L53.0487 136.233C70.5926 137.27 83.0555 121.172 82.8158 107.65C82.5762 93.7033 80.0356 87.1072 80.0356 87.1072C87.5313 91.7562 92.4266 89.3239 94.8293 87.221C95.2487 89.216 95.8539 91.1631 96.6029 93.0742L86.4169 94.572Z" fill="#829900"/>
<path d="M110.108 224.331C109.983 224.487 109.851 224.637 109.707 224.786C101.007 213.631 93.3554 201.691 86.8543 189.116C86.7525 189.08 86.6626 188.99 86.6566 188.846L86.6446 188.721C86.6147 188.655 86.5727 188.583 86.5368 188.517C86.4649 188.367 86.5188 188.229 86.6146 188.145C85.8118 173.186 85.0089 158.22 84.206 143.255C81.8212 142.56 79.7361 140.918 78.4898 138.522C78.3101 138.18 78.8313 137.875 79.0051 138.216C80.1555 140.421 82.025 141.937 84.188 142.614C84.2299 142.296 84.7572 142.314 84.7752 142.68C84.7752 142.71 84.7752 142.746 84.7752 142.782C86.4349 143.177 88.2384 143.099 89.994 142.458C90.3595 142.326 90.5153 142.901 90.1558 143.033C88.3642 143.686 86.5248 143.782 84.8111 143.405C85.614 158.454 86.4229 173.503 87.2318 188.559C93.7269 201.164 101.384 213.146 110.102 224.331H110.108Z" fill="#171642"/>
<path d="M68.9389 164.769L65.3918 168.95L62.9232 151.013C58.7229 147.532 59.6576 137.563 59.6576 137.563C60.4006 147.592 64.7147 149.156 64.7147 149.156L68.9389 164.769Z" fill="#171642"/>
<path d="M85.9016 206.13C85.9016 207.311 85.6679 208.419 85.2785 209.437L49.6334 178.955C56.9314 178.063 65.961 160.167 65.961 160.167L68.9808 164.721L68.9389 164.769L65.3918 168.95L57.6085 178.122L85.9016 206.13Z" fill="#171642"/>
<path d="M56.8296 62.3523C55.9608 62.1127 54.8103 62.6279 54.1093 63.1192C53.7378 63.3768 54.1393 63.898 54.4868 63.6105C54.8223 63.3349 55.1878 63.1072 55.5773 62.9155C55.9787 62.7118 56.4401 62.6938 56.8475 62.5141C56.9194 62.4842 56.8955 62.3703 56.8236 62.3523H56.8296Z" fill="#232163"/>
<path d="M55.8469 65.1861C55.8469 65.1861 54.9961 63.7482 55.6612 63.4128C56.3263 63.0773 57.1771 64.557 57.1771 64.557L55.9188 63.928L55.8469 65.1861Z" fill="#232163"/>
<path d="M48.5369 66.546C48.7826 65.6773 49.8252 64.9644 50.6101 64.6229C51.0235 64.4432 51.2632 65.0543 50.8318 65.2041C50.4243 65.3478 50.0409 65.5455 49.6694 65.7732C49.2859 66.0128 49.0283 66.3903 48.6687 66.6539C48.6028 66.7018 48.519 66.6179 48.5429 66.552L48.5369 66.546Z" fill="#232163"/>
<path d="M51.4669 67.1811C51.4669 67.1811 50.682 65.7073 50.0468 66.0967C49.4177 66.4921 50.2326 67.9839 50.2326 67.9839L50.3524 66.582L51.4609 67.1751L51.4669 67.1811Z" fill="#232163"/>
<path d="M55.8708 67.3069C55.4934 66.8696 54.9182 66.582 54.4867 66.1926C54.0913 65.8331 53.7917 65.3419 53.3603 65.0363C53.3303 65.0124 53.2884 65.0483 53.3004 65.0843C53.4562 65.5875 53.9175 66.0368 54.2651 66.4202C54.5946 66.7857 54.9601 67.2111 55.3915 67.4807C55.3196 67.5226 55.2537 67.5645 55.1878 67.6065C54.9481 67.7622 54.6725 67.894 54.4688 68.1037C54.3489 68.2295 54.4688 68.4752 54.6485 68.4093C54.9182 68.3074 55.1518 68.1217 55.3975 67.9599C55.5413 67.8641 55.6911 67.7742 55.7989 67.6424C55.9188 67.6005 55.9667 67.4148 55.8768 67.3129L55.8708 67.3069Z" fill="#CC5D32"/>
<path d="M52.851 70.1347C54.7384 69.7692 56.4641 68.6129 57.5186 67.0074C57.5186 67.0074 58.9806 70.5061 57.1711 71.6144C55.3616 72.7228 52.851 70.1347 52.851 70.1347Z" fill="white"/>
<path d="M137.892 15.7184L145.502 13.6096C145.502 13.6096 147.299 8.55317 145.963 8.002C145.963 8.002 147.287 5.52173 146.61 5.18024C145.55 4.64704 143.83 7.50475 143.83 7.50475C143.83 7.50475 145.46 4.70695 144.663 4.34749C143.872 3.98803 141.583 7.10934 141.583 7.10934C141.583 7.10934 143.033 4.4733 142.11 4.31753C141.188 4.16177 139.474 7.50475 139.474 7.50475C139.474 7.50475 140.84 5.08438 140.043 4.86871C139.252 4.64704 137.449 9.04444 137.449 9.04444C137.449 9.04444 135.028 10.5841 135.981 14.1428L137.886 15.7244L137.892 15.7184Z" fill="#F27E55"/>
<path d="M189.23 205.346L186.863 203.057L186.695 199.187L180.625 196.323L182.459 190.464L188.708 191.752L192.657 196.868L192.921 200.511L190.728 205.843L189.23 205.346Z" fill="#F27E55"/>
<path d="M189.913 213.529L188.93 214.787C188.93 214.787 186.438 210.738 186.857 203.063C186.857 203.063 190.092 203.291 191.68 205.106L189.907 213.529H189.913Z" fill="#6A0DAD"/>
<path d="M188.936 214.787C188.936 214.787 192.058 201.002 191.74 196.647C191.74 196.647 186.054 194.071 187.917 190.937L195.365 192.561L194.868 195.856L193.16 196.443L194.628 197.449L191.872 211.199C191.668 212.205 191.207 213.158 190.482 213.883C190.063 214.302 189.547 214.662 188.942 214.787H188.936Z" fill="#232163"/>
<path d="M173.232 205.579L170.865 203.291L170.697 199.421L164.627 196.551L166.461 190.698L172.71 191.986L176.659 197.096L176.923 200.745L174.73 206.077L173.232 205.579Z" fill="#F27E55"/>
<path d="M173.915 213.763L172.932 215.021C172.932 215.021 170.439 210.971 170.859 203.297C170.859 203.297 174.094 203.524 175.682 205.34L173.909 213.763H173.915Z" fill="#6A0DAD"/>
<path d="M172.938 215.015C172.938 215.015 176.06 201.23 175.742 196.874C175.742 196.874 170.056 194.298 171.919 191.165L179.367 192.788L178.87 196.084L177.162 196.671L178.63 197.677L175.874 211.426C175.67 212.433 175.209 213.386 174.484 214.11C174.064 214.53 173.549 214.889 172.944 215.015H172.938Z" fill="#232163"/>
<path d="M141.284 193.4C141.284 193.4 133.105 195.011 124.531 194.412C118.359 193.987 111.984 192.411 108.293 188.265C101.828 181.004 116.154 117.524 116.154 117.524L121.72 115.175L133.974 120.513L133.92 129.446L133.578 183.131L141.284 193.4Z" fill="#7F9DFF"/>
<path d="M141.284 193.4C141.284 193.4 133.105 195.011 124.531 194.412C120.258 192.225 115.753 191.435 114.147 185.971C111.265 176.169 123.949 129.619 123.949 129.619C121.642 125.006 123.949 118.8 123.949 118.8L131.685 120.968L133.92 129.446L133.578 183.131L141.284 193.4Z" fill="#4B66BD"/>
<path d="M183.484 193.178C183.454 193.37 183.412 193.567 183.37 193.765C182.95 195.742 182.129 198.019 180.602 200.313C180.602 200.313 118.479 199.127 116.154 183.329C113.823 167.524 128.245 119.525 128.245 119.525L148.593 116.559L154.801 118.722C154.801 118.722 161.919 130.979 159.505 140.858C155.903 157.052 139.222 169.891 139.222 169.891L183.561 187.474C183.561 187.474 184.083 189.847 183.484 193.178Z" fill="#7F9DFF"/>
<path d="M125.238 34.3025L133.231 51.5506L131.828 54.9175L127.131 59.0094L125.855 59.3209L121.043 60.5071C121.043 60.5071 114.057 50.8197 115.153 36.8427C116.232 23.0813 135.376 12.8008 135.975 12.4833C135.975 12.4773 135.987 12.4773 135.987 12.4773L139.222 15.2751L125.238 34.3025Z" fill="#F27E55"/>
<path d="M119.569 34.3025C118.521 44.0738 121.385 51.8022 125.855 59.3209L121.043 60.5072C121.043 60.5072 114.057 50.8197 115.153 36.8427C116.232 23.0814 135.376 12.8008 135.975 12.4833C135.513 12.8427 120.636 24.3155 119.569 34.3025Z" fill="#E86E43"/>
<path d="M213.269 97.0043C213.269 97.0043 178.169 110.43 159.505 89.4677L159.732 86.0768L159.84 84.5371L165.85 79.3369L170.128 78.4802L184.754 91.9599L212.526 92.8526L213.269 97.0043Z" fill="#F27E55"/>
<path d="M213.269 97.0044C213.269 97.0044 178.169 110.43 159.505 89.4677L159.732 86.0768L162.417 85.25C162.417 85.25 170.715 92.4632 181.464 97.0044C192.214 101.552 213.269 97.0044 213.269 97.0044Z" fill="#E86E43"/>
<path d="M155.196 34.5122C158.51 34.4163 161.721 36.8487 162.524 40.0658C162.92 41.6355 162.788 43.3369 163.435 44.8227C164.064 46.2665 165.37 47.3868 165.742 48.9205C166.233 50.9635 164.909 52.9705 164.633 55.0553C164.4 56.7987 164.903 58.5481 165.077 60.2974C165.257 62.0468 164.999 64.0358 163.639 65.1562C163.639 65.1562 162.908 63.5625 159.049 63.4727C155.19 63.3828 144.405 58.2965 141.505 51.8981C139.839 48.3035 135.981 47.9021 135.981 47.9021C136.041 46.8357 136.832 45.8172 137.784 45.3319C138.737 44.8467 139.804 44.5231 140.564 43.7743C141.781 42.594 142.008 40.5631 143.423 39.6285C144.591 38.8616 146.149 39.1193 147.467 38.646C148.863 38.1427 149.822 36.8846 150.93 35.8901C152.033 34.8956 153.872 33.8352 155.196 34.5122Z" fill="#232163"/>
<path d="M170.128 78.4801C170.128 78.4801 168.342 87.5685 159.505 89.4676L155.598 85.9689L147.209 100.647L154.801 118.722C154.801 118.722 133.932 128.906 116.16 117.53L120.45 86.8676C120.45 86.8676 115.058 75.8022 126.046 70.1946L121.049 60.5071C121.049 60.5071 124.459 50.2446 133.237 51.5506L138.929 58.1107L140.726 62.8017L150.924 66.3004L154.232 66.8935C154.232 66.8935 158.899 67.924 170.134 78.4801H170.128Z" fill="#6A0DAD"/>
<path d="M154.226 66.8936C154.226 66.8936 148.875 77.8571 140.894 74.7897C132.913 71.7163 138.923 58.1107 138.923 58.1107L142.698 59.932L145.496 54.636L147.125 51.5506L151.949 54.7917L151.907 60.0998L151.865 64.7608L154.226 66.8936Z" fill="#F27E55"/>
<path d="M151.949 54.7917L151.907 60.0998C148.815 60.6509 145.771 58.3084 145.514 54.9894C145.502 54.8756 145.496 54.7558 145.496 54.636L147.125 51.5506L151.949 54.7917Z" fill="#CC5D32"/>
<path d="M222.346 93.1641C222.346 93.1641 225.989 94.8655 225.21 95.6803C224.767 96.1476 223.137 95.9499 223.137 95.9499C223.137 95.9499 224.509 96.6089 224.162 97.1301C223.814 97.6514 221.681 97.1301 221.681 97.1301C221.681 97.1301 222.706 97.7532 222.262 98.1187C221.819 98.4841 216.726 97.4417 216.726 97.4417L218.529 93.7033L222.346 93.1641Z" fill="#F27E55"/>
<path d="M222.31 91.6364C220.501 91.3907 212.52 92.8466 212.52 92.8466L212.256 96.6868C212.256 96.6868 216.414 100.401 219.242 95.872C219.242 95.872 223.059 96.3154 222.981 95.3029C222.945 94.7876 222.136 94.4042 221.358 94.1526C222.73 93.1221 224.863 95.231 225.606 94.56C226.331 93.907 224.12 91.888 222.31 91.6364Z" fill="#F27E55"/>
<path d="M225.66 93.4037C223.503 91.0133 220.746 91.2949 217.876 92.0678C217.505 92.1696 217.661 92.7447 218.038 92.6429C219.674 92.2056 221.268 91.8341 222.957 92.2535C223.73 92.4452 224.395 92.9784 224.953 93.5116C225.108 94.2724 224.911 94.4761 224.371 94.1346C223.922 93.9789 223.485 93.7932 223.065 93.5715C223.005 93.5415 222.951 93.5415 222.897 93.5475C222.849 93.5296 222.79 93.5176 222.73 93.5355C222.214 93.6614 221.699 93.7872 221.184 93.907C221.016 93.9489 220.962 94.0807 220.974 94.2125C220.974 94.2245 220.974 94.2305 220.974 94.2425C220.974 94.2485 220.974 94.2605 220.974 94.2665C220.992 94.3983 221.082 94.5181 221.256 94.5241C221.675 94.5361 222.071 94.542 222.424 94.8176C222.532 95.3029 222.412 95.5545 222.065 95.5665C221.855 95.5965 221.645 95.6144 221.429 95.6324C220.716 95.6983 220.003 95.7163 219.29 95.7043C219.141 95.7043 219.051 95.7942 219.015 95.908C218.002 97.3338 216.378 97.9569 214.665 97.6034C214.287 97.5256 214.125 98.1007 214.503 98.1786C215.587 98.4002 216.624 98.2744 217.535 97.8551C217.547 97.8551 217.553 97.867 217.565 97.867C218.955 98.2684 220.639 98.7897 222.101 98.6579C222.849 98.592 222.873 98.0108 222.64 97.5256C223.131 97.6094 223.634 97.6813 224.096 97.5315C224.371 97.4417 224.599 97.0642 224.527 96.7827C224.479 96.597 224.401 96.4532 224.311 96.3393C224.623 96.3154 224.923 96.2615 225.192 96.1416C225.779 95.872 225.761 95.3269 225.522 94.8715C225.558 94.8536 225.6 94.8536 225.63 94.8296C226.187 94.5061 226.013 93.7992 225.648 93.3918L225.66 93.4037ZM221.639 98.0767C221.178 98.0468 220.716 97.9629 220.255 97.891C219.59 97.7832 218.937 97.6214 218.284 97.4477C218.475 97.3099 218.667 97.1661 218.847 96.9983C219.836 97.1302 220.824 97.2679 221.807 97.3997C221.813 97.4057 221.819 97.4177 221.831 97.4297C222.148 97.6873 222.1 98.1067 221.639 98.0767ZM223.029 96.9684C222.628 96.9145 222.226 96.8606 221.819 96.8066C220.992 96.6928 220.159 96.579 219.332 96.4711C219.374 96.4172 219.428 96.3693 219.47 96.3094C220.219 96.3094 220.962 96.2854 221.705 96.2135C221.831 96.2015 221.981 96.1896 222.142 96.1656C222.19 96.2135 222.256 96.2555 222.346 96.2555C222.58 96.2615 222.826 96.2854 223.083 96.3094C223.119 96.3633 223.167 96.4052 223.245 96.4232C223.329 96.4412 223.413 96.4651 223.497 96.4831C224.03 96.7827 223.622 97.214 223.035 96.9624L223.029 96.9684ZM224.527 95.7223C224.329 95.7462 224.114 95.7223 223.91 95.7103C223.622 95.6983 223.329 95.6863 223.041 95.6803C223.395 94.9494 223.041 94.4702 222.49 94.2065C222.604 94.1766 222.718 94.1526 222.832 94.1227C223.341 94.3803 224.162 94.8536 224.863 94.9434C225.114 95.2849 225.007 95.6684 224.527 95.7223Z" fill="#CC5D32"/>
<path d="M146.335 4.77285C145.999 4.74289 145.646 4.96456 145.328 5.25213C145.328 5.09636 145.31 4.94059 145.268 4.77285C145.142 4.32352 144.591 3.89816 144.112 4.04793C143.483 4.24564 143.021 4.75487 142.614 5.26411C142.626 5.09037 142.614 4.91064 142.536 4.73091C142.326 4.23366 141.895 4.08987 141.391 4.21568C141.086 4.29357 140.834 4.5392 140.612 4.83276C140.409 4.31753 139.858 4.15577 139.234 4.66501C138.659 5.13231 138.294 6.09686 137.994 6.74988C137.653 7.48677 137.383 8.25961 137.107 9.02646C136.975 9.39191 137.557 9.54767 137.682 9.18821C137.94 8.46929 138.198 7.75037 138.509 7.05542C138.665 6.69596 138.851 6.34848 139.043 6.00699C139.138 5.83924 139.24 5.6715 139.354 5.50375C139.72 5.03645 140.019 5.04843 140.103 5.42586C140.091 5.49177 140.103 5.54568 140.127 5.59361C140.097 5.64753 140.067 5.69546 140.037 5.74339C139.594 6.44434 139.234 7.18722 138.917 7.95407C138.767 8.31353 139.348 8.4633 139.492 8.11582C139.852 7.24713 140.295 6.43235 140.816 5.64753C140.978 5.4019 141.146 5.16825 141.343 4.95258C141.511 4.671 141.667 4.70095 141.961 4.89267C142.038 5.09636 142.044 5.29406 141.979 5.49776C141.895 5.87519 141.739 6.19271 141.697 6.57015C141.439 6.99551 141.212 7.43285 141.008 7.88817C140.852 8.23564 141.367 8.54119 141.523 8.18772C141.727 7.7324 141.961 7.30704 142.218 6.88767C142.23 6.8697 142.242 6.85771 142.254 6.83375C142.392 6.60609 142.53 6.37843 142.686 6.15677C142.973 5.75537 143.309 5.38393 143.65 5.03046C143.938 4.65902 144.309 4.7369 144.759 5.25812C144.783 5.5996 144.537 5.96505 144.375 6.24663C144.363 6.2706 144.357 6.29456 144.351 6.31253C143.758 6.98353 143.249 7.72641 142.805 8.50524C142.614 8.84074 143.135 9.14628 143.321 8.80479C143.902 7.78033 144.603 6.86371 145.436 6.03096C145.64 5.82726 145.855 5.62956 146.089 5.46181C146.88 4.89267 146.544 6.22267 146.52 6.31253C146.359 6.89965 146.113 7.46281 145.843 8.00799C144.873 8.15177 144.273 9.77533 143.836 10.5961C142.033 9.71542 139.941 10.9975 139.983 13.0764C139.989 13.4598 140.588 13.4658 140.583 13.0764C140.547 11.3629 142.302 10.3445 143.77 11.2371C143.914 11.327 144.052 11.2731 144.136 11.1712C144.184 11.1473 144.231 11.1173 144.267 11.0574C144.681 10.3625 145.088 9.67349 145.502 8.97853C145.759 8.75686 146.125 8.70294 146.089 9.23015C146.065 9.53569 146.041 9.83524 146.005 10.1408C145.945 10.7219 145.849 11.297 145.747 11.8662C145.526 13.1183 144.705 13.5257 143.578 13.8552C142.554 14.1548 141.535 14.4603 140.511 14.7598C140.139 14.8677 140.301 15.4488 140.672 15.335C141.697 15.0354 142.716 14.7299 143.74 14.4303C144.267 14.2746 144.951 14.1548 145.394 13.7953C146.448 12.9386 146.46 11.3929 146.61 10.1348C146.658 9.74538 146.856 8.61907 146.442 8.17573C146.964 7.15127 148.012 4.90465 146.353 4.75487L146.335 4.77285Z" fill="#CC5D32"/>
<path d="M153.645 56.1098C155.724 55.2231 158.048 53.0543 159.84 48.2136C159.84 48.2136 159.75 41.1981 154.447 39.269C154.447 39.269 149.666 40.1078 147.209 45.7573C146.233 48.0039 145.981 49.8551 146.095 51.3409C146.382 55.0733 150.199 57.5775 153.645 56.1098Z" fill="#F27E55"/>
<path d="M170.128 78.4801C170.128 78.4801 168.342 87.5685 159.505 89.4676L155.598 85.9689L147.209 100.647L154.801 118.722C154.801 118.722 133.932 128.906 116.16 117.529C127.736 120.243 138.192 118.824 143.524 117.697C145.604 117.26 146.952 115.241 146.55 113.15L145.082 105.506C144.639 103.211 143.069 101.336 140.96 100.329C135.711 97.8311 135.777 91.5166 135.777 91.5166C145.664 100.587 154.238 81.0443 154.238 81.0443L155.274 81.877C158.863 84.7647 164.058 84.6089 167.396 81.4277C169.019 79.882 170.14 78.4742 170.14 78.4742L170.128 78.4801Z" fill="#43115F"/>
<path d="M183.484 193.178C183.454 193.37 183.412 193.567 183.37 193.765C164.304 188.864 145.472 183.089 126.939 176.457C126.7 176.373 126.688 176.092 126.813 175.948C126.747 175.882 126.706 175.792 126.735 175.672C130.876 160.084 136.089 144.801 142.326 129.925C140.127 129.05 138.222 127.415 137.023 125.12C136.844 124.779 137.359 124.473 137.539 124.815C138.677 126.989 140.481 128.553 142.566 129.38C142.751 129.128 143.219 129.272 143.105 129.589C145.406 130.35 147.994 130.23 150.391 129.074C150.739 128.906 151.044 129.422 150.697 129.589C148.132 130.83 145.352 130.955 142.883 130.135C136.652 144.992 131.451 160.263 127.317 175.834C127.305 175.876 127.287 175.906 127.263 175.936C145.729 182.544 164.49 188.295 183.484 193.178Z" fill="#4B66BD"/>
<path d="M153.417 45.8052C153.123 44.8167 150.751 44.2655 150.008 44.9665C149.99 44.9785 149.996 45.0084 150.014 45.0204C150.475 45.302 151.122 45.26 151.643 45.4158C152.189 45.5776 152.674 46.0329 153.255 46.0209C153.363 46.0209 153.447 45.9191 153.417 45.8112V45.8052Z" fill="#232163"/>
<path d="M155.808 47.0633C155.4 47.0034 155.16 47.4887 155.52 47.7403C155.909 48.0099 156.299 48.2376 156.664 48.5311C157.036 48.8307 157.341 49.2021 157.605 49.5975C157.653 49.6694 157.767 49.6455 157.767 49.5556C157.767 48.4592 156.958 47.2311 155.808 47.0693V47.0633Z" fill="#232163"/>
<path d="M155.718 50.5621C156.181 50.5621 156.557 50.1865 156.557 49.7233C156.557 49.2601 156.181 48.8846 155.718 48.8846C155.254 48.8846 154.879 49.2601 154.879 49.7233C154.879 50.1865 155.254 50.5621 155.718 50.5621Z" fill="#232163"/>
<path d="M151.11 47.8961C151.573 47.8961 151.949 47.5206 151.949 47.0573C151.949 46.5941 151.573 46.2186 151.11 46.2186C150.647 46.2186 150.271 46.5941 150.271 47.0573C150.271 47.5206 150.647 47.8961 151.11 47.8961Z" fill="#232163"/>
<path d="M153.818 48.5551C153.842 48.4772 153.734 48.4353 153.692 48.5012C153.297 49.1542 153.195 49.915 153.027 50.6459C152.967 50.9215 152.896 51.257 152.908 51.5686C152.596 51.3229 152.242 51.1192 151.895 50.9335C151.529 50.7358 151.212 51.269 151.571 51.4907C152.051 51.7842 152.566 52.0718 153.117 52.1976C153.147 52.2336 153.171 52.2695 153.207 52.2995C153.285 52.3654 153.411 52.3654 153.465 52.2635C153.74 51.7722 153.441 51.2271 153.411 50.6939C153.369 49.927 153.609 49.268 153.812 48.5491L153.818 48.5551Z" fill="#CC5D32"/>
<path d="M148.719 50.4063C149.834 51.8022 151.44 52.7967 153.183 53.1801C152.32 54.0069 150.75 54.1267 149.75 53.4677C148.749 52.8087 148.3 51.5266 148.719 50.4063Z" fill="white"/>
</g>
<defs>
<clipPath id="clip0_1_563">
<rect width="249" height="265" fill="white" transform="translate(23 4)"/>
</clipPath>
</defs>
</svg>
