<svg width="28" height="28" viewBox="0 0 28 28" fill="none" xmlns="http://www.w3.org/2000/svg">
<path d="M22.4359 27.9998C21.2157 27.9998 19.5016 27.5585 16.9348 26.1247C13.8136 24.3747 11.3993 22.7591 8.29493 19.6634C5.30182 16.6727 3.84527 14.7365 1.80673 11.0277C-0.496239 6.84013 -0.103659 4.6451 0.335181 3.70696C0.857788 2.5857 1.6292 1.91507 2.62627 1.24944C3.19261 0.878453 3.79193 0.560438 4.41664 0.299424C4.47915 0.272548 4.53729 0.246923 4.58918 0.223798C4.89861 0.0844211 5.36746 -0.126206 5.96133 0.0987963C6.35766 0.247548 6.71148 0.551927 7.26535 1.09881C8.40121 2.21882 9.9534 4.71323 10.526 5.93824C10.9105 6.76388 11.1649 7.30888 11.1655 7.92014C11.1655 8.63577 10.8054 9.18766 10.3685 9.78329C10.2866 9.89516 10.2053 10.002 10.1266 10.1058C9.65084 10.7308 9.54644 10.9114 9.6152 11.2339C9.75461 11.8821 10.7942 13.8115 12.5027 15.5159C14.2111 17.2203 16.0853 18.194 16.736 18.3328C17.0724 18.4046 17.2568 18.2959 17.9019 17.8034C17.9944 17.7328 18.0894 17.6596 18.1888 17.5865C18.8552 17.0909 19.3816 16.7402 20.0805 16.7402H20.0842C20.6925 16.7402 21.2132 17.004 22.0759 17.439C23.2011 18.0065 25.771 19.5384 26.8981 20.6753C27.4463 21.2278 27.752 21.5803 27.9014 21.9759C28.1265 22.5716 27.9146 23.0384 27.7764 23.351C27.7533 23.4028 27.7277 23.4597 27.7008 23.5228C27.4376 24.1463 27.1177 24.7442 26.745 25.3091C26.0804 26.3029 25.4072 27.0722 24.2832 27.5954C23.706 27.8684 23.0744 28.0066 22.4359 27.9998Z" fill="#6A0DAD"/>
</svg>
