<svg width="28" height="28" viewBox="0 0 28 28" fill="none" xmlns="http://www.w3.org/2000/svg">
<path d="M14 26C16.3734 26 18.6934 25.2962 20.6668 23.9776C22.6402 22.6591 24.1783 20.7849 25.0866 18.5922C25.9948 16.3995 26.2324 13.9867 25.7694 11.6589C25.3064 9.33115 24.1635 7.19295 22.4853 5.51472C20.807 3.83649 18.6689 2.6936 16.3411 2.23058C14.0133 1.76756 11.6005 2.0052 9.4078 2.91345C7.21508 3.8217 5.34094 5.35977 4.02236 7.33316C2.70379 9.30655 2 11.6266 2 14C2 15.92 2.45067 17.7333 3.25333 19.3427C3.85733 20.5573 3.01733 22.196 2.69733 23.392C2.62644 23.6565 2.62643 23.935 2.6973 24.1996C2.76817 24.4641 2.90742 24.7053 3.10107 24.8989C3.29471 25.0926 3.53592 25.2318 3.80044 25.3027C4.06496 25.3736 4.34348 25.3736 4.608 25.3027C5.804 24.9827 7.44267 24.1427 8.65733 24.748C10.3176 25.5724 12.1463 26.0009 14 26Z" stroke="#6A0DAD" stroke-width="3" stroke-linecap="round" stroke-linejoin="round"/>
</svg>
