<svg width="283" height="212" viewBox="0 0 283 212" fill="none" xmlns="http://www.w3.org/2000/svg">
<g clip-path="url(#clip0_115_1197)">
<path d="M283 186.306H0V186.448H283V186.306Z" fill="#EBEBEB"/>
<path d="M254.644 195.46H235.898V195.603H254.644V195.46Z" fill="#EBEBEB"/>
<path d="M187.471 197.008H182.553V197.15H187.471V197.008Z" fill="#EBEBEB"/>
<path d="M235.332 190.18H224.471V190.323H235.332V190.18Z" fill="#EBEBEB"/>
<path d="M54.1369 191.136H29.6914V191.278H54.1369V191.136Z" fill="#EBEBEB"/>
<path d="M62.7644 191.136H59.1816V191.278H62.7644V191.136Z" fill="#EBEBEB"/>
<path d="M127.435 193.537H74.4121V193.68H127.435V193.537Z" fill="#EBEBEB"/>
<path d="M134.148 160.93H24.853C23.0701 160.93 21.6211 159.474 21.6211 157.681V3.24876C21.6211 1.45654 23.0701 0 24.853 0H134.148C135.93 0 137.379 1.45654 137.379 3.24876V157.681C137.379 159.474 135.93 160.93 134.148 160.93ZM24.853 0.14224C23.1493 0.14224 21.7626 1.53619 21.7626 3.24876V157.681C21.7626 159.394 23.1493 160.788 24.853 160.788H134.148C135.851 160.788 137.238 159.394 137.238 157.681V3.24876C137.238 1.53619 135.851 0.14224 134.148 0.14224H24.853Z" fill="#EBEBEB"/>
<path d="M256.573 160.93H147.279C145.496 160.93 144.047 159.474 144.047 157.681V3.24876C144.047 1.45654 145.496 0 147.279 0H256.573C258.356 0 259.805 1.45654 259.805 3.24876V157.681C259.805 159.474 258.356 160.93 256.573 160.93ZM147.279 0.14224C145.575 0.14224 144.188 1.53619 144.188 3.24876V157.681C144.188 159.394 145.575 160.788 147.279 160.788H256.573C258.277 160.788 259.664 159.394 259.664 157.681V3.24876C259.664 1.53619 258.277 0.14224 256.573 0.14224H147.279Z" fill="#EBEBEB"/>
<path d="M209.464 137.21V148.334L214.139 151.747H192.314L199.288 149.153V137.984L209.464 137.21Z" fill="#E0E0E0"/>
<path d="M147.283 151.429V186.471H254.636V151.429H147.283ZM149.038 153.699H235.223V165.152H149.038V153.699Z" fill="#E0E0E0"/>
<path d="M147.283 151.429V186.471H237.572V151.429H147.283ZM149.038 153.699H235.223V165.152H149.038V153.699Z" fill="#EBEBEB"/>
<path d="M149.044 165.152H164.756V153.704H149.044V165.152Z" fill="#E0E0E0"/>
<path d="M212.475 165.152H235.229V159.428H212.475V165.152Z" fill="#E0E0E0"/>
<path d="M196.4 165.152H211.037V161.749H196.4V165.152Z" fill="#E0E0E0"/>
<path d="M175.764 165.152H193.021V158.193H175.764V165.152Z" fill="#E0E0E0"/>
<path d="M218.09 167.644L218.509 169.015H224.107L224.525 167.644H235.228V182.847H207.393V167.644H218.09Z" fill="#E0E0E0"/>
<path d="M188.953 167.644L189.372 169.015H194.97L195.383 167.644H206.086V182.847H178.25V167.644H188.953Z" fill="#E0E0E0"/>
<path d="M159.814 167.644L160.228 169.015H165.825L166.244 167.644H176.947V182.847H149.111V167.644H159.814Z" fill="#E0E0E0"/>
<path d="M163.426 143.856H237.402C238.506 143.856 239.4 142.957 239.4 141.847V98.504C239.4 97.3947 238.506 96.4955 237.402 96.4955H163.426C162.323 96.4955 161.428 97.3947 161.428 98.504V141.847C161.428 142.957 162.323 143.856 163.426 143.856Z" fill="#E0E0E0"/>
<path d="M161.592 143.856H235.568C236.672 143.856 237.566 142.957 237.566 141.847V98.504C237.566 97.3947 236.672 96.4955 235.568 96.4955H161.592C160.489 96.4955 159.594 97.3947 159.594 98.504V141.847C159.594 142.957 160.489 143.856 161.592 143.856Z" fill="#E6E6E6"/>
<path d="M235.273 141.546V98.7942H161.886V141.546H235.273Z" fill="#F0F0F0"/>
<path d="M247.108 16.261H183.365V87.1647H247.108V16.261Z" fill="#E9E9E9"/>
<path d="M244.464 19.0715H186.166V84.5019H244.464V19.0715Z" fill="#F4F4F4"/>
<path d="M202.642 19.0715L186.166 81.0995V47.5195L193.705 19.0715H202.642Z" fill="white"/>
<path d="M210.007 19.0715L192.631 84.5019H189.354L206.73 19.0715H210.007Z" fill="white"/>
<path d="M244.465 36.9143V70.5L240.775 84.5021H231.838L244.465 36.9143Z" fill="white"/>
<path d="M216.364 16.261H214.1V87.1647H216.364V16.261Z" fill="#E9E9E9"/>
<path d="M245.88 30.6499H184.469V32.9257H245.88V30.6499Z" fill="#E9E9E9"/>
<path d="M40.3945 77.2535V94.897H65.2249V77.2535H40.3945Z" fill="#E0E0E0"/>
<path d="M41.5664 78.4084V93.7476H64.0649V78.4084H41.5664Z" fill="#EBEBEB"/>
<path d="M49.0039 55.0926V72.7361H73.8343V55.0926H49.0039Z" fill="#E0E0E0"/>
<path d="M50.1758 56.2475V71.5867H72.6743V56.2475H50.1758Z" fill="#EBEBEB"/>
<path d="M85.7422 77.259H69.9395V99.7329H85.7422V77.259Z" fill="#E0E0E0"/>
<path d="M84.7112 78.3174H70.9688V98.6804H84.7112V78.3174Z" fill="#EBEBEB"/>
<path d="M94.7313 47.7756H77.1797V72.7359H94.7313V47.7756Z" fill="#E0E0E0"/>
<path d="M93.5816 48.9478H78.3223V71.5639H93.5816V48.9478Z" fill="#EBEBEB"/>
<path d="M110.543 91.0734V77.259H91.1009V91.0734H110.543Z" fill="#E0E0E0"/>
<path d="M109.627 90.1687V78.158H92.013V90.1687H109.627Z" fill="#EBEBEB"/>
<path d="M36.1948 116.955H97.5832C100.345 116.955 102.581 119.203 102.581 121.979L109.379 165.482H37.9891L31.1914 121.979C31.1914 119.203 33.4271 116.955 36.1892 116.955H36.1948Z" fill="#EBEBEB"/>
<path d="M109.198 133.779L109.119 133.552H132.891V186.465H103.459V139.896C103.459 136.596 105.949 133.916 109.198 133.779Z" fill="#E0E0E0"/>
<path d="M133.144 133.768C136.512 133.768 139.246 136.516 139.246 139.901V186.471H127.043V139.901C127.043 136.516 129.777 133.768 133.144 133.768Z" fill="#F0F0F0"/>
<path d="M40.7119 133.779L40.6327 133.552H64.4047V186.465H34.9727V139.896C34.9727 136.596 37.4631 133.916 40.7119 133.779Z" fill="#E0E0E0"/>
<path d="M70.7604 186.465H123.064V149.198H70.7604V186.465Z" fill="#E0E0E0"/>
<path d="M119.658 158.307H60.8224V145.386H119.658C123.207 145.386 126.088 148.282 126.088 151.85C126.088 155.417 123.207 158.313 119.658 158.313V158.307Z" fill="#F5F5F5"/>
<path d="M64.6581 133.768C68.0258 133.768 70.7596 136.516 70.7596 139.901V186.471H58.5566V139.901C58.5566 136.516 61.2904 133.768 64.6581 133.768Z" fill="#F0F0F0"/>
<path d="M47.9903 166.13H37.9891L31.1914 121.985C31.1914 119.208 33.4271 116.961 36.1892 116.961C38.9513 116.961 41.187 119.208 41.187 121.985L47.9846 166.13H47.9903Z" fill="#E0E0E0"/>
<path d="M33.5799 11.6751V28.4936C33.5799 29.4381 34.344 30.0696 35.2835 30.0696H91.7817C91.7817 30.0696 98.3133 27.0086 97.8492 22.73C97.4813 19.3163 97.0964 16.5341 96.7794 14.4175C96.3946 11.8401 94.1985 9.96826 91.6062 9.96826H35.2779C34.3383 9.96826 33.5742 10.7364 33.5742 11.6808L33.5799 11.6751Z" fill="#F5F5F5"/>
<path d="M33.5801 11.6751V28.4936C33.5801 29.4381 34.3442 30.0696 35.2837 30.0696H40.2645C40.2645 30.0696 46.8018 27.0086 46.3321 22.73C45.9642 19.3163 45.5793 16.5341 45.2623 14.4175C44.8774 11.8401 42.6814 9.96826 40.0891 9.96826H35.2837C34.3442 9.96826 33.5801 10.7364 33.5801 11.6808V11.6751Z" fill="#E6E6E6"/>
<path d="M96.5481 24.0784H47.1986C47.1986 24.0784 45.5685 27.714 42.8008 29.2104H91.0183C91.0183 29.2104 96.1236 26.8606 96.5481 24.0784Z" fill="#E0E0E0"/>
<path d="M93.14 27.5037H45.4941L46.2016 29.2105H93.14V27.5037Z" fill="#EBEBEB"/>
<path d="M94.8429 25.3643H47.1914L47.8989 27.0711H94.8429V25.3643Z" fill="#EBEBEB"/>
<path d="M48.896 23.2932H50.1016V22.7925H48.896V23.2932Z" fill="#E0E0E0"/>
<path d="M50.5932 23.2932H51.7988V22.7925H50.5932V23.2932Z" fill="#E0E0E0"/>
<path d="M141.5 212C202.108 212 251.241 209.116 251.241 205.559C251.241 202.002 202.108 199.119 141.5 199.119C80.8909 199.119 31.7578 202.002 31.7578 205.559C31.7578 209.116 80.8909 212 141.5 212Z" fill="#F5F5F5"/>
<path d="M51.3364 164.515C51.4553 165.351 49.1969 165.903 47.3574 166.21C47.5102 167.729 48.5121 169.265 49.8988 170.699C51.6477 169.709 54.1381 168.401 54.5966 168.725C55.1003 169.072 52.5476 170.733 50.9515 171.706C52.0722 172.708 53.34 173.641 54.5683 174.46C55.3493 173.726 56.2663 173.077 56.8153 173.43C57.3813 173.794 57.2285 174.932 56.9511 175.945C58.8529 177.06 60.2735 177.737 60.2735 177.737C60.2735 177.737 61.0716 175.308 61.5414 172.315C61.4452 172.127 61.3489 171.934 61.264 171.729C60.9584 171.018 61.2584 170.716 61.7621 170.614C61.8923 169.305 61.9319 167.957 61.7961 166.705C59.6453 166.25 57.0304 165.414 58.0095 164.116C58.5982 163.337 59.6792 163.246 60.8056 163.439C60.6471 163.178 60.4716 162.933 60.2735 162.711C56.3625 158.376 53.6287 162.711 53.6287 162.711C51.3534 160.805 48.1611 161.323 47.4706 164.298C48.7498 163.968 51.1892 163.479 51.3364 164.515Z" fill="#C39EDE"/>
<path opacity="0.3" d="M51.3364 164.515C51.4553 165.351 49.1969 165.903 47.3574 166.21C47.5102 167.729 48.5121 169.265 49.8988 170.699C51.6477 169.709 54.1381 168.401 54.5966 168.725C55.1003 169.072 52.5476 170.733 50.9515 171.706C52.0722 172.708 53.34 173.641 54.5683 174.46C55.3493 173.726 56.2663 173.077 56.8153 173.43C57.3813 173.794 57.2285 174.932 56.9511 175.945C58.8529 177.06 60.2735 177.737 60.2735 177.737C60.2735 177.737 61.0716 175.308 61.5414 172.315C61.4452 172.127 61.3489 171.934 61.264 171.729C60.9584 171.018 61.2584 170.716 61.7621 170.614C61.8923 169.305 61.9319 167.957 61.7961 166.705C59.6453 166.25 57.0304 165.414 58.0095 164.116C58.5982 163.337 59.6792 163.246 60.8056 163.439C60.6471 163.178 60.4716 162.933 60.2735 162.711C56.3625 158.376 53.6287 162.711 53.6287 162.711C51.3534 160.805 48.1611 161.323 47.4706 164.298C48.7498 163.968 51.1892 163.479 51.3364 164.515Z" fill="white"/>
<path d="M56.222 196.371L55.656 196.325C55.6786 196.035 57.9709 167.007 51.4959 164.276C50.7997 163.98 50.1545 163.997 49.5319 164.327C47.1886 165.55 46.068 170.631 46.0566 170.682L45.502 170.562C45.5472 170.341 46.6906 165.169 49.2659 163.82C50.0413 163.416 50.862 163.394 51.711 163.752C58.5652 166.648 56.3182 195.164 56.2163 196.376L56.222 196.371Z" fill="#C39EDE"/>
<path d="M57.0375 195.739C56.9243 194.436 54.2754 163.724 59.2223 160.464C60.4109 159.684 61.4636 159.513 62.3636 159.974C64.7012 161.158 65.0068 166.182 65.0181 166.392L64.4521 166.426C64.4521 166.375 64.1522 161.516 62.1089 160.481C61.4071 160.128 60.5411 160.276 59.5336 160.942C54.8697 164.02 57.5752 195.375 57.6035 195.688L57.0375 195.739Z" fill="#C39EDE"/>
<path d="M57.7782 198.226C57.7386 197.224 56.9292 173.72 61.4289 171.661C62.3175 171.257 63.2231 171.245 64.1061 171.638C67.1964 173.004 69.1038 178.796 69.1831 179.04L68.6454 179.217C68.6284 179.16 66.738 173.425 63.8797 172.161C63.1382 171.831 62.4137 171.837 61.6666 172.179C58.214 173.755 58.1008 191.5 58.3442 198.203L57.7782 198.226Z" fill="#C39EDE"/>
<path d="M56.6343 197.15L56.074 197.088C56.8664 190.089 58.3833 171.45 55.9042 169.226C55.5363 168.896 55.2024 168.793 54.8911 168.913C53.2327 169.556 52.2195 175.615 51.9705 177.897L51.4102 177.834C51.5064 176.958 52.412 169.26 54.693 168.378C55.2137 168.179 55.7514 168.315 56.2891 168.799C59.4926 171.672 56.7589 196.109 56.64 197.15H56.6343Z" fill="#C39EDE"/>
<path d="M47.1875 183.888H67.5239L65.8259 206.783H48.8855L47.1875 183.888Z" fill="#263238"/>
<path opacity="0.2" d="M53.3633 183.888L53.9293 206.783H65.8266L67.5246 183.888H53.3633Z" fill="white"/>
<path d="M49.9558 175.484C49.7464 176.042 48.1673 175.604 46.9221 175.16C46.4976 176.15 46.5938 177.441 46.9617 178.801C48.3767 178.795 50.3577 178.847 50.5332 179.199C50.7256 179.586 48.5805 179.729 47.2673 179.78C47.6183 180.787 48.0767 181.794 48.5578 182.727C49.2936 182.545 50.0747 182.46 50.2954 182.864C50.5218 183.285 50.0407 183.933 49.52 184.462C50.3124 185.805 50.9577 186.71 50.9577 186.71C50.9577 186.71 52.2764 185.486 53.5896 183.802C53.5952 183.654 53.6009 183.501 53.6179 183.347C53.6745 182.801 53.9575 182.721 54.3027 182.829C54.8291 182.067 55.3102 181.248 55.6555 180.428C54.4838 179.41 53.1594 177.988 54.2065 177.527C54.8348 177.248 55.5366 177.567 56.1592 178.073C56.1535 177.857 56.1252 177.646 56.08 177.441C55.1461 173.419 51.9821 175.154 51.9821 175.154C51.2293 173.197 49.0842 172.412 47.6409 174.011C48.5408 174.249 50.2162 174.79 49.9558 175.478V175.484Z" fill="#C39EDE"/>
<path opacity="0.3" d="M49.9558 175.484C49.7464 176.042 48.1673 175.604 46.9221 175.16C46.4976 176.15 46.5938 177.441 46.9617 178.801C48.3767 178.795 50.3577 178.847 50.5332 179.199C50.7256 179.586 48.5805 179.729 47.2673 179.78C47.6183 180.787 48.0767 181.794 48.5578 182.727C49.2936 182.545 50.0747 182.46 50.2954 182.864C50.5218 183.285 50.0407 183.933 49.52 184.462C50.3124 185.805 50.9577 186.71 50.9577 186.71C50.9577 186.71 52.2764 185.486 53.5896 183.802C53.5952 183.654 53.6009 183.501 53.6179 183.347C53.6745 182.801 53.9575 182.721 54.3027 182.829C54.8291 182.067 55.3102 181.248 55.6555 180.428C54.4838 179.41 53.1594 177.988 54.2065 177.527C54.8348 177.248 55.5366 177.567 56.1592 178.073C56.1535 177.857 56.1252 177.646 56.08 177.441C55.1461 173.419 51.9821 175.154 51.9821 175.154C51.2293 173.197 49.0842 172.412 47.6409 174.011C48.5408 174.249 50.2162 174.79 49.9558 175.478V175.484Z" fill="white"/>
<path d="M65.0562 178.204C64.4166 178.249 63.7997 178.397 63.1997 178.596C63.0412 178.164 62.9393 177.714 62.928 177.242C62.7978 173.117 65.7354 174.858 67.2862 173.646C68.0616 173.043 69.0069 172.656 69.8842 172.827C69.754 173.055 69.6351 173.288 69.5332 173.533C69.3691 173.925 69.6295 174.341 70.0313 174.415C70.4105 174.488 70.835 174.454 71.1803 174.278C71.2878 174.221 71.3784 174.141 71.4746 174.073C71.6897 174.443 71.8821 174.892 72.0406 175.45C72.1991 176.025 72.2783 176.616 72.3066 177.214C72.0746 177.265 71.8482 177.328 71.6218 177.407C71.2709 177.532 71.0784 178.101 71.3671 178.386C71.6161 178.636 71.9048 178.835 72.2161 178.983C72.1142 179.66 71.9274 180.309 71.701 180.918C71.6331 180.929 71.5595 180.935 71.4916 180.952C71.3444 180.98 71.1973 181.02 71.0501 181.06C70.9652 181.083 70.886 181.111 70.8067 181.151C70.603 181.248 70.4558 181.424 70.4219 181.652C70.3879 181.879 70.4841 182.107 70.6652 182.249C70.7615 182.323 70.8633 182.38 70.9709 182.437C70.5011 183.182 69.9521 183.768 69.3465 184.087C69.3465 184.087 68.5993 183.757 67.6202 183.171C67.7447 183.006 67.8635 182.841 67.9767 182.67C68.1126 182.471 68.1692 182.26 68.1522 182.022C68.1352 181.788 67.9937 181.583 67.8183 181.441C67.6541 181.299 67.3881 181.236 67.173 181.265C66.9636 181.293 66.7146 181.418 66.5957 181.6C66.4599 181.805 66.307 181.999 66.1599 182.192C65.4128 181.623 64.6656 180.94 64.077 180.161C64.0996 180.155 64.1223 180.15 64.1393 180.144C64.5185 180.047 64.9034 179.979 65.2939 179.95C65.7807 179.916 66.0863 179.421 66.0467 178.966C66.0071 178.477 65.526 178.175 65.0675 178.209L65.0562 178.204Z" fill="#C39EDE"/>
<path opacity="0.5" d="M65.0562 178.204C64.4166 178.249 63.7997 178.397 63.1997 178.596C63.0412 178.164 62.9393 177.714 62.928 177.242C62.7978 173.117 65.7354 174.858 67.2862 173.646C68.0616 173.043 69.0069 172.656 69.8842 172.827C69.754 173.055 69.6351 173.288 69.5332 173.533C69.3691 173.925 69.6295 174.341 70.0313 174.415C70.4105 174.488 70.835 174.454 71.1803 174.278C71.2878 174.221 71.3784 174.141 71.4746 174.073C71.6897 174.443 71.8821 174.892 72.0406 175.45C72.1991 176.025 72.2783 176.616 72.3066 177.214C72.0746 177.265 71.8482 177.328 71.6218 177.407C71.2709 177.532 71.0784 178.101 71.3671 178.386C71.6161 178.636 71.9048 178.835 72.2161 178.983C72.1142 179.66 71.9274 180.309 71.701 180.918C71.6331 180.929 71.5595 180.935 71.4916 180.952C71.3444 180.98 71.1973 181.02 71.0501 181.06C70.9652 181.083 70.886 181.111 70.8067 181.151C70.603 181.248 70.4558 181.424 70.4219 181.652C70.3879 181.879 70.4841 182.107 70.6652 182.249C70.7615 182.323 70.8633 182.38 70.9709 182.437C70.5011 183.182 69.9521 183.768 69.3465 184.087C69.3465 184.087 68.5993 183.757 67.6202 183.171C67.7447 183.006 67.8635 182.841 67.9767 182.67C68.1126 182.471 68.1692 182.26 68.1522 182.022C68.1352 181.788 67.9937 181.583 67.8183 181.441C67.6541 181.299 67.3881 181.236 67.173 181.265C66.9636 181.293 66.7146 181.418 66.5957 181.6C66.4599 181.805 66.307 181.999 66.1599 182.192C65.4128 181.623 64.6656 180.94 64.077 180.161C64.0996 180.155 64.1223 180.15 64.1393 180.144C64.5185 180.047 64.9034 179.979 65.2939 179.95C65.7807 179.916 66.0863 179.421 66.0467 178.966C66.0071 178.477 65.526 178.175 65.0675 178.209L65.0562 178.204Z" fill="white"/>
<path d="M66.2281 163.985C66.5847 163.729 66.9752 163.536 67.3771 163.371C67.2696 163.075 67.1281 162.791 66.93 162.54C65.198 160.316 64.4169 162.523 63.0698 162.574C62.402 162.597 61.7341 162.813 61.3492 163.291C61.519 163.354 61.6831 163.422 61.8416 163.508C62.102 163.644 62.1416 163.974 61.9662 164.19C61.7964 164.395 61.5586 164.566 61.3039 164.628C61.2247 164.645 61.1398 164.645 61.0605 164.651C61.1058 164.941 61.202 165.26 61.3662 165.624C61.536 165.994 61.7511 166.341 61.9944 166.665C62.1359 166.591 62.2831 166.523 62.4416 166.466C62.6793 166.375 63.0302 166.591 63.0019 166.87C62.9793 167.115 62.917 167.342 62.8208 167.559C63.1717 167.871 63.5509 168.128 63.9358 168.344C63.9754 168.321 64.0151 168.293 64.0603 168.27C64.1509 168.219 64.2471 168.173 64.3433 168.133C64.3999 168.11 64.4566 168.088 64.5132 168.071C64.6603 168.031 64.8188 168.059 64.932 168.162C65.0452 168.264 65.1018 168.429 65.0622 168.583C65.0452 168.662 65.0112 168.742 64.9829 168.816C65.5546 168.998 66.1036 169.066 66.5564 168.964C66.5564 168.964 66.8054 168.463 67.0658 167.718C66.93 167.684 66.7941 167.655 66.6583 167.615C66.4998 167.57 66.3809 167.485 66.2847 167.354C66.1942 167.223 66.1772 167.052 66.2055 166.904C66.2338 166.756 66.3413 166.608 66.4658 166.529C66.5847 166.449 66.7771 166.409 66.913 166.449C67.0715 166.495 67.2356 166.529 67.3997 166.569C67.5469 165.937 67.6375 165.249 67.6035 164.583C67.5865 164.589 67.5752 164.594 67.5639 164.6C67.3205 164.714 67.0884 164.85 66.8734 165.01C66.6017 165.203 66.2281 165.078 66.047 164.828C65.8546 164.554 65.9791 164.179 66.2281 163.997V163.985Z" fill="#C39EDE"/>
<path opacity="0.3" d="M66.2281 163.985C66.5847 163.729 66.9752 163.536 67.3771 163.371C67.2696 163.075 67.1281 162.791 66.93 162.54C65.198 160.316 64.4169 162.523 63.0698 162.574C62.402 162.597 61.7341 162.813 61.3492 163.291C61.519 163.354 61.6831 163.422 61.8416 163.508C62.102 163.644 62.1416 163.974 61.9662 164.19C61.7964 164.395 61.5586 164.566 61.3039 164.628C61.2247 164.645 61.1398 164.645 61.0605 164.651C61.1058 164.941 61.202 165.26 61.3662 165.624C61.536 165.994 61.7511 166.341 61.9944 166.665C62.1359 166.591 62.2831 166.523 62.4416 166.466C62.6793 166.375 63.0302 166.591 63.0019 166.87C62.9793 167.115 62.917 167.342 62.8208 167.559C63.1717 167.871 63.5509 168.128 63.9358 168.344C63.9754 168.321 64.0151 168.293 64.0603 168.27C64.1509 168.219 64.2471 168.173 64.3433 168.133C64.3999 168.11 64.4566 168.088 64.5132 168.071C64.6603 168.031 64.8188 168.059 64.932 168.162C65.0452 168.264 65.1018 168.429 65.0622 168.583C65.0452 168.662 65.0112 168.742 64.9829 168.816C65.5546 168.998 66.1036 169.066 66.5564 168.964C66.5564 168.964 66.8054 168.463 67.0658 167.718C66.93 167.684 66.7941 167.655 66.6583 167.615C66.4998 167.57 66.3809 167.485 66.2847 167.354C66.1942 167.223 66.1772 167.052 66.2055 166.904C66.2338 166.756 66.3413 166.608 66.4658 166.529C66.5847 166.449 66.7771 166.409 66.913 166.449C67.0715 166.495 67.2356 166.529 67.3997 166.569C67.5469 165.937 67.6375 165.249 67.6035 164.583C67.5865 164.589 67.5752 164.594 67.5639 164.6C67.3205 164.714 67.0884 164.85 66.8734 165.01C66.6017 165.203 66.2281 165.078 66.047 164.828C65.8546 164.554 65.9791 164.179 66.2281 163.997V163.985Z" fill="white"/>
<path d="M49.6615 168.116C49.5427 168.953 51.801 169.504 53.6405 169.812C53.4877 171.331 52.4859 172.867 51.0992 174.301C49.3502 173.311 46.8598 172.002 46.4014 172.327C45.8976 172.674 48.4503 174.335 50.0464 175.308C48.9257 176.309 47.6579 177.242 46.4297 178.062C45.6486 177.328 44.7317 176.679 44.1826 177.032C43.6166 177.396 43.7695 178.534 44.0468 179.547C42.145 180.662 40.7244 181.339 40.7244 181.339C40.7244 181.339 39.9263 178.909 39.4565 175.917C39.5528 175.729 39.649 175.535 39.7339 175.331C40.0395 174.619 39.7395 174.318 39.2358 174.215C39.1056 172.907 39.066 171.558 39.2018 170.307C41.3526 169.852 43.9676 169.015 42.9884 167.718C42.3997 166.938 41.3187 166.847 40.1923 167.041C40.3508 166.779 40.5263 166.535 40.7244 166.313C44.6354 161.977 47.3692 166.313 47.3692 166.313C49.6445 164.407 52.8368 164.924 53.5273 167.9C52.2481 167.57 49.8087 167.081 49.6615 168.116Z" fill="#C39EDE"/>
<path opacity="0.5" d="M49.6615 168.116C49.5427 168.953 51.801 169.504 53.6405 169.812C53.4877 171.331 52.4859 172.867 51.0992 174.301C49.3502 173.311 46.8598 172.002 46.4014 172.327C45.8976 172.674 48.4503 174.335 50.0464 175.308C48.9257 176.309 47.6579 177.242 46.4297 178.062C45.6486 177.328 44.7317 176.679 44.1826 177.032C43.6166 177.396 43.7695 178.534 44.0468 179.547C42.145 180.662 40.7244 181.339 40.7244 181.339C40.7244 181.339 39.9263 178.909 39.4565 175.917C39.5528 175.729 39.649 175.535 39.7339 175.331C40.0395 174.619 39.7395 174.318 39.2358 174.215C39.1056 172.907 39.066 171.558 39.2018 170.307C41.3526 169.852 43.9676 169.015 42.9884 167.718C42.3997 166.938 41.3187 166.847 40.1923 167.041C40.3508 166.779 40.5263 166.535 40.7244 166.313C44.6354 161.977 47.3692 166.313 47.3692 166.313C49.6445 164.407 52.8368 164.924 53.5273 167.9C52.2481 167.57 49.8087 167.081 49.6615 168.116Z" fill="white"/>
<path d="M218.165 206.783L229.004 134.382V206.783H231.913V133.927L242.764 206.783H245.882L232.298 115.59L231.913 115.647V112.682H229.004V115.635L228.602 115.59L214.984 206.783H218.165Z" fill="#C39EDE"/>
<path opacity="0.3" d="M218.165 206.783L229.004 134.382V206.783H231.913V133.927L242.764 206.783H245.882L232.298 115.59L231.913 115.647V112.682H229.004V115.635L228.602 115.59L214.984 206.783H218.165Z" fill="#C39EDE"/>
<path d="M245.373 125.706H215.387L217.815 100.518H242.945L245.373 125.706Z" fill="#C39EDE"/>
<g opacity="0.5">
<path d="M245.373 125.706H215.387L217.815 100.518H242.945L245.373 125.706Z" fill="#C39EDE"/>
</g>
<path d="M169.772 93.0022H159.935C159.499 93.0022 159.142 92.6437 159.142 92.2056V68.7304C159.363 68.6223 159.522 68.4004 159.522 68.133C159.522 67.7631 159.227 67.4673 158.859 67.4673C158.492 67.4673 158.197 67.7631 158.197 68.133C158.197 68.4004 158.356 68.6223 158.576 68.7304V92.2056C158.576 92.9567 159.188 93.5712 159.935 93.5712H169.772C170.208 93.5712 170.564 93.9296 170.564 94.3677V107.801H171.13V94.3677C171.13 93.6167 170.519 93.0022 169.772 93.0022Z" fill="#407BFF"/>
<path opacity="0.4" d="M169.772 93.0022H159.935C159.499 93.0022 159.142 92.6437 159.142 92.2056V68.7304C159.363 68.6223 159.522 68.4004 159.522 68.133C159.522 67.7631 159.227 67.4673 158.859 67.4673C158.492 67.4673 158.197 67.7631 158.197 68.133C158.197 68.4004 158.356 68.6223 158.576 68.7304V92.2056C158.576 92.9567 159.188 93.5712 159.935 93.5712H169.772C170.208 93.5712 170.564 93.9296 170.564 94.3677V107.801H171.13V94.3677C171.13 93.6167 170.519 93.0022 169.772 93.0022Z" fill="#6A0DAD"/>
<path d="M181.596 107.232H160.105C159.264 107.232 158.582 107.917 158.582 108.762V131.572C158.582 132.417 159.264 133.103 160.105 133.103H181.596C182.436 133.103 183.118 132.417 183.118 131.572V108.762C183.118 107.917 182.436 107.232 181.596 107.232Z" fill="#C39EDE"/>
<path opacity="0.4" d="M181.596 107.232H160.105C159.264 107.232 158.582 107.917 158.582 108.762V131.572C158.582 132.417 159.264 133.103 160.105 133.103H181.596C182.436 133.103 183.118 132.417 183.118 131.572V108.762C183.118 107.917 182.436 107.232 181.596 107.232Z" fill="#C39EDE"/>
<path opacity="0.2" d="M172.499 122.11H169.199V125.427H172.499V122.11Z" fill="#C39EDE"/>
<path opacity="0.2" d="M176.083 111.3H172.783V114.617H176.083V111.3Z" fill="#C39EDE"/>
<path opacity="0.2" d="M168.917 125.712H165.617V129.029H168.917V125.712Z" fill="#C39EDE"/>
<path opacity="0.2" d="M176.083 114.907H172.783V118.224H176.083V114.907Z" fill="#C39EDE"/>
<path opacity="0.2" d="M176.083 118.509H172.783V121.826H176.083V118.509Z" fill="#C39EDE"/>
<path opacity="0.2" d="M172.499 114.907H169.199V118.224H172.499V114.907Z" fill="#C39EDE"/>
<path opacity="0.2" d="M172.499 107.516H169.199V111.021H172.499V107.516Z" fill="#C39EDE"/>
<path opacity="0.2" d="M168.917 122.11H165.617V125.427H168.917V122.11Z" fill="#C39EDE"/>
<path opacity="0.2" d="M172.499 111.3H169.199V114.617H172.499V111.3Z" fill="#C39EDE"/>
<path opacity="0.2" d="M172.499 125.712H169.199V129.029H172.499V125.712Z" fill="#C39EDE"/>
<path opacity="0.2" d="M176.083 125.712H172.783V129.029H176.083V125.712Z" fill="#C39EDE"/>
<path opacity="0.2" d="M172.499 118.509H169.199V121.826H172.499V118.509Z" fill="#C39EDE"/>
<path opacity="0.2" d="M176.083 107.516H172.783V111.021H176.083V107.516Z" fill="#C39EDE"/>
<path opacity="0.2" d="M161.752 122.11H158.865V125.427H161.752V122.11Z" fill="#C39EDE"/>
<path opacity="0.2" d="M161.752 111.3H158.865V114.617H161.752V111.3Z" fill="#C39EDE"/>
<path opacity="0.2" d="M161.752 118.509H158.865V121.826H161.752V118.509Z" fill="#C39EDE"/>
<path opacity="0.2" d="M161.752 114.907H158.865V118.224H161.752V114.907Z" fill="#C39EDE"/>
<path opacity="0.2" d="M176.083 122.11H172.783V125.427H176.083V122.11Z" fill="#C39EDE"/>
<path opacity="0.2" d="M179.949 111.016H182.836V108.757C182.836 108.068 182.281 107.511 181.596 107.511H179.949V111.016Z" fill="#C39EDE"/>
<path opacity="0.2" d="M179.665 111.3H176.365V114.617H179.665V111.3Z" fill="#C39EDE"/>
<path opacity="0.2" d="M161.752 125.712H158.865V129.029H161.752V125.712Z" fill="#C39EDE"/>
<path opacity="0.2" d="M179.665 114.907H176.365V118.224H179.665V114.907Z" fill="#C39EDE"/>
<path opacity="0.2" d="M179.665 118.509H176.365V121.826H179.665V118.509Z" fill="#C39EDE"/>
<path opacity="0.2" d="M179.665 122.11H176.365V125.427H179.665V122.11Z" fill="#C39EDE"/>
<path opacity="0.2" d="M179.665 125.712H176.365V129.029H179.665V125.712Z" fill="#C39EDE"/>
<path opacity="0.2" d="M182.836 125.712H179.949V129.029H182.836V125.712Z" fill="#C39EDE"/>
<path opacity="0.2" d="M179.665 107.516H176.365V111.021H179.665V107.516Z" fill="#C39EDE"/>
<path opacity="0.2" d="M172.499 129.313H169.199V132.818H172.499V129.313Z" fill="#C39EDE"/>
<path opacity="0.2" d="M176.083 129.313H172.783V132.818H176.083V129.313Z" fill="#C39EDE"/>
<path opacity="0.2" d="M182.836 118.509H179.949V121.826H182.836V118.509Z" fill="#C39EDE"/>
<path opacity="0.2" d="M179.665 129.313H176.365V132.818H179.665V129.313Z" fill="#C39EDE"/>
<path opacity="0.2" d="M182.836 122.11H179.949V125.427H182.836V122.11Z" fill="#C39EDE"/>
<path opacity="0.2" d="M161.746 129.313H158.859V131.572C158.859 132.26 159.414 132.818 160.099 132.818H161.746V129.313Z" fill="#C39EDE"/>
<path opacity="0.2" d="M179.949 129.313V132.818H181.596C182.281 132.818 182.836 132.26 182.836 131.572V129.313H179.949Z" fill="#C39EDE"/>
<path opacity="0.2" d="M161.746 111.016V107.511H160.099C159.414 107.511 158.859 108.068 158.859 108.757V111.016H161.746Z" fill="#C39EDE"/>
<path opacity="0.2" d="M182.836 114.907H179.949V118.224H182.836V114.907Z" fill="#C39EDE"/>
<path opacity="0.2" d="M182.836 111.3H179.949V114.617H182.836V111.3Z" fill="#C39EDE"/>
<path opacity="0.2" d="M165.329 118.509H162.029V121.826H165.329V118.509Z" fill="#C39EDE"/>
<path opacity="0.2" d="M165.329 125.712H162.029V129.029H165.329V125.712Z" fill="#C39EDE"/>
<path opacity="0.2" d="M168.917 107.516H165.617V111.021H168.917V107.516Z" fill="#C39EDE"/>
<path opacity="0.2" d="M165.329 122.11H162.029V125.427H165.329V122.11Z" fill="#C39EDE"/>
<path opacity="0.2" d="M168.917 114.907H165.617V118.224H168.917V114.907Z" fill="#C39EDE"/>
<path opacity="0.2" d="M168.917 111.3H165.617V114.617H168.917V111.3Z" fill="#C39EDE"/>
<path opacity="0.2" d="M168.917 129.313H165.617V132.818H168.917V129.313Z" fill="#C39EDE"/>
<path opacity="0.2" d="M165.329 129.313H162.029V132.818H165.329V129.313Z" fill="#C39EDE"/>
<path opacity="0.2" d="M165.329 107.516H162.029V111.021H165.329V107.516Z" fill="#C39EDE"/>
<path opacity="0.2" d="M168.917 118.509H165.617V121.826H168.917V118.509Z" fill="#C39EDE"/>
<path opacity="0.2" d="M165.329 114.907H162.029V118.224H165.329V114.907Z" fill="#C39EDE"/>
<path opacity="0.2" d="M165.329 111.3H162.029V114.617H165.329V111.3Z" fill="#C39EDE"/>
<path d="M176.711 116.347C176.66 116.085 176.593 115.829 176.502 115.584C175.681 113.24 173.457 111.556 170.848 111.556C168.963 111.556 167.276 112.438 166.178 113.815C165.867 114.207 165.595 114.64 165.391 115.106C165.052 115.863 164.859 116.699 164.859 117.581V122.747C164.859 123.254 164.922 123.743 165.04 124.21C165.131 124.585 165.256 124.938 165.42 125.274C165.561 125.598 165.737 125.899 165.929 126.184C166.082 126.394 166.235 126.588 166.399 126.776C166.603 127.003 166.823 127.214 167.05 127.401C167.242 127.555 167.435 127.703 167.644 127.834C167.995 128.061 168.374 128.249 168.77 128.403H168.776C168.969 128.471 169.161 128.534 169.359 128.585C169.608 128.647 169.857 128.693 170.112 128.727C170.304 128.75 170.497 128.767 170.695 128.767C170.746 128.773 170.797 128.773 170.848 128.773C171.159 128.773 171.47 128.75 171.77 128.704C171.963 128.67 172.155 128.63 172.336 128.585C173.044 128.397 173.7 128.09 174.278 127.68C174.493 127.532 174.691 127.367 174.883 127.191C175.398 126.719 175.834 126.15 176.162 125.518C176.332 125.2 176.468 124.858 176.576 124.505C176.728 124.005 176.819 123.481 176.83 122.929C176.83 122.929 176.836 122.929 176.83 122.924C176.836 122.867 176.836 122.804 176.836 122.747V117.581C176.836 117.16 176.791 116.745 176.706 116.347H176.711ZM175.37 125.763C175.047 126.252 174.651 126.685 174.193 127.043C174.023 127.18 173.847 127.299 173.666 127.407C173.185 127.703 172.665 127.925 172.099 128.061H172.093C171.912 128.101 171.725 128.135 171.533 128.158C171.306 128.187 171.08 128.204 170.848 128.204C170.763 128.204 170.678 128.204 170.593 128.198C170.395 128.187 170.208 128.17 170.016 128.141C169.778 128.101 169.54 128.05 169.314 127.982C169.116 127.925 168.923 127.851 168.736 127.777C168.335 127.601 167.961 127.384 167.616 127.128C167.429 126.986 167.248 126.832 167.078 126.662C166.874 126.468 166.688 126.252 166.518 126.025C166.354 125.808 166.206 125.575 166.076 125.336C165.884 124.978 165.731 124.602 165.623 124.21C165.493 123.743 165.425 123.254 165.425 122.747V117.581C165.425 116.335 165.839 115.186 166.54 114.27C167.027 113.633 167.65 113.103 168.363 112.734C169.11 112.341 169.953 112.125 170.848 112.125C173.434 112.125 175.591 113.94 176.145 116.381V116.392C176.23 116.773 176.276 117.172 176.276 117.581V122.793C176.27 123.134 176.236 123.47 176.174 123.794C176.083 124.249 175.942 124.676 175.749 125.08C175.642 125.319 175.512 125.547 175.37 125.763Z" fill="white"/>
<path d="M171.533 120.779C170.927 122.708 170.141 125.245 170.594 128.198C170.622 128.386 170.656 128.574 170.695 128.767C170.497 128.767 170.305 128.75 170.112 128.727C170.073 128.528 170.039 128.335 170.016 128.141C169.586 125.126 170.384 122.56 170.99 120.608C171.635 118.537 171.901 117.524 170.927 117.109C170.622 116.978 170.316 117.018 169.994 117.234C168.448 118.264 167.067 122.708 166.518 126.025C166.473 126.286 166.433 126.537 166.399 126.776C166.235 126.588 166.083 126.394 165.93 126.19C165.969 125.911 166.02 125.626 166.077 125.336C166.699 122.042 168.03 117.86 169.682 116.762C170.163 116.443 170.673 116.381 171.148 116.586C172.637 117.223 172.15 118.793 171.533 120.779Z" fill="white"/>
<path d="M170.549 120.637C169.983 122.463 169.151 125.137 169.315 127.982C169.326 128.181 169.337 128.38 169.36 128.585C169.162 128.534 168.97 128.471 168.777 128.403H168.771C168.754 128.192 168.743 127.987 168.737 127.777C168.624 124.926 169.445 122.281 170.011 120.466C170.237 119.743 170.492 118.93 170.486 118.617C169.802 119.231 167.679 124.238 167.617 127.128C167.605 127.384 167.617 127.618 167.645 127.834C167.436 127.703 167.243 127.555 167.051 127.401C167.051 127.168 167.051 126.918 167.079 126.662C167.317 123.646 169.122 119.1 170.107 118.201C170.368 117.962 170.583 117.974 170.713 118.025C171.296 118.253 171.03 119.1 170.549 120.637Z" fill="white"/>
<path d="M172.099 128.061C172.173 128.255 172.258 128.431 172.337 128.585C172.156 128.63 171.963 128.67 171.771 128.704C171.686 128.539 171.607 128.357 171.533 128.158C171.069 126.941 170.826 125.091 171.669 122.565C173.316 117.638 173.027 116.466 171.805 115.817C171.103 115.442 170.407 115.419 169.733 115.749C168.041 116.591 166.569 119.635 165.624 124.209C165.55 124.557 165.483 124.909 165.42 125.273C165.256 124.938 165.132 124.585 165.041 124.215C165.16 123.623 165.29 123.06 165.426 122.525C166.411 118.611 167.82 116.068 169.484 115.243C170.327 114.822 171.199 114.844 172.071 115.311C173.774 116.221 173.808 117.957 172.207 122.742C171.386 125.199 171.652 126.952 172.093 128.061H172.099Z" fill="white"/>
<path d="M174.889 127.191C174.696 127.367 174.498 127.532 174.283 127.68C174.204 127.657 174.13 127.635 174.051 127.606C173.915 127.555 173.785 127.492 173.666 127.407C173.078 127.054 172.648 126.423 172.415 125.569C172.121 124.505 172.602 122.969 173.117 121.348C173.632 119.715 174.164 118.031 173.91 116.807C173.706 115.817 173.191 115.089 172.421 114.697C171.431 114.202 170.112 114.287 168.714 114.941C167.242 115.635 166.116 117.689 165.425 119.311C165.182 119.885 164.99 120.403 164.859 120.784V119.186C165.024 118.799 165.21 118.378 165.425 117.957C166.156 116.517 167.18 115.032 168.47 114.429C170.033 113.695 171.527 113.61 172.676 114.19C173.604 114.662 174.227 115.527 174.464 116.694C174.747 118.059 174.193 119.817 173.655 121.518C173.168 123.06 172.71 124.511 172.959 125.416C173.191 126.235 173.61 126.798 174.193 127.043C174.21 127.054 174.232 127.066 174.255 127.071C174.453 127.151 174.668 127.191 174.889 127.191Z" fill="white"/>
<path d="M176.58 124.505C176.473 124.858 176.337 125.2 176.167 125.518C175.884 125.66 175.618 125.74 175.369 125.763C175.313 125.769 175.262 125.769 175.211 125.769C175.165 125.769 175.115 125.763 175.069 125.757C174.441 125.7 173.96 125.285 173.767 124.648C173.518 123.8 173.926 122.207 174.356 120.523C174.667 119.305 174.99 118.042 174.99 117.251C174.99 115.499 174.537 113.621 171.192 113.024C169.488 112.717 167.049 113.809 165.617 116.142C165.34 116.597 165.702 114.85 165.391 115.106C165.594 114.64 165.911 114.662 166.223 114.27C166.851 113.86 168.6 112.125 171.288 112.461C175.143 112.944 175.556 115.522 175.556 117.251C175.556 118.116 175.239 119.356 174.899 120.665C174.526 122.127 174.107 123.789 174.311 124.488C174.435 124.898 174.73 125.16 175.12 125.194C175.301 125.211 175.516 125.177 175.748 125.08C176.009 124.978 176.297 124.79 176.58 124.505Z" fill="white"/>
<path d="M176.842 121.41V122.747C176.842 122.804 176.842 122.867 176.836 122.924C176.842 122.93 176.836 122.93 176.836 122.93C176.638 123.316 176.423 123.612 176.174 123.794C175.976 123.942 175.755 124.016 175.501 124.016C175.45 124.016 175.393 124.016 175.336 124.011C175.161 123.988 175.019 123.885 174.935 123.72C174.68 123.248 174.997 122.298 175.206 121.763C175.982 119.795 176.259 118.315 176.146 116.392V116.381C176.168 116.056 176.18 115.857 176.18 115.846C176.191 115.692 176.327 115.573 176.48 115.579C176.485 115.579 176.497 115.579 176.502 115.584C176.593 115.829 176.661 116.085 176.712 116.347C176.683 116.768 176.644 117.189 176.604 117.61C176.525 118.418 176.429 119.226 176.276 120.028C176.236 120.244 176.417 120.159 176.372 120.375C176.299 120.694 176.004 121.325 175.874 121.627C175.738 121.94 175.585 122.247 175.478 122.571C175.41 122.765 175.161 123.675 175.67 123.476C175.863 123.402 176.016 123.203 176.129 123.038C176.18 122.958 176.231 122.878 176.276 122.793C176.446 122.491 176.576 122.156 176.695 121.831C176.746 121.695 176.797 121.553 176.842 121.41Z" fill="white"/>
<path d="M135.11 24.9092V39.4176C135.11 39.8557 134.753 40.2142 134.318 40.2142H119.641C119.534 39.9923 119.313 39.833 119.047 39.833C118.679 39.833 118.385 40.1288 118.385 40.4987C118.385 40.8685 118.679 41.1644 119.047 41.1644C119.313 41.1644 119.534 41.005 119.641 40.7832H134.318C135.065 40.7832 135.676 40.1687 135.676 39.4176V24.9092H135.11Z" fill="#407BFF"/>
<path opacity="0.4" d="M135.11 24.9092V39.4176C135.11 39.8557 134.753 40.2142 134.318 40.2142H119.641C119.534 39.9923 119.313 39.833 119.047 39.833C118.679 39.833 118.385 40.1288 118.385 40.4987C118.385 40.8685 118.679 41.1644 119.047 41.1644C119.313 41.1644 119.534 41.005 119.641 40.7832H134.318C135.065 40.7832 135.676 40.1687 135.676 39.4176V24.9092H135.11Z" fill="#6A0DAD"/>
<path d="M148.264 27.8905V6.28709C148.264 5.44182 147.582 4.75659 146.741 4.75659L124.05 4.75659C123.209 4.75659 122.528 5.44182 122.528 6.28709V27.8905C122.528 28.7358 123.209 29.421 124.05 29.421H146.741C147.582 29.421 148.264 28.7358 148.264 27.8905Z" fill="#6A0DAD"/>
<path opacity="0.4" d="M148.264 27.8905V6.28709C148.264 5.44182 147.582 4.75659 146.741 4.75659L124.05 4.75659C123.209 4.75659 122.528 5.44182 122.528 6.28709V27.8905C122.528 28.7358 123.209 29.421 124.05 29.421H146.741C147.582 29.421 148.264 28.7358 148.264 27.8905Z" fill="white"/>
<path opacity="0.2" d="M133.456 15.4302H130.156V18.7472H133.456V15.4302Z" fill="white"/>
<path opacity="0.2" d="M144.206 19.0374H140.906V22.3544H144.206V19.0374Z" fill="white"/>
<path opacity="0.2" d="M129.874 11.8286H126.574V15.1456H129.874V11.8286Z" fill="white"/>
<path opacity="0.2" d="M140.622 19.0374H137.322V22.3544H140.622V19.0374Z" fill="white"/>
<path opacity="0.2" d="M137.04 19.0374H133.74V22.3544H137.04V19.0374Z" fill="white"/>
<path opacity="0.2" d="M140.622 15.4302H137.322V18.7472H140.622V15.4302Z" fill="white"/>
<path opacity="0.2" d="M147.981 15.4302H144.494V18.7472H147.981V15.4302Z" fill="white"/>
<path opacity="0.2" d="M133.456 11.8286H130.156V15.1456H133.456V11.8286Z" fill="white"/>
<path opacity="0.2" d="M144.206 15.4302H140.906V18.7472H144.206V15.4302Z" fill="white"/>
<path opacity="0.2" d="M129.874 15.4302H126.574V18.7472H129.874V15.4302Z" fill="white"/>
<path opacity="0.2" d="M129.874 19.0374H126.574V22.3544H129.874V19.0374Z" fill="white"/>
<path opacity="0.2" d="M137.04 15.4302H133.74V18.7472H137.04V15.4302Z" fill="white"/>
<path opacity="0.2" d="M147.981 19.0374H144.494V22.3544H147.981V19.0374Z" fill="white"/>
<path opacity="0.2" d="M133.456 5.04102H130.156V7.94271H133.456V5.04102Z" fill="white"/>
<path opacity="0.2" d="M144.206 5.04102H140.906V7.94271H144.206V5.04102Z" fill="white"/>
<path opacity="0.2" d="M137.04 5.04102H133.74V7.94271H137.04V5.04102Z" fill="white"/>
<path opacity="0.2" d="M140.622 5.04102H137.322V7.94271H140.622V5.04102Z" fill="white"/>
<path opacity="0.2" d="M133.456 19.0374H130.156V22.3544H133.456V19.0374Z" fill="white"/>
<path opacity="0.2" d="M144.494 26.2405V29.1422H146.741C147.426 29.1422 147.981 28.5846 147.981 27.8962V26.2405H144.494Z" fill="white"/>
<path opacity="0.2" d="M144.206 22.6389H140.906V25.9559H144.206V22.6389Z" fill="white"/>
<path opacity="0.2" d="M129.874 5.04102H126.574V7.94271H129.874V5.04102Z" fill="white"/>
<path opacity="0.2" d="M140.622 22.6389H137.322V25.9559H140.622V22.6389Z" fill="white"/>
<path opacity="0.2" d="M137.04 22.6389H133.74V25.9559H137.04V22.6389Z" fill="white"/>
<path opacity="0.2" d="M133.456 22.6389H130.156V25.9559H133.456V22.6389Z" fill="white"/>
<path opacity="0.2" d="M129.874 22.6389H126.574V25.9559H129.874V22.6389Z" fill="white"/>
<path opacity="0.2" d="M129.874 26.2405H126.574V29.1422H129.874V26.2405Z" fill="white"/>
<path opacity="0.2" d="M147.981 22.6389H144.494V25.9559H147.981V22.6389Z" fill="white"/>
<path opacity="0.2" d="M126.291 15.4302H122.805V18.7472H126.291V15.4302Z" fill="white"/>
<path opacity="0.2" d="M126.291 19.0374H122.805V22.3544H126.291V19.0374Z" fill="white"/>
<path opacity="0.2" d="M137.04 26.2405H133.74V29.1422H137.04V26.2405Z" fill="white"/>
<path opacity="0.2" d="M126.291 22.6389H122.805V25.9559H126.291V22.6389Z" fill="white"/>
<path opacity="0.2" d="M133.456 26.2405H130.156V29.1422H133.456V26.2405Z" fill="white"/>
<path opacity="0.2" d="M126.291 7.94271V5.04102H124.044C123.359 5.04102 122.805 5.5986 122.805 6.28704V7.94271H126.291Z" fill="white"/>
<path opacity="0.2" d="M126.291 26.2405H122.805V27.8962C122.805 28.5846 123.359 29.1422 124.044 29.1422H126.291V26.2405Z" fill="white"/>
<path opacity="0.2" d="M144.494 7.94271H147.981V6.28704C147.981 5.5986 147.426 5.04102 146.741 5.04102H144.494V7.94271Z" fill="white"/>
<path opacity="0.2" d="M140.622 26.2405H137.322V29.1422H140.622V26.2405Z" fill="white"/>
<path opacity="0.2" d="M144.206 26.2405H140.906V29.1422H144.206V26.2405Z" fill="white"/>
<path opacity="0.2" d="M137.04 8.22729H133.74V11.5443H137.04V8.22729Z" fill="white"/>
<path opacity="0.2" d="M129.874 8.22729H126.574V11.5443H129.874V8.22729Z" fill="white"/>
<path opacity="0.2" d="M147.981 11.8286H144.494V15.1456H147.981V11.8286Z" fill="white"/>
<path opacity="0.2" d="M133.456 8.22729H130.156V11.5443H133.456V8.22729Z" fill="white"/>
<path opacity="0.2" d="M140.622 11.8286H137.322V15.1456H140.622V11.8286Z" fill="white"/>
<path opacity="0.2" d="M144.206 11.8286H140.906V15.1456H144.206V11.8286Z" fill="white"/>
<path opacity="0.2" d="M126.291 11.8286H122.805V15.1456H126.291V11.8286Z" fill="white"/>
<path opacity="0.2" d="M126.291 8.22729H122.805V11.5443H126.291V8.22729Z" fill="white"/>
<path opacity="0.2" d="M147.981 8.22729H144.494V11.5443H147.981V8.22729Z" fill="white"/>
<path opacity="0.2" d="M137.04 11.8286H133.74V15.1456H137.04V11.8286Z" fill="white"/>
<path opacity="0.2" d="M140.622 8.22729H137.322V11.5443H140.622V8.22729Z" fill="white"/>
<path opacity="0.2" d="M144.206 8.22729H140.906V11.5443H144.206V8.22729Z" fill="white"/>
<path d="M127.928 16.9891C127.928 16.9891 131.267 20.9775 135.393 20.9775C139.519 20.9775 142.859 16.9891 142.859 16.9891C142.859 16.9891 139.519 13.0007 135.393 13.0007C131.267 13.0007 127.928 16.9891 127.928 16.9891Z" stroke="white" stroke-linecap="round" stroke-linejoin="round"/>
<path d="M137.993 16.4201C137.993 17.8653 136.827 19.0316 135.395 19.0316C133.963 19.0316 132.797 17.8596 132.797 16.4201C132.797 14.9807 133.963 13.8086 135.395 13.8086C136.827 13.8086 137.993 14.9807 137.993 16.4201Z" stroke="white" stroke-miterlimit="10"/>
<path d="M135.682 15.2708C135.682 14.8043 136.061 14.4231 136.525 14.4231C136.989 14.4231 137.368 14.8043 137.368 15.2708C137.368 15.7374 136.989 16.1186 136.525 16.1186C136.061 16.1186 135.682 15.7374 135.682 15.2708Z" stroke="white" stroke-miterlimit="10"/>
<path d="M135.395 12.9951V10.3267" stroke="white" stroke-linecap="round" stroke-linejoin="round"/>
<path d="M137.709 13.1885L138.66 11.0208" stroke="white" stroke-linecap="round" stroke-linejoin="round"/>
<path d="M139.934 14.1841L141.264 12.5967" stroke="white" stroke-linecap="round" stroke-linejoin="round"/>
<path d="M141.717 15.4075L143.002 14.5427" stroke="white" stroke-linecap="round" stroke-linejoin="round"/>
<path d="M133.074 13.1885L132.123 11.0208" stroke="white" stroke-linecap="round" stroke-linejoin="round"/>
<path d="M130.85 14.1841L129.52 12.5967" stroke="white" stroke-linecap="round" stroke-linejoin="round"/>
<path d="M129.066 15.4075L127.781 14.5427" stroke="white" stroke-linecap="round" stroke-linejoin="round"/>
<path d="M96.9227 41.113C96.6624 41.113 96.4473 41.2667 96.3341 41.4829H81.3011C80.554 41.4829 79.9427 42.0973 79.9427 42.8484V58.3696C79.9427 58.8077 79.5862 59.1661 79.1503 59.1661H73.1055V59.7351H79.1503C79.8975 59.7351 80.5087 59.1206 80.5087 58.3696V42.8484C80.5087 42.4103 80.8653 42.0518 81.3011 42.0518H96.3171C96.419 42.2851 96.6511 42.4444 96.9171 42.4444C97.285 42.4444 97.5793 42.1485 97.5793 41.7787C97.5793 41.4089 97.285 41.113 96.9171 41.113H96.9227Z" fill="#407BFF"/>
<path opacity="0.4" d="M96.9227 41.113C96.6624 41.113 96.4473 41.2667 96.3341 41.4829H81.3011C80.554 41.4829 79.9427 42.0973 79.9427 42.8484V58.3696C79.9427 58.8077 79.5862 59.1661 79.1503 59.1661H73.1055V59.7351H79.1503C79.8975 59.7351 80.5087 59.1206 80.5087 58.3696V42.8484C80.5087 42.4103 80.8653 42.0518 81.3011 42.0518H96.3171C96.419 42.2851 96.6511 42.4444 96.9171 42.4444C97.285 42.4444 97.5793 42.1485 97.5793 41.7787C97.5793 41.4089 97.285 41.113 96.9171 41.113H96.9227Z" fill="#6A0DAD"/>
<path d="M71.5878 45.9492H50.0968C49.2559 45.9492 48.5742 46.6344 48.5742 47.4797V70.2893C48.5742 71.1346 49.2559 71.8198 50.0968 71.8198H71.5878C72.4287 71.8198 73.1103 71.1346 73.1103 70.2893V47.4797C73.1103 46.6344 72.4287 45.9492 71.5878 45.9492Z" fill="#6A0DAD"/>
<path opacity="0.4" d="M71.6893 46.0859H50.1983C49.3574 46.0859 48.6758 46.7712 48.6758 47.6164V70.426C48.6758 71.2713 49.3574 71.9565 50.1983 71.9565H71.6893C72.5302 71.9565 73.2119 71.2713 73.2119 70.426V47.6164C73.2119 46.7712 72.5302 46.0859 71.6893 46.0859Z" fill="#6A0DAD"/>
<path opacity="0.2" d="M62.5215 61.0078H59.1719V64.3994H62.5215V61.0078Z" fill="#9FBDFF"/>
<path opacity="0.2" d="M66.1582 49.9607H62.8086V53.3523H66.1582V49.9607Z" fill="#9FBDFF"/>
<path opacity="0.2" d="M58.8789 64.6904H55.5293V68.0821H58.8789V64.6904Z" fill="#9FBDFF"/>
<path opacity="0.2" d="M66.1582 53.6431H62.8086V57.0347H66.1582V53.6431Z" fill="#9FBDFF"/>
<path opacity="0.2" d="M66.1582 57.3254H62.8086V60.7171H66.1582V57.3254Z" fill="#9FBDFF"/>
<path opacity="0.2" d="M62.5215 53.6431H59.1719V57.0347H62.5215V53.6431Z" fill="#9FBDFF"/>
<path opacity="0.2" d="M62.5215 46.0859H59.1719V49.6695H62.5215V46.0859Z" fill="#9FBDFF"/>
<path opacity="0.2" d="M58.8789 61.0078H55.5293V64.3994H58.8789V61.0078Z" fill="#9FBDFF"/>
<path opacity="0.2" d="M62.5215 49.9607H59.1719V53.3523H62.5215V49.9607Z" fill="#9FBDFF"/>
<path opacity="0.2" d="M62.5215 64.6904H59.1719V68.0821H62.5215V64.6904Z" fill="#9FBDFF"/>
<path opacity="0.2" d="M66.1582 64.6904H62.8086V68.0821H66.1582V64.6904Z" fill="#9FBDFF"/>
<path opacity="0.2" d="M62.5215 57.3254H59.1719V60.7171H62.5215V57.3254Z" fill="#9FBDFF"/>
<path opacity="0.2" d="M66.1582 46.0859H62.8086V49.6695H66.1582V46.0859Z" fill="#9FBDFF"/>
<path opacity="0.2" d="M51.6119 61.0078H48.6816V64.3994H51.6119V61.0078Z" fill="#9FBDFF"/>
<path opacity="0.2" d="M51.6119 49.9604H48.6816V53.3521H51.6119V49.9604Z" fill="#9FBDFF"/>
<path opacity="0.2" d="M51.6119 57.3252H48.6816V60.7168H51.6119V57.3252Z" fill="#9FBDFF"/>
<path opacity="0.2" d="M51.6119 53.6431H48.6816V57.0347H51.6119V53.6431Z" fill="#9FBDFF"/>
<path opacity="0.2" d="M66.1582 61.0078H62.8086V64.3994H66.1582V61.0078Z" fill="#9FBDFF"/>
<path opacity="0.2" d="M70.084 49.6695H73.0142V47.36C73.0142 46.6561 72.4511 46.0859 71.7559 46.0859H70.084V49.6695Z" fill="#9FBDFF"/>
<path opacity="0.2" d="M69.7969 49.9607H66.4473V53.3523H69.7969V49.9607Z" fill="#9FBDFF"/>
<path opacity="0.2" d="M51.6119 64.6904H48.6816V68.0821H51.6119V64.6904Z" fill="#9FBDFF"/>
<path opacity="0.2" d="M69.7969 53.6431H66.4473V57.0347H69.7969V53.6431Z" fill="#9FBDFF"/>
<path opacity="0.2" d="M69.7969 57.3254H66.4473V60.7171H69.7969V57.3254Z" fill="#9FBDFF"/>
<path opacity="0.2" d="M69.7969 61.0078H66.4473V64.3994H69.7969V61.0078Z" fill="#9FBDFF"/>
<path opacity="0.2" d="M69.7969 64.6904H66.4473V68.0821H69.7969V64.6904Z" fill="#9FBDFF"/>
<path opacity="0.2" d="M73.0142 64.6904H70.084V68.0821H73.0142V64.6904Z" fill="#9FBDFF"/>
<path opacity="0.2" d="M69.7969 46.0859H66.4473V49.6695H69.7969V46.0859Z" fill="#9FBDFF"/>
<path opacity="0.2" d="M62.5215 68.3728H59.1719V71.9564H62.5215V68.3728Z" fill="#9FBDFF"/>
<path opacity="0.2" d="M66.1582 68.3728H62.8086V71.9564H66.1582V68.3728Z" fill="#9FBDFF"/>
<path opacity="0.2" d="M73.0142 57.3254H70.084V60.7171H73.0142V57.3254Z" fill="#9FBDFF"/>
<path opacity="0.2" d="M69.7969 68.3728H66.4473V71.9564H69.7969V68.3728Z" fill="#9FBDFF"/>
<path opacity="0.2" d="M73.0142 61.0078H70.084V64.3994H73.0142V61.0078Z" fill="#9FBDFF"/>
<path opacity="0.2" d="M51.606 68.373H48.6758V70.6826C48.6758 71.3865 49.2388 71.9567 49.9341 71.9567H51.606V68.373Z" fill="#9FBDFF"/>
<path opacity="0.2" d="M70.084 68.3728V71.9564H71.7559C72.4511 71.9564 73.0142 71.3863 73.0142 70.6824V68.3728H70.084Z" fill="#9FBDFF"/>
<path opacity="0.2" d="M51.606 49.6695V46.0859H49.9341C49.2388 46.0859 48.6758 46.6561 48.6758 47.36V49.6695H51.606Z" fill="#9FBDFF"/>
<path opacity="0.2" d="M73.0142 53.6431H70.084V57.0347H73.0142V53.6431Z" fill="#9FBDFF"/>
<path opacity="0.2" d="M73.0142 49.9607H70.084V53.3523H73.0142V49.9607Z" fill="#9FBDFF"/>
<path opacity="0.2" d="M55.2422 57.3254H51.8926V60.7171H55.2422V57.3254Z" fill="#9FBDFF"/>
<path opacity="0.2" d="M55.2422 64.6904H51.8926V68.0821H55.2422V64.6904Z" fill="#9FBDFF"/>
<path opacity="0.2" d="M58.8789 46.0859H55.5293V49.6695H58.8789V46.0859Z" fill="#9FBDFF"/>
<path opacity="0.2" d="M55.2422 61.0078H51.8926V64.3994H55.2422V61.0078Z" fill="#9FBDFF"/>
<path opacity="0.2" d="M58.8789 53.6431H55.5293V57.0347H58.8789V53.6431Z" fill="#9FBDFF"/>
<path opacity="0.2" d="M58.8789 49.9607H55.5293V53.3523H58.8789V49.9607Z" fill="#9FBDFF"/>
<path opacity="0.2" d="M58.8789 68.3728H55.5293V71.9564H58.8789V68.3728Z" fill="#9FBDFF"/>
<path opacity="0.2" d="M55.2422 68.3728H51.8926V71.9564H55.2422V68.3728Z" fill="#9FBDFF"/>
<path opacity="0.2" d="M55.2422 46.0859H51.8926V49.6695H55.2422V46.0859Z" fill="#9FBDFF"/>
<path opacity="0.2" d="M58.8789 57.3254H55.5293V60.7171H58.8789V57.3254Z" fill="#9FBDFF"/>
<path opacity="0.2" d="M55.2422 53.6431H51.8926V57.0347H55.2422V53.6431Z" fill="#9FBDFF"/>
<path opacity="0.2" d="M55.2422 49.9607H51.8926V53.3523H55.2422V49.9607Z" fill="#9FBDFF"/>
<path d="M60.8396 68.0647C57.5342 68.0647 54.8457 65.3621 54.8457 62.0394V56.8676C54.8457 53.5448 57.5342 50.8423 60.8396 50.8423C64.1451 50.8423 66.8336 53.5448 66.8336 56.8676V62.0394C66.8336 65.3621 64.1451 68.0647 60.8396 68.0647ZM60.8396 51.4112C57.8455 51.4112 55.4117 53.8578 55.4117 56.8676V62.0394C55.4117 65.0492 57.8455 67.4957 60.8396 67.4957C63.8338 67.4957 66.2676 65.0492 66.2676 62.0394V56.8676C66.2676 53.8578 63.8338 51.4112 60.8396 51.4112Z" fill="white"/>
<path d="M63.5441 58.745C63.8942 58.745 64.178 58.3578 64.178 57.8802C64.178 57.4026 63.8942 57.0154 63.5441 57.0154C63.194 57.0154 62.9102 57.4026 62.9102 57.8802C62.9102 58.3578 63.194 58.745 63.5441 58.745Z" fill="white"/>
<path d="M58.7678 57.8802C58.7678 58.3581 58.4848 58.745 58.1339 58.745C57.783 58.745 57.5 58.3581 57.5 57.8802C57.5 57.4023 57.783 57.0154 58.1339 57.0154C58.4848 57.0154 58.7678 57.4023 58.7678 57.8802Z" fill="white"/>
<path d="M60.8739 58.7451L59.6797 61.8232H60.8739V58.7451Z" fill="white"/>
<path d="M60.6239 63.9568C59.5768 63.9568 59.073 63.7178 59.0391 63.7065L59.2824 63.1944L59.1579 63.4504L59.2768 63.1944C59.2768 63.1944 60.2899 63.6439 62.4577 63.1716L62.5766 63.7292C61.7898 63.8999 61.1389 63.9568 60.6182 63.9568H60.6239Z" fill="white"/>
<path d="M225.257 8.72778H163.591C161.987 8.72778 160.688 10.0346 160.688 11.6465V73.6347C160.688 75.2467 161.987 76.5535 163.591 76.5535H225.257C226.86 76.5535 228.16 75.2467 228.16 73.6347V11.6465C228.16 10.0346 226.86 8.72778 225.257 8.72778Z" fill="#6A0DAD"/>
<path opacity="0.5" d="M218.278 50.5349H170.57C169.122 50.5349 167.949 51.7143 167.949 53.1692V61.9426C167.949 63.3974 169.122 64.5768 170.57 64.5768H218.278C219.725 64.5768 220.899 63.3974 220.899 61.9426V53.1692C220.899 51.7143 219.725 50.5349 218.278 50.5349Z" fill="white"/>
<path d="M177.414 57.5616L178.959 58.4037L178.263 59.57L176.706 58.6426L176.734 60.3666H175.404L175.421 58.6256L173.865 59.5644L173.186 58.398L174.731 57.5559L173.186 56.7025L173.865 55.5361L175.421 56.4749L175.404 54.7339H176.734L176.706 56.4749L178.263 55.5361L178.959 56.7025L177.414 57.5559V57.5616Z" fill="white"/>
<path d="M186.589 57.5616L188.135 58.4037L187.438 59.57L185.882 58.6426L185.91 60.3666H184.58L184.597 58.6256L183.041 59.5644L182.361 58.398L183.907 57.5559L182.361 56.7025L183.041 55.5361L184.597 56.4749L184.58 54.7339H185.91L185.882 56.4749L187.438 55.5361L188.135 56.7025L186.589 57.5559V57.5616Z" fill="white"/>
<path d="M195.769 57.5616L197.314 58.4037L196.618 59.57L195.062 58.6426L195.09 60.3666H193.76L193.777 58.6256L192.22 59.5644L191.541 58.398L193.086 57.5559L191.541 56.7025L192.22 55.5361L193.777 56.4749L193.76 54.7339H195.09L195.062 56.4749L196.618 55.5361L197.314 56.7025L195.769 57.5559V57.5616Z" fill="white"/>
<path d="M204.949 57.5616L206.494 58.4037L205.798 59.57L204.241 58.6426L204.27 60.3666H202.939L202.956 58.6256L201.4 59.5644L200.721 58.398L202.266 57.5559L200.721 56.7025L201.4 55.5361L202.956 56.4749L202.939 54.7339H204.27L204.241 56.4749L205.798 55.5361L206.494 56.7025L204.949 57.5559V57.5616Z" fill="white"/>
<path d="M214.125 57.5616L215.67 58.4037L214.974 59.57L213.417 58.6426L213.445 60.3666H212.115L212.132 58.6256L210.576 59.5644L209.896 58.398L211.442 57.5559L209.896 56.7025L210.576 55.5361L212.132 56.4749L212.115 54.7339H213.445L213.417 56.4749L214.974 55.5361L215.67 56.7025L214.125 57.5559V57.5616Z" fill="white"/>
<path opacity="0.5" d="M205.121 40.4712C211.029 34.532 211.03 24.9026 205.121 18.9634C199.213 13.0242 189.634 13.0242 183.725 18.9634C177.817 24.9026 177.817 34.532 183.725 40.4712C189.634 46.4104 199.213 46.4104 205.121 40.4712Z" fill="white"/>
<path d="M200.337 28.8633H188.502C187.607 28.8633 186.883 29.5915 186.883 30.4905V37.7391C186.883 38.638 187.607 39.3663 188.502 39.3663H200.337C201.231 39.3663 201.955 38.638 201.955 37.7391V30.4905C201.955 29.5915 201.231 28.8633 200.337 28.8633ZM195.509 36.9254H193.33L193.788 33.9668C193.313 33.7336 192.979 33.2443 192.979 32.6753C192.979 31.8788 193.624 31.2302 194.416 31.2302C195.209 31.2302 195.854 31.8788 195.854 32.6753C195.854 33.2443 195.526 33.7336 195.045 33.9668L195.503 36.9254H195.509Z" fill="#6A0DAD"/>
<path d="M191.015 27.7025L190.794 26.5873C190.398 24.6074 191.677 22.6729 193.647 22.2746C195.617 21.8764 197.541 23.1622 197.937 25.1422L198.158 26.2573L200.247 25.8363L200.026 24.7211C199.398 21.5862 196.352 19.5436 193.228 20.1752C190.11 20.8067 188.078 23.8677 188.706 27.0084L188.927 28.1235L191.015 27.7025Z" fill="#6A0DAD"/>
<path opacity="0.2" d="M202.854 69.6349H185.987C185.574 69.6349 185.24 69.2992 185.24 68.8838C185.24 68.4685 185.574 68.1328 185.987 68.1328H202.854C203.267 68.1328 203.601 68.4685 203.601 68.8838C203.601 69.2992 203.267 69.6349 202.854 69.6349Z" fill="black"/>
<path d="M146.984 69.3221L152.78 64.3721C152.78 64.3721 157.716 59.115 158.757 59.0012C159.804 58.8874 162.04 59.3369 162.64 60.0879C163.24 60.8389 158.78 65.7206 157.733 66.6195C156.686 67.5185 154.597 67.3706 154.597 67.3706L149.073 72.7358L146.984 69.3221Z" fill="#EBB376"/>
<path d="M102.272 201.503H96.6686C96.4818 201.503 96.3177 201.634 96.2781 201.821L95.3668 205.952C95.2876 206.322 95.5253 206.686 95.8932 206.766C95.9441 206.777 95.9951 206.783 96.0403 206.783C97.8515 206.754 99.176 206.64 101.451 206.64C102.855 206.64 107.083 206.788 109.019 206.788C110.954 206.788 111.209 204.865 110.417 204.689C106.862 203.909 104.185 202.828 103.047 201.804C102.838 201.611 102.561 201.503 102.272 201.508V201.503Z" fill="#263238"/>
<path d="M126.032 201.355H120.428C120.242 201.355 120.077 201.486 120.038 201.673L119.127 205.804C119.047 206.174 119.285 206.538 119.653 206.618C119.704 206.629 119.755 206.635 119.8 206.635C121.611 206.606 122.936 206.492 125.211 206.492C126.615 206.492 130.843 206.64 132.778 206.64C134.714 206.64 134.969 204.717 134.177 204.541C130.622 203.761 127.945 202.68 126.807 201.656C126.598 201.463 126.32 201.355 126.032 201.36V201.355Z" fill="#263238"/>
<path d="M99.3003 97.0987H123.78C126.106 109.878 132.762 161.579 127.538 201.861L119.365 202.76C119.365 202.76 120.644 140.857 113.331 121.086C112.488 131.669 111.492 142.923 110.62 148.914C108.492 163.656 103.692 202.083 103.692 202.083L95.4062 202.311C95.4062 202.311 97.2231 165.038 98.0212 150.547C98.8928 134.815 99.272 100.325 99.306 97.093L99.3003 97.0987Z" fill="#263238"/>
<path opacity="0.2" d="M99.3003 97.0987H123.78C126.106 109.878 132.762 161.579 127.538 201.861L119.365 202.76C119.365 202.76 120.644 140.857 113.331 121.086C112.488 131.669 111.492 142.923 110.62 148.914C108.492 163.656 103.692 202.083 103.692 202.083L95.4062 202.311C95.4062 202.311 97.2231 165.038 98.0212 150.547C98.8928 134.815 99.272 100.325 99.306 97.093L99.3003 97.0987Z" fill="white"/>
<path opacity="0.2" d="M113.332 121.092C114.413 124.005 115.307 127.646 116.066 131.737C116.751 122.321 114.011 112.335 114.011 112.335L113.332 121.092Z" fill="black"/>
<path d="M121.544 54.5234C125.409 54.9957 133.022 72.6619 135.931 74.2379C138.841 75.8139 150.376 65.9083 150.376 65.9083L153.285 69.5098C153.285 69.5098 140.188 83.5802 135.037 82.0042C129.886 80.4282 122.608 67.1486 120.372 62.9839C118.131 58.8191 121.544 54.5234 121.544 54.5234Z" fill="#6A0DAD"/>
<path opacity="0.5" d="M153.285 69.5155C153.285 69.5155 140.188 83.5802 135.038 82.0042C132.79 81.3157 130.136 78.397 127.674 74.9832C124.493 70.5738 121.635 65.3337 120.372 62.9896C119.167 60.7535 119.597 58.472 120.248 56.8448C120.814 55.4452 121.544 54.5234 121.544 54.5234C125.41 54.9957 133.023 72.6676 135.932 74.2436C138.847 75.8139 150.376 65.914 150.376 65.914L153.285 69.5155Z" fill="white"/>
<path opacity="0.2" d="M127.674 74.9832C124.493 70.5737 121.635 65.3336 120.372 62.9895C119.167 60.7535 119.597 58.472 120.248 56.8447C122.45 59.57 126.927 66.1131 127.674 74.9832Z" fill="black"/>
<path d="M121.543 54.5233C121.543 54.5233 105.972 53.7836 94.3691 56.7308C94.3691 56.7308 98.7217 90.5896 98.5236 105.331L126.292 103.829C126.292 103.829 125.59 69.7373 121.543 54.5233Z" fill="#6A0DAD"/>
<path opacity="0.6" d="M98.5294 105.337C98.62 98.4812 97.7257 87.4946 96.7465 77.6971C96.373 73.9534 95.9881 70.386 95.6372 67.2909C94.9297 61.0608 94.375 56.731 94.375 56.731C105.972 53.7895 121.543 54.5291 121.543 54.5291C125.59 69.7431 126.292 103.835 126.292 103.835L98.5294 105.337Z" fill="white"/>
<path opacity="0.2" d="M96.7461 77.6913C96.3725 73.9532 95.9876 70.3858 95.6367 67.2907L97.4196 65.9138C97.4196 65.9138 98.9705 72.0813 96.7461 77.6913Z" fill="black"/>
<path opacity="0.2" d="M121.339 91.0732L119.817 91.1471L115.685 91.3406L113.149 91.4601L107.869 91.7104C107.869 91.7104 107.857 91.4487 107.84 90.9708C107.795 89.9353 107.704 87.8984 107.552 85.3324C107.444 83.415 107.297 81.2074 107.116 78.8974C106.986 77.3044 106.844 75.6658 106.68 74.0442C106.437 71.6375 106.154 69.2593 105.82 67.12C105.644 65.9707 105.452 64.8954 105.248 63.9167L118.385 63.0576C118.385 63.0576 118.555 63.894 118.809 65.3562C118.979 66.3007 119.183 67.5069 119.404 68.9179C120.258 74.4084 121.339 82.9712 121.339 91.0732Z" fill="black"/>
<path opacity="0.2" d="M115.684 91.3406L113.149 91.4601C114.954 86.8458 115.662 80.3426 114.45 78.3171C112.809 75.5747 110.794 80.8319 109.368 87.136C108.977 88.8542 108.434 90.0832 107.839 90.9651C107.794 89.9353 107.704 87.8984 107.551 85.3324C108.173 84.3481 108.807 82.9598 109.368 80.9855C111.388 73.8565 113.182 72.582 115.492 74.4539C117.609 76.1721 118.231 84.4789 115.684 91.3406Z" fill="black"/>
<path opacity="0.2" d="M119.817 91.1472C120.332 85.0992 119.539 74.9091 117.773 71.7741C115.753 68.1783 111.293 68.0987 109.147 74.6019C108.508 76.5306 107.8 77.9075 107.116 78.8975C106.985 77.3044 106.844 75.6658 106.68 74.0443C107.178 73.4298 107.721 72.639 108.293 71.6262C110.738 67.2737 114.547 65.2482 118.254 67.78C118.668 68.0645 119.052 68.4457 119.403 68.918C120.258 74.4084 121.339 82.9713 121.339 91.0733L119.817 91.1472Z" fill="black"/>
<path opacity="0.2" d="M118.809 65.3562C115.872 63.1259 111.904 63.729 109.369 65.8398C108.055 66.9322 106.81 67.1883 105.82 67.12C105.644 65.9707 105.452 64.8954 105.248 63.9167L118.385 63.0576C118.385 63.0576 118.555 63.894 118.809 65.3562Z" fill="black"/>
<path d="M103.465 55.5588C105.701 57.6013 111.179 56.8446 111.179 56.8446C111.179 56.8446 114.598 55.9058 113.879 54.8305C111.864 54.4948 110.891 53.5504 110.489 52.3442C110.257 51.6386 110.223 50.8478 110.285 50.0342C110.313 49.6075 110.376 49.1694 110.455 48.7426L103.686 43.7017C104.574 47.0301 105.661 53.1521 103.471 55.5645L103.465 55.5588Z" fill="#EBB376"/>
<path opacity="0.2" d="M105.242 46.8994C105.508 50.9845 108.848 52.1111 110.483 52.3387C110.251 51.6332 110.217 50.8423 110.28 50.0287L105.242 46.8994Z" fill="black"/>
<path d="M115.142 33.1135C115.142 33.1135 117.033 39.2583 114.073 42.177C111.112 45.0958 109.369 33.3923 109.369 33.3923L115.142 33.1135Z" fill="#263238"/>
<path d="M105.179 48.6232C107.137 50.7056 109.854 50.9218 112.027 49.8522C113.425 49.1694 114.591 47.9462 115.197 46.3531C115.276 46.1426 115.344 45.9264 115.406 45.7045C116.465 41.6137 115.984 34.8146 111.563 32.9086C108.422 31.526 104.754 32.9655 103.379 36.1232C102.983 37.0222 102.807 38.0008 102.864 38.9851C103.039 43.5538 102.926 46.245 105.184 48.6232H105.179Z" fill="#EBB376"/>
<path d="M109.736 40.4018C109.702 40.7716 109.917 41.0788 110.16 41.0845C110.404 41.0845 110.602 40.7887 110.613 40.4188C110.625 40.049 110.426 39.7418 110.189 39.7361C109.951 39.7361 109.747 40.0263 109.736 40.4018Z" fill="#263238"/>
<path d="M113.919 40.4872C113.886 40.857 114.106 41.1643 114.344 41.17C114.582 41.17 114.785 40.8741 114.797 40.5043C114.808 40.1345 114.61 39.8272 114.372 39.8215C114.135 39.8215 113.931 40.1345 113.919 40.4872Z" fill="#263238"/>
<path d="M112.589 40.6465C113.008 41.7958 113.58 42.8768 114.293 43.8668C113.772 44.2252 113.115 44.3333 112.51 44.1627L112.589 40.6465Z" fill="#D58745"/>
<path d="M108.462 39.0136C108.542 39.025 108.621 38.9965 108.677 38.934C109.011 38.4902 109.532 38.2285 110.081 38.2285C110.2 38.2398 110.307 38.1545 110.319 38.035C110.33 37.9155 110.24 37.8074 110.121 37.796C109.424 37.7733 108.757 38.0976 108.338 38.6609C108.259 38.7519 108.276 38.8884 108.366 38.9681C108.394 38.9852 108.428 39.0022 108.462 39.0136Z" fill="#263238"/>
<path d="M115.747 39.076C115.787 39.0931 115.832 39.0988 115.878 39.0874C115.985 39.0362 116.036 38.911 115.985 38.8029C115.708 38.1543 115.13 37.6878 114.446 37.5455C114.327 37.5284 114.219 37.6081 114.202 37.7276C114.191 37.8471 114.27 37.9552 114.383 37.9722C114.921 38.1031 115.368 38.4786 115.589 38.9907C115.629 39.0419 115.685 39.076 115.753 39.0817L115.747 39.076Z" fill="#263238"/>
<path d="M106.311 33.3582L106.611 35.3666C105.966 35.7364 105.587 36.4931 105.915 37.2783C106.606 38.9567 105.723 41.6081 104.461 42.6891C104.461 42.6891 104.398 41.9551 103.787 42.1486C103.176 42.342 103.453 46.1541 104.704 47.9463C104.704 47.9463 102.531 45.9891 101.399 42.0063C100.346 38.3252 100.453 35.5942 101.178 34.1376L106.323 33.3638L106.311 33.3582Z" fill="#263238"/>
<path d="M112.843 45.2777C112.611 45.8467 112.396 46.8992 112.396 46.8992C112.3 46.8992 112.198 46.8992 112.102 46.8879C110.766 46.8253 110.166 46.353 109.906 45.8467C109.764 45.5679 109.73 45.2777 109.73 45.0444C109.73 44.7713 109.793 44.5779 109.793 44.5779C110.483 45.033 111.723 45.1924 112.385 45.2436C112.662 45.272 112.838 45.272 112.838 45.272L112.843 45.2777Z" fill="#263238"/>
<path d="M112.385 45.2493L112.244 45.7215C110.987 45.6589 110.11 45.4484 109.73 45.0444C109.73 44.7713 109.793 44.5779 109.793 44.5779C110.483 45.033 111.723 45.1924 112.385 45.2436V45.2493Z" fill="white"/>
<path d="M112.102 46.8879C110.767 46.8253 110.167 46.3531 109.906 45.8467C110.359 45.8865 110.902 45.9832 111.378 46.2108C111.74 46.3815 111.961 46.6375 112.102 46.8879Z" fill="#DE5753"/>
<path d="M109.306 34.6041C109.306 34.6041 109.663 33.9839 110.613 34.2684C111.57 34.5472 112.413 35.5144 113.398 36.7434C114.383 37.9723 116.33 37.9837 116.777 37.2497C117.224 36.5158 116.33 35.503 116.33 35.503C116.33 35.503 117.168 30.8319 112.102 29.7622C107.036 28.6926 104.376 30.9457 104.376 30.9457C104.376 30.9457 100.165 31.0822 99.8764 34.9967C99.6839 37.5342 100.154 39.7361 100.154 39.7361C100.154 39.7361 99.033 41.1699 101.156 41.0845C103.572 40.9878 106.47 39.6678 106.617 37.3009C106.759 34.9398 109.312 34.5984 109.312 34.5984L109.306 34.6041Z" fill="#263238"/>
<path d="M100.804 42.6947C101.286 43.7359 102.163 44.5495 103.238 44.9421C104.665 45.4542 105.485 44.1968 105.185 42.7858C104.902 41.5341 103.833 39.7134 102.35 39.8215C100.867 39.9296 100.227 41.4032 100.804 42.6947Z" fill="#EBB376"/>
<path d="M94.3754 56.731C90.3229 57.9144 84.6459 85.6739 85.393 89.2754C86.1401 92.877 100.392 108.034 100.392 108.034L104.371 105.019C104.371 105.019 92.2586 87.7791 92.1058 84.1776C91.9586 80.576 97.4771 67.2226 97.4771 67.2226C97.4771 67.2226 97.33 62.7221 96.73 60.469C96.1357 58.2159 94.3641 56.731 94.3641 56.731H94.3754Z" fill="#6A0DAD"/>
<path opacity="0.5" d="M94.3754 56.731C90.3229 57.9144 84.6459 85.6739 85.393 89.2754C86.1401 92.877 100.392 108.034 100.392 108.034L104.371 105.019C104.371 105.019 92.2586 87.7791 92.1058 84.1776C91.9586 80.576 97.4771 67.2226 97.4771 67.2226C97.4771 67.2226 97.33 62.7221 96.73 60.469C96.1357 58.2159 94.3641 56.731 94.3641 56.731H94.3754Z" fill="white"/>
</g>
<defs>
<clipPath id="clip0_115_1197">
<rect width="283" height="212" fill="white"/>
</clipPath>
</defs>
</svg>
