<svg width="276" height="206" viewBox="0 0 276 206" fill="none" xmlns="http://www.w3.org/2000/svg">
<g clip-path="url(#clip0_115_1069)">
<path d="M276 181.033H0V181.171H276V181.033Z" fill="#EBEBEB"/>
<path d="M174.25 184.798H160.196V184.936H174.25V184.798Z" fill="#EBEBEB"/>
<path d="M251.403 187.789H218.101V187.927H251.403V187.789Z" fill="#EBEBEB"/>
<path d="M157.204 184.864H122.798V185.002H157.204V184.864Z" fill="#EBEBEB"/>
<path d="M100.486 189H93.2881V189.138H100.486V189Z" fill="#EBEBEB"/>
<path d="M140.257 189H107.479V189.138H140.257V189Z" fill="#EBEBEB"/>
<path d="M50.1824 186.667H28.958V186.805H50.1824V186.667Z" fill="#EBEBEB"/>
<path d="M130.829 156.376H24.2379C22.4991 156.376 21.0859 154.96 21.0859 153.219V3.15681C21.0859 1.41531 22.4991 0 24.2379 0H130.829C132.568 0 133.981 1.41531 133.981 3.15681V153.219C133.981 154.96 132.568 156.376 130.829 156.376ZM24.2379 0.138214C22.5763 0.138214 21.2239 1.49271 21.2239 3.15681V153.219C21.2239 154.883 22.5763 156.237 24.2379 156.237H130.829C132.491 156.237 133.843 154.883 133.843 153.219V3.15681C133.843 1.49271 132.491 0.138214 130.829 0.138214H24.2379Z" fill="#EBEBEB"/>
<path d="M250.227 156.376H143.636C141.897 156.376 140.484 154.96 140.484 153.219V3.15681C140.484 1.41531 141.897 0 143.636 0H250.227C251.966 0 253.379 1.41531 253.379 3.15681V153.219C253.379 154.96 251.966 156.376 250.227 156.376ZM143.636 0.138214C141.975 0.138214 140.622 1.49271 140.622 3.15681V153.219C140.622 154.883 141.975 156.237 143.636 156.237H250.227C251.889 156.237 253.241 154.883 253.241 153.219V3.15681C253.241 1.49271 251.889 0.138214 250.227 0.138214H143.636Z" fill="#EBEBEB"/>
<path d="M108.17 133.078H71.5175L69.293 107.37H105.946L108.17 133.078Z" fill="#E6E6E6"/>
<path d="M110.069 133.078H73.416L71.1914 107.37H107.844L110.069 133.078Z" fill="#F0F0F0"/>
<path d="M78.4286 127.561L77.2031 112.893H102.832L104.058 127.561H78.4286Z" fill="white"/>
<path d="M116.411 133.078H112.111V181.027H116.411V133.078Z" fill="#E6E6E6"/>
<path d="M117.77 133.078H114.783V181.027H117.77V133.078Z" fill="#F0F0F0"/>
<path d="M76.1432 138.375H117.77V133.084H76.1432V138.375Z" fill="#F0F0F0"/>
<path d="M77.6116 138.375H73.3115V181.033H77.6116V138.375Z" fill="#E6E6E6"/>
<path d="M78.9697 138.375H75.9834V181.033H78.9697V138.375Z" fill="#F0F0F0"/>
<path d="M47.0032 138.375H42.7031V181.033H47.0032V138.375Z" fill="#E6E6E6"/>
<path d="M48.3613 138.375H45.375V181.033H48.3613V138.375Z" fill="#F0F0F0"/>
<path d="M89.1985 138.375H84.8984V181.033H89.1985V138.375Z" fill="#E6E6E6"/>
<path d="M90.5508 138.375H87.5645V181.033H90.5508V138.375Z" fill="#F0F0F0"/>
<path d="M76.1433 133.078H42.7031V138.369H76.1433V133.078Z" fill="#E6E6E6"/>
<path d="M200.839 13.5229H71.4893V85.6487H200.839V13.5229Z" fill="#E0E0E0"/>
<path d="M207.944 13.5229H72.1406V85.6487H207.944V13.5229Z" fill="#F5F5F5"/>
<path d="M205.725 83.4261V15.7454L74.3596 15.7454V83.4261L205.725 83.4261Z" fill="white"/>
<path d="M127.55 83.4261L152.351 15.7454H111.421L86.6191 83.4261H127.55Z" fill="#F5F5F5"/>
<path d="M166.946 83.4261L191.748 15.7454H160.869L136.067 83.4261H166.946Z" fill="#F5F5F5"/>
<path d="M241.837 112.147H230.841V181.033H241.837V112.147Z" fill="#E6E6E6"/>
<path d="M238.945 181.033H241.837V175.726H235.914L238.945 181.033Z" fill="#FAFAFA"/>
<path d="M140.457 112.147H129.461V181.033H140.457V112.147Z" fill="#E6E6E6"/>
<path d="M241.838 112.147H137.935V179.601H241.838V112.147Z" fill="#FAFAFA"/>
<path d="M239.871 133.913H139.904V114.862H239.871V133.913ZM140.456 133.36H239.319V115.414H140.456V133.36Z" fill="#E6E6E6"/>
<path d="M222.275 124.111H159.446C156.526 124.111 153.716 121.756 151.74 117.642L151.547 117.244H230.168L229.975 117.642C227.999 121.75 225.189 124.111 222.269 124.111H222.275ZM152.43 117.797C154.296 121.463 156.835 123.552 159.44 123.552H222.269C224.875 123.552 227.414 121.463 229.285 117.797H152.43Z" fill="#E6E6E6"/>
<path d="M140.827 181.033H137.935V175.726H143.858L140.827 181.033Z" fill="#FAFAFA"/>
<path d="M239.871 155.397H139.904V136.345H239.871V155.397ZM140.456 154.844H239.319V136.898H140.456V154.844Z" fill="#E6E6E6"/>
<path d="M222.275 145.595H159.446C156.526 145.595 153.716 143.24 151.74 139.126L151.547 138.728H230.168L229.975 139.126C227.999 143.234 225.189 145.595 222.269 145.595H222.275ZM152.43 139.287C154.296 142.952 156.835 145.042 159.44 145.042H222.269C224.875 145.042 227.414 142.952 229.285 139.287H152.43Z" fill="#E6E6E6"/>
<path d="M239.871 176.886H139.904V157.835H239.871V176.886ZM140.456 176.334H239.319V158.388H140.456V176.334Z" fill="#E6E6E6"/>
<path d="M222.275 167.084H159.446C156.526 167.084 153.716 164.729 151.74 160.616L151.547 160.218H230.168L229.975 160.616C227.999 164.724 225.189 167.084 222.269 167.084H222.275ZM152.43 160.776C154.296 164.442 156.835 166.531 159.44 166.531H222.269C224.875 166.531 227.414 164.442 229.285 160.776H152.43Z" fill="#E6E6E6"/>
<path d="M66.7815 121.258V122.596H65.9259L65.2249 133.078H54.8252L54.1242 122.596H53.2686V121.258H66.7815Z" fill="#E6E6E6"/>
<path d="M63.3586 95.2352C62.503 88.9879 54.0906 87.2077 43.4094 86.9755C33.247 86.7599 29.9902 83.1553 29.9902 83.1553C29.9902 83.1553 30.0234 97.7396 44.6679 103.019C58.5728 108.034 64.2142 101.488 63.3586 95.2352Z" fill="#E6E6E6"/>
<path d="M58.1698 109.394C58.3464 106.823 62.4423 102.102 72.2955 104.252C79.4163 105.806 82.0659 102.107 82.0659 102.107C82.0659 102.107 81.409 112.545 70.6947 115.685C60.5213 118.665 57.8551 113.916 58.1698 109.399V109.394Z" fill="#E6E6E6"/>
<path d="M60.4169 125.194C60.5273 125.194 60.6322 125.15 60.7095 125.062C61.4215 124.216 60.8419 122.192 60.0305 119.389C58.9927 115.796 57.7011 111.318 58.794 108.073C59.4123 106.237 60.174 104.623 60.9137 103.058C62.4593 99.7852 63.7951 96.9546 62.6801 94.0023C62.6083 93.8033 62.3875 93.7038 62.1888 93.7812C61.9901 93.853 61.8963 94.0742 61.968 94.2732C62.9671 96.9269 61.7582 99.4866 60.2237 102.737C59.5116 104.247 58.7002 105.961 58.0709 107.835C56.9006 111.312 58.231 115.912 59.2963 119.611C59.9256 121.789 60.577 124.045 60.1243 124.581C59.9863 124.741 60.0084 124.979 60.1685 125.117C60.2403 125.178 60.3286 125.206 60.4114 125.206L60.4169 125.194Z" fill="#E6E6E6"/>
<path d="M138 206C197.109 206 245.027 203.198 245.027 199.742C245.027 196.285 197.109 193.483 138 193.483C78.8904 193.483 30.9727 196.285 30.9727 199.742C30.9727 203.198 78.8904 206 138 206Z" fill="#F5F5F5"/>
<path d="M137.978 169.229H59.5937L55.3047 42.9734H133.689L137.978 169.229Z" fill="#6A0DAD"/>
<path d="M141.891 165.31H63.5075L59.2129 39.0537H137.597L141.891 165.31Z" fill="#6A0DAD"/>
<path opacity="0.3" d="M141.891 165.31H63.5075L59.2129 39.0537H137.597L141.891 165.31Z" fill="white"/>
<path d="M121.688 75.2659C122.102 87.4619 112.569 97.347 100.392 97.347C88.2145 97.347 78.008 87.4619 77.594 75.2659C77.18 63.0699 86.7131 53.1848 98.8902 53.1848C111.067 53.1848 121.274 63.0699 121.688 75.2659Z" fill="#E6C3FF"/>
<path d="M117.835 75.266C117.94 78.4118 117.244 81.3696 115.93 83.9459C113.054 89.6237 107.176 93.4882 100.259 93.4882C93.3425 93.4882 87.1988 89.6237 83.9365 83.9459C82.4461 81.3696 81.5518 78.4118 81.4414 75.266C81.0992 65.1985 88.9652 57.0383 99.0171 57.0383C109.069 57.0383 117.493 65.1985 117.835 75.266Z" fill="white"/>
<path opacity="0.6" d="M115.93 83.9459C113.055 89.6237 107.176 93.4882 100.259 93.4882C93.3426 93.4882 87.1988 89.6237 83.9365 83.9459C88.4132 80.8831 93.8504 79.0918 99.7679 79.0918C105.685 79.0918 111.244 80.8831 115.93 83.9459Z" fill="#6A0DAD"/>
<path opacity="0.6" d="M107.529 69.0298C107.683 73.5134 104.178 77.1457 99.7013 77.1457C95.2246 77.1457 91.471 73.5134 91.322 69.0298C91.1729 64.5461 94.6726 60.9138 99.1493 60.9138C103.626 60.9138 107.38 64.5461 107.529 69.0298Z" fill="#6A0DAD"/>
<path d="M126.143 119.588H76.1424L75.8057 109.637H125.806L126.143 119.588Z" fill="white"/>
<path d="M126.75 137.374H76.7439L76.4072 127.422H126.413L126.75 137.374Z" fill="white"/>
<path d="M107.452 128.793L95.402 130.435C94.9052 130.502 94.5795 130.955 94.6733 131.436L96.2576 139.524C96.3514 140.005 96.8317 140.348 97.3285 140.276L109.379 138.634C109.875 138.568 110.201 138.12 110.107 137.634L108.523 129.545C108.429 129.064 107.949 128.722 107.452 128.793ZM103.991 136.981L101.811 137.28L101.59 134.67C101.126 134.466 100.789 134.051 100.696 133.565C100.541 132.774 101.077 132.039 101.882 131.934C102.688 131.823 103.472 132.376 103.627 133.167C103.721 133.653 103.561 134.134 103.196 134.449L103.986 136.981H103.991Z" fill="#6A0DAD"/>
<path d="M106.259 128.357C105.818 128.417 105.393 128.119 105.31 127.688L105.155 126.897C104.73 124.719 102.649 123.071 100.397 123.27C97.9905 123.48 96.3787 125.609 96.8258 127.909L97.0024 128.815C97.0852 129.247 96.7982 129.639 96.3566 129.7C95.915 129.761 95.49 129.462 95.4072 129.031L95.2581 128.257C94.662 125.222 96.5719 122.303 99.6576 121.761C102.903 121.197 106.105 123.386 106.723 126.549L106.9 127.455C106.983 127.887 106.696 128.279 106.254 128.34L106.259 128.357Z" fill="#6A0DAD"/>
<path d="M118.498 151.311H85.9464L85.7256 144.832H118.277L118.498 151.311Z" fill="#6A0DAD"/>
<path d="M102.793 114.613C102.826 115.619 102.043 116.432 101.038 116.432C100.033 116.432 99.1943 115.619 99.1612 114.613C99.128 113.606 99.9119 112.794 100.917 112.794C101.921 112.794 102.76 113.606 102.793 114.613Z" fill="#263238"/>
<path d="M94.9662 114.613C94.9993 115.619 94.2155 116.432 93.2108 116.432C92.2062 116.432 91.3671 115.619 91.334 114.613C91.3009 113.606 92.0847 112.794 93.0894 112.794C94.094 112.794 94.9331 113.606 94.9662 114.613Z" fill="#263238"/>
<path d="M87.1439 114.613C87.177 115.619 86.3932 116.432 85.3886 116.432C84.3839 116.432 83.5449 115.619 83.5118 114.613C83.4786 113.606 84.2625 112.794 85.2671 112.794C86.2718 112.794 87.1108 113.606 87.1439 114.613Z" fill="#263238"/>
<path d="M110.615 114.613C110.648 115.619 109.864 116.432 108.859 116.432C107.855 116.432 107.016 115.619 106.982 114.613C106.949 113.606 107.733 112.794 108.738 112.794C109.742 112.794 110.581 113.606 110.615 114.613Z" fill="#263238"/>
<path d="M118.437 114.613C118.47 115.619 117.686 116.432 116.682 116.432C115.677 116.432 114.838 115.619 114.805 114.613C114.772 113.606 115.555 112.794 116.56 112.794C117.565 112.794 118.404 113.606 118.437 114.613Z" fill="#263238"/>
<path d="M184.318 65.9724C185.053 67.15 185.665 68.2834 186.295 69.4609C186.924 70.6275 187.492 71.8216 188.05 73.0324C189.148 75.4539 190.131 77.9528 190.865 80.6231C190.964 80.9493 191.036 81.2976 191.119 81.6404L191.241 82.1545L191.301 82.4088L191.373 82.829C191.533 83.9513 191.39 84.8691 191.202 85.6762C190.804 87.285 190.17 88.5732 189.485 89.8005C188.089 92.2276 186.46 94.2953 184.578 96.2524L182.254 94.4888C183.402 92.3105 184.534 90.0272 185.367 87.8324C185.77 86.7432 186.112 85.632 186.212 84.7198C186.261 84.272 186.228 83.885 186.168 83.7412L185.947 83.0667C185.858 82.7903 185.776 82.5139 185.665 82.2319C184.87 79.9984 183.86 77.7593 182.756 75.5534C181.669 73.3531 180.465 71.114 179.284 69.0187L184.324 65.9724H184.318Z" fill="#FF8B7B"/>
<path d="M182.844 93.6926L180.311 95.0416L183.225 98.4583C183.225 98.4583 185.047 97.2254 185.124 95.3457L182.844 93.6982V93.6926Z" fill="#FF8B7B"/>
<path d="M176.899 97.1481L180.018 99.6305L183.22 98.4584L180.305 95.0417L176.899 97.1481Z" fill="#FF8B7B"/>
<path d="M166.235 47.8831C166.174 48.1927 165.959 48.4083 165.76 48.3641C165.562 48.3254 165.446 48.0434 165.512 47.7338C165.573 47.4242 165.788 47.2086 165.987 47.2528C166.185 47.2915 166.301 47.5735 166.235 47.8831Z" fill="#263238"/>
<path d="M165.987 48.4138C165.987 48.4138 164.927 50.0447 163.988 50.7469C164.43 51.3661 165.396 51.3218 165.396 51.3218L165.987 48.4193V48.4138Z" fill="#FF5652"/>
<path d="M164.993 59.2609L165.015 55.6396L169.806 56.2201C169.806 56.2201 169.723 59.3383 167.046 60.2505L164.987 59.2609H164.993Z" fill="#FF8B7B"/>
<path d="M166.373 53.0247L169.745 53.9977L169.806 56.2146L165.015 55.6341L166.373 53.0247Z" fill="#FF8B7B"/>
<path opacity="0.2" d="M169.745 53.9977L166.373 53.0247L165.716 54.2852C165.799 56.4247 167.101 58.1828 168.829 58.9734C169.768 57.7405 169.806 56.2146 169.806 56.2146L169.745 53.9977Z" fill="black"/>
<path d="M167.703 46.4068C167.747 46.4068 167.791 46.3902 167.83 46.357C167.907 46.2907 167.907 46.1691 167.841 46.0972C167.151 45.3508 166.312 45.4835 166.279 45.489C166.179 45.5056 166.113 45.5996 166.129 45.6991C166.146 45.7987 166.245 45.865 166.339 45.8484C166.367 45.8484 167.024 45.7489 167.576 46.346C167.614 46.3847 167.659 46.4068 167.708 46.4068H167.703Z" fill="#263238"/>
<path d="M174.758 53.4778C174.2 56.325 173.864 60.2669 175.851 62.1632C175.851 62.1632 175.073 65.0491 169.796 65.0491C163.994 65.0491 167.002 62.517 167.002 62.517C169.415 61.7651 169.393 59.0174 168.841 56.806L174.752 53.4778H174.758Z" fill="#FF8B7B"/>
<path d="M176.938 64.0652C177.457 63.3299 177.435 61.0134 176.883 60.6099C175.994 59.952 172.18 59.7972 167.046 60.9803C167.598 63.2249 166.417 64.3969 166.417 64.3969L176.938 64.0652Z" fill="#407BFF"/>
<path d="M194.194 195.313C193.802 195.396 193.416 195.418 193.228 195.258C193.151 195.192 193.068 195.064 193.14 194.832C193.178 194.711 193.256 194.617 193.377 194.561C193.902 194.313 195.105 194.805 195.16 194.821C195.193 194.832 195.215 194.865 195.215 194.904C195.215 194.943 195.199 194.976 195.166 194.987C194.983 195.075 194.592 195.225 194.2 195.308L194.194 195.313ZM193.559 194.694C193.521 194.705 193.482 194.716 193.449 194.727C193.377 194.76 193.333 194.816 193.311 194.882C193.261 195.048 193.322 195.098 193.344 195.12C193.554 195.297 194.327 195.136 194.873 194.915C194.503 194.782 193.902 194.617 193.559 194.694Z" fill="#407BFF"/>
<path d="M195.137 195.004C195.137 195.004 195.11 195.004 195.093 195.004C194.652 194.877 193.713 194.208 193.702 193.765C193.702 193.688 193.73 193.539 193.94 193.467C194.078 193.417 194.21 193.428 194.348 193.5C194.867 193.765 195.193 194.843 195.209 194.888C195.22 194.921 195.209 194.954 195.187 194.982C195.176 194.993 195.159 195.004 195.143 195.009L195.137 195.004ZM194.039 193.627C194.039 193.627 194.011 193.633 194 193.638C193.884 193.677 193.89 193.732 193.89 193.76C193.895 194.02 194.514 194.545 194.972 194.755C194.856 194.445 194.596 193.832 194.265 193.66C194.188 193.622 194.116 193.611 194.044 193.627H194.039Z" fill="#407BFF"/>
<path d="M165.523 195.966C165.026 195.966 164.546 195.899 164.38 195.673C164.325 195.595 164.281 195.463 164.386 195.269C164.447 195.164 164.546 195.092 164.678 195.054C165.324 194.877 166.682 195.651 166.737 195.684C166.771 195.7 166.787 195.739 166.782 195.778C166.776 195.817 166.748 195.844 166.71 195.855C166.461 195.905 165.981 195.966 165.518 195.966H165.523ZM164.91 195.214C164.844 195.214 164.783 195.219 164.734 195.236C164.651 195.258 164.59 195.302 164.552 195.363C164.485 195.479 164.513 195.535 164.535 195.568C164.717 195.817 165.7 195.828 166.417 195.723C166.058 195.54 165.363 195.214 164.91 195.214Z" fill="#407BFF"/>
<path d="M166.698 195.861C166.698 195.861 166.671 195.861 166.66 195.855C166.191 195.645 165.263 194.805 165.335 194.363C165.352 194.257 165.423 194.13 165.677 194.103C165.865 194.086 166.036 194.136 166.185 194.263C166.676 194.667 166.781 195.717 166.787 195.761C166.787 195.794 166.776 195.828 166.748 195.844C166.732 195.855 166.715 195.861 166.693 195.861H166.698ZM165.749 194.285C165.749 194.285 165.71 194.285 165.694 194.285C165.528 194.302 165.517 194.368 165.517 194.39C165.473 194.656 166.108 195.313 166.583 195.601C166.533 195.297 166.395 194.667 166.069 194.401C165.97 194.318 165.865 194.28 165.749 194.28V194.285Z" fill="#407BFF"/>
<path d="M170.965 195.767H167.085L166.698 186.761H170.579L170.965 195.767Z" fill="#FF8B7B"/>
<path d="M199.465 193.97L195.667 194.794L191.858 186.401L195.656 185.583L199.465 193.97Z" fill="#FF8B7B"/>
<path d="M195.303 194.412L199.564 193.489C199.719 193.456 199.879 193.533 199.945 193.677L201.424 196.894C201.579 197.226 201.375 197.619 201.016 197.691C199.52 197.989 198.78 198.055 196.904 198.465C195.75 198.713 193.144 199.349 191.555 199.697C189.998 200.035 189.413 198.509 190.037 198.227C192.824 196.95 193.983 195.827 194.74 194.783C194.878 194.595 195.076 194.462 195.303 194.418V194.412Z" fill="#263238"/>
<path d="M167.113 195.319H171.352C171.512 195.319 171.65 195.429 171.683 195.584L172.45 199.04C172.528 199.399 172.257 199.736 171.893 199.731C170.364 199.703 168.156 199.615 166.229 199.615C163.983 199.615 162.04 199.736 159.407 199.736C157.811 199.736 157.37 198.122 158.038 197.978C161.074 197.315 163.558 197.243 166.18 195.623C166.467 195.446 166.781 195.319 167.113 195.319Z" fill="#263238"/>
<path d="M182.806 63.0423C186.444 63.8771 189.447 73.1817 189.447 73.1817L182.138 78.76C182.138 78.76 179.456 76.2279 178.263 71.5729C177.01 66.6967 179.086 62.1854 182.806 63.0423Z" fill="#407BFF"/>
<path opacity="0.4" d="M182.806 63.0423C186.444 63.8771 189.447 73.1817 189.447 73.1817L182.138 78.76C182.138 78.76 179.456 76.2279 178.263 71.5729C177.01 66.6967 179.086 62.1854 182.806 63.0423Z" fill="#5B168C"/>
<path d="M163.668 74.1437C162.757 75.1278 161.852 75.9957 160.919 76.8969C160.455 77.3447 159.975 77.7815 159.489 78.2127L158.755 78.854L158.573 79.0143C158.485 79.0917 158.374 79.1802 158.258 79.2742C158.016 79.4566 157.751 79.6612 157.193 79.9044C156.901 80.0205 156.52 80.1698 155.852 80.1809C155.537 80.1809 155.107 80.1311 154.693 79.9763C154.273 79.8215 153.865 79.5506 153.589 79.2742C153.009 78.6937 152.838 78.1851 152.722 77.8423C152.617 77.4885 152.584 77.2397 152.562 77.0185C152.529 76.5873 152.551 76.2998 152.573 76.0289C152.6 75.7635 152.634 75.5313 152.678 75.3157C152.838 74.4643 153.07 73.7733 153.318 73.0877C153.572 72.4077 153.848 71.7498 154.174 71.0919C154.521 70.3898 154.864 69.8756 155.2 69.2896C156.564 67.0063 158.165 64.922 159.865 62.9538C161.604 61.0023 163.425 59.2165 165.523 57.5801L167.554 59.6754C166.124 61.5883 164.722 63.6394 163.425 65.6573C162.128 67.6918 160.93 69.765 159.892 71.877C159.655 72.3966 159.362 72.9661 159.197 73.4028C159.004 73.8783 158.827 74.3925 158.678 74.8956C158.534 75.3931 158.419 75.9128 158.363 76.2943C158.352 76.3883 158.347 76.4657 158.347 76.5154C158.347 76.5597 158.358 76.5818 158.347 76.4657C158.341 76.3993 158.336 76.3053 158.275 76.1063C158.209 75.9128 158.104 75.5479 157.64 75.078C157.414 74.8569 157.077 74.6247 156.729 74.503C156.393 74.3703 156.039 74.3316 155.802 74.3316C155.289 74.3427 155.062 74.4477 154.913 74.503C154.643 74.6191 154.637 74.6523 154.637 74.6412L154.847 74.4477L155.509 73.8396L156.829 72.6012C157.701 71.7774 158.579 70.8984 159.412 70.0802L163.663 74.1603L163.668 74.1437Z" fill="#FF8B7B"/>
<path opacity="0.2" d="M179.687 69.8867C181.663 71.8438 182.309 75.4153 182.464 78.5168L182.143 78.7656C182.143 78.7656 179.461 76.228 178.263 71.5785C178.191 71.2854 178.125 70.998 178.075 70.7105L179.693 69.8922L179.687 69.8867Z" fill="black"/>
<path d="M159.809 66.9399C159.014 71.1416 158.518 79.7662 160.825 96.855H181.591C181.735 93.6595 179.731 78.0855 182.806 63.0423C182.806 63.0423 179.245 62.3291 175.856 62.1632C173.201 62.0361 169.359 61.9532 167.029 62.1632C166.058 62.2517 165.097 62.3954 164.247 62.5447C162.001 62.9428 160.234 64.6953 159.815 66.9399H159.809Z" fill="#407BFF"/>
<path opacity="0.4" d="M159.809 66.9399C159.014 71.1416 158.518 79.7662 160.825 96.855H181.591C181.735 93.6595 179.731 78.0855 182.806 63.0423C182.806 63.0423 179.245 62.3291 175.856 62.1632C173.201 62.0361 169.359 61.9532 167.029 62.1632C166.058 62.2517 165.097 62.3954 164.247 62.5447C162.001 62.9428 160.234 64.6953 159.815 66.9399H159.809Z" fill="#5B168C"/>
<path opacity="0.2" d="M162.989 73.1485L159.235 72.2473C159.119 74.5251 159.108 77.3447 159.279 80.8332C161.007 78.865 163.21 75.7967 162.989 73.1485Z" fill="black"/>
<path opacity="0.2" d="M166.698 186.766L166.897 191.41H170.783L170.584 186.766H166.698Z" fill="black"/>
<path opacity="0.2" d="M195.656 185.583L191.858 186.407L193.824 190.73L197.621 189.906L195.656 185.583Z" fill="black"/>
<path d="M176.602 49.3149C175.603 53.0412 175.211 55.2747 172.914 56.8227C169.459 59.1558 165.159 56.48 165.021 52.527C164.899 48.9722 166.55 43.4712 170.546 42.7193C174.482 41.9785 177.601 45.5831 176.602 49.3094V49.3149Z" fill="#FF8B7B"/>
<path d="M167.891 49.4587C167.708 48.9611 166.847 45.1077 167.653 44.107C168.459 43.1063 177.65 43.8251 179.008 45.163C181.26 47.3855 179.698 49.3702 177.23 51.9244C175.376 53.8484 175.304 56.0156 174.366 56.3362C172.726 56.8946 170.181 56.3694 169.668 54.6168C169.16 52.8643 167.885 49.4587 167.885 49.4587H167.891Z" fill="#263238"/>
<path d="M177.893 40.7843C174.641 39.3966 168.553 40.9336 165.268 40.1375C165.153 41.8458 166.179 44.5769 169.469 45.3122C169.469 45.3122 174.139 46.2244 177.749 46.0751C181.359 45.9259 180.658 41.9563 177.898 40.7843H177.893Z" fill="#263238"/>
<path d="M178.401 45.2846C178.401 45.2846 180.411 45.5113 181.835 44.6267C182.442 46.0973 179.108 46.5009 178.401 45.2846Z" fill="#263238"/>
<path d="M169.658 49.6134C169.597 50.6251 169.128 51.5705 168.565 52.1952C167.72 53.1295 166.837 52.549 166.682 51.4102C166.55 50.3874 166.826 48.668 167.858 48.1538C168.879 47.6452 169.718 48.4634 169.652 49.6189L169.658 49.6134Z" fill="#FF8B7B"/>
<path d="M168.189 96.8551C168.189 96.8551 172.594 126.571 175.012 137.706C177.661 149.896 191.864 190.233 191.864 190.233L198.814 188.723C198.814 188.723 188.884 155.851 186.659 138.806C184.953 125.714 181.586 96.8496 181.586 96.8496H168.184L168.189 96.8551Z" fill="#E6C4FF"/>
<path d="M190.203 187.91C190.175 187.916 191.5 190.426 191.5 190.426L199.322 188.729L198.665 186.374L190.208 187.905L190.203 187.91Z" fill="#263238"/>
<path opacity="0.3" d="M170.976 107.442C176.071 108.443 175.53 127.472 174.918 137.258C173.449 130.342 171.296 117.029 169.828 107.581C170.165 107.409 170.546 107.359 170.976 107.442Z" fill="#C966FF"/>
<path d="M160.819 96.855C160.819 96.855 160.284 125.93 160.709 137.788C161.151 150.123 165.451 190.509 165.451 190.509H172.03C172.03 190.509 172.273 150.841 172.566 138.728C172.886 125.521 174.476 96.855 174.476 96.855H160.825H160.819Z" fill="#E6C4FF"/>
<path d="M164.187 187.883C164.16 187.883 164.557 190.619 164.557 190.619H172.555L172.771 188.181L164.182 187.888L164.187 187.883Z" fill="#263238"/>
<path d="M167.946 68.217C169.806 73.2425 158.871 79.1636 158.871 79.1636L154.135 73.0656C154.135 73.0656 157.292 66.7685 161.173 63.9324C165.964 60.4272 166.533 64.3968 167.946 68.2225V68.217Z" fill="#407BFF"/>
<path opacity="0.4" d="M167.946 68.217C169.806 73.2425 158.871 79.1636 158.871 79.1636L154.135 73.0656C154.135 73.0656 157.292 66.7685 161.173 63.9324C165.964 60.4272 166.533 64.3968 167.946 68.2225V68.217Z" fill="#5B168C"/>
<path d="M210.793 30.0645C221.795 30.0645 230.714 24.3715 230.714 17.3488C230.714 10.3261 221.795 4.63306 210.793 4.63306C199.79 4.63306 190.871 10.3261 190.871 17.3488C190.871 24.3715 199.79 30.0645 210.793 30.0645Z" fill="#9756C6"/>
<path d="M203.605 23.7509C202.501 23.7509 201.419 23.4192 200.481 22.7779C199.222 21.921 198.388 20.6162 198.124 19.1124C197.627 16.2321 199.537 13.3683 202.379 12.7159C204.72 12.1851 207.099 13.1858 208.352 15.2148L221.142 12.5721C222.18 12.3565 223.228 12.9757 223.488 13.9543C223.626 14.474 223.543 15.0102 223.262 15.4636C222.98 15.9169 222.538 16.2265 222.014 16.3371L221.677 16.409C221.578 16.4311 221.495 16.4919 221.446 16.5804C221.396 16.6688 221.39 16.7739 221.423 16.8678L221.65 17.4539C221.804 17.8519 221.661 18.2997 221.308 18.5154C221.037 18.6867 220.849 18.9798 220.811 19.2949C220.767 19.6874 220.507 19.986 220.148 20.0634L219.883 20.1186C219.525 20.1905 219.166 20.0191 218.973 19.6764C218.741 19.2783 218.283 19.0737 217.83 19.1677C217.377 19.2617 217.035 19.6321 216.98 20.091C216.93 20.4835 216.671 20.7821 216.312 20.8595L216.052 20.9148C215.699 20.9866 215.335 20.8152 215.142 20.4725C214.982 20.196 214.695 19.997 214.374 19.9528C213.966 19.892 213.657 19.5381 213.64 19.1124L213.613 18.4822C213.613 18.3827 213.563 18.2887 213.48 18.2279C213.403 18.1671 213.304 18.1394 213.199 18.1615L209.125 19.0019C208.777 21.3128 207.038 23.1649 204.736 23.6403C204.356 23.7177 203.975 23.7564 203.594 23.7564L203.605 23.7509ZM202.501 13.2522C199.94 13.8327 198.223 16.42 198.67 19.0129C198.902 20.3674 199.658 21.545 200.79 22.319C201.921 23.093 203.29 23.3694 204.632 23.0875C206.768 22.6452 208.363 20.8926 208.612 18.7254L208.634 18.5264L213.099 17.6031C213.359 17.5479 213.624 17.6142 213.833 17.7745C214.043 17.9349 214.165 18.1781 214.176 18.4435L214.203 19.0737C214.209 19.2341 214.325 19.3668 214.468 19.3889C214.96 19.4607 215.385 19.7482 215.633 20.1795C215.694 20.2845 215.81 20.384 215.959 20.3564L216.218 20.3011C216.362 20.2734 216.433 20.1297 216.444 20.0081C216.527 19.3115 217.046 18.7531 217.731 18.6093C218.415 18.4656 219.111 18.7807 219.458 19.3833C219.519 19.4884 219.635 19.5934 219.784 19.5603L220.049 19.505C220.192 19.4773 220.264 19.3336 220.275 19.2175C220.33 18.7254 220.606 18.2942 221.026 18.0288C221.147 17.9514 221.197 17.7801 221.142 17.6363L220.916 17.0503C220.822 16.807 220.838 16.5306 220.965 16.2984C221.092 16.0662 221.313 15.9059 221.567 15.8506L221.904 15.7787C222.279 15.7013 222.594 15.4802 222.792 15.1595C222.991 14.8333 223.052 14.4519 222.952 14.0814C222.77 13.3848 222.009 12.9481 221.252 13.1029L208.076 15.8285L207.977 15.6571C206.873 13.7276 204.676 12.7546 202.501 13.2522ZM203.61 21.7053C202.926 21.7053 202.258 21.5063 201.673 21.1193C200.884 20.5996 200.343 19.8035 200.155 18.8747C199.962 17.9459 200.144 17.0005 200.663 16.2099C201.182 15.4194 201.976 14.8831 202.904 14.6896C203.831 14.4961 204.775 14.6785 205.564 15.1982C206.354 15.7179 206.889 16.514 207.082 17.4428C207.276 18.3716 207.094 19.3115 206.575 20.1021C206.056 20.8926 205.261 21.4344 204.334 21.6224C204.096 21.6722 203.853 21.6943 203.61 21.6943V21.7053ZM203.627 15.1761C203.423 15.1761 203.218 15.1982 203.014 15.2369C202.236 15.3972 201.562 15.8561 201.126 16.5195C200.69 17.1885 200.536 17.9846 200.696 18.7641C200.856 19.5437 201.314 20.2182 201.976 20.6549C202.644 21.0917 203.439 21.2465 204.218 21.0861C205.001 20.9258 205.669 20.4669 206.105 19.8035C206.542 19.1346 206.696 18.3384 206.536 17.5589C206.376 16.7739 205.918 16.1049 205.255 15.6626C204.764 15.3364 204.201 15.1706 203.627 15.1706V15.1761Z" fill="white"/>
<path opacity="0.6" d="M194.58 37.5225C198.196 37.5225 201.127 35.6513 201.127 33.3429C201.127 31.0346 198.196 29.1633 194.58 29.1633C190.964 29.1633 188.033 31.0346 188.033 33.3429C188.033 35.6513 190.964 37.5225 194.58 37.5225Z" fill="#9756C6"/>
<path opacity="0.3" d="M184.164 39.2309C185.648 39.2309 186.852 38.4636 186.852 37.5171C186.852 36.5705 185.648 35.8032 184.164 35.8032C182.679 35.8032 181.476 36.5705 181.476 37.5171C181.476 38.4636 182.679 39.2309 184.164 39.2309Z" fill="#9756C6"/>
</g>
<defs>
<clipPath id="clip0_115_1069">
<rect width="276" height="206" fill="white"/>
</clipPath>
</defs>
</svg>
