<svg width="153" height="169" viewBox="0 0 153 169" fill="none" xmlns="http://www.w3.org/2000/svg">
<path d="M39.0938 159H35.3281V139.344H28.6406V136.156H45.7656V139.344H39.0938V159ZM55.6719 141.375C57.8594 141.375 59.5104 141.859 60.625 142.828C61.75 143.797 62.3125 145.307 62.3125 147.359V159H59.7031L59 156.547H58.875C58.3854 157.172 57.8802 157.688 57.3594 158.094C56.8385 158.5 56.2344 158.802 55.5469 159C54.8698 159.208 54.0417 159.312 53.0625 159.312C52.0312 159.312 51.1094 159.125 50.2969 158.75C49.4844 158.365 48.8438 157.781 48.375 157C47.9062 156.219 47.6719 155.229 47.6719 154.031C47.6719 152.25 48.3333 150.911 49.6562 150.016C50.9896 149.12 53 148.625 55.6875 148.531L58.6875 148.422V147.516C58.6875 146.318 58.4062 145.464 57.8438 144.953C57.2917 144.443 56.5104 144.188 55.5 144.188C54.6354 144.188 53.7969 144.312 52.9844 144.562C52.1719 144.812 51.3802 145.12 50.6094 145.484L49.4219 142.891C50.2656 142.443 51.224 142.078 52.2969 141.797C53.3802 141.516 54.5052 141.375 55.6719 141.375ZM58.6719 150.734L56.4375 150.812C54.6042 150.875 53.3177 151.188 52.5781 151.75C51.8385 152.312 51.4688 153.083 51.4688 154.062C51.4688 154.917 51.724 155.542 52.2344 155.938C52.7448 156.323 53.4167 156.516 54.25 156.516C55.5208 156.516 56.5729 156.156 57.4062 155.438C58.25 154.708 58.6719 153.641 58.6719 152.234V150.734ZM71.1406 159H67.4531V134.688H71.1406V159ZM80.0625 134.688V146.438C80.0625 146.969 80.0417 147.552 80 148.188C79.9583 148.812 79.9167 149.401 79.875 149.953H79.9531C80.224 149.589 80.5469 149.161 80.9219 148.672C81.3073 148.182 81.6719 147.755 82.0156 147.391L87.2969 141.703H91.5156L84.5938 149.141L91.9688 159H87.6562L82.125 151.406L80.0625 153.172V159H76.3906V134.688H80.0625ZM106.359 154.062C106.359 155.198 106.083 156.156 105.531 156.938C104.979 157.719 104.172 158.312 103.109 158.719C102.057 159.115 100.766 159.312 99.2344 159.312C98.026 159.312 96.9844 159.224 96.1094 159.047C95.2448 158.88 94.4271 158.62 93.6562 158.266V155.094C94.4792 155.479 95.401 155.812 96.4219 156.094C97.4531 156.375 98.4271 156.516 99.3438 156.516C100.552 156.516 101.422 156.328 101.953 155.953C102.484 155.568 102.75 155.057 102.75 154.422C102.75 154.047 102.641 153.714 102.422 153.422C102.214 153.12 101.818 152.812 101.234 152.5C100.661 152.177 99.8177 151.792 98.7031 151.344C97.6094 150.906 96.6875 150.469 95.9375 150.031C95.1875 149.594 94.6198 149.068 94.2344 148.453C93.849 147.828 93.6562 147.031 93.6562 146.062C93.6562 144.531 94.2604 143.37 95.4688 142.578C96.6875 141.776 98.2969 141.375 100.297 141.375C101.359 141.375 102.359 141.484 103.297 141.703C104.245 141.911 105.172 142.219 106.078 142.625L104.922 145.391C104.141 145.047 103.354 144.766 102.562 144.547C101.781 144.318 100.984 144.203 100.172 144.203C99.224 144.203 98.5 144.349 98 144.641C97.5104 144.932 97.2656 145.349 97.2656 145.891C97.2656 146.297 97.3854 146.641 97.625 146.922C97.8646 147.203 98.276 147.484 98.8594 147.766C99.4531 148.047 100.276 148.396 101.328 148.812C102.359 149.208 103.25 149.625 104 150.062C104.76 150.49 105.344 151.016 105.75 151.641C106.156 152.266 106.359 153.073 106.359 154.062ZM107.719 141.703H111.719L115.266 151.578C115.422 152.026 115.562 152.469 115.688 152.906C115.823 153.333 115.938 153.755 116.031 154.172C116.135 154.589 116.219 155.005 116.281 155.422H116.375C116.479 154.88 116.625 154.276 116.812 153.609C117.01 152.932 117.229 152.255 117.469 151.578L120.875 141.703H124.828L117.406 161.375C116.979 162.5 116.453 163.458 115.828 164.25C115.214 165.052 114.484 165.656 113.641 166.062C112.797 166.479 111.833 166.688 110.75 166.688C110.229 166.688 109.776 166.656 109.391 166.594C109.005 166.542 108.677 166.484 108.406 166.422V163.484C108.625 163.536 108.901 163.583 109.234 163.625C109.568 163.667 109.911 163.688 110.266 163.688C110.922 163.688 111.49 163.557 111.969 163.297C112.448 163.036 112.854 162.667 113.188 162.188C113.521 161.719 113.797 161.182 114.016 160.578L114.625 158.953L107.719 141.703Z" fill="#6A0DAD"/>
<path d="M13.9091 62.5C6.25909 62.5 0 56.25 0 48.6111V13.8889C0 6.25 6.25909 0 13.9091 0H69.5455C77.1955 0 83.4545 6.25 83.4545 13.8889V48.6111C83.4545 56.25 77.1955 62.5 69.5455 62.5H55.6364V83.3333L34.7727 62.5H13.9091ZM139.091 104.167C146.741 104.167 153 97.9167 153 90.2778V55.5556C153 47.9167 146.741 41.6667 139.091 41.6667H97.3636V48.6111C97.3636 63.8889 84.8455 76.3889 69.5455 76.3889V90.2778C69.5455 97.9167 75.8045 104.167 83.4545 104.167H97.3636V125L118.227 104.167H139.091Z" fill="#6A0DAD"/>
</svg>
