<svg width="286" height="167" viewBox="0 0 286 167" fill="none" xmlns="http://www.w3.org/2000/svg">
<mask id="mask0_121_461" style="mask-type:luminance" maskUnits="userSpaceOnUse" x="0" y="0" width="286" height="167">
<path d="M285.048 0H0V167H285.048V0Z" fill="white"/>
</mask>
<g mask="url(#mask0_121_461)">
<path d="M288.418 118.386L294.423 164.34L282.592 167.913C282.592 167.913 274.075 143.022 272.581 126.292L288.418 118.39V118.386Z" fill="#FFAFBB"/>
<path d="M226.28 28.3381L212.571 29.3377" stroke="#D35742" stroke-width="0.75" stroke-linecap="round" stroke-linejoin="round"/>
<path d="M215.203 39.4473C214.994 45.5777 219.654 50.8264 225.609 50.3323L229.588 49.5608L228.258 63.0721C228.258 63.0721 229.706 68.0053 236.126 70.1412C244.875 73.0525 251.248 65.2878 251.248 65.2878L248.744 41.6251C248.744 41.6251 254.312 43.4836 254.768 35.6999C255.186 28.6117 249.8 31.5002 249.8 31.5002L249.884 26.9812C250.184 22.6143 247.649 17.2174 240.591 15.9898L231.143 14.2415C231.143 14.2415 216.153 11.5772 215.203 39.4511V39.4473Z" fill="#FFAFBB"/>
<path d="M249.966 35.1565C249.966 35.1565 248.834 35.9622 249.731 36.5931C251.639 37.9424 248.765 38.083 249.301 38.9685" stroke="#300606" stroke-width="0.75" stroke-linecap="round" stroke-linejoin="round"/>
<path d="M251.537 33.0698C251.537 33.0698 253.893 31.6522 253.027 36.6804" stroke="#300606" stroke-width="0.75" stroke-linecap="round" stroke-linejoin="round"/>
<path d="M222.168 28.9043C220.975 32.5985 219.249 33.5335 219.249 33.5335C219.249 33.5335 218.25 34.1416 218.489 35.1069C218.732 36.0723 219.36 35.7074 220.059 36.3649" stroke="#300606" stroke-width="0.75" stroke-linecap="round" stroke-linejoin="round"/>
<path d="M222.142 36.0571C222.142 36.0571 222.286 36.0267 222.525 36.0989C222.765 36.175 222.906 36.4448 222.906 36.4448" stroke="#300606" stroke-width="0.75" stroke-linecap="round" stroke-linejoin="round"/>
<path d="M224.163 34.4304C224.163 34.4304 225.334 35.449 224.068 36.8248" stroke="#300606" stroke-width="0.75" stroke-linecap="round" stroke-linejoin="round"/>
<mask id="mask1_121_461" style="mask-type:luminance" maskUnits="userSpaceOnUse" x="215" y="25" width="8" height="9">
<path d="M217.27 25.8259C217.27 25.8259 216.365 28.9653 215.833 32.3744C215.833 32.3744 219.105 35.1147 222.161 29.9876C222.161 29.9876 220.713 26.7305 217.266 25.8297L217.27 25.8259Z" fill="white"/>
</mask>
<g mask="url(#mask1_121_461)">
<path d="M220.021 31.6944C219.542 31.0749 219.036 30.5048 218.485 30.0487C217.938 29.5888 217.337 29.2544 216.699 29.1023C216.06 28.9427 215.376 28.9731 214.673 29.1327C213.966 29.281 213.259 29.5584 212.511 29.8435C212.454 29.8663 212.389 29.8359 212.366 29.7788C212.351 29.7408 212.359 29.6952 212.385 29.6648C212.917 29.0453 213.586 28.5436 214.373 28.2092C215.152 27.8747 216.087 27.7379 216.973 27.9583C217.862 28.1674 218.637 28.7109 219.177 29.3684C219.717 30.0335 220.089 30.7936 220.222 31.6183C220.233 31.6792 220.192 31.7362 220.131 31.7438C220.089 31.7514 220.051 31.7324 220.024 31.702L220.017 31.6944H220.021Z" fill="#300606"/>
</g>
<path d="M228.961 55.7939L229.588 49.5608L240.009 47.1018C240.009 47.1018 236.969 53.6389 228.961 55.7939Z" fill="#300606"/>
<path d="M218.43 39.0178C218.43 39.0178 221.018 39.816 225.032 40.0744C225.032 40.0744 224.652 44.6884 220.996 44.1487C218.251 43.742 218.43 39.0178 218.43 39.0178Z" fill="#300606"/>
<path d="M225.764 32.3934C226.304 31.6105 227.087 31.0328 227.98 30.6451C228.873 30.2688 229.922 30.1244 230.914 30.3297L231.1 30.3601L231.279 30.4171L231.64 30.5311L231.997 30.6527L232.328 30.8275C232.54 30.953 232.772 31.0518 232.962 31.2038C233.156 31.352 233.342 31.5079 233.525 31.6637C233.719 31.8119 233.867 31.9981 234.019 32.1806L234.464 32.7279C234.707 33.1307 234.935 33.5374 235.117 33.9593C235.14 34.0163 235.117 34.0809 235.06 34.1075C235.026 34.1227 234.988 34.1189 234.958 34.0999L234.946 34.0923C234.555 33.8414 234.22 33.5564 233.882 33.2942L233.35 32.9407C233.175 32.8267 233.016 32.6899 232.825 32.6062C232.647 32.5074 232.468 32.4124 232.297 32.3098C232.122 32.2148 231.932 32.1578 231.754 32.0741L231.488 31.9563L231.21 31.8841L230.933 31.8043L230.796 31.7625L230.655 31.7435C229.91 31.5915 229.131 31.6143 228.337 31.7701C227.543 31.9259 226.737 32.2072 225.916 32.5606H225.905C225.848 32.591 225.783 32.5606 225.76 32.5074C225.745 32.4694 225.749 32.4314 225.772 32.401L225.764 32.3934Z" fill="#300606"/>
<path d="M229.296 26.8063C229.691 26.8595 230.253 26.9317 230.74 27.0305C231.245 27.1255 231.755 27.2395 232.256 27.3878C232.762 27.536 233.263 27.707 233.78 27.8857C234.305 28.0529 234.822 28.2543 235.422 28.4063H235.437C235.582 28.4443 235.73 28.3569 235.768 28.2125C235.787 28.1441 235.776 28.0719 235.741 28.0111C235.43 27.46 235.015 26.9887 234.544 26.5858C234.081 26.1678 233.533 25.8599 232.978 25.5711C232.42 25.2898 231.823 25.077 231.207 24.9174C230.573 24.7729 229.995 24.6741 229.239 24.7197C228.665 24.7539 228.231 25.248 228.266 25.8181C228.296 26.3198 228.68 26.7189 229.159 26.7835L229.296 26.8025V26.8063Z" fill="#300606"/>
<mask id="mask2_121_461" style="mask-type:luminance" maskUnits="userSpaceOnUse" x="217" y="20" width="6" height="7">
<path d="M219.497 20.9458C219.497 20.9458 217.988 23.287 217.231 26.1527C217.231 26.1527 221.948 26.89 222.834 24.8909C222.834 24.8909 221.845 21.9986 219.497 20.9458Z" fill="white"/>
</mask>
<g mask="url(#mask2_121_461)">
<path d="M221.275 23.6253C220.781 23.3554 220.378 23.2528 219.91 23.1616C219.454 23.0856 218.991 23.0704 218.531 23.116C218.071 23.1616 217.615 23.2528 217.193 23.4504C216.771 23.6367 216.387 23.9179 216.094 24.2942C215.996 24.4196 216.018 24.602 216.148 24.7009C216.182 24.7275 216.224 24.7465 216.266 24.7541H216.292C216.741 24.8529 217.109 24.8719 217.47 24.9289C217.828 24.9783 218.166 25.0049 218.5 25.0657C218.835 25.1227 219.162 25.1911 219.481 25.2786C219.789 25.347 220.154 25.4648 220.389 25.5104L220.587 25.5484C221.149 25.6548 221.689 25.2862 221.795 24.7275C221.883 24.2752 221.659 23.8343 221.275 23.6253Z" fill="#300606"/>
</g>
<path d="M224.438 42.1951C224.438 42.1951 220.823 41.4236 219.672 43.457C219.672 43.457 220.322 44.5211 222.469 44.0727C222.469 44.0727 223.83 43.7306 224.438 42.1989V42.1951Z" fill="#FF6F60"/>
<path d="M249.411 31.9218C249.411 31.9218 247.245 35.7035 246.675 33.2521C246.105 30.8006 244.277 25.5862 244.208 22.5115C244.208 22.5115 238.412 26.3425 235.874 24.0165C233.335 21.6905 234.783 19.49 234.783 19.49C234.783 19.49 219.66 27.0494 215.73 17.563C210.284 4.41662 234.635 2.94957 246.101 7.58635C256.587 11.8279 253.634 17.8823 253.634 17.8823C253.634 17.8823 260.186 21.2268 251.034 31.1085C251.034 31.1085 249.807 31.5038 249.419 31.9218H249.411Z" fill="#300606"/>
<path d="M249.8 31.5002L236.091 32.4998" stroke="#D35742" stroke-width="0.75" stroke-linecap="round" stroke-linejoin="round"/>
<path d="M235.569 34.7684C236.894 31.9513 235.684 28.594 232.867 27.2696C230.05 25.9451 226.692 27.1552 225.368 29.9723C224.043 32.7893 225.253 36.1466 228.07 37.4711C230.888 38.7955 234.245 37.5854 235.569 34.7684Z" stroke="#D35742" stroke-width="0.75" stroke-linecap="round" stroke-linejoin="round"/>
<path d="M221.728 29.5616C221.656 32.5831 219.546 34.9851 217.019 34.9243C214.492 34.8634 212.5 32.3626 212.572 29.3411C212.644 26.3196 214.754 23.9176 217.281 23.9784C219.809 24.0392 221.8 26.5401 221.728 29.5616Z" stroke="#D35742" stroke-width="0.75" stroke-linecap="round" stroke-linejoin="round"/>
<path d="M224.823 32.2261L221.425 31.4812" stroke="#D35742" stroke-width="0.75" stroke-linecap="round" stroke-linejoin="round"/>
<path d="M207.768 113.286C207.768 113.286 207.216 115.783 205.225 119.329C204.32 120.94 203.682 122.681 202.219 123.81C199.125 126.197 193.378 130.366 184.428 133.726C184.428 133.726 177.305 129.91 175.751 123.035C175.751 123.035 187.229 113.248 187.818 111.188C188.761 107.897 189.753 104.088 189.753 104.088C189.753 104.088 194.899 107.091 207.771 113.286H207.768Z" fill="#FFAFBB"/>
<path d="M188.365 111.971C188.365 111.971 190.604 112.769 192.991 112.834" stroke="#300606" stroke-width="0.75" stroke-linecap="round" stroke-linejoin="round"/>
<path d="M206.628 113.354C206.628 113.354 189.685 112.906 185.192 105.974C185.192 105.974 196.256 79.1562 208.832 69.343C208.832 69.343 220.413 63.1708 227.117 61.8063C227.741 61.6809 228.383 61.9736 228.683 62.536C229.918 64.8316 234.661 70.0689 250.552 62.4296C250.909 62.2586 251.316 62.232 251.688 62.365C254.493 63.3722 266.868 67.99 276.871 74.3598C276.871 74.3598 284.461 89.9614 289.296 117.725C289.296 117.725 281.375 123.989 272.58 126.28L276.316 170.105L201.318 167.27L206.624 113.351L206.628 113.354Z" fill="#B1B889"/>
<path d="M269.315 87.9207L273.561 139.746" stroke="#300606" stroke-width="0.75" stroke-linecap="round" stroke-linejoin="round"/>
<path d="M225.399 62.2283C225.399 62.2283 224.677 71.6311 238.234 70.7531C251.791 69.8752 254.113 63.2734 254.113 63.2734" stroke="#300606" stroke-width="0.75" stroke-linecap="round" stroke-linejoin="round"/>
<path d="M233.617 94.5145C233.617 94.5145 231.215 83.2988 220.543 88.8059C209.87 94.313 223.75 120.313 233.738 130.225C233.738 130.225 262.114 102.64 255.349 90.2008C248.58 77.7613 235.491 91.7666 233.617 94.5107V94.5145Z" stroke="#300606" stroke-width="0.75" stroke-linecap="round" stroke-linejoin="round"/>
<path d="M196.26 111.971C196.26 111.971 202.531 113.643 206.628 113.358" stroke="#300606" stroke-width="0.75" stroke-linecap="round" stroke-linejoin="round"/>
<path d="M187.04 101.797C187.04 101.797 196.61 107.672 206.629 108.098" stroke="#300606" stroke-width="0.75" stroke-linecap="round" stroke-linejoin="round"/>
<path d="M271.938 119.956C271.938 119.956 281.045 116.49 288.08 111.279" stroke="#300606" stroke-width="0.75" stroke-linecap="round" stroke-linejoin="round"/>
<path d="M143.491 142.953L146.494 130.806L189.688 131.848L193.5 144.158L143.491 142.953Z" fill="#FF6F60"/>
<path d="M135.564 167H201.441C197.602 150.626 193.497 144.162 193.497 144.162L143.485 142.957C143.485 142.957 137.351 152.447 135.561 167.003L135.564 167Z" fill="#ABDAEF"/>
<path d="M165.745 161.831L165.601 167.961" stroke="#300606" stroke-width="0.75" stroke-linecap="round" stroke-linejoin="round"/>
<path d="M169.309 161.698L162.274 161.956" stroke="#300606" stroke-width="0.75" stroke-linecap="round" stroke-linejoin="round"/>
<path d="M143.492 142.953L176.991 143.759" stroke="#300606" stroke-width="0.75" stroke-linecap="round" stroke-linejoin="round"/>
<path d="M192.869 66.8071C192.869 66.8071 181.243 61.9233 165.44 60.6311C149.637 59.3389 142.009 60.8439 135.624 65.4883C129.239 70.1365 179.551 96.4179 192.869 66.8033V66.8071Z" fill="#FF6F60"/>
<path d="M135.905 133.466C136.285 126.143 142.982 92.583 142.982 92.583L137.174 110.476C137.174 110.476 119.376 95.0952 111.889 85.7381C111.889 85.7381 127.943 68.4908 139.451 63.1775C139.451 63.1775 158.849 83.7389 192.869 66.8071C195.681 68.0765 198.946 69.2015 201.66 71.3413L212.606 79.9763L206.072 118.959L191.371 102.674C191.371 102.674 198.026 131.414 200.029 139.528C200.029 139.528 170.308 139.528 135.905 133.463V133.466Z" fill="#6A0DAD"/>
<path d="M212.629 78.9463C212.629 78.9463 207.221 109.013 205.001 126.876" stroke="#300606" stroke-width="0.75" stroke-linecap="round" stroke-linejoin="round"/>
<path d="M210.413 78.2507C210.413 78.2507 201.71 70.163 193.972 67.3125" stroke="#300606" stroke-width="0.75" stroke-linecap="round" stroke-linejoin="round"/>
<path d="M144.68 83.9329L140.792 102.484" stroke="#300606" stroke-width="0.75" stroke-linecap="round" stroke-linejoin="round"/>
<path d="M160.913 137.028C160.913 137.028 186.59 139.403 200.029 139.532" stroke="#300606" stroke-width="0.75" stroke-linecap="round" stroke-linejoin="round"/>
<path d="M187.771 84.9741L193.035 109.861" stroke="#300606" stroke-width="0.75" stroke-linecap="round" stroke-linejoin="round"/>
<path d="M140.85 64.4583C140.85 64.4583 152.647 76.0008 173.349 73.0591" stroke="#300606" stroke-width="0.75" stroke-linecap="round" stroke-linejoin="round"/>
<path d="M193.484 105.022L203.347 115.949" stroke="#300606" stroke-width="0.75" stroke-linecap="round" stroke-linejoin="round"/>
<path d="M136.761 126.583C136.761 126.583 175.428 130.928 197.909 131.486" stroke="#300606" stroke-width="0.75" stroke-linecap="round" stroke-linejoin="round"/>
<path d="M194.355 38.9334C192.835 43.8058 189.988 47.253 185.112 45.7327C180.239 44.2125 177.522 39.0284 179.042 34.1522C180.562 29.2798 185.746 26.5623 190.623 28.0826C195.495 29.6028 195.875 34.0572 194.355 38.9334Z" fill="black"/>
<path d="M141.99 40.9401C141.781 47.0705 146.441 52.3192 152.396 51.8251L156.376 51.0536L155.045 64.5648C155.045 64.5648 156.809 67.4267 163.228 69.5665C171.977 72.4778 178.035 66.7844 178.035 66.7844L175.531 43.1216C175.531 43.1216 181.099 44.9802 181.555 37.1965C181.973 30.1083 176.587 32.9967 176.587 32.9967L176.671 28.4778C176.971 24.1109 174.436 18.714 167.378 17.4863L157.93 15.7381C157.93 15.7381 142.94 13.0738 141.99 40.9477V40.9401Z" fill="#FF6F60"/>
<path d="M176.754 36.6455C176.754 36.6455 175.622 37.4512 176.519 38.0821C178.427 39.4314 175.553 39.572 176.089 40.4575" stroke="#300606" stroke-width="0.75" stroke-linecap="round" stroke-linejoin="round"/>
<path d="M178.327 34.5627C178.327 34.5627 180.684 33.1451 179.817 38.1733" stroke="#300606" stroke-width="0.75" stroke-linecap="round" stroke-linejoin="round"/>
<mask id="mask3_121_461" style="mask-type:luminance" maskUnits="userSpaceOnUse" x="142" y="27" width="7" height="8">
<path d="M144.056 27.3149C144.056 27.3149 143.151 30.4543 142.619 33.8634C142.619 33.8634 145.891 36.6037 148.947 31.4766C148.947 31.4766 147.499 28.2195 144.052 27.3187L144.056 27.3149Z" fill="white"/>
</mask>
<g mask="url(#mask3_121_461)">
<path d="M146.809 33.1831C146.33 32.5636 145.824 31.9935 145.273 31.5375C144.726 31.0776 144.125 30.7431 143.487 30.5911C142.848 30.4315 142.164 30.4619 141.461 30.6215C140.754 30.7697 140.047 31.0472 139.299 31.3322C139.242 31.355 139.177 31.3246 139.154 31.2676C139.139 31.2296 139.147 31.184 139.173 31.1536C139.705 30.5341 140.374 30.0324 141.161 29.6979C141.94 29.3635 142.875 29.2267 143.761 29.4471C144.65 29.6561 145.425 30.1996 145.965 30.8571C146.505 31.5223 146.877 32.2824 147.01 33.1071C147.022 33.1679 146.98 33.2249 146.919 33.2325C146.877 33.2401 146.839 33.2211 146.813 33.1907L146.805 33.1831H146.809Z" fill="#300606"/>
</g>
<path d="M155.749 57.2865L156.376 51.0535L166.797 48.5945C166.797 48.5945 163.757 55.1316 155.749 57.2865Z" fill="#300606"/>
<path d="M145.216 40.5105C145.216 40.5105 147.804 41.3086 151.818 41.5671C151.818 41.5671 151.438 46.181 147.782 45.6414C145.038 45.2347 145.216 40.5105 145.216 40.5105Z" fill="#300606"/>
<path d="M156.083 28.2989C156.478 28.3522 157.04 28.4244 157.527 28.5232C158.032 28.6182 158.542 28.7322 159.043 28.8804C159.549 29.0287 160.051 29.1997 160.567 29.3783C161.092 29.5456 161.609 29.747 162.209 29.899H162.224C162.369 29.937 162.517 29.8496 162.555 29.7052C162.574 29.6368 162.563 29.5646 162.529 29.5038C162.217 28.9527 161.803 28.4814 161.331 28.0785C160.868 27.6604 160.32 27.3526 159.765 27.0637C159.207 26.7825 158.61 26.5697 157.994 26.41C157.36 26.2656 156.782 26.1668 156.026 26.2124C155.452 26.2466 155.018 26.7407 155.053 27.3108C155.083 27.8125 155.467 28.2115 155.946 28.2761L156.083 28.2952V28.2989Z" fill="#300606"/>
<mask id="mask4_121_461" style="mask-type:luminance" maskUnits="userSpaceOnUse" x="144" y="22" width="6" height="6">
<path d="M146.286 22.4382C146.286 22.4382 144.777 24.7794 144.021 27.6451C144.021 27.6451 148.737 28.3824 149.623 26.3833C149.623 26.3833 148.634 23.491 146.286 22.4382Z" fill="white"/>
</mask>
<g mask="url(#mask4_121_461)">
<path d="M148.068 25.1177C147.574 24.8479 147.171 24.7452 146.703 24.654C146.247 24.578 145.784 24.5628 145.324 24.6084C144.864 24.654 144.408 24.7452 143.986 24.9429C143.564 25.1291 143.18 25.4104 142.887 25.7866C142.789 25.912 142.811 26.0945 142.941 26.1933C142.975 26.2199 143.017 26.2389 143.058 26.2465H143.085C143.534 26.3453 143.902 26.3643 144.263 26.4213C144.621 26.4707 144.959 26.4973 145.293 26.5581C145.628 26.6152 145.955 26.6836 146.274 26.771C146.582 26.8394 146.947 26.9572 147.182 27.0028L147.38 27.0408C147.942 27.1472 148.482 26.7786 148.588 26.2199C148.676 25.7676 148.452 25.3267 148.068 25.1177Z" fill="#300606"/>
</g>
<path d="M151.23 43.6841C151.23 43.6841 147.615 42.9126 146.464 44.946C146.464 44.946 147.114 46.0101 149.261 45.5617C149.261 45.5617 150.622 45.2196 151.23 43.688V43.6841Z" fill="#FFAFBB"/>
<path d="M153.004 18.3302C153.004 18.3302 154.19 32.9855 176.591 32.9893C176.591 32.9893 182.022 30.2604 181.558 37.189C181.098 44.0453 177.005 43.346 175.534 43.1142L175.88 46.0064C175.88 46.0064 182.368 43.5398 184.143 38.5762C185.918 33.6088 191.387 6.70025 155.444 10.9076C155.444 10.9076 149.204 10.5427 144.327 14.8564C139.451 19.1739 136.103 35.6269 139.048 34.958C141.066 34.5019 142.495 32.8334 143.316 30.2528C145.559 23.2102 146.418 19.9531 153.004 18.3226V18.3302Z" fill="black"/>
<path d="M152.462 14.9629C152.462 14.9629 151.911 28.2005 166.71 31.8073" stroke="#300606" stroke-width="0.75" stroke-linecap="round" stroke-linejoin="round"/>
<path d="M150.765 19.0332C150.765 19.0332 146.155 19.7819 143.916 28.379" stroke="#300606" stroke-width="0.75" stroke-linecap="round" stroke-linejoin="round"/>
<path d="M185.341 26.7103C185.341 26.7103 186.697 25.8019 187.191 27.4628C187.693 29.1465 189.517 38.6937 181.996 44.6455C181.996 44.6455 180.651 45.1852 179.708 43.8778C179.708 43.8778 183.843 41.2363 184.888 35.8128C185.907 30.5299 185.341 26.7103 185.341 26.7103Z" fill="#300606"/>
<path d="M155.445 10.9111C155.445 10.9111 160.493 26.9992 178.378 32.4379" stroke="#300606" stroke-width="0.75" stroke-linecap="round" stroke-linejoin="round"/>
<path d="M162.469 10.4666C162.469 10.4666 173.057 25.2624 185.485 28.7362" stroke="#300606" stroke-width="0.75" stroke-linecap="round" stroke-linejoin="round"/>
<path d="M185.196 40.6778C185.196 40.6778 189.993 43.6879 193.79 40.5144" stroke="#300606" stroke-width="0.75" stroke-linecap="round" stroke-linejoin="round"/>
<path d="M186.959 32.6431C186.959 32.6431 194.313 33.6578 195.058 35.8052" stroke="#300606" stroke-width="0.75" stroke-linecap="round" stroke-linejoin="round"/>
<path d="M139.831 34.7144C139.831 34.7144 141.416 17.3721 152.495 16.0457" stroke="#300606" stroke-width="0.75" stroke-linecap="round" stroke-linejoin="round"/>
<path d="M175.534 43.1178C175.534 43.1178 180.046 44.946 181.323 39.0474" stroke="#300606" stroke-width="0.75" stroke-linecap="round" stroke-linejoin="round"/>
<path d="M179.788 47.2794C179.757 48.4804 178.762 49.4344 177.557 49.404C176.352 49.3736 175.402 48.3778 175.432 47.173C175.463 45.972 176.554 41.1642 177.755 41.1908C178.956 41.2212 179.814 46.0746 179.784 47.2756L179.788 47.2794Z" fill="#300606"/>
<mask id="mask5_121_461" style="mask-type:luminance" maskUnits="userSpaceOnUse" x="142" y="27" width="7" height="10">
<path d="M144.114 27.8848C144.114 27.8848 142.932 30.3476 142.381 35.5507C142.381 35.5507 145.444 38.4125 148.374 31.7386C148.374 31.7386 147.69 28.4891 144.114 27.8848Z" fill="white"/>
</mask>
<g mask="url(#mask5_121_461)">
<path d="M148.934 32.3507C148.934 32.3507 144.411 26.0568 138.885 31.4841C138.885 31.4841 140.093 34.5702 143.396 35.2278C146.695 35.8815 148.934 32.3545 148.934 32.3545V32.3507Z" fill="white"/>
<mask id="mask6_121_461" style="mask-type:luminance" maskUnits="userSpaceOnUse" x="138" y="29" width="11" height="7">
<path d="M148.935 32.3507C148.935 32.3507 144.412 26.0568 138.886 31.4841C138.886 31.4841 140.094 34.5702 143.397 35.2278C146.696 35.8815 148.935 32.3545 148.935 32.3545V32.3507Z" fill="white"/>
</mask>
<g mask="url(#mask6_121_461)">
<path d="M139.283 31.777C139.009 33.5291 140.21 35.1748 141.966 35.4447C143.718 35.7183 145.364 34.5173 145.634 32.7614C145.908 31.0093 144.707 29.3636 142.951 29.0938C141.199 28.8201 139.553 30.0211 139.283 31.777Z" fill="#300606"/>
</g>
<path d="M138.899 31.3779C138.899 31.3779 143.616 25.9772 148.948 32.2444" stroke="#300606" stroke-width="0.75" stroke-linecap="round" stroke-linejoin="round"/>
</g>
<path d="M162.483 33.8636C162.483 33.8636 157.961 27.5698 152.435 32.9971C152.435 32.9971 153.643 36.0832 156.946 36.7407C160.245 37.3944 162.483 33.8674 162.483 33.8674V33.8636Z" fill="white"/>
<mask id="mask7_121_461" style="mask-type:luminance" maskUnits="userSpaceOnUse" x="152" y="30" width="11" height="7">
<path d="M162.483 33.8636C162.483 33.8636 157.961 27.5698 152.435 32.9971C152.435 32.9971 153.643 36.0832 156.946 36.7407C160.245 37.3944 162.483 33.8674 162.483 33.8674V33.8636Z" fill="white"/>
</mask>
<g mask="url(#mask7_121_461)">
<path d="M152.431 33.1186C152.158 34.8707 153.359 36.5164 155.115 36.7862C156.867 37.0599 158.512 35.8589 158.782 34.103C159.056 32.3509 157.855 30.7052 156.099 30.4353C154.347 30.1617 152.701 31.3627 152.431 33.1186Z" fill="#300606"/>
</g>
<path d="M152.343 32.7992C153.02 32.0581 153.833 31.4728 154.741 31.0509C155.65 30.6366 156.676 30.4314 157.687 30.5378C158.702 30.6328 159.667 31.0243 160.507 31.5754C161.355 32.1189 162.088 32.8106 162.746 33.5555L162.24 33.5821L163.095 32.6395C163.148 32.5825 163.24 32.5749 163.297 32.6281C163.346 32.6738 163.358 32.7422 163.327 32.7992L162.761 33.9394C162.692 34.0762 162.525 34.1332 162.388 34.0648C162.369 34.0534 162.35 34.042 162.335 34.0306L162.259 33.966C161.655 33.2324 160.978 32.5597 160.203 32.0314C159.435 31.4956 158.561 31.1117 157.634 30.9977C156.71 30.8723 155.76 31.0281 154.89 31.3929C154.023 31.7616 153.214 32.3127 152.56 32.9892L152.552 32.9968C152.499 33.0538 152.408 33.0538 152.351 32.9968C152.294 32.9436 152.294 32.8562 152.347 32.7992H152.343Z" fill="#300606"/>
<path d="M148.956 30.397C147.763 34.0912 146.037 35.0261 146.037 35.0261C146.037 35.0261 145.038 35.6342 145.277 36.5996C145.521 37.565 146.148 37.2001 146.847 37.8576" stroke="#300606" stroke-width="0.75" stroke-linecap="round" stroke-linejoin="round"/>
<path d="M148.93 37.5496C148.93 37.5496 149.074 37.5192 149.314 37.5914C149.553 37.6674 149.694 37.9372 149.694 37.9372" stroke="#300606" stroke-width="0.75" stroke-linecap="round" stroke-linejoin="round"/>
<path d="M150.951 35.9194C150.951 35.9194 152.122 36.938 150.856 38.3138" stroke="#300606" stroke-width="0.75" stroke-linecap="round" stroke-linejoin="round"/>
<path d="M135.613 109.108C135.613 109.108 134.397 111.355 131.501 114.213C130.186 115.512 129.091 117.006 127.373 117.69C123.74 119.131 117.066 121.548 107.534 122.304C107.534 122.304 101.742 116.672 102.148 109.633C102.148 109.633 115.884 103.396 117.016 101.579C118.829 98.6757 120.836 95.2893 120.836 95.2893C120.836 95.2893 124.952 99.5992 135.609 109.108H135.613Z" fill="#FF6F60"/>
<path d="M117.333 102.484C117.333 102.484 119.264 103.867 121.54 104.593" stroke="#300606" stroke-width="0.75" stroke-linecap="round" stroke-linejoin="round"/>
<path d="M32.8822 56.9945C24.859 41.0927 28.3138 27.627 41.3918 26.0649L50.0496 25.2174C50.0496 25.2174 59.6234 24.2634 64.1956 35.8174C65.1838 38.3144 65.1572 41.2751 67.8784 44.3802C71.4586 48.4659 65.6589 49.4921 65.6018 50.5106C65.2256 57.3518 64.0018 63.1858 57.4913 62.9843L49.3959 62.5435L46.8457 74.238C46.8457 74.238 46.0248 102.173 35.1587 98.3607C28.1922 95.9169 28.1846 70.711 28.1846 70.711L32.8822 56.9945Z" fill="#6D2C25"/>
<path d="M60.2822 38.4663C60.305 38.4663 60.2822 38.4625 60.2746 38.4587C60.267 38.4549 60.248 38.4511 60.2327 38.4473C60.2023 38.4397 60.1719 38.4321 60.1339 38.4245C60.0655 38.4093 59.9895 38.3979 59.9135 38.3827C59.7615 38.3599 59.6018 38.3447 59.4384 38.3371C59.1154 38.3219 58.7809 38.3295 58.4502 38.3789C58.1196 38.4283 57.7851 38.4929 57.4621 38.6031C57.1352 38.7019 56.8198 38.8464 56.5081 39.0022L56.4587 39.0288C56.1091 39.2036 55.6606 39.0972 55.4553 38.7893C55.2843 38.5309 55.3451 38.2116 55.577 38.014C55.8962 37.7442 56.2345 37.4819 56.6183 37.2615C56.9946 37.0296 57.4089 36.8434 57.8421 36.68C58.2754 36.5166 58.7353 36.4025 59.2104 36.3189C59.4498 36.2771 59.6893 36.2505 59.9401 36.2315C60.0655 36.2239 60.1909 36.2163 60.324 36.2163C60.3886 36.2163 60.457 36.2163 60.5254 36.2163H60.6356C60.6774 36.2239 60.704 36.2239 60.7762 36.2353C61.487 36.3607 61.9506 36.9612 61.81 37.5769C61.6732 38.1926 60.9815 38.5917 60.2708 38.4663H60.2822Z" fill="#300606"/>
<path d="M45.897 42.4074C45.897 42.4074 44.2703 41.3851 43.5786 42.0274C42.465 43.065 42.9439 45.3187 43.9359 46.8504" stroke="#300606" stroke-width="0.75" stroke-linecap="round" stroke-linejoin="round"/>
<path d="M46.7816 44.1255C46.7816 44.1255 45.0029 45.4785 46.5042 46.2767C48.0054 47.0748 45.8809 47.4396 45.8809 47.4396" stroke="#300606" stroke-width="0.75" stroke-linecap="round" stroke-linejoin="round"/>
<path d="M64.0479 47.5576C64.0479 47.5576 63.6374 48.8764 65.1957 49.2413" stroke="#300606" stroke-width="0.75" stroke-linecap="round" stroke-linejoin="round"/>
<path d="M32.8831 56.9944C29.0065 59.556 28.615 57.1996 28.8316 52.4716C29.0483 47.7436 25.7949 50.7195 23.4005 43.5629C21.4926 37.8657 21.8613 29.987 26.3232 28.8848C30.4963 27.8549 29.3523 24.3127 30.3519 22.1957C32.9553 16.6848 41.8184 13.4048 47.1431 18.2127C49.9632 20.7591 51.9053 18.6003 54.5011 17.7034C59.936 15.8296 65.8346 22.477 65.1543 27.0225C64.6412 30.4317 65.485 31.9292 65.9372 32.465C66.2033 32.7767 66.4389 33.1149 66.5986 33.495C67.0774 34.6428 67.5031 36.7522 64.7971 37.7403C64.7971 37.7403 64.474 36.4253 63.7861 34.8442C63.7861 34.8442 59.7878 35.8932 57.1388 33.0275C57.1388 33.0275 54.5011 38.8539 49.0928 37.9342C49.0928 37.9342 51.2934 40.0473 50.2292 42.3125C49.1612 44.5777 48.2225 41.9172 47.1051 40.9671C47.1051 40.9671 44.5321 37.2614 41.6056 41.2407C38.6791 45.2162 42.8674 52.1105 47.7246 50.4535C47.7246 50.4535 45.4062 54.9572 42.5101 53.7144C42.5101 53.7144 41.1419 59.4686 32.8869 57.0058L32.8831 56.9944Z" fill="#D35742"/>
<path d="M49.3965 62.5433C49.3965 62.5433 44.6419 62.2469 41.9473 58.9897C41.9473 58.9897 42.5326 66.6936 48.0359 68.7878L49.4003 62.5433H49.3965Z" fill="#300606"/>
<path d="M63.5613 56.0064C60.5588 55.193 59.8291 52.0081 59.8291 52.0081C64.006 51.8447 64.4621 53.2775 64.4621 53.2775C64.4621 53.2775 65.226 55.0372 64.2872 55.8543C64.0934 56.0254 63.8122 56.071 63.5613 56.0026V56.0064Z" fill="#D35742"/>
<path d="M64.7547 54.6001C64.7547 54.6001 62.2995 54.125 59.8291 52.0081" stroke="#300606" stroke-width="0.75" stroke-linecap="round" stroke-linejoin="round"/>
<path d="M47.2987 48.5C47.2835 49.1651 46.7324 49.6896 46.0673 49.6744C45.4022 49.6592 44.8777 49.1081 44.8929 48.443C44.9081 47.7779 45.4592 47.2534 46.1243 47.2686C46.7894 47.2838 47.3139 47.8349 47.2987 48.5Z" fill="white"/>
<path d="M54.1631 43.2358C54.1631 43.2358 57.6483 38.6637 61.7606 41.2443C63.1174 42.0957 63.2656 43.9846 62.0798 45.0564C61.3805 45.6873 60.4303 46.265 59.2027 46.4474C56.0634 46.9149 54.1669 43.2358 54.1669 43.2358H54.1631Z" fill="white"/>
<mask id="mask8_121_461" style="mask-type:luminance" maskUnits="userSpaceOnUse" x="54" y="40" width="9" height="7">
<path d="M54.163 43.2358C54.163 43.2358 57.671 38.637 61.7947 41.2671C63.1249 42.1184 63.2731 43.9617 62.1063 45.0259C61.4032 45.6682 60.4416 46.2611 59.195 46.4435C56.0557 46.911 54.1592 43.232 54.1592 43.232L54.163 43.2358Z" fill="white"/>
</mask>
<g mask="url(#mask8_121_461)">
<path d="M63.6529 43.0759C63.8049 44.8546 62.5811 46.4357 60.9164 46.6067C59.2517 46.7777 57.7809 45.4779 57.6251 43.6992C57.473 41.9205 58.6968 40.3395 60.3615 40.1684C62.0262 39.9974 63.4971 41.2972 63.6529 43.0759Z" fill="#300606"/>
</g>
<path d="M62.1218 42.0272C61.6468 41.4534 60.9892 40.9935 60.2785 40.7616C59.564 40.5222 58.7925 40.526 58.0704 40.7274C57.3368 40.9061 56.6831 41.3279 56.056 41.7574C55.7634 42.0082 55.4593 42.2401 55.1781 42.5023L54.3685 43.3309H53.9809C53.9429 43.3309 53.9125 43.3081 53.8973 43.2739L53.4222 42.1147C53.3918 42.0425 53.426 41.9588 53.502 41.9284C53.5628 41.9018 53.635 41.9284 53.673 41.9778L54.4103 42.9926L53.9391 42.9356L54.8094 42.0995C55.1135 41.8334 55.4403 41.5978 55.7558 41.3431C56.4361 40.9061 57.1468 40.4804 57.9601 40.3056C58.7583 40.1079 59.621 40.1307 60.3963 40.4196C61.1717 40.7046 61.8444 41.2025 62.3537 41.8562C62.4031 41.917 62.3917 42.0082 62.3271 42.0577C62.2663 42.1033 62.1788 42.0957 62.1294 42.0348L62.1218 42.0234V42.0272Z" fill="#300606"/>
<path d="M2.9987 146.112L20.3296 167H0V150.836L2.9987 146.112Z" fill="#300606"/>
<path d="M68.9848 64.8161C68.9848 64.8161 78.8056 63.3186 81.8879 63.1172L68.7529 68.6509L68.9848 64.8199V64.8161Z" fill="#6D2C25"/>
<path d="M0 80.2694C0 80.2694 9.27736 66.3134 31.3667 61.4182C31.3667 61.4182 43.1904 94.1265 44.4218 85.1646C45.8319 74.9371 48.785 65.3329 48.785 65.3329C48.785 65.3329 58.8605 66.1348 68.9854 64.8122C68.9854 64.8122 68.9854 79.2698 62.4521 84.5261C62.4521 84.5261 56.4205 86.8483 49.1993 89.3339C49.1993 89.3339 53.1861 102.902 47.0063 110.222C37.06 122 7.68109 124.961 0 154.351V80.2694Z" fill="#D7B6EF"/>
<path d="M45.7979 78.8936C45.7979 78.8936 49.302 86.7837 50.2522 94.9779" stroke="#300606" stroke-width="0.75" stroke-linecap="round" stroke-linejoin="round"/>
<path d="M29.5156 61.8401C29.5156 61.8401 38.2571 92.4352 44.5357 89.752" stroke="#300606" stroke-width="0.75" stroke-linecap="round" stroke-linejoin="round"/>
<path d="M4.37793 143.474C4.37793 143.474 10.0751 132.505 22.7958 125.588C34.3232 119.321 40.6284 115.547 40.6284 115.547" stroke="#300606" stroke-width="0.75" stroke-linecap="round" stroke-linejoin="round"/>
<path d="M56.998 65.5725C56.998 65.5725 64.2269 65.5117 68.9891 64.8162" stroke="#300606" stroke-width="0.75" stroke-linecap="round" stroke-linejoin="round"/>
<path d="M56.0439 167L64.4091 141.045L108.447 142.106L113.183 167H56.0439Z" fill="#6A0DAD"/>
<path d="M88.0225 159.741L87.8477 167" stroke="white" stroke-width="0.75" stroke-linecap="round" stroke-linejoin="round"/>
<path d="M83.5 159.148L91.8576 160.315" stroke="white" stroke-width="0.75" stroke-linecap="round" stroke-linejoin="round"/>
<path d="M117.9 43.4723C117.812 49.6027 112.906 54.6234 106.98 53.8442L103.043 52.8789L103.72 66.4357C103.72 66.4357 101.451 78.404 94.9363 80.2283C86.0542 82.7177 80.6497 67.5417 80.6497 67.5417L84.2907 44.0272C84.2907 44.0272 78.6391 45.6159 78.5593 37.8169C78.4871 30.7136 83.7244 33.8605 83.7244 33.8605L83.8612 29.3415C83.7738 24.9632 86.5635 19.6955 93.6745 18.81L103.199 17.5216C103.199 17.5216 118.299 15.5832 117.904 43.4685L117.9 43.4723Z" fill="#FFAFBB"/>
<path d="M83.3834 37.509C83.3834 37.509 84.4742 38.368 83.5506 38.9571C81.5819 40.2113 84.44 40.4925 83.8661 41.3515" stroke="#300606" stroke-width="0.75" stroke-linecap="round" stroke-linejoin="round"/>
<path d="M81.9112 35.3503C81.9112 35.3503 79.627 33.8224 80.2503 38.8848" stroke="#300606" stroke-width="0.75" stroke-linecap="round" stroke-linejoin="round"/>
<path d="M111.446 32.6062C112.461 36.3536 114.137 37.3722 114.137 37.3722C114.137 37.3722 115.106 38.0297 114.821 38.9799C114.532 39.9338 113.924 39.5348 113.195 40.1619" stroke="#300606" stroke-width="0.75" stroke-linecap="round" stroke-linejoin="round"/>
<path d="M111.128 39.7512C111.128 39.7512 110.983 39.7132 110.74 39.774C110.497 39.8386 110.345 40.1009 110.345 40.1009" stroke="#300606" stroke-width="0.75" stroke-linecap="round" stroke-linejoin="round"/>
<path d="M109.189 38.0256C109.189 38.0256 107.969 38.9872 109.17 40.42" stroke="#300606" stroke-width="0.75" stroke-linecap="round" stroke-linejoin="round"/>
<mask id="mask9_121_461" style="mask-type:luminance" maskUnits="userSpaceOnUse" x="111" y="29" width="7" height="9">
<path d="M116.49 29.7634C116.49 29.7634 117.243 32.9446 117.608 36.3727C117.608 36.3727 114.21 38.9534 111.401 33.6819C111.401 33.6819 113.005 30.5008 116.49 29.7634Z" fill="white"/>
</mask>
<g mask="url(#mask9_121_461)">
<path d="M113.26 35.4074C113.431 34.5903 113.837 33.8491 114.411 33.2106C114.981 32.5797 115.78 32.0742 116.68 31.907C117.577 31.7284 118.505 31.9108 119.269 32.2833C120.036 32.6557 120.682 33.1878 121.184 33.8339C121.222 33.8833 121.214 33.9518 121.165 33.9898C121.131 34.0164 121.089 34.0202 121.051 34.005C120.318 33.6857 119.626 33.3741 118.927 33.1916C118.235 33.0016 117.547 32.937 116.905 33.0662C116.258 33.1878 115.647 33.4919 115.073 33.9252C114.499 34.3546 113.97 34.9019 113.461 35.4948L113.454 35.5024C113.416 35.548 113.343 35.5556 113.298 35.5138C113.267 35.4872 113.252 35.4454 113.26 35.4074Z" fill="#300606"/>
</g>
<path d="M103.366 59.1345L103.039 52.8787L92.751 49.918C92.751 49.918 95.4722 56.5957 103.366 59.1345Z" fill="#300606"/>
<path d="M114.695 42.887C114.695 42.887 112.073 43.5597 108.052 43.6243C108.052 43.6243 108.211 48.2535 111.887 47.8886C114.646 47.615 114.695 42.887 114.695 42.887Z" fill="#300606"/>
<path d="M107.531 36.0689C106.726 35.6774 105.935 35.3581 105.152 35.1643C104.365 34.9705 103.59 34.9097 102.837 35.0275L102.693 35.0389L102.552 35.0731L102.275 35.1415L101.994 35.2023L101.72 35.3087C101.538 35.3809 101.348 35.4303 101.165 35.5178C100.987 35.6128 100.808 35.7002 100.622 35.7876C100.428 35.8636 100.264 35.989 100.082 36.0955L99.5347 36.4223C99.1813 36.6693 98.8354 36.9354 98.4326 37.1672L98.4212 37.1748C98.3679 37.2052 98.2995 37.1862 98.2691 37.133C98.2501 37.0988 98.2501 37.0608 98.2691 37.0266C98.4706 36.6123 98.7176 36.2171 98.9799 35.8294L99.4511 35.3049C99.6108 35.1301 99.7704 34.9515 99.968 34.8146C100.158 34.6664 100.352 34.522 100.553 34.3814C100.751 34.2407 100.987 34.1495 101.207 34.0355L101.545 33.8797L101.906 33.7733L102.271 33.6744L102.454 33.6288L102.644 33.606C103.647 33.4502 104.685 33.6402 105.559 34.0621C106.429 34.4954 107.185 35.1111 107.687 35.9168C107.721 35.97 107.702 36.0384 107.653 36.0689C107.619 36.0879 107.581 36.0917 107.546 36.0765H107.535L107.531 36.0689Z" fill="#300606"/>
<path d="M104.431 30.1661C104.036 30.2003 103.469 30.2459 102.979 30.3219C102.47 30.3941 101.957 30.4816 101.447 30.607C100.934 30.7286 100.425 30.8768 99.9005 31.0288C99.3684 31.1695 98.8401 31.3481 98.2358 31.4697H98.2206C98.0724 31.5001 97.9317 31.4051 97.9013 31.2607C97.8861 31.1885 97.9013 31.1201 97.9393 31.063C98.2776 30.5272 98.7109 30.0749 99.2049 29.6986C99.6914 29.3033 100.246 29.0221 100.816 28.7599C101.39 28.5052 101.995 28.319 102.614 28.1936C103.253 28.0795 103.838 28.0073 104.59 28.0909C105.161 28.1556 105.571 28.6686 105.506 29.2349C105.449 29.7366 105.05 30.1129 104.568 30.1547L104.431 30.1661Z" fill="#300606"/>
<mask id="mask10_121_461" style="mask-type:luminance" maskUnits="userSpaceOnUse" x="110" y="24" width="7" height="7">
<path d="M114.5 24.7847C114.5 24.7847 115.895 27.1981 116.514 30.0942C116.514 30.0942 111.767 30.6034 110.977 28.5663C110.977 28.5663 112.102 25.7234 114.5 24.7847Z" fill="white"/>
</mask>
<g mask="url(#mask10_121_461)">
<path d="M112.591 27.3767C113.096 27.1335 113.503 27.0461 113.974 26.9815C114.434 26.9282 114.898 26.9358 115.354 27.0043C115.81 27.0727 116.262 27.1829 116.677 27.4033C117.091 27.6086 117.459 27.9088 117.733 28.3003C117.824 28.4295 117.794 28.6119 117.661 28.7031C117.623 28.7297 117.581 28.7449 117.539 28.7526H117.513C117.06 28.8286 116.692 28.8286 116.327 28.8666C115.966 28.897 115.631 28.9084 115.293 28.954C114.959 28.9958 114.628 29.049 114.301 29.1174C113.989 29.1706 113.621 29.2732 113.381 29.3036L113.184 29.3302C112.617 29.4101 112.097 29.0186 112.013 28.4523C111.949 27.9962 112.196 27.5668 112.587 27.3767H112.591Z" fill="#300606"/>
</g>
<path d="M108.539 45.7716C108.539 45.7716 112.184 45.1749 113.24 47.2615C113.24 47.2615 112.541 48.2952 110.417 47.7403C110.417 47.7403 109.075 47.3337 108.539 45.7716Z" fill="#D35742"/>
<path d="M83.7202 33.8641C83.7202 33.8641 90.7742 34.4912 91.1923 29.1551C91.8118 21.208 109.58 28.1859 108.557 22.5876C108.557 22.5876 111.13 24.4157 113.289 23.8038C113.608 23.7126 113.947 23.838 114.106 24.1269C114.688 25.1834 115.965 27.6843 116.512 30.0977C116.512 30.0977 115.988 25.9018 115.953 24.0357C115.953 24.0357 121.453 19.0682 117.401 13.7169C113.35 8.36563 109.489 8.59366 105.935 11.733C105.935 11.733 105.433 8.17939 97.8586 8.55946C90.3447 8.93572 92.0664 15.1004 83.3972 17.0083C77.377 18.3347 81.7971 25.8752 82.0137 33.2408C82.0137 33.2408 83.0019 33.4498 83.724 33.8717L83.7202 33.8641Z" fill="#6D2C25"/>
<path d="M81.736 42.5791L81.6523 46.1213" stroke="#300606" stroke-width="0.75" stroke-linecap="round" stroke-linejoin="round"/>
<path d="M82.5881 45.9615C82.5767 46.4746 82.1473 46.8813 81.6342 46.8699C81.1211 46.8585 80.7144 46.429 80.7258 45.9159C80.7372 45.4028 81.1667 44.9962 81.6798 45.0076C82.1929 45.019 82.5995 45.4484 82.5881 45.9615Z" fill="#300606"/>
<path d="M81.2854 63.4407C81.2854 63.4407 70.2407 65.7667 59.4507 71.4676C48.6607 77.1686 45.7988 78.8941 45.7988 78.8941C45.7988 78.8941 52.2713 95.9171 50.0935 103.176L67.6145 101.082C67.6145 101.082 57.5998 132.871 55.3726 140.328C53.1455 147.784 63.5326 142.403 90.4753 144.44C113.792 146.203 117.806 146.956 117.783 140.126C117.756 133.296 113.462 97.0345 113.462 97.0345L140.366 106.145C140.366 106.145 142.905 94.2258 144.6 84.4278C144.6 84.4278 132.518 73.5466 122.283 66.9068C122.283 66.9068 115.491 63.7523 103.527 62.4829L95.648 77.6627L81.2892 63.4369L81.2854 63.4407Z" fill="#FFC054"/>
<path d="M45.7988 78.894C45.7988 78.894 51.3592 94.0624 50.409 101.671" stroke="#300606" stroke-width="0.75" stroke-linecap="round" stroke-linejoin="round"/>
<path d="M102.584 64.292L97.2178 74.6297" stroke="#300606" stroke-width="0.75" stroke-linecap="round" stroke-linejoin="round"/>
<path d="M81.2852 63.4407L92.459 74.5157" stroke="#300606" stroke-width="0.75" stroke-linecap="round" stroke-linejoin="round"/>
<path d="M72.1826 66.0476L83.6415 69.7342L79.2252 74.1962C79.2252 74.1962 88.1643 74.4432 93.7208 77.6205" stroke="#300606" stroke-width="0.75" stroke-linecap="round" stroke-linejoin="round"/>
<path d="M88.8447 144.402L95.6403 77.6664C100.927 75.4127 107.852 74.2116 107.852 74.2116L103.135 68.7881L111.706 63.7561" stroke="#300606" stroke-width="0.75" stroke-linecap="round" stroke-linejoin="round"/>
<path d="M51.3555 75.7774C51.3555 75.7774 61.3397 70.5667 66.7823 68.0659" stroke="#300606" stroke-width="0.75" stroke-linecap="round" stroke-linejoin="round"/>
<path d="M111.892 85.7388L116.475 124.22" stroke="#300606" stroke-width="0.75" stroke-linecap="round" stroke-linejoin="round"/>
<path d="M64.0879 112.298L72.8484 83.7434" stroke="#300606" stroke-width="0.75" stroke-linecap="round" stroke-linejoin="round"/>
<path d="M97.8597 94.1231C97.8521 94.4614 97.5709 94.7274 97.2326 94.7198C96.8943 94.7122 96.6283 94.431 96.6359 94.0927C96.6435 93.7544 96.9248 93.4884 97.263 93.496C97.6013 93.5036 97.8673 93.7849 97.8597 94.1231Z" fill="#300606"/>
<path d="M96.9593 106.076C96.9517 106.414 96.6705 106.68 96.3322 106.673C95.994 106.665 95.7279 106.384 95.7355 106.046C95.7431 105.707 96.0244 105.441 96.3626 105.449C96.7009 105.456 96.9669 105.738 96.9593 106.076Z" fill="#300606"/>
<path d="M96.0736 117.326C96.066 117.664 95.7847 117.93 95.4465 117.923C95.1082 117.915 94.8422 117.634 94.8498 117.296C94.8574 116.957 95.1386 116.691 95.4769 116.699C95.8151 116.706 96.0812 116.988 96.0736 117.326Z" fill="#300606"/>
<path d="M95.1956 128.397C95.188 128.735 94.9068 129.001 94.5685 128.994C94.2303 128.986 93.9642 128.705 93.9718 128.367C93.9794 128.028 94.2607 127.762 94.5989 127.77C94.9372 127.778 95.2032 128.059 95.1956 128.397Z" fill="#300606"/>
<path d="M144.684 83.9333L139.321 111.731" stroke="#300606" stroke-width="0.75" stroke-linecap="round" stroke-linejoin="round"/>
<path d="M120.033 99.2654L137.448 105.16" stroke="#300606" stroke-width="0.75" stroke-linecap="round" stroke-linejoin="round"/>
<path d="M133.099 74.2455C133.099 74.2455 129.716 77.7915 127.774 74.0783C127.774 74.0783 126.106 75.2793 124.825 74.3558C123.544 73.4284 123.301 72.8203 123.301 72.8203C123.301 72.8203 120.735 74.5496 119.508 73.4626C118.284 72.3756 118.953 70.5931 118.953 70.5931C118.953 70.5931 116.486 71.0492 116.513 68.7954C116.54 66.5416 118.39 65.6067 119.451 64.8276C120.515 64.0484 125.448 62.1025 125.551 64.6261C125.551 64.6261 128.827 64.2499 128.553 67.2068C128.553 67.2068 133.213 67.1802 132.324 70.3461C132.324 70.3461 133.422 70.4601 134.14 71.6155C134.859 72.7709 133.479 73.9529 133.099 74.2493V74.2455Z" fill="#6D2C25"/>
<path d="M133.099 74.2456C133.099 74.2456 129.716 77.7916 127.774 74.0784C127.774 74.0784 126.106 75.2794 124.825 74.3558C123.544 73.4285 123.301 72.8204 123.301 72.8204C123.301 72.8204 120.735 74.5497 119.508 73.4627C118.284 72.3757 118.953 70.5932 118.953 70.5932C118.953 70.5932 116.486 71.0493 116.513 68.7955C116.54 66.5417 118.39 65.6068 119.451 64.8276" stroke="#300606" stroke-width="0.75" stroke-linecap="round" stroke-linejoin="round"/>
<path d="M127.774 74.0786L131.358 70.9316" stroke="#300606" stroke-width="0.75" stroke-linecap="round" stroke-linejoin="round"/>
<path d="M123.301 72.8167L127.77 68.6094" stroke="#300606" stroke-width="0.75" stroke-linecap="round" stroke-linejoin="round"/>
<path d="M118.953 70.5894L124.487 66.2073" stroke="#300606" stroke-width="0.75" stroke-linecap="round" stroke-linejoin="round"/>
<path d="M19.5625 117.287C19.5625 117.287 29.98 137.336 40.3406 141.733C50.7011 146.134 78.8334 114.414 78.8334 114.414C78.8334 114.414 75.0328 107.645 70.6203 105.562C70.6203 105.562 68.2943 108.937 63.7981 111.579C58.1808 114.878 52.9093 115.402 48.0141 119.845C48.0141 119.845 43.6623 110.032 38.7329 102.868C38.7329 102.868 28.0417 109.044 19.5625 117.287Z" fill="#6D2C25"/>
<path d="M29.9838 84.8225C31.7359 90.2194 34.9094 97.7902 39.8806 102.195C39.8806 102.195 27.521 109.093 18.0764 118.99C18.0764 118.99 10.6233 103.62 8.11872 92.9748C6.41984 85.7498 8.94346 78.6046 15.7352 76.8335C21.8048 75.2525 28.0493 78.8555 29.9838 84.8187V84.8225Z" fill="#D7B6EF"/>
<path d="M34.35 105.639C29.8956 108.607 23.503 113.304 18.0756 118.994C18.0756 118.994 13.6745 109.922 10.501 100.892" stroke="#300606" stroke-width="0.75" stroke-linecap="round" stroke-linejoin="round"/>
<path d="M8.11872 92.9785C6.41984 85.7535 8.94346 78.6083 15.7352 76.8372C21.8048 75.2561 28.0493 78.8591 29.9838 84.8223C31.7359 90.2192 37.5661 95.7074 39.8806 102.195" stroke="#300606" stroke-width="0.75" stroke-linecap="round" stroke-linejoin="round"/>
<path d="M70.2459 107.699C70.2459 107.699 69.9495 99.6564 72.9938 96.5779C74.2556 95.3047 76.0077 93.2523 77.0833 93.9935C79.0026 95.3123 76.3649 96.8515 76.5892 98.7633C76.6196 99.0331 76.8704 99.2041 77.0795 99.0293C79.987 96.5589 82.9477 92.1919 82.9477 92.1919C82.9477 92.1919 84.5401 88.4445 86.9003 89.9192C89.1009 91.295 84.046 95.8976 83.7686 96.5019C83.7686 96.5019 88.4586 88.7752 90.6325 91.0442C92.2098 92.6898 87.3298 98.577 86.4746 99.4626C89.2681 91.3368 91.6283 94.4875 91.6283 94.4875C92.5937 95.9888 91.3053 98.444 90.5755 98.9913C90.7542 98.9913 91.1266 96.7603 92.396 98.4896C93.9163 100.561 88.9793 106.528 87.0942 108.805C83.3657 113.308 78.2653 114.536 78.2653 114.536L75.1069 116.774L68.9043 110.264L70.2459 107.695V107.699Z" fill="#6D2C25"/>
<path d="M87.1974 92.0818C87.1974 92.0818 84.613 97.7903 80.877 101.443" stroke="#300606" stroke-width="0.75" stroke-linecap="round" stroke-linejoin="round"/>
<path d="M90.6321 93.8108C90.6321 93.8108 87.5231 100.618 83.7871 104.27" stroke="#300606" stroke-width="0.75" stroke-linecap="round" stroke-linejoin="round"/>
<path d="M91.4652 97.8625C91.4652 97.8625 89.4774 102.545 85.9238 106.296" stroke="#300606" stroke-width="0.75" stroke-linecap="round" stroke-linejoin="round"/>
</g>
</svg>
