<svg width="32" height="32" viewBox="0 0 32 32" fill="none" xmlns="http://www.w3.org/2000/svg">
<g filter="url(#filter0_d_105_14269)">
<path d="M16 1C9.9247 1 5 5.9247 5 12C5 18.0753 9.9247 23 16 23C22.0753 23 27 18.0753 27 12C27 5.9247 22.0753 1 16 1Z" stroke="#6A0DAD" stroke-width="2" stroke-linecap="round" stroke-linejoin="round"/>
<path d="M7.49805 18.9805C7.49805 18.9805 9.94995 15.8499 15.9999 15.8499C22.0499 15.8499 24.5029 18.9805 24.5029 18.9805M15.9999 11.9999C16.8752 11.9999 17.7145 11.6522 18.3334 11.0334C18.9523 10.4145 19.2999 9.57512 19.2999 8.6999C19.2999 7.82469 18.9523 6.98532 18.3334 6.36645C17.7145 5.74758 16.8752 5.3999 15.9999 5.3999C15.1247 5.3999 14.2854 5.74758 13.6665 6.36645C13.0476 6.98532 12.6999 7.82469 12.6999 8.6999C12.6999 9.57512 13.0476 10.4145 13.6665 11.0334C14.2854 11.6522 15.1247 11.9999 15.9999 11.9999Z" stroke="#6A0DAD" stroke-width="2" stroke-linecap="round" stroke-linejoin="round"/>
</g>
<defs>
<filter id="filter0_d_105_14269" x="0" y="0" width="32" height="32" filterUnits="userSpaceOnUse" color-interpolation-filters="sRGB">
<feFlood flood-opacity="0" result="BackgroundImageFix"/>
<feColorMatrix in="SourceAlpha" type="matrix" values="0 0 0 0 0 0 0 0 0 0 0 0 0 0 0 0 0 0 127 0" result="hardAlpha"/>
<feOffset dy="4"/>
<feGaussianBlur stdDeviation="2"/>
<feComposite in2="hardAlpha" operator="out"/>
<feColorMatrix type="matrix" values="0 0 0 0 0 0 0 0 0 0 0 0 0 0 0 0 0 0 0.25 0"/>
<feBlend mode="normal" in2="BackgroundImageFix" result="effect1_dropShadow_105_14269"/>
<feBlend mode="normal" in="SourceGraphic" in2="effect1_dropShadow_105_14269" result="shape"/>
</filter>
</defs>
</svg>
