<svg width="24" height="24" viewBox="0 0 24 24" fill="none" xmlns="http://www.w3.org/2000/svg">
<path d="M12 1C5.9247 1 1 5.9247 1 12C1 18.0753 5.9247 23 12 23C18.0753 23 23 18.0753 23 12C23 5.9247 18.0753 1 12 1Z" stroke="#6A0DAD" stroke-width="2" stroke-linecap="round" stroke-linejoin="round"/>
<path d="M3.5 18.9805C3.5 18.9805 5.9519 15.8499 12.0019 15.8499C18.0519 15.8499 20.5049 18.9805 20.5049 18.9805M12.0019 11.9999C12.8771 11.9999 13.7165 11.6522 14.3354 11.0334C14.9542 10.4145 15.3019 9.57512 15.3019 8.6999C15.3019 7.82469 14.9542 6.98532 14.3354 6.36645C13.7165 5.74758 12.8771 5.3999 12.0019 5.3999C11.1267 5.3999 10.2873 5.74758 9.66845 6.36645C9.04958 6.98532 8.7019 7.82469 8.7019 8.6999C8.7019 9.57512 9.04958 10.4145 9.66845 11.0334C10.2873 11.6522 11.1267 11.9999 12.0019 11.9999Z" stroke="#6A0DAD" stroke-width="2" stroke-linecap="round" stroke-linejoin="round"/>
</svg>
