<svg width="73" height="73" viewBox="0 0 73 73" fill="none" xmlns="http://www.w3.org/2000/svg">
<rect width="73" height="73" rx="10" fill="#F4E0FF"/>
<path d="M36.5 18.6C34.0836 18.6 31.7661 19.5693 30.0575 21.2946C28.3488 23.02 27.3889 25.36 27.3889 27.8C27.3889 30.24 28.3488 32.58 30.0575 34.3054C31.7661 36.0307 34.0836 37 36.5 37C38.9164 37 41.2339 36.0307 42.9425 34.3054C44.6512 32.58 45.6111 30.24 45.6111 27.8C45.6111 25.36 44.6512 23.02 42.9425 21.2946C41.2339 19.5693 38.9164 18.6 36.5 18.6ZM22.8333 27.8C22.8333 24.14 24.2732 20.6299 26.8362 18.0419C29.3992 15.4539 32.8754 14 36.5 14C40.1246 14 43.6008 15.4539 46.1638 18.0419C48.7268 20.6299 50.1667 24.14 50.1667 27.8C50.1667 31.46 48.7268 34.9701 46.1638 37.5581C43.6008 40.1461 40.1246 41.6 36.5 41.6C32.8754 41.6 29.3992 40.1461 26.8362 37.5581C24.2732 34.9701 22.8333 31.46 22.8333 27.8ZM27.3889 50.8C25.5766 50.8 23.8385 51.527 22.557 52.821C21.2755 54.115 20.5556 55.87 20.5556 57.7C20.5556 58.31 20.3156 58.895 19.8884 59.3263C19.4612 59.7577 18.8819 60 18.2778 60C17.6737 60 17.0943 59.7577 16.6671 59.3263C16.24 58.895 16 58.31 16 57.7C16 54.65 17.1999 51.7249 19.3357 49.5683C21.4716 47.4116 24.3684 46.2 27.3889 46.2H45.6111C48.6316 46.2 51.5284 47.4116 53.6643 49.5683C55.8001 51.7249 57 54.65 57 57.7C57 58.31 56.76 58.895 56.3329 59.3263C55.9057 59.7577 55.3263 60 54.7222 60C54.1181 60 53.5388 59.7577 53.1116 59.3263C52.6844 58.895 52.4444 58.31 52.4444 57.7C52.4444 55.87 51.7245 54.115 50.443 52.821C49.1615 51.527 47.4234 50.8 45.6111 50.8H27.3889Z" fill="#9747FF"/>
<circle cx="60.5" cy="60.5" r="12.5" fill="#F4E0FF"/>
<circle cx="61.5" cy="61.5" r="9.5" fill="#6A0DAD"/>
<path d="M66.625 64.0833C66.625 64.2712 66.5504 64.4514 66.4175 64.5842C66.2847 64.717 66.1045 64.7917 65.9167 64.7917H57.4167C57.2288 64.7917 57.0486 64.717 56.9158 64.5842C56.783 64.4514 56.7083 64.2712 56.7083 64.0833V59.8333C56.7083 59.6455 56.783 59.4653 56.9158 59.3325C57.0486 59.1996 57.2288 59.125 57.4167 59.125H58.2468C58.8101 59.1247 59.3503 58.9007 59.7485 58.5024L60.3364 57.9159C60.4689 57.7834 60.6484 57.7087 60.8358 57.7083H62.4961C62.684 57.7084 62.8641 57.783 62.9969 57.9159L63.5834 58.5024C63.7808 58.6998 64.0151 58.8564 64.273 58.9632C64.5309 59.0701 64.8073 59.125 65.0865 59.125H65.9167C66.1045 59.125 66.2847 59.1996 66.4175 59.3325C66.5504 59.4653 66.625 59.6455 66.625 59.8333V64.0833ZM57.4167 58.4167C57.0409 58.4167 56.6806 58.5659 56.4149 58.8316C56.1493 59.0973 56 59.4576 56 59.8333V64.0833C56 64.4591 56.1493 64.8194 56.4149 65.0851C56.6806 65.3507 57.0409 65.5 57.4167 65.5H65.9167C66.2924 65.5 66.6527 65.3507 66.9184 65.0851C67.1841 64.8194 67.3333 64.4591 67.3333 64.0833V59.8333C67.3333 59.4576 67.1841 59.0973 66.9184 58.8316C66.6527 58.5659 66.2924 58.4167 65.9167 58.4167H65.0865C64.7108 58.4166 64.3505 58.2673 64.0849 58.0016L63.4984 57.4151C63.2328 57.1494 62.8725 57.0001 62.4968 57H60.8365C60.4608 57.0001 60.1005 57.1494 59.8349 57.4151L59.2484 58.0016C58.9828 58.2673 58.6225 58.4166 58.2468 58.4167H57.4167Z" fill="#F4E0FF"/>
<path d="M61.666 63.375C61.1964 63.375 60.7459 63.1884 60.4138 62.8563C60.0818 62.5242 59.8952 62.0738 59.8952 61.6042C59.8952 61.1345 60.0818 60.6841 60.4138 60.352C60.7459 60.0199 61.1964 59.8333 61.666 59.8333C62.1357 59.8333 62.5861 60.0199 62.9182 60.352C63.2503 60.6841 63.4368 61.1345 63.4368 61.6042C63.4368 62.0738 63.2503 62.5242 62.9182 62.8563C62.5861 63.1884 62.1357 63.375 61.666 63.375ZM61.666 64.0833C62.3235 64.0833 62.9541 63.8221 63.4191 63.3572C63.884 62.8923 64.1452 62.2617 64.1452 61.6042C64.1452 60.9467 63.884 60.3161 63.4191 59.8511C62.9541 59.3862 62.3235 59.125 61.666 59.125C61.0085 59.125 60.3779 59.3862 59.913 59.8511C59.448 60.3161 59.1868 60.9467 59.1868 61.6042C59.1868 62.2617 59.448 62.8923 59.913 63.3572C60.3779 63.8221 61.0085 64.0833 61.666 64.0833ZM58.1243 60.1875C58.1243 60.2814 58.087 60.3715 58.0206 60.4379C57.9542 60.5044 57.8641 60.5417 57.7702 60.5417C57.6763 60.5417 57.5862 60.5044 57.5197 60.4379C57.4533 60.3715 57.416 60.2814 57.416 60.1875C57.416 60.0936 57.4533 60.0035 57.5197 59.9371C57.5862 59.8706 57.6763 59.8333 57.7702 59.8333C57.8641 59.8333 57.9542 59.8706 58.0206 59.9371C58.087 60.0035 58.1243 60.0936 58.1243 60.1875Z" fill="#F4E0FF"/>
</svg>
