<svg width="17" height="13" viewBox="0 0 17 13" fill="none" xmlns="http://www.w3.org/2000/svg">
<path d="M15.9375 10.625C15.9375 10.9068 15.8256 11.177 15.6263 11.3763C15.427 11.5756 15.1568 11.6875 14.875 11.6875H2.125C1.84321 11.6875 1.57296 11.5756 1.3737 11.3763C1.17444 11.177 1.0625 10.9068 1.0625 10.625V4.25C1.0625 3.96821 1.17444 3.69796 1.3737 3.4987C1.57296 3.29944 1.84321 3.1875 2.125 3.1875H3.37025C4.21519 3.18704 5.02538 2.85112 5.62275 2.25356L6.50463 1.37381C6.70332 1.17506 6.97265 1.06312 7.25369 1.0625H9.74419C10.026 1.06256 10.2962 1.17454 10.4954 1.37381L11.3751 2.25356C11.6712 2.5497 12.0227 2.7846 12.4095 2.94485C12.7964 3.1051 13.211 3.18755 13.6298 3.1875H14.875C15.1568 3.1875 15.427 3.29944 15.6263 3.4987C15.8256 3.69796 15.9375 3.96821 15.9375 4.25V10.625ZM2.125 2.125C1.56141 2.125 1.02091 2.34888 0.622398 2.7474C0.223883 3.14591 0 3.68641 0 4.25L0 10.625C0 11.1886 0.223883 11.7291 0.622398 12.1276C1.02091 12.5261 1.56141 12.75 2.125 12.75H14.875C15.4386 12.75 15.9791 12.5261 16.3776 12.1276C16.7761 11.7291 17 11.1886 17 10.625V4.25C17 3.68641 16.7761 3.14591 16.3776 2.7474C15.9791 2.34888 15.4386 2.125 14.875 2.125H13.6298C13.0662 2.12488 12.5258 1.90092 12.1274 1.50238L11.2476 0.622625C10.8492 0.224083 10.3088 0.000120354 9.74525 0H7.25475C6.69121 0.000120354 6.1508 0.224083 5.75238 0.622625L4.87262 1.50238C4.4742 1.90092 3.93379 2.12488 3.37025 2.125H2.125Z" fill="#6A0DAD"/>
<path d="M8.5 9.5625C7.79552 9.5625 7.11989 9.28265 6.62175 8.7845C6.1236 8.28636 5.84375 7.61073 5.84375 6.90625C5.84375 6.20177 6.1236 5.52614 6.62175 5.028C7.11989 4.52985 7.79552 4.25 8.5 4.25C9.20448 4.25 9.88011 4.52985 10.3783 5.028C10.8764 5.52614 11.1562 6.20177 11.1562 6.90625C11.1562 7.61073 10.8764 8.28636 10.3783 8.7845C9.88011 9.28265 9.20448 9.5625 8.5 9.5625ZM8.5 10.625C9.48627 10.625 10.4322 10.2332 11.1296 9.5358C11.827 8.8384 12.2188 7.89252 12.2188 6.90625C12.2188 5.91998 11.827 4.9741 11.1296 4.2767C10.4322 3.5793 9.48627 3.1875 8.5 3.1875C7.51373 3.1875 6.56785 3.5793 5.87045 4.2767C5.17305 4.9741 4.78125 5.91998 4.78125 6.90625C4.78125 7.89252 5.17305 8.8384 5.87045 9.5358C6.56785 10.2332 7.51373 10.625 8.5 10.625ZM3.1875 4.78125C3.1875 4.92215 3.13153 5.05727 3.0319 5.1569C2.93227 5.25653 2.79715 5.3125 2.65625 5.3125C2.51535 5.3125 2.38023 5.25653 2.2806 5.1569C2.18097 5.05727 2.125 4.92215 2.125 4.78125C2.125 4.64035 2.18097 4.50523 2.2806 4.4056C2.38023 4.30597 2.51535 4.25 2.65625 4.25C2.79715 4.25 2.93227 4.30597 3.0319 4.4056C3.13153 4.50523 3.1875 4.64035 3.1875 4.78125Z" fill="#6A0DAD"/>
</svg>
