<svg width="26" height="26" viewBox="0 0 26 26" fill="none" xmlns="http://www.w3.org/2000/svg">
<circle cx="13" cy="13" r="13" fill="#6A0DAD"/>
<path d="M20.0141 16.535C20.0141 16.7921 19.912 17.0386 19.7302 17.2204C19.5484 17.4022 19.3019 17.5043 19.0448 17.5043H7.41321C7.15613 17.5043 6.90959 17.4022 6.72781 17.2204C6.54603 17.0386 6.44391 16.7921 6.44391 16.535V10.7192C6.44391 10.4622 6.54603 10.2156 6.72781 10.0338C6.90959 9.85206 7.15613 9.74994 7.41321 9.74994H8.54922C9.32005 9.74951 10.0592 9.44306 10.6041 8.89792L11.4087 8.09534C11.5899 7.91403 11.8356 7.81191 12.092 7.81134H14.364C14.6211 7.81139 14.8676 7.91355 15.0493 8.09534L15.8519 8.89792C16.122 9.16808 16.4427 9.38238 16.7956 9.52857C17.1485 9.67476 17.5268 9.74998 17.9088 9.74994H19.0448C19.3019 9.74994 19.5484 9.85206 19.7302 10.0338C19.912 10.2156 20.0141 10.4622 20.0141 10.7192V16.535ZM7.41321 8.78064C6.89906 8.78064 6.40597 8.98488 6.04241 9.34844C5.67885 9.712 5.47461 10.2051 5.47461 10.7192V16.535C5.47461 17.0492 5.67885 17.5423 6.04241 17.9058C6.40597 18.2694 6.89906 18.4736 7.41321 18.4736H19.0448C19.5589 18.4736 20.052 18.2694 20.4156 17.9058C20.7791 17.5423 20.9834 17.0492 20.9834 16.535V10.7192C20.9834 10.2051 20.7791 9.712 20.4156 9.34844C20.052 8.98488 19.5589 8.78064 19.0448 8.78064H17.9088C17.3947 8.78053 16.9017 8.57621 16.5382 8.21263L15.7356 7.41005C15.3721 7.04647 14.8791 6.84215 14.365 6.84204H12.093C11.5789 6.84215 11.0859 7.04647 10.7224 7.41005L9.91981 8.21263C9.55634 8.57621 9.06333 8.78053 8.54922 8.78064H7.41321Z" fill="#F4E0FF"/>
<path d="M13.2299 15.5658C12.5872 15.5658 11.9708 15.3105 11.5164 14.856C11.0619 14.4016 10.8066 13.7852 10.8066 13.1425C10.8066 12.4999 11.0619 11.8835 11.5164 11.4291C11.9708 10.9746 12.5872 10.7193 13.2299 10.7193C13.8725 10.7193 14.4889 10.9746 14.9433 11.4291C15.3978 11.8835 15.6531 12.4999 15.6531 13.1425C15.6531 13.7852 15.3978 14.4016 14.9433 14.856C14.4889 15.3105 13.8725 15.5658 13.2299 15.5658ZM13.2299 16.5351C14.1296 16.5351 14.9925 16.1777 15.6287 15.5414C16.265 14.9052 16.6224 14.0423 16.6224 13.1425C16.6224 12.2428 16.265 11.3799 15.6287 10.7437C14.9925 10.1074 14.1296 9.75 13.2299 9.75C12.3301 9.75 11.4672 10.1074 10.831 10.7437C10.1947 11.3799 9.83731 12.2428 9.83731 13.1425C9.83731 14.0423 10.1947 14.9052 10.831 15.5414C11.4672 16.1777 12.3301 16.5351 13.2299 16.5351ZM8.38336 11.2039C8.38336 11.3325 8.3323 11.4558 8.24141 11.5466C8.15052 11.6375 8.02725 11.6886 7.89871 11.6886C7.77017 11.6886 7.6469 11.6375 7.55601 11.5466C7.46512 11.4558 7.41406 11.3325 7.41406 11.2039C7.41406 11.0754 7.46512 10.9521 7.55601 10.8612C7.6469 10.7704 7.77017 10.7193 7.89871 10.7193C8.02725 10.7193 8.15052 10.7704 8.24141 10.8612C8.3323 10.9521 8.38336 11.0754 8.38336 11.2039Z" fill="#F4E0FF"/>
</svg>
