<svg width="290" height="180" viewBox="0 0 290 180" fill="none" xmlns="http://www.w3.org/2000/svg">
<g clip-path="url(#clip0_115_604)">
<path d="M290 178.225H0V180H290V178.225Z" fill="#2B0D06"/>
<path d="M54.6309 41.5778C52.3406 40.9789 50.9604 38.6049 51.5569 36.3052L54.0997 26.5381C54.6962 24.2385 57.0605 22.8525 59.3507 23.4515C61.641 24.0505 63.0212 26.4245 62.4247 28.7241L59.8819 38.4912C59.2854 40.7909 56.9211 42.1768 54.6309 41.5778Z" fill="#FFA68F"/>
<path d="M57.8445 30.5166C56.2422 30.0969 54.8489 29.2181 53.7168 28.0115C53.7168 28.0115 55.4976 35.5619 60.0868 37.7042L61.9504 30.5516C60.5963 30.8664 59.2073 30.8751 57.8445 30.5166Z" fill="#EA735A"/>
<path d="M73.1577 22.883C72.8137 24.199 71.6076 25.0253 70.4669 24.7236C69.3217 24.4219 68.673 23.1103 69.017 21.7943C69.3609 20.4784 70.567 19.6521 71.7078 19.9537C72.8529 20.2554 73.5017 21.567 73.1577 22.883Z" fill="#EA735A"/>
<path d="M47.7338 16.2113C47.3898 17.5273 48.0385 18.8389 49.1837 19.1406C50.3288 19.4423 51.5305 18.6159 51.8745 17.3C52.2185 15.984 51.5697 14.6724 50.4246 14.3707C49.2795 14.0691 48.0777 14.8954 47.7338 16.2113Z" fill="#FFA68F"/>
<path d="M71.4546 21.0424C71.4981 20.9943 71.5634 20.9943 71.6026 21.0424C71.6418 21.0861 71.6418 21.1605 71.6026 21.2042C71.5939 21.2129 70.8624 22.0217 70.8798 22.9442C70.8842 23.224 70.9713 23.4864 71.1149 23.7356C71.681 23.1497 71.2543 22.424 71.2325 22.389C71.202 22.3365 71.2151 22.2666 71.263 22.2272C71.3109 22.1923 71.3762 22.201 71.411 22.2535C71.4154 22.2622 71.964 23.1934 71.2325 23.9192C71.3152 24.0241 71.4067 24.1291 71.5155 24.2296C71.5591 24.269 71.5634 24.3433 71.5242 24.3914C71.4981 24.4264 71.4546 24.4438 71.4154 24.4307C71.4023 24.4307 71.3849 24.4176 71.3762 24.4089C70.9146 23.9935 70.6752 23.5082 70.6665 22.9574C70.6447 21.9343 71.4197 21.0774 71.4546 21.038V21.0424Z" fill="#310B02"/>
<path d="M50.1154 15.4374C50.1023 15.3762 50.0414 15.3413 49.9848 15.3587C49.9282 15.3762 49.8933 15.4418 49.9064 15.503C49.9064 15.5118 50.1546 16.5829 49.6887 17.3786C49.545 17.6191 49.3447 17.8071 49.1009 17.9514C48.8963 17.1644 49.619 16.7359 49.6539 16.7184C49.7061 16.6878 49.7279 16.6179 49.7061 16.5611C49.68 16.5042 49.619 16.4824 49.5668 16.513C49.5581 16.5173 48.6263 17.0595 48.9137 18.0519C48.7918 18.1044 48.6568 18.1481 48.5131 18.1831C48.4565 18.1962 48.4173 18.2574 48.426 18.3186C48.4347 18.3623 48.4652 18.3973 48.5 18.406C48.5131 18.406 48.5305 18.4104 48.5479 18.406C49.1488 18.2705 49.5973 17.9645 49.8759 17.4923C50.3941 16.6091 50.1328 15.4812 50.1241 15.4331L50.1154 15.4374Z" fill="#310B02"/>
<path d="M71.5756 20.4425C73.4403 13.2801 70.2973 6.25194 64.5554 4.74478C58.8136 3.23761 52.6472 7.82213 50.7826 14.9846C48.9179 22.147 52.0609 29.1752 57.8028 30.6823C63.5446 32.1895 69.711 27.605 71.5756 20.4425Z" fill="#FFA68F"/>
<path d="M64.4056 23.036C64.5493 22.4764 64.2662 21.9168 63.7655 21.7856C63.2648 21.6545 62.7423 21.9998 62.5986 22.5595L64.4099 23.036H64.4056Z" fill="#EA735A"/>
<path d="M62.9866 22.1354C62.9605 22.1267 62.9387 22.1092 62.9213 22.0829C62.8908 22.0305 62.9126 21.9562 62.9605 21.9255C63.2087 21.7638 63.496 21.7113 63.766 21.7813H63.7703C64.0403 21.8512 64.2624 22.0305 64.3973 22.2884C64.4278 22.3409 64.406 22.4152 64.3538 22.4458C64.3015 22.4808 64.2362 22.4633 64.2101 22.4065C64.1013 22.201 63.9227 22.0654 63.705 21.9999C63.4873 21.943 63.2609 21.9868 63.0606 22.1135C63.0345 22.131 63.004 22.1354 62.9779 22.1267L62.9866 22.1354Z" fill="#310B02"/>
<path d="M59.6898 19.4903C59.5635 19.9844 59.2544 20.3298 59.0106 20.2642C58.7624 20.1986 58.6666 19.7483 58.7929 19.2542C58.9191 18.7602 59.2239 18.4148 59.4721 18.4804C59.7203 18.546 59.8161 18.9963 59.6898 19.4903Z" fill="#310B02"/>
<path d="M68.9125 21.9125C68.7862 22.4065 68.4771 22.7519 68.2332 22.6863C67.9851 22.6207 67.8893 22.1704 68.0155 21.6764C68.1418 21.1823 68.4466 20.8369 68.6948 20.9025C68.943 20.9681 69.0387 21.4184 68.9125 21.9125Z" fill="#310B02"/>
<path d="M60.095 22.5552C59.9034 23.2897 58.8933 23.6569 57.8309 23.3815C56.7685 23.106 56.0675 22.2841 56.2591 21.5496C56.4506 20.8151 57.4652 20.4478 58.5232 20.7233C59.5812 20.9987 60.2866 21.8207 60.095 22.5552Z" fill="#FF8F7F"/>
<path d="M69.9572 25.1433C69.7656 25.8778 68.7555 26.245 67.6931 25.9696C66.635 25.6898 65.9297 24.8722 66.1212 24.1377C66.3128 23.4032 67.323 23.036 68.3854 23.3114C69.4434 23.5912 70.1488 24.4088 69.9572 25.1433Z" fill="#FF8F7F"/>
<path d="M58.1615 17.2824C58.1048 17.2693 58.057 17.23 58.0308 17.1688C57.9786 17.0551 58.0221 16.9152 58.131 16.854C60.0076 15.7741 60.9219 17.5841 60.9307 17.6016C60.9829 17.7109 60.9437 17.8508 60.8392 17.9164C60.7347 17.9819 60.6085 17.9426 60.5519 17.8333C60.5214 17.7721 59.816 16.3905 58.3138 17.2606C58.2659 17.2868 58.2137 17.2955 58.1615 17.2824Z" fill="#2B0D06"/>
<path d="M67.6409 19.7744C67.5843 19.7612 67.5364 19.7219 67.5103 19.6607C67.4581 19.547 67.5016 19.4071 67.6105 19.3459C69.4871 18.266 70.4014 20.076 70.4101 20.0935C70.4624 20.2028 70.4232 20.3427 70.3187 20.4083C70.2142 20.4739 70.0879 20.4345 70.0313 20.3252C70.0009 20.264 69.2955 18.8825 67.7933 19.7525C67.7454 19.7787 67.6932 19.7875 67.6409 19.7744Z" fill="#2B0D06"/>
<path d="M65.2241 24.9771C65.2241 24.9771 62.7292 26.4549 60.7568 23.8054L65.2241 24.9771Z" fill="white"/>
<path d="M75.9182 5.34697C74.8907 5.17646 73.8849 5.23767 72.9313 5.48688C72.4872 5.5306 72.0518 5.62241 71.6338 5.76669C71.6207 3.51073 70.6803 1.36844 68.3465 0.419718C65.5598 -0.712632 62.8516 0.563994 61.2232 2.75C59.9387 1.18045 57.8531 0.319162 55.7457 0.948731C54.2218 1.40779 52.9068 2.53577 52.2668 4.00039C51.888 4.87042 51.7966 5.76231 51.8619 6.6542C51.8357 6.78974 51.8227 6.92964 51.814 7.07392C51.1217 6.93401 50.3902 6.98648 49.7066 7.20945C49.1972 7.29252 48.7095 7.54172 48.3394 7.91334C48.322 7.93083 48.3089 7.95269 48.2915 7.97018C48.2044 8.04013 48.113 8.11446 48.0303 8.18878C46.4323 9.65777 46.1406 12.1979 46.9113 14.1522C47.0549 14.5194 47.7342 14.9829 47.9388 15.3195C48.3699 14.7861 48.5615 14.3271 49.306 14.3315C50.3728 14.3315 51.3829 15.0222 51.901 15.9404C52.2973 16.6355 52.3974 17.3962 52.3452 18.1701C54.2436 18.2051 56.0549 17.2826 57.3175 15.8354C58.1666 14.8605 58.7892 13.7237 59.1637 12.4821C59.229 12.2679 59.2856 12.0493 59.3378 11.8263C62.094 12.3466 63.9314 11.3148 64.9807 10.3704C64.8284 11.459 64.9024 12.6045 65.0635 13.6144C65.3247 15.2583 66.0736 16.7973 67.1796 18.0345C68.734 19.7659 70.9371 20.7015 73.149 20.5747C73.554 20.6665 73.985 20.6971 74.4117 20.6577C76.7629 20.4566 78.879 19.0445 80.0459 16.994C82.3405 12.9499 81.1431 6.21263 75.9182 5.3426V5.34697Z" fill="#2B0D06"/>
<path d="M30.2225 153.143L27.9453 167.579C27.9453 167.579 30.3139 171.632 34.7116 169.621L39.7493 155.442L30.2225 153.138V153.143Z" fill="#FFA68F"/>
<path d="M35.8915 167.042C35.8915 167.042 40.1847 171.409 42.0743 172.196C43.964 172.983 46.7855 174.369 46.6287 176.485L25.2109 170.863L27.9105 165.293C27.9105 165.293 31.5331 169.105 33.893 167.885C33.893 167.885 34.6332 166.346 35.8915 167.042Z" fill="#4252D4"/>
<path d="M33.4968 173.027C33.4968 173.027 33.4532 173.027 33.4315 173.018C33.327 172.983 33.2704 172.869 33.3052 172.765C33.5708 171.964 34.0497 171.392 34.729 171.064C35.6521 170.618 36.7275 170.714 37.4198 170.854L34.2936 167.536C34.2196 167.457 34.2196 167.326 34.3023 167.251C34.3807 167.173 34.5113 167.177 34.5853 167.26L38.1948 171.094C38.2602 171.16 38.2689 171.265 38.2166 171.344C38.1644 171.422 38.0686 171.453 37.9815 171.422C37.9641 171.414 36.2094 170.793 34.9032 171.427C34.3241 171.707 33.9148 172.201 33.684 172.891C33.6579 172.974 33.5795 173.027 33.4924 173.027H33.4968Z" fill="#471006"/>
<path d="M46.6241 176.485C46.7286 175.09 45.5312 174.011 44.164 173.21C44.1118 173.289 44.0856 173.342 44.09 173.346C44.09 173.346 42.5617 173.202 42.1611 175.309L46.6241 176.481V176.485Z" fill="#FCD87A"/>
<path d="M24.4356 172.091L46.7503 177.95C47.1335 178.05 47.5297 177.819 47.6299 177.434C47.73 177.049 47.4992 176.651 47.1161 176.551L24.8014 170.692C24.4182 170.592 24.022 170.823 23.9218 171.208C23.8217 171.593 24.0525 171.991 24.4356 172.091Z" fill="#471006"/>
<path d="M65.042 157.663L69.383 171.614C69.383 171.614 73.2974 174.189 76.3496 170.425L74.5949 155.477L65.042 157.659V157.663Z" fill="#FFA68F"/>
<path d="M76.2672 167.592C76.2672 167.592 82.0451 169.59 84.0872 169.455C86.1292 169.315 89.2685 169.306 90.061 171.269L68.3863 175.781L68.3428 169.586C68.3428 169.586 73.2716 171.387 74.8478 169.245C74.8478 169.245 74.8304 167.535 76.2672 167.601V167.592Z" fill="#4252D4"/>
<path d="M76.7631 174.023C76.7631 174.023 76.7239 174.041 76.7021 174.041C76.5933 174.054 76.4931 173.98 76.4757 173.87C76.3625 173.035 76.5367 172.309 76.9982 171.71C77.6252 170.897 78.6353 170.504 79.3146 170.325L75.0476 168.746C74.9431 168.707 74.8908 168.593 74.93 168.488C74.9692 168.383 75.0824 168.331 75.1869 168.37L80.1157 170.193C80.2028 170.224 80.2551 170.311 80.2464 170.408C80.2376 170.499 80.1636 170.574 80.0722 170.582C80.0548 170.582 78.2043 170.81 77.3161 171.96C76.9242 172.471 76.7718 173.096 76.8719 173.818C76.885 173.905 76.8371 173.988 76.7631 174.023Z" fill="#471006"/>
<path d="M90.061 171.264C89.5385 169.966 87.9884 169.533 86.4122 169.428C86.4035 169.524 86.3992 169.581 86.4035 169.586C86.4035 169.586 84.971 170.141 85.5414 172.204L90.061 171.264Z" fill="#FCD87A"/>
<path d="M68.2339 177.219L90.8186 172.519C91.2061 172.441 91.4586 172.051 91.3802 171.662C91.3019 171.273 90.9144 171.02 90.5268 171.098L67.9422 175.798C67.5546 175.877 67.3021 176.266 67.3805 176.655C67.4589 177.044 67.8464 177.298 68.2339 177.219Z" fill="#471006"/>
<path d="M80.6339 59.4592C80.734 60.0494 85.9415 74.359 84.7616 77.2183C83.5816 80.082 70.2232 92.1313 70.2232 92.1313L69.1826 83.2036C69.1826 83.2036 74.4859 77.0566 74.782 74.394C75.0781 71.7315 72.7704 65.5757 72.7704 65.5757L80.6339 59.4592Z" fill="#FF957E"/>
<path d="M37.8335 85.7394L39.044 61.4442L25.0107 56.5869C25.0107 56.5869 32.6652 34.0229 51.6578 34.5082C51.6578 34.5082 54.3878 39.4486 60.5619 34.823C60.5619 34.823 78.6053 35.8154 82.3541 58.7729L70.9813 66.7911L69.5313 86.4695L37.8335 85.7394Z" fill="#FCD87A"/>
<path d="M39.044 61.8071C38.9961 61.8071 38.9483 61.7983 38.9004 61.7765C38.7175 61.6978 38.6348 61.4836 38.7131 61.2999L44.1122 48.8528C44.1906 48.6692 44.4039 48.5818 44.5868 48.6648C44.7697 48.7435 44.8524 48.9577 44.774 49.1414L39.375 61.5885C39.314 61.724 39.1834 61.8071 39.044 61.8071Z" fill="#471006"/>
<path d="M70.981 67.1541C70.7807 67.1541 70.6196 66.9923 70.6196 66.7956L70.5107 50.947C70.5107 50.7459 70.6718 50.5842 70.8678 50.5798C71.0637 50.5667 71.2292 50.7416 71.2335 50.9383L71.3424 66.7868C71.3424 66.9879 71.1813 67.1497 70.9853 67.1541H70.981Z" fill="#471006"/>
<path d="M85.0279 58.5538L80.6349 52.5882C80.0788 51.8329 79.0182 51.6734 78.266 52.2318L64.5457 62.4187C63.7936 62.9771 63.6347 64.0421 64.1909 64.7973L68.5839 70.7629C69.14 71.5181 70.2006 71.6777 70.9528 71.1192L84.6731 60.9324C85.4252 60.374 85.5841 59.309 85.0279 58.5538Z" fill="#2B0D06"/>
<path d="M77.7953 62.7296C76.4194 63.7526 74.4775 63.4597 73.4587 62.0781C72.4398 60.6966 72.7315 58.7467 74.1074 57.7236C75.4833 56.7006 77.4252 56.9935 78.4441 58.375C79.4629 59.7566 79.1712 61.7065 77.7953 62.7296Z" fill="white"/>
<path d="M80.029 57.483L77.8868 54.5713C77.6473 54.2477 77.7169 53.7843 78.0391 53.5438C78.3613 53.3034 78.8229 53.3733 79.0624 53.6969L81.2046 56.6086C81.444 56.9321 81.3744 57.3956 81.0522 57.636C80.73 57.8765 80.2684 57.8065 80.029 57.483Z" fill="white"/>
<path d="M27.5664 56.696L24.4315 70.6253C24.4315 70.6253 23.9046 81.4198 37.3936 77.0215L59.8956 71.95L58.9246 66.5987L34.7812 67.3506L37.4241 61.0243L27.5621 56.696H27.5664Z" fill="#FFA68F"/>
<path d="M58.0141 72.4091C58.0141 72.4091 61.8762 71.3686 62.8951 71.5041C65.6556 71.8714 70.5104 72.466 77.2941 69.6679C77.2941 69.6679 80.0023 67.6305 79.7193 66.2402C79.4363 64.8499 77.9602 64.2903 77.9602 64.2903L68.2245 64.6488C68.2245 64.6488 68.5162 63.4028 69.1301 63.1055C69.7484 62.8082 70.6497 61.6496 70.3754 60.8845C70.3754 60.8845 63.226 63.4378 62.7383 64.2379C62.255 65.0379 62.0983 65.8293 60.7572 66.0566C59.4118 66.284 57.3131 66.5463 57.3131 66.5463C57.3131 66.5463 53.9692 69.9127 58.0098 72.4091H58.0141Z" fill="#FFA68F"/>
<path d="M71.8256 69.891C71.8387 69.9653 71.904 70.0134 71.978 70.0046C77.9692 69.292 78.0171 69.2483 78.0607 69.2133C78.1173 69.1608 78.1216 69.0734 78.0694 69.0166C78.0302 68.9728 77.9649 68.9597 77.9126 68.9816C77.6688 69.0384 74.2204 69.4581 71.9432 69.7336C71.8648 69.7423 71.8126 69.8123 71.8213 69.891C71.8213 69.891 71.8213 69.8953 71.8213 69.8997L71.8256 69.891Z" fill="#EA735A"/>
<path d="M71.9033 68.2294C71.9164 68.3037 71.986 68.3562 72.0601 68.3431C79.6405 67.3331 79.6449 67.32 79.6884 67.2238C79.7189 67.1539 79.6884 67.0708 79.6188 67.0402C79.5839 67.0227 79.5448 67.0227 79.5143 67.0402C79.2487 67.1014 74.9033 67.6873 72.0252 68.072C71.9512 68.0808 71.8946 68.1507 71.9077 68.2294C71.9077 68.2294 71.9077 68.2294 71.9077 68.2338L71.9033 68.2294Z" fill="#EA735A"/>
<path d="M71.2548 66.5114C71.2679 66.5857 71.3375 66.6382 71.4116 66.6251L79.3708 65.5321C79.4492 65.5233 79.5015 65.449 79.4884 65.3747C79.4797 65.296 79.4057 65.2435 79.3317 65.2566L71.3724 66.3496C71.2984 66.3584 71.2417 66.4327 71.2548 66.507C71.2548 66.507 71.2548 66.507 71.2548 66.5114Z" fill="#EA735A"/>
<path d="M69.5314 86.4696L78.1656 164.243L65.0989 166.429L53.9655 102.55L38.9569 164.807L25.6465 161.891L37.8336 85.7395L69.5314 86.4696Z" fill="#3C4875"/>
<path d="M42.4403 131.077L34.3416 129.604C33.3315 129.42 32.6566 128.441 32.8395 127.431C33.0223 126.417 33.9977 125.739 35.0035 125.923L43.1021 127.396C44.1122 127.58 44.7871 128.559 44.6042 129.569C44.4214 130.583 43.446 131.261 42.4403 131.077Z" fill="#FFA68F"/>
<path d="M71.3117 129.958L63.1565 131.055C62.142 131.191 61.1972 130.469 61.0622 129.451C60.9272 128.432 61.6456 127.483 62.6601 127.348L70.8154 126.25C71.8299 126.115 72.7747 126.836 72.9097 127.855C73.0447 128.874 72.3262 129.822 71.3117 129.958Z" fill="#FFA68F"/>
<path d="M53.965 102.948C53.743 102.948 53.5645 102.768 53.5645 102.546V90.0503C53.5645 89.906 53.6385 89.7749 53.7647 89.7049C53.8867 89.635 54.0391 89.635 54.1653 89.7049C54.3047 89.7836 57.5833 91.6242 59.1899 88.9486C59.3032 88.7606 59.547 88.695 59.7386 88.813C59.9258 88.9267 59.9867 89.1759 59.8735 89.3639C58.4628 91.7117 55.92 91.3707 54.3613 90.7017V102.55C54.3613 102.773 54.1827 102.952 53.9607 102.952L53.965 102.948Z" fill="#471006"/>
<path d="M127.17 28.7546H90.0472C87.4347 28.7546 85.2969 30.9013 85.2969 33.5245C85.2969 36.1477 87.4347 38.2944 90.0472 38.2944H90.8614L92.6335 45.718L95.677 38.2944H127.166C129.778 38.2944 131.916 36.1477 131.916 33.5245C131.916 30.9013 129.778 28.7546 127.166 28.7546H127.17Z" fill="#6A0DAD"/>
<path d="M94.2487 33.3714C94.2487 34.6786 93.195 35.7366 91.8888 35.7366C90.5825 35.7366 89.5332 34.6786 89.5332 33.3714C89.5332 32.0641 90.5869 31.0061 91.8888 31.0061C93.1906 31.0061 94.2487 32.0641 94.2487 33.3714Z" fill="white"/>
<path d="M127.07 33.3714C127.07 34.6786 126.016 35.7366 124.71 35.7366C123.404 35.7366 122.354 34.6786 122.354 33.3714C122.354 32.0641 123.408 31.0061 124.71 31.0061C126.012 31.0061 127.07 32.0641 127.07 33.3714Z" fill="white"/>
<path d="M115.418 33.3714C115.418 34.6786 114.364 35.7366 113.063 35.7366C111.761 35.7366 110.707 34.6786 110.707 33.3714C110.707 32.0641 111.761 31.0061 113.063 31.0061C114.364 31.0061 115.418 32.0641 115.418 33.3714Z" fill="white"/>
<path d="M104.337 33.3714C104.337 34.6786 103.283 35.7366 101.982 35.7366C100.68 35.7366 99.626 34.6786 99.626 33.3714C99.626 32.0641 100.68 31.0061 101.982 31.0061C103.283 31.0061 104.337 32.0641 104.337 33.3714Z" fill="white"/>
<path d="M187.026 149.383C186.068 175.904 168.338 178.614 145.514 178.614C122.69 178.614 102.722 179.742 104.189 149.466C104.969 133.386 122.69 120.318 145.514 120.318C168.338 120.318 187.605 133.294 187.026 149.383Z" fill="#AA6E2D"/>
<path d="M178.792 159.063C171.822 158.11 164.751 158.285 157.814 159.439C150.913 160.584 144.177 162.709 137.864 165.726C134.298 167.431 130.897 169.42 127.719 171.777C127.392 172.017 127.797 172.577 128.141 172.354C133.971 168.563 140.154 165.372 146.759 163.177C153.325 160.995 160.17 159.736 167.08 159.43C170.981 159.255 174.896 159.382 178.779 159.797C179.254 159.85 179.263 159.12 178.801 159.058L178.792 159.063Z" fill="#471006"/>
<path d="M143.607 163.102C141.835 161.524 139.78 160.23 137.751 159.01C135.717 157.79 133.614 156.684 131.459 155.705C127.096 153.724 122.363 151.989 117.574 151.499C114.822 151.219 111.992 151.403 109.405 152.435C108.805 152.675 109.188 153.576 109.793 153.362C114.4 151.696 119.359 152.505 123.918 153.921C128.311 155.285 132.543 157.156 136.54 159.447C138.822 160.755 140.933 162.294 143.141 163.714C143.559 163.986 143.99 163.435 143.616 163.098L143.607 163.102Z" fill="#471006"/>
<path d="M160.648 99.4808C162.978 99.9093 165.229 98.3441 165.651 96.0051L167.458 86.0719C167.885 83.7328 166.326 81.4725 163.996 81.0484C161.667 80.62 159.416 82.1852 158.994 84.5242L157.187 94.4574C156.76 96.7964 158.319 99.0567 160.648 99.4808Z" fill="#FFD199"/>
<path d="M162.391 88.0918C164.019 88.3891 165.652 88.188 167.184 87.5715C167.184 87.5715 162.391 93.6574 157.331 93.653L158.655 86.3823C159.752 87.2436 161.006 87.8382 162.391 88.0918Z" fill="#FFB76B"/>
<path d="M151.727 74.6784C151.483 76.0162 152.228 77.2753 153.39 77.4896C154.553 77.7038 155.693 76.79 155.937 75.4522C156.181 74.1144 155.437 72.8552 154.274 72.641C153.112 72.4268 151.971 73.3405 151.727 74.6827V74.6784Z" fill="#FFB76B"/>
<path d="M177.577 79.4134C177.333 80.7513 176.192 81.665 175.03 81.4508C173.867 81.2366 173.123 79.9774 173.367 78.6396C173.61 77.3018 174.751 76.388 175.914 76.5979C177.076 76.8121 177.821 78.0712 177.577 79.4091V79.4134Z" fill="#FFD199"/>
<path d="M154.043 73.7298C154.026 73.6686 153.965 73.638 153.908 73.6642C153.852 73.6861 153.826 73.7517 153.843 73.8129C153.843 73.8216 154.17 74.8709 153.765 75.6972C153.643 75.9508 153.455 76.1519 153.22 76.3137C152.955 75.5442 153.647 75.0633 153.677 75.0458C153.73 75.0108 153.747 74.9408 153.717 74.8884C153.686 74.8359 153.625 74.8184 153.573 74.849C153.564 74.8534 152.676 75.4655 153.033 76.4361C152.916 76.4973 152.785 76.5541 152.646 76.5935C152.589 76.611 152.554 76.6765 152.567 76.7377C152.576 76.7815 152.611 76.8121 152.65 76.8208C152.663 76.8208 152.68 76.8208 152.698 76.8208C153.29 76.6416 153.712 76.3005 153.952 75.8109C154.4 74.8927 154.061 73.7866 154.043 73.7385V73.7298Z" fill="#310B02"/>
<path d="M175.739 77.7038C175.779 77.6557 175.844 77.647 175.887 77.6907C175.931 77.7301 175.935 77.8044 175.896 77.8525C175.887 77.8612 175.217 78.7269 175.304 79.645C175.33 79.9248 175.435 80.1784 175.596 80.4145C176.114 79.7893 175.635 79.0941 175.613 79.0635C175.578 79.0154 175.587 78.9411 175.635 78.9018C175.683 78.8624 175.748 78.8668 175.783 78.9192C175.787 78.928 176.406 79.8155 175.731 80.5937C175.822 80.6943 175.922 80.7905 176.036 80.8779C176.083 80.9129 176.092 80.9872 176.057 81.0397C176.031 81.079 175.992 81.0965 175.953 81.0878C175.94 81.0878 175.922 81.079 175.909 81.0703C175.422 80.6943 175.143 80.2265 175.091 79.68C174.991 78.6613 175.705 77.7476 175.731 77.7082L175.739 77.7038Z" fill="#310B02"/>
<path d="M175.321 77.0022C176.644 69.7193 172.984 62.9482 167.146 61.8786C161.307 60.809 155.502 65.8459 154.178 73.1288C152.855 80.4117 156.515 87.1828 162.354 88.2524C168.192 89.322 173.998 84.2851 175.321 77.0022Z" fill="#FFD199"/>
<path d="M159.594 78.526C159.699 77.9576 160.195 77.5729 160.7 77.6647C161.21 77.7565 161.536 78.2942 161.432 78.8626L159.59 78.526H159.594Z" fill="#FFB76B"/>
<path d="M161.262 78.3161C161.288 78.3205 161.318 78.3161 161.34 78.2942C161.388 78.2549 161.401 78.1849 161.371 78.1325C161.214 77.8789 160.979 77.7128 160.7 77.6603H160.696C160.422 77.6078 160.143 77.6778 159.912 77.857C159.864 77.8964 159.851 77.9663 159.882 78.0188C159.912 78.0713 159.977 78.0844 160.03 78.045C160.213 77.9051 160.435 77.857 160.657 77.892C160.879 77.9357 161.066 78.0669 161.192 78.2724C161.21 78.2986 161.231 78.3161 161.258 78.3205L161.262 78.3161Z" fill="#310B02"/>
<path d="M165.359 77.3149C165.268 77.8177 165.398 78.2592 165.651 78.3073C165.904 78.3554 166.182 77.9838 166.274 77.4854C166.365 76.987 166.234 76.5411 165.982 76.493C165.729 76.4449 165.451 76.8165 165.359 77.3149Z" fill="#310B02"/>
<path d="M155.984 75.5966C155.893 76.0994 156.023 76.541 156.276 76.5891C156.529 76.6372 156.807 76.2656 156.899 75.7671C156.99 75.2687 156.859 74.8228 156.607 74.7747C156.354 74.7266 156.076 75.0982 155.984 75.5966Z" fill="#310B02"/>
<path d="M163.7 79.9205C163.565 80.6681 164.327 81.4332 165.403 81.63C166.478 81.8267 167.462 81.3808 167.597 80.6375C167.732 79.8899 166.97 79.1248 165.895 78.9281C164.819 78.7313 163.835 79.1773 163.7 79.9205Z" fill="#FF8F7F"/>
<path d="M153.673 78.0843C153.538 78.832 154.3 79.5971 155.375 79.7938C156.451 79.9905 157.435 79.5446 157.57 78.8014C157.705 78.0537 156.943 77.2886 155.867 77.0919C154.792 76.8952 153.808 77.3411 153.673 78.0843Z" fill="#FF8F7F"/>
<path d="M167.676 75.964C167.732 75.9727 167.793 75.9596 167.845 75.9159C167.937 75.8372 167.959 75.6886 167.889 75.5924C166.644 73.8173 165.05 75.0721 165.037 75.0852C164.941 75.1639 164.919 75.3082 164.985 75.4088C165.05 75.5093 165.185 75.5312 165.281 75.4568C165.333 75.4175 166.557 74.4644 167.554 75.8853C167.584 75.9334 167.632 75.9596 167.68 75.9684L167.676 75.964Z" fill="#2B0D06"/>
<path d="M158.031 74.1976C158.088 74.2064 158.149 74.1933 158.201 74.1496C158.292 74.0709 158.314 73.9222 158.244 73.826C156.999 72.051 155.406 73.3058 155.392 73.3189C155.297 73.3976 155.275 73.5418 155.34 73.6424C155.405 73.743 155.54 73.7648 155.636 73.6905C155.689 73.6511 156.912 72.698 157.909 74.1189C157.94 74.167 157.987 74.1933 158.035 74.202L158.031 74.1976Z" fill="#2B0D06"/>
<path d="M158.035 79.9424C158.035 79.9424 159.672 82.3426 162.576 80.7731L158.035 79.9424Z" fill="white"/>
<path d="M152.105 65.742C152.615 64.732 153.59 63.9626 154.674 63.6653C155.314 63.4904 155.954 63.451 156.616 63.5123C156.89 63.5385 157.165 63.5866 157.43 63.6565C157.535 63.6828 157.639 63.7177 157.739 63.7527C157.77 63.6259 157.805 63.4991 157.831 63.4204C157.957 63.0663 158.127 62.7428 158.332 62.428C158.737 61.8072 159.259 61.2738 159.864 60.8497C161.066 60.0103 162.546 59.5862 163.988 59.4332C166.922 59.1184 169.922 60.0409 172.182 61.9427C173.149 62.7559 173.941 63.7265 174.572 64.8064C174.755 64.614 174.938 64.426 175.125 64.238C175.9 63.4729 176.98 64.4216 176.419 65.3135C176.954 65.4403 177.472 65.6808 177.938 66.0305C178.935 66.7781 179.545 67.9848 179.819 69.1784C180.028 70.0921 180.093 71.054 179.989 71.9896C178.957 76.4709 174.498 76.414 174.498 76.414C173.575 75.8544 172.961 74.9582 172.552 73.9745C171.943 72.5098 171.699 70.7698 171.86 69.1215C170.902 69.6637 169.896 70.1227 168.869 70.4987C165.664 71.666 162.194 72.0464 158.802 72.0464C156.982 72.0464 154.962 72.112 153.538 70.7873C153.529 70.7785 153.525 70.7698 153.516 70.7654C152.946 70.3326 152.467 69.7905 152.14 69.1303C151.618 68.081 151.561 66.7913 152.097 65.7332L152.105 65.742Z" fill="#2B0D06"/>
<path d="M157.418 94.6803C157.418 94.6803 152.167 91.7904 147.412 99.8305C142.657 107.866 139.657 116.282 139.657 116.282L129.525 117.664L131.776 125.577L137.406 126.583C137.406 126.583 157.078 94.5185 157.418 94.6847V94.6803Z" fill="#43115F"/>
<path d="M157.418 94.6803C157.082 94.5141 137.406 126.578 137.406 126.578L173.301 134.492C173.301 134.492 181.618 131.353 181.182 123.439C180.743 115.526 179.959 100.661 179.145 97.3341C178.33 94.007 171.394 89.9454 166.474 93.2375C161.75 96.3985 160.483 96.1886 157.418 94.6803Z" fill="#6A0DAD"/>
<path d="M161.419 122.045C161.28 122.045 161.149 121.966 161.088 121.835C161.001 121.651 161.08 121.433 161.262 121.345L165.355 119.413L168.943 104.39C168.991 104.194 169.187 104.076 169.383 104.119C169.579 104.168 169.701 104.364 169.653 104.561L166.026 119.754C166 119.863 165.926 119.95 165.826 119.999L161.572 122.01C161.519 122.032 161.467 122.045 161.415 122.045H161.419Z" fill="#471006"/>
<path d="M173.301 127.195C173.301 127.195 173.258 127.195 173.236 127.19C173.04 127.155 172.905 126.967 172.94 126.766C172.949 126.705 173.467 122.744 165.551 120.016C165.359 119.95 165.259 119.741 165.325 119.548C165.39 119.356 165.595 119.255 165.791 119.321C174.368 122.276 173.693 126.701 173.658 126.889C173.628 127.068 173.471 127.19 173.297 127.19L173.301 127.195Z" fill="#471006"/>
<path d="M116.781 150.869C116.781 150.869 110.128 151.779 106.371 150.847C102.613 149.916 95.1111 150.528 95.7293 156.334C96.561 164.125 119.842 158.101 119.842 158.101L116.781 150.869Z" fill="#4E1974"/>
<path d="M102.069 150.541C98.6857 150.817 95.3069 152.36 95.7292 156.334C96.0297 159.158 99.2822 160.168 103.305 160.304C103.349 160.221 103.392 160.138 103.436 160.05C106.236 154.288 102.465 150.874 102.073 150.541H102.069Z" fill="#9747FF"/>
<path d="M148.405 150.31C147.595 149.903 146.646 149.859 145.792 150.165C143.929 150.834 140.045 151.892 137.755 150.144C134.654 147.783 126.303 144.722 124.152 150.043C122.023 155.311 138.325 164.226 148.548 156.216C148.792 156.024 149.01 155.797 149.193 155.543C149.937 154.507 151.435 151.835 148.409 150.31H148.405Z" fill="#4E1974"/>
<path d="M128.807 156.645C133.057 153.637 133.057 147.818 133.057 147.818V147.805C129.569 146.672 125.55 146.589 124.153 150.047C123.317 152.12 125.333 154.756 128.707 156.706C128.742 156.684 128.772 156.667 128.807 156.645Z" fill="#FCD87A"/>
<path d="M148.405 150.31C148.092 150.152 147.756 150.052 147.412 149.999C146.572 151.215 145.832 153.414 149.354 155.298C150.121 154.135 151.218 151.722 148.401 150.305L148.405 150.31Z" fill="#FCD87A"/>
<path d="M121.68 120.781L100.58 121.594L143.851 127.265L149.093 124.55L121.68 120.781Z" fill="#A38888"/>
<path d="M131.782 125.573L125.904 105.352L96.0127 107.237L100.58 121.594L131.782 125.573Z" fill="#91A7CA"/>
<path d="M117.657 116.37C117.657 118.709 115.772 120.602 113.442 120.602C111.113 120.602 109.228 118.709 109.228 116.37C109.228 114.031 111.113 112.138 113.442 112.138C115.772 112.138 117.657 114.031 117.657 116.37Z" fill="white"/>
<path d="M144.16 127.186C144.16 127.186 168.438 111.102 173.21 133.578C177.987 156.055 157.588 166.945 145.649 150.563L120.487 159.229L116.298 149.763L118.288 148.364C118.288 148.364 87.3434 137.675 100.58 121.59L144.16 127.186Z" fill="#4252D4"/>
<path d="M142.17 151.731C142.022 151.731 141.883 151.639 141.826 151.49C141.756 151.298 141.856 151.088 142.044 151.018L167.711 141.627C167.903 141.557 168.112 141.658 168.181 141.846C168.251 142.038 168.151 142.248 167.964 142.318L142.296 151.709C142.257 151.722 142.213 151.731 142.17 151.731Z" fill="#471006"/>
<path d="M155.494 147.079C155.293 147.079 155.132 146.922 155.128 146.72C155.128 146.519 155.285 146.349 155.485 146.344L165.434 146.143H165.443C165.643 146.143 165.804 146.301 165.809 146.502C165.809 146.703 165.652 146.873 165.451 146.878L155.502 147.079H155.494Z" fill="#471006"/>
<path d="M128.751 139.966C128.677 139.966 128.608 139.944 128.542 139.9L112.624 128.712C112.458 128.594 112.419 128.367 112.532 128.201C112.65 128.034 112.876 127.995 113.042 128.109L128.96 139.297C129.126 139.415 129.165 139.642 129.052 139.808C128.982 139.909 128.869 139.966 128.751 139.966Z" fill="#471006"/>
<path d="M118.293 148.731C118.188 148.731 118.079 148.683 118.01 148.596C117.883 148.438 117.905 148.207 118.062 148.08L143.929 126.902C144.086 126.775 144.317 126.797 144.443 126.954C144.57 127.112 144.548 127.344 144.391 127.47L118.523 148.648C118.454 148.705 118.375 148.731 118.293 148.731Z" fill="#471006"/>
<path d="M128.904 76.3224L121.952 85.5195C121.34 86.3292 121.497 87.4838 122.304 88.0984L127.804 92.2907C128.611 92.9053 129.761 92.7472 130.373 91.9375L137.325 82.7403C137.937 81.9306 137.78 80.776 136.973 80.1614L131.473 75.9691C130.666 75.3545 129.516 75.5127 128.904 76.3224Z" fill="#6A0DAD"/>
<path d="M130.894 73.708C130.672 73.6905 130.48 73.8566 130.463 74.0752L129.622 84.4675L119.882 88.0744C119.673 88.1531 119.569 88.3805 119.647 88.5903C119.725 88.8002 119.952 88.9051 120.161 88.8264L130.027 85.1714C130.101 85.1452 130.162 85.0971 130.206 85.0359C130.228 85.0096 130.245 84.979 130.258 84.9484C130.284 84.9266 130.31 84.9047 130.328 84.8741C130.371 84.8129 130.402 84.7429 130.406 84.6642L131.255 74.1364C131.273 73.9135 131.107 73.7211 130.889 73.7036L130.894 73.708Z" fill="#FEDEC4"/>
<path d="M115.775 96.7352L109.659 86.9571C109.121 86.0963 107.99 85.8367 107.132 86.3774L101.284 90.0652C100.427 90.6058 100.168 91.7419 100.707 92.6028L106.823 102.381C107.361 103.242 108.493 103.501 109.35 102.961L115.198 99.2728C116.055 98.7322 116.314 97.5961 115.775 96.7352Z" fill="#FFC646"/>
<path d="M117.483 99.5289C117.579 99.3278 117.491 99.0873 117.291 98.9955L107.908 94.5404L107.986 84.1176C107.986 83.8946 107.812 83.7153 107.59 83.7153C107.368 83.7153 107.19 83.8902 107.19 84.1132L107.111 94.6716C107.111 94.7503 107.133 94.8246 107.172 94.8858C107.19 94.9164 107.211 94.9427 107.238 94.9645C107.246 94.9951 107.264 95.0301 107.281 95.0563C107.32 95.1175 107.377 95.17 107.447 95.205L116.956 99.7213C117.156 99.8174 117.396 99.73 117.487 99.5289H117.483Z" fill="#FEDEC4"/>
<path d="M119.94 72.2578L111.122 64.8467C110.346 64.1942 109.19 64.2972 108.54 65.0767L104.108 70.3939C103.458 71.1734 103.561 72.3343 104.337 72.9868L113.155 80.3979C113.931 81.0503 115.087 80.9474 115.737 80.1678L120.169 74.8506C120.819 74.0711 120.717 72.9103 119.94 72.2578Z" fill="#4252D4"/>
<path d="M122.429 74.3855C122.46 74.1669 122.303 73.9658 122.085 73.9352L111.788 72.5974L108.666 62.6554C108.6 62.4456 108.374 62.3275 108.165 62.3931C107.956 62.4587 107.838 62.686 107.904 62.8959L111.069 72.969C111.091 73.0433 111.139 73.1089 111.195 73.157C111.222 73.1789 111.252 73.1964 111.283 73.2139C111.304 73.2401 111.326 73.2663 111.352 73.2882C111.409 73.3363 111.478 73.3669 111.557 73.38L121.989 74.7353C122.207 74.7659 122.407 74.6085 122.438 74.3899L122.429 74.3855Z" fill="#FEDEC4"/>
<path d="M254.579 128.34C253.704 128.34 252.99 129.057 252.99 129.936V153.803C252.903 153.781 252.816 153.768 252.724 153.768H219.742V129.936C219.742 129.057 219.028 128.34 218.153 128.34C217.278 128.34 216.563 129.057 216.563 129.936V168.239C216.563 169.118 217.278 169.835 218.153 169.835C219.028 169.835 219.742 169.118 219.742 168.239V156.02H252.724C252.816 156.02 252.903 156.006 252.99 155.985V168.239C252.99 169.118 253.704 169.835 254.579 169.835C255.454 169.835 256.168 169.118 256.168 168.239V129.936C256.168 129.057 255.454 128.34 254.579 128.34Z" fill="#846E6E"/>
<path d="M257.789 129.232C256.761 129.232 255.921 130.076 255.921 131.108V159.185C255.821 159.159 255.716 159.141 255.607 159.141H216.808V131.108C216.808 130.076 215.968 129.232 214.94 129.232C213.913 129.232 213.072 130.076 213.072 131.108V176.17C213.072 177.202 213.913 178.046 214.94 178.046C215.968 178.046 216.808 177.202 216.808 176.17V161.795H255.607C255.716 161.795 255.821 161.777 255.921 161.756V176.17C255.921 177.202 256.761 178.046 257.789 178.046C258.816 178.046 259.657 177.202 259.657 176.17V131.108C259.657 130.076 258.816 129.232 257.789 129.232Z" fill="white"/>
<path d="M257.736 122.46H209.401C207.167 122.46 205.356 124.278 205.356 126.522C205.356 128.765 207.167 130.583 209.401 130.583H257.736C259.97 130.583 261.781 128.765 261.781 126.522C261.781 124.278 259.97 122.46 257.736 122.46Z" fill="#4252D4"/>
<path d="M254.627 97.6095C255.489 97.7057 264.027 110.712 257.697 122.464H222.01L211.839 141.924L198.79 134.409L216.825 101.269C216.825 101.269 218.936 90.9597 233.518 98.379V97.2991L254.623 97.6095H254.627Z" fill="#FCD87A"/>
<path d="M242.348 122.268C242.348 121.691 234.48 110.323 234.48 110.323C234.48 110.323 220.856 105.505 220.856 117.647C220.856 129.788 221.048 148.858 221.048 148.858H235.247L235.534 122.272H242.344L242.348 122.268Z" fill="#FCD87A"/>
<path d="M235.535 122.635C235.334 122.635 235.169 122.469 235.169 122.268V117.904C235.169 117.703 235.334 117.537 235.535 117.537C235.735 117.537 235.9 117.703 235.9 117.904V122.268C235.9 122.469 235.735 122.635 235.535 122.635Z" fill="#471006"/>
<path d="M253.565 106.441C253.521 106.441 253.473 106.432 253.43 106.415C246.006 103.402 234.707 98.9167 233.597 98.7418C233.514 98.7593 233.109 98.3833 233.205 98.2041C233.418 97.8149 233.479 97.6969 243.755 101.75C248.684 103.695 253.656 105.711 253.708 105.733C253.896 105.807 253.987 106.021 253.909 106.209C253.852 106.353 253.713 106.437 253.569 106.437L253.565 106.441Z" fill="#471006"/>
<path d="M254.27 101.382C254.27 101.382 254.261 101.382 254.257 101.382L239.619 100.91C239.418 100.906 239.257 100.735 239.266 100.53C239.27 100.329 239.449 100.158 239.645 100.176L254.283 100.648C254.484 100.652 254.645 100.823 254.636 101.028C254.632 101.225 254.466 101.382 254.27 101.382Z" fill="#471006"/>
<path d="M220.87 123.321C220.691 123.321 220.535 123.186 220.509 123.002C220.469 122.718 219.612 115.968 223.648 112.514C226.234 110.302 230.218 109.996 235.474 111.6C235.487 111.604 235.504 111.609 235.517 111.618L257.005 121.38C257.187 121.463 257.27 121.682 257.187 121.866C257.105 122.049 256.887 122.132 256.704 122.049L235.238 112.3C230.244 110.778 226.508 111.04 224.122 113.073C220.387 116.261 221.223 122.836 221.231 122.906C221.257 123.107 221.118 123.291 220.918 123.317C220.9 123.317 220.883 123.317 220.87 123.317V123.321Z" fill="#471006"/>
<path d="M278.897 72.6584C277.477 65.9867 270.833 62.8476 266.052 58.8822C264.794 57.8373 263.596 56.6918 262.625 55.3715C261.646 54.038 260.936 52.5471 260.414 50.982C259.369 47.8691 258.981 44.577 257.949 41.4554C257.453 39.9558 256.808 38.4999 255.916 37.1927C255.898 37.1664 255.881 37.1446 255.864 37.1183C254.174 34.4295 250.525 30.5035 243.607 30.5559C236.479 30.6084 231.829 38.2944 229.569 43.2391C228.986 44.4414 228.489 45.6875 228.08 46.9597C228.002 47.1914 227.963 47.3226 227.963 47.3226C227.462 48.9534 227.114 50.6453 227.079 52.3548C227.044 54.0336 227.375 55.6688 227.889 57.2558C228.411 58.8778 229.077 60.4517 229.635 62.0606C230.179 63.6346 230.653 65.2478 230.915 66.8961C231.167 68.5094 231.202 70.1795 230.836 71.7752C230.475 73.3448 229.674 74.6958 228.92 76.0948C228.224 77.3933 227.64 78.753 227.619 80.2482C227.597 81.7478 228.084 83.2387 228.855 84.5109C230.449 87.1429 233.205 88.813 235.909 90.1071C238.822 91.4974 269.461 94.7764 273.942 90.4C276.067 88.3233 277.416 85.5646 278.222 82.7271C278.649 81.2275 278.923 79.6842 279.088 78.1322C279.276 76.309 279.289 74.4509 278.905 72.654L278.897 72.6584Z" fill="#2B0D06"/>
<path d="M244.639 69.6723C247.003 69.6723 248.941 67.7267 248.941 65.3527V55.2578C248.941 52.8838 247.003 50.9382 244.639 50.9382C242.274 50.9382 240.337 52.8838 240.337 55.2578V65.3527C240.337 67.7267 242.274 69.6723 244.639 69.6723Z" fill="#E2A052"/>
<path d="M244.317 58.1521C245.971 58.1521 247.539 57.658 248.941 56.7749C248.941 56.7749 245.314 63.6258 240.337 64.5352V57.1421C241.569 57.7892 242.91 58.1521 244.317 58.1521Z" fill="#AA6E2D"/>
<path d="M231.424 46.8767C231.424 48.2364 232.382 49.3425 233.562 49.3425C234.742 49.3425 235.7 48.2408 235.7 46.8767C235.7 45.5126 234.742 44.4109 233.562 44.4109C232.382 44.4109 231.424 45.5126 231.424 46.8767Z" fill="#AA6E2D"/>
<path d="M257.705 46.8767C257.705 48.2364 256.747 49.3425 255.563 49.3425C254.378 49.3425 253.425 48.2408 253.425 46.8767C253.425 45.5126 254.383 44.4109 255.563 44.4109C256.743 44.4109 257.705 45.5126 257.705 46.8767Z" fill="#E2A052"/>
<path d="M233.536 45.5257C233.506 45.4688 233.44 45.4513 233.392 45.4819C233.344 45.5125 233.327 45.5869 233.353 45.6393C233.358 45.6481 233.863 46.6187 233.614 47.5062C233.536 47.7772 233.388 48.009 233.188 48.2101C232.787 47.5018 233.384 46.9028 233.41 46.8766C233.453 46.8329 233.458 46.7629 233.418 46.7148C233.379 46.6668 233.314 46.6624 233.27 46.7061C233.262 46.7149 232.495 47.4756 233.027 48.3631C232.922 48.4462 232.805 48.5205 232.674 48.5904C232.622 48.6167 232.6 48.6866 232.622 48.7435C232.639 48.7872 232.678 48.809 232.717 48.809C232.731 48.809 232.748 48.809 232.761 48.8003C233.31 48.5161 233.662 48.1051 233.815 47.5805C234.093 46.5968 233.558 45.5694 233.536 45.5257Z" fill="#310B02"/>
<path d="M255.593 45.5257C255.624 45.4688 255.689 45.4513 255.737 45.4819C255.789 45.5125 255.802 45.5869 255.776 45.6393C255.772 45.6481 255.267 46.6187 255.515 47.5062C255.593 47.7772 255.741 48.009 255.942 48.2101C256.342 47.5018 255.746 46.9028 255.719 46.8766C255.676 46.8329 255.672 46.7629 255.711 46.7148C255.75 46.6668 255.815 46.6624 255.859 46.7061C255.868 46.7149 256.634 47.4756 256.103 48.3631C256.207 48.4462 256.325 48.5205 256.455 48.5904C256.508 48.6167 256.529 48.6866 256.508 48.7435C256.49 48.7872 256.451 48.809 256.412 48.809C256.399 48.809 256.381 48.809 256.368 48.8003C255.82 48.5161 255.467 48.1051 255.315 47.5805C255.036 46.5968 255.571 45.5694 255.593 45.5257Z" fill="#310B02"/>
<path d="M244.316 58.3226C250.251 58.3226 255.062 52.3212 255.062 44.918C255.062 37.5149 250.251 31.5134 244.316 31.5134C238.381 31.5134 233.57 37.5149 233.57 44.918C233.57 52.3212 238.381 58.3226 244.316 58.3226Z" fill="#E2A052"/>
<path d="M239.854 49.2463C239.854 48.6692 240.272 48.2014 240.79 48.2014C241.308 48.2014 241.726 48.6692 241.726 49.2463H239.854Z" fill="#AA6E2D"/>
<path d="M241.455 48.7391C241.481 48.7391 241.508 48.726 241.529 48.7042C241.568 48.6604 241.568 48.5861 241.529 48.538C241.329 48.3194 241.068 48.197 240.789 48.1926H240.785C240.506 48.1926 240.245 48.3107 240.049 48.5249C240.01 48.5686 240.01 48.6429 240.049 48.691C240.088 48.7348 240.158 48.7348 240.197 48.691C240.354 48.5205 240.563 48.4331 240.785 48.4243C241.007 48.4243 241.22 48.5249 241.381 48.6998C241.403 48.7216 241.429 48.7348 241.455 48.7348V48.7391Z" fill="#310B02"/>
<path d="M245.309 47.0167C245.309 47.5283 245.518 47.9392 245.774 47.9392C246.031 47.9392 246.24 47.5283 246.24 47.0167C246.24 46.5052 246.031 46.0942 245.774 46.0942C245.518 46.0942 245.309 46.5052 245.309 47.0167Z" fill="#310B02"/>
<path d="M235.778 47.0167C235.778 47.5283 235.987 47.9392 236.244 47.9392C236.501 47.9392 236.71 47.5283 236.71 47.0167C236.71 46.5052 236.501 46.0942 236.244 46.0942C235.987 46.0942 235.778 46.5052 235.778 47.0167Z" fill="#310B02"/>
<path d="M244.146 49.8804C244.146 50.6367 245.035 51.2532 246.128 51.2532C247.22 51.2532 248.109 50.6367 248.109 49.8804C248.109 49.124 247.22 48.5076 246.128 48.5076C245.035 48.5076 244.146 49.124 244.146 49.8804Z" fill="#FF8F7F"/>
<path d="M233.949 49.8804C233.949 50.6367 234.837 51.2532 235.93 51.2532C237.023 51.2532 237.911 50.6367 237.911 49.8804C237.911 49.124 237.023 48.5076 235.93 48.5076C234.837 48.5076 233.949 49.124 233.949 49.8804Z" fill="#FF8F7F"/>
<path d="M247.347 45.2679C247.404 45.2679 247.465 45.2416 247.504 45.1892C247.582 45.093 247.573 44.9487 247.486 44.8613C245.941 43.3398 244.604 44.8613 244.591 44.8744C244.513 44.9662 244.513 45.1148 244.6 45.2023C244.682 45.2897 244.817 45.2854 244.896 45.1935C244.939 45.1454 245.971 43.9869 247.208 45.2067C247.247 45.246 247.299 45.2679 247.347 45.2679Z" fill="#2B0D06"/>
<path d="M237.546 45.2679C237.602 45.2679 237.659 45.2416 237.702 45.1892C237.781 45.093 237.772 44.9487 237.685 44.8613C236.139 43.3398 234.803 44.8613 234.79 44.8744C234.711 44.9662 234.716 45.1148 234.798 45.2023C234.881 45.2897 235.016 45.2854 235.094 45.1935C235.138 45.1454 236.17 43.9869 237.406 45.2067C237.446 45.246 237.498 45.2679 237.546 45.2679Z" fill="#2B0D06"/>
<path d="M238.573 50.9209C238.573 50.9209 240.615 52.9845 243.193 50.9209H238.573Z" fill="white"/>
<path d="M244.224 31.2161C239.391 31.2161 235.303 35.2033 233.896 40.7121C234.741 40.3885 240.741 38.0102 242.391 34.9541C242.391 34.9541 243.371 39.571 248.818 39.6934C248.818 39.6934 248.178 42.8325 252.205 44.5463C253.394 45.0535 254.356 44.9485 255.07 44.4283C254.866 37.0877 250.089 31.2204 244.229 31.2204L244.224 31.2161Z" fill="#2B0D06"/>
<path d="M239.514 33.4677C239.148 34.3203 238.773 35.1335 238.229 35.8898C237.972 36.2483 237.698 36.5893 237.397 36.9129C237.08 37.2539 236.705 37.5599 236.418 37.9272C236.226 38.1764 236.457 38.5043 236.753 38.3644C237.184 38.1633 237.554 37.7916 237.881 37.4506C238.22 37.0965 238.538 36.7205 238.817 36.3183C239.361 35.5444 239.857 34.635 240.11 33.7169C240.206 33.3715 239.662 33.1136 239.514 33.4633V33.4677Z" fill="#471006"/>
<path d="M248.879 38.3379C248.718 38.0975 248.387 38.0756 248.13 37.9707C247.887 37.8701 247.669 37.7302 247.447 37.5903C246.99 37.3018 246.576 36.952 246.228 36.5367C245.553 35.7322 245.087 34.6305 245.061 33.5725C245.052 33.2358 244.578 33.2446 244.547 33.5725C244.438 34.8535 244.834 36.0383 245.631 37.0395C246.014 37.5204 246.485 37.9488 247.02 38.2593C247.286 38.4123 247.591 38.5259 247.878 38.6221C248.135 38.7052 248.531 38.8713 248.779 38.7096C248.897 38.6352 248.958 38.4647 248.875 38.3423L248.879 38.3379Z" fill="#471006"/>
<path d="M253.011 42.4959C252.867 42.3035 252.68 42.3079 252.467 42.2423C252.288 42.1855 252.153 42.0893 252.001 41.98C251.683 41.7526 251.435 41.4685 251.256 41.1143C250.825 40.2443 250.978 39.1863 251.243 38.2944C251.274 38.1982 251.243 38.0583 251.165 37.9927C251.108 37.9446 251.052 37.8965 250.969 37.9009C250.96 37.9009 250.952 37.9009 250.943 37.9009C250.799 37.9097 250.69 37.9927 250.642 38.1283C250.272 39.2256 250.055 40.4585 250.586 41.5428C250.799 41.98 251.143 42.4041 251.565 42.6577C251.753 42.7713 252.001 42.8544 252.214 42.9025C252.445 42.9506 252.793 43.0249 252.963 42.815C253.033 42.732 253.081 42.5921 253.007 42.4915L253.011 42.4959Z" fill="#471006"/>
<path d="M261.076 63.7221L261.094 63.6827C261.094 63.6827 256.935 57.3258 248.859 60.4125C248.824 60.4256 249.895 66.5377 244.635 66.354C241.348 66.2404 240.329 64.4172 240.329 62.0301C240.329 61.7459 240.359 61.4661 240.412 61.1994C238.309 60.5917 234.12 60.242 230.658 65.2829C230.563 65.4228 230.48 65.5627 230.406 65.6982C224.336 75.6795 233.528 97.2947 233.528 97.2947L255.533 97.3603L255.372 80.6986L265.226 76.3878C265.578 70.7086 262.935 66.0349 261.08 63.7177L261.076 63.7221Z" fill="#FF1A1A"/>
<path d="M255.237 80.5674C255.037 80.5674 254.871 80.4013 254.871 80.2001V72.5491C254.871 72.348 255.037 72.1819 255.237 72.1819C255.437 72.1819 255.603 72.348 255.603 72.5491V80.2001C255.603 80.4013 255.437 80.5674 255.237 80.5674Z" fill="#471006"/>
<path d="M234.633 80.5674C234.433 80.5674 234.268 80.4013 234.268 80.2001V72.5491C234.268 72.348 234.433 72.1819 234.633 72.1819C234.834 72.1819 234.999 72.348 234.999 72.5491V80.2001C234.999 80.4013 234.834 80.5674 234.633 80.5674Z" fill="#471006"/>
<path d="M209.754 95.3011L209.336 74.3285C209.319 73.4629 210.007 72.7459 210.869 72.7371L232.835 72.4311C233.71 72.418 234.425 73.135 234.411 74.0094L234.159 95.5984C234.15 96.464 233.441 97.1592 232.574 97.1417C228.163 97.0586 215.658 96.8356 211.3 96.8269C210.455 96.8269 209.767 96.1449 209.75 95.2967L209.754 95.3011Z" fill="#91A7CA"/>
<path d="M214.631 75.933C214.631 76.5189 214.161 76.9911 213.577 76.9911C212.994 76.9911 212.523 76.5189 212.523 75.933C212.523 75.3472 212.994 74.875 213.577 74.875C214.161 74.875 214.631 75.3472 214.631 75.933Z" fill="white"/>
<path d="M255.498 80.6024C255.498 80.6024 255.642 94.1469 254.706 94.042C253.77 93.9371 236.384 95.3361 236.384 95.3361L236.166 98.2872C236.166 98.2872 260.392 102.546 261.637 99.9355C262.887 97.321 264.071 76.8381 264.071 76.8381L255.498 80.6024Z" fill="#E2A052"/>
<path d="M236.741 98.2785C236.741 98.2785 228.603 98.2042 227.654 97.4304C226.704 96.6565 223.195 92.1752 223.818 91.056C224.436 89.9367 228.333 93.5786 228.333 93.5786L231.163 93.4868C231.163 93.4868 229.056 93.0059 228.834 92.232C228.616 91.4582 232.909 92.4769 232.909 92.4769C232.909 92.4769 235.552 95.0126 237.524 95.546C239.497 96.0794 238.443 98.3135 236.736 98.2785H236.741Z" fill="#E2A052"/>
<path d="M223.64 91.0822C223.618 91.1215 223.613 91.1653 223.631 91.2134C224.732 94.1426 227.628 96.6434 227.654 96.6696C227.719 96.7265 227.815 96.7177 227.872 96.6521C227.928 96.5866 227.92 96.4904 227.854 96.4335C227.824 96.4073 224.989 93.9546 223.918 91.1041C223.888 91.0254 223.801 90.986 223.722 91.0122C223.687 91.0254 223.661 91.0516 223.644 91.0822H223.64Z" fill="#AA6E2D"/>
<path d="M224.559 90.8679C224.537 90.9072 224.532 90.9553 224.55 90.999C225.651 93.9326 228.246 95.9088 228.273 95.9263C228.342 95.9787 228.438 95.9613 228.486 95.8957C228.534 95.8257 228.525 95.7295 228.455 95.6814C228.429 95.664 225.904 93.7403 224.833 90.8941C224.802 90.8154 224.715 90.7761 224.637 90.8023C224.602 90.8154 224.576 90.8416 224.559 90.8722V90.8679Z" fill="#AA6E2D"/>
<path d="M200.758 135.589L194.688 148.876C194.688 148.876 195.881 153.423 200.658 152.671L209.314 140.381L200.758 135.585V135.589Z" fill="#E2A052"/>
<path d="M196.165 144.115C196.165 144.115 191.471 150.751 188.192 151.149C184.918 151.547 177.037 148.784 175.47 151.656C175.47 151.656 180.943 158.21 188.136 158.831L198.263 163.369L204.572 148.46C204.572 148.46 202.696 147.044 201.681 148.897C200.667 150.751 198.764 154.393 198.764 154.393L195.699 150.38L197.628 146.475C197.628 146.475 198.237 144.32 196.165 144.123V144.115Z" fill="#FFC646"/>
<path d="M201.681 148.893L197.423 146.773L195.694 150.371L198.764 154.384L201.681 148.893Z" fill="#471006"/>
<path d="M191.658 161.017L191.419 160.824C194.663 156.78 200.497 157.685 200.554 157.694L200.506 157.996C200.449 157.987 194.785 157.112 191.654 161.017H191.658Z" fill="#471006"/>
<path d="M188.136 158.826C180.943 158.21 175.47 151.652 175.47 151.652C177.015 157.567 191.158 160.99 191.158 160.99L190.796 162.027L197.649 164.952L198.268 163.364L188.14 158.826H188.136Z" fill="#471006"/>
<path d="M224.021 148.989L225.454 163.535C225.454 163.535 228.767 166.858 232.516 163.788L233.818 148.792L224.021 148.985V148.989Z" fill="#E2A052"/>
<path d="M223.904 153.06C223.904 153.06 222.816 161.126 220.099 163.006C217.382 164.886 209.126 166.114 209.065 169.389C209.065 169.389 216.942 172.642 223.599 169.835L234.672 169.131L233.361 152.985C233.361 152.985 231.045 152.605 231.001 154.721C230.958 156.837 230.958 160.947 230.958 160.947L226.386 158.822L226.29 154.463C226.29 154.463 225.833 152.268 223.904 153.064V153.06Z" fill="#FFC646"/>
<path d="M231.001 154.717L226.251 154.826L226.386 158.822L230.958 160.947L231.001 154.717Z" fill="#471006"/>
<path d="M227.736 170.132L227.436 170.071C228.437 164.978 234.023 163.058 234.08 163.036L234.176 163.325C234.119 163.342 228.698 165.209 227.736 170.128V170.132Z" fill="#471006"/>
<path d="M223.599 169.835C216.942 172.642 209.065 169.389 209.065 169.389C213.171 173.91 227.279 170.342 227.279 170.342L227.44 171.431L234.859 170.823L234.672 169.131L223.599 169.835Z" fill="#471006"/>
<path d="M205.073 60.4431C205.326 60.4912 211.583 66.9792 211.583 66.9792L209.98 59.4375L205.073 60.4431Z" fill="#FFFFFD"/>
<path d="M215.837 38.478H189.464V60.4605H215.837V38.478Z" fill="#FFFFFD"/>
<path d="M211.896 41.9275H205.557V48.2931H211.896V41.9275Z" fill="#4252D4"/>
<path d="M211.896 50.5403H205.557V56.9059H211.896V50.5403Z" fill="#4252D4"/>
<path d="M192.412 42.0586H202.596C202.657 42.0586 202.709 42.1111 202.709 42.1723C202.709 42.2335 202.657 42.2859 202.596 42.2859H192.412C192.351 42.2859 192.299 42.2335 192.299 42.1723C192.299 42.1111 192.351 42.0586 192.412 42.0586Z" fill="#4252D4"/>
<path d="M202.596 43.1997H192.412C192.35 43.1997 192.299 43.2506 192.299 43.3134C192.299 43.3762 192.35 43.4271 192.412 43.4271H202.596C202.659 43.4271 202.709 43.3762 202.709 43.3134C202.709 43.2506 202.659 43.1997 202.596 43.1997Z" fill="#4252D4"/>
<path d="M192.412 44.6207H196.805C196.866 44.6207 196.919 44.5682 196.919 44.507C196.919 44.4458 196.866 44.3933 196.805 44.3933H192.412C192.351 44.3933 192.299 44.4458 192.299 44.507C192.299 44.5682 192.351 44.6207 192.412 44.6207Z" fill="#4252D4"/>
<path d="M192.368 50.7852H202.552C202.613 50.7852 202.666 50.8376 202.666 50.8988C202.666 50.96 202.613 51.0125 202.552 51.0125H192.368C192.307 51.0125 192.255 50.96 192.255 50.8988C192.255 50.8376 192.307 50.7852 192.368 50.7852Z" fill="#4252D4"/>
<path d="M192.368 51.9219H202.552C202.613 51.9219 202.666 51.9743 202.666 52.0355C202.666 52.0968 202.613 52.1492 202.552 52.1492H192.368C192.307 52.1492 192.255 52.0968 192.255 52.0355C192.255 51.9743 192.307 51.9219 192.368 51.9219Z" fill="#4252D4"/>
<path d="M192.368 53.3472H196.761C196.822 53.3472 196.875 53.2948 196.875 53.2335C196.875 53.1723 196.822 53.1199 196.761 53.1199H192.368C192.307 53.1199 192.255 53.1723 192.255 53.2335C192.255 53.2948 192.307 53.3472 192.368 53.3472Z" fill="#4252D4"/>
<path d="M210.908 47.8255C210.855 47.8255 210.807 47.808 210.768 47.7686L205.883 42.8632C205.805 42.7845 205.805 42.6577 205.883 42.579C205.961 42.5003 206.088 42.5003 206.166 42.579L211.051 47.4844C211.13 47.5631 211.13 47.6899 211.051 47.7686C211.012 47.808 210.96 47.8255 210.912 47.8255H210.908Z" fill="#2B0D06"/>
<path d="M206.022 47.8255C205.97 47.8255 205.922 47.808 205.883 47.7686C205.805 47.6899 205.805 47.5631 205.883 47.4844L210.768 42.579C210.847 42.5003 210.973 42.5003 211.051 42.579C211.13 42.6577 211.13 42.7845 211.051 42.8632L206.166 47.7686C206.127 47.808 206.075 47.8255 206.027 47.8255H206.022Z" fill="#2B0D06"/>
<path d="M211.178 56.2852C211.126 56.2852 211.074 56.2677 211.039 56.2283L206.154 51.3229C206.075 51.2442 206.075 51.1175 206.154 51.0388C206.232 50.9601 206.358 50.9601 206.437 51.0388L211.322 55.9442C211.4 56.0229 211.4 56.1496 211.322 56.2283C211.283 56.2677 211.23 56.2852 211.182 56.2852H211.178Z" fill="#2B0D06"/>
<path d="M206.288 56.2852C206.236 56.2852 206.188 56.2677 206.149 56.2283C206.07 56.1496 206.07 56.0229 206.149 55.9442L211.034 51.0388C211.112 50.9601 211.239 50.9601 211.317 51.0388C211.395 51.1175 211.395 51.2442 211.317 51.3229L206.432 56.2283C206.392 56.2677 206.34 56.2852 206.292 56.2852H206.288Z" fill="#2B0D06"/>
</g>
<defs>
<clipPath id="clip0_115_604">
<rect width="290" height="180" fill="white"/>
</clipPath>
</defs>
</svg>
