<svg width="249" height="265" viewBox="0 0 249 265" fill="none" xmlns="http://www.w3.org/2000/svg">
<g clip-path="url(#clip0_115_468)">
<path d="M75.3945 249.651C75.3945 249.651 80.5355 247.776 89.0318 245.805C117.942 239.089 149.818 241.749 175.583 252.88C175.583 252.88 148.764 268.673 115.084 264.215C81.4043 259.758 75.3945 249.657 75.3945 249.657V249.651Z" fill="#F5EDE9"/>
<path d="M148.08 247.512C148.08 247.512 151.885 246.128 158.17 244.667C179.561 239.694 203.144 241.665 222.204 249.903C222.204 249.903 202.36 261.585 177.446 258.284C152.526 254.983 148.086 247.512 148.086 247.512H148.08Z" fill="#F5EDE9"/>
<path d="M26.7949 243.372C26.7949 243.372 30.5997 241.605 36.8851 239.736C58.2757 233.391 81.8593 235.902 100.919 246.416C100.919 246.416 81.0744 261.333 56.1606 257.122C31.2408 252.91 26.8009 243.366 26.8009 243.366L26.7949 243.372Z" fill="#F5EDE9"/>
<path d="M31.4322 19.842C31.0187 19.842 30.5933 19.884 30.2158 20.0577C29.6466 20.3273 29.2631 20.8845 29.0115 21.4536C27.5795 24.6528 29.377 28.499 32.0493 30.7696C34.7276 33.0342 38.131 34.2025 41.2347 35.826C43.6793 37.1081 45.9502 38.6778 48.2211 40.2534C53.1284 43.6563 58.3712 47.5025 60.0189 53.2419C58.5809 39.6783 49.8449 27.0672 37.4898 21.172C35.6024 20.2734 33.5233 19.8241 31.4262 19.848L31.4322 19.842Z" fill="#43115F"/>
<path d="M96.5386 3.27701C97.1618 4.99044 96.7064 6.94351 95.7897 8.51315C94.8729 10.0888 93.5368 11.3709 92.2605 12.6649C85.4359 19.5965 79.7138 27.8042 76.7718 37.0723C74.0575 27.3908 76.9156 16.9365 81.5832 8.03387C83.1291 5.0863 85.0404 2.07881 88.0543 0.652955C91.0622 -0.778895 95.3942 0.14372 96.5326 3.27102L96.5386 3.27701Z" fill="#9E5FCC"/>
<path d="M218.939 71.3707C221.539 63.3428 229.305 57.2619 237.723 56.6568C239.712 56.513 241.785 56.6688 243.571 57.5555C245.357 58.4421 246.819 60.1735 246.962 62.1626C247.178 65.0682 244.602 67.5305 241.833 68.4591C239.071 69.3877 236.075 69.2439 233.181 69.6273C229.179 70.1605 225.32 71.7482 222.096 74.1805C220.065 75.7142 218.214 77.7092 217.687 80.1955C218.232 76.0377 217.639 75.3547 218.933 71.3647L218.939 71.3707Z" fill="#7F9DFF"/>
<path d="M213.541 17.338C215.428 16.2356 217.933 16.7509 219.694 18.0509C221.45 19.351 222.606 21.298 223.619 23.2391C225.039 25.959 226.285 28.8168 226.777 31.8422C227.741 37.7553 225.752 43.7643 223.17 49.1682C220.767 54.1946 217.418 59.305 212.151 61.1202C215.584 54.2006 217.747 46.2086 215.764 38.7438C214.392 33.5736 211.096 28.8767 210.88 23.5267C210.785 21.1662 211.498 18.5242 213.541 17.332V17.338Z" fill="#BC73F0"/>
<path d="M4.40967 193.941C6.41691 192.281 9.10122 191.688 11.7017 191.526C17.4238 191.161 23.3197 192.677 27.9094 196.115C32.4991 199.554 35.6627 204.964 35.9923 210.686C30.342 202.574 18.748 199.237 9.64647 203.095C7.57931 203.97 5.15265 205.162 3.24726 203.97C1.97701 203.173 1.4737 201.543 1.49167 200.04C1.52163 197.715 2.61813 195.421 4.40967 193.941Z" fill="#7F9DFF"/>
<path d="M241.21 178.688C240.863 176.639 239.155 175.009 237.208 174.296C235.26 173.583 233.103 173.655 231.054 173.985C224.835 174.991 219.029 178.358 215.074 183.259C211.114 188.159 209.046 194.54 209.37 200.83C209.813 195.876 214.295 192.371 218.525 189.747C220.041 188.806 221.599 187.884 223.295 187.344C225.656 186.59 228.184 186.596 230.665 186.47C233.145 186.35 235.704 186.062 237.849 184.816C239.994 183.57 241.624 181.132 241.216 178.688H241.21Z" fill="#6A0DAD"/>
<path d="M232.384 148.445C232.959 148.942 233.367 149.607 233.69 150.296C236.015 155.245 234.319 161.427 230.593 165.423C226.866 169.419 221.485 171.51 216.104 172.463C219.005 169.102 222.006 165.561 223.025 161.242C223.522 159.127 223.516 156.928 223.834 154.777C224.145 152.627 224.852 150.416 226.452 148.948C228.052 147.48 230.742 147.037 232.396 148.451L232.384 148.445Z" fill="#097D6A"/>
<path d="M18.4661 15.283L20.9407 20.2974L26.4771 21.1002L22.4686 25.0064L23.4153 30.5181L18.4661 27.912L13.5169 30.5181L14.4636 25.0064L10.4551 21.1002L15.9915 20.2974L18.4661 15.283Z" fill="#E53F33"/>
<path d="M73.1896 40.2114L73.3274 43.3627L75.9997 45.0342L73.0458 46.1365L72.2788 49.1919L70.3195 46.7236L67.1738 46.9393L68.9114 44.3153L67.7371 41.3916L70.7749 42.2364L73.1896 40.2114Z" fill="#7F9DFF"/>
<path d="M196.308 8.2854L199.322 11.7302L203.87 11.197L201.521 15.1271L203.432 19.2909L198.969 18.2724L195.601 21.3697L195.188 16.8166L191.197 14.57L195.409 12.7667L196.308 8.2854Z" fill="#FFAC1C"/>
<path d="M234.751 80.0876L236.243 83.1131L239.587 83.5984L237.166 85.9528L237.741 89.2838L234.751 87.7082L231.761 89.2838L232.337 85.9528L229.916 83.5984L233.259 83.1131L234.751 80.0876Z" fill="#E53F33"/>
<path d="M229.934 125.841L229.239 132.689L234.481 137.146L227.759 138.602L225.14 144.964L221.677 139.015L214.816 138.494L219.406 133.366L217.776 126.68L224.074 129.453L229.934 125.841Z" fill="#FFAC1C"/>
<path d="M4.40398 175.728L7.17817 176.83L9.65277 175.171L9.46103 178.148L11.8038 179.988L8.91578 180.725L7.8852 183.522L6.29139 181.006L3.31348 180.892L5.21886 178.598L4.40398 175.728Z" fill="#097D6A"/>
<path d="M194.799 236.782C194.002 235.764 193.397 234.608 193.007 233.391C192.809 232.762 192.666 232.115 192.582 231.456C192.504 230.815 192.168 230.24 191.629 229.887L186.608 226.598C185.679 225.987 184.433 226.196 183.756 227.077L182.857 228.239L178.273 234.182L197.309 246.638C197.902 243.145 196.998 239.568 194.805 236.776L194.799 236.782Z" fill="#E53F33"/>
<path d="M185.889 238.274C185.751 238.49 185.602 238.693 185.44 238.879L178.268 234.188L182.851 228.245C183.217 228.401 183.57 228.593 183.912 228.814C187.069 230.881 187.956 235.117 185.889 238.274Z" fill="#232163"/>
<path d="M197.309 246.64L178.272 234.184L177.164 235.879L196.201 248.335L197.309 246.64Z" fill="#232163"/>
<path d="M156.595 160.355C157.668 159.63 158.86 159.103 160.106 158.804C160.747 158.648 161.407 158.552 162.072 158.516C162.713 158.48 163.312 158.187 163.701 157.671L167.326 152.891C167.997 152.004 167.878 150.752 167.045 150.009L165.948 149.032L160.334 144.048L146.589 162.171C150.028 163.003 153.665 162.344 156.601 160.355H156.595Z" fill="#E53F33"/>
<path d="M155.726 151.363C155.522 151.207 155.33 151.045 155.15 150.871L160.327 144.042L165.942 149.026C165.762 149.38 165.546 149.721 165.3 150.045C163.018 153.052 158.733 153.639 155.726 151.363Z" fill="#232163"/>
<path d="M146.583 162.156L160.332 144.031L158.718 142.808L144.97 160.932L146.583 162.156Z" fill="#232163"/>
<path d="M206.063 72.9106C207.842 68.651 207.621 63.7503 206.261 59.341C204.9 54.9316 202.671 51.0434 200.077 47.2212C200.347 44.5492 200.035 41.7753 198.831 39.373C197.626 36.9706 195.481 34.9875 192.881 34.3106C190.286 33.6336 187.177 34.7838 185.463 36.8507C181.874 38.1448 179.112 41.2901 177.824 44.8847C176.535 48.4793 176.631 52.4693 177.602 56.1597C178.573 59.8502 180.382 63.2711 182.473 66.4703C181.598 74.5641 178.555 82.0768 173.797 88.6849C172.245 90.8417 170.49 92.8966 169.441 95.3409C168.393 97.7852 168.165 100.775 169.645 102.979C169.807 101.757 170.49 100.595 171.293 99.6664C171.071 105.436 174.606 111.499 179.885 113.829C185.289 107.67 190.832 101.601 195.505 94.8736C200.179 88.1457 202.905 80.4652 206.063 72.9106Z" fill="#643427"/>
<path d="M172.52 153.951L166.067 151.303C166.067 151.303 161.897 153.352 162.862 157.3L168.23 161.338L172.526 153.957L172.52 153.951Z" fill="#F27E55"/>
<path d="M212.546 166.124C212.252 172.583 211.671 177.328 210.64 178.472C207.536 181.935 199.22 179.736 190.789 176.123C179.783 171.409 168.59 164.297 168.59 164.297C168.59 164.297 166.133 156.108 171.322 151.716L183.024 154.52L187.961 155.706L193.887 111.87L200.466 111.073L209.478 109.977L211.803 113.26C211.803 113.26 213.414 147.103 212.546 166.124Z" fill="#232163"/>
<path d="M187.093 221.212L184.978 227.856C184.978 227.856 187.362 231.846 191.215 230.564L194.798 224.884L187.093 221.206V221.212Z" fill="#F27E55"/>
<path d="M205.194 113.769C205.194 113.769 208.783 128.663 204.859 129.28L200.862 113.835L205.194 113.775V113.769Z" fill="#171642"/>
<path d="M212.546 166.125C212.252 172.583 211.671 177.328 210.64 178.472C207.537 181.935 199.22 179.736 190.79 176.124L191.035 174.494L183.024 154.52L187.962 155.706L193.887 111.87L200.466 111.073L200.556 111.109C201.096 111.331 201.497 111.798 201.629 112.361C202.024 114.051 209.7 146.804 212.546 166.125Z" fill="#171642"/>
<path d="M211.802 176.675C211.862 190.059 197.278 227.203 197.278 227.203C197.278 227.203 195.517 227.365 193.12 226.712C192.928 226.664 192.737 226.61 192.539 226.544C190.412 225.879 187.901 224.567 185.696 222.009L192.886 174.278L182.101 147.397C182.101 147.397 162.328 133.539 176.343 108.18L182.101 105.52L199.879 112.775C199.879 112.775 211.749 163.297 211.802 176.675Z" fill="#232163"/>
<path d="M238.663 108.359V113.284C238.663 113.284 219.052 115.471 210.664 110.546L209.478 91.309L213.109 89.7333L217.045 88.0259L219.496 101.613L238.663 108.359Z" fill="#F27E55"/>
<path d="M238.663 113.284C238.663 113.284 219.052 115.471 210.664 110.546L209.478 91.309L213.109 89.7334L214.403 90.2007C214.403 90.2007 213.061 108.815 216.656 109.594C220.251 110.378 238.663 113.284 238.663 113.284Z" fill="#E86E43"/>
<path d="M168.986 64.9545L167.985 70.6999L167.967 70.7239L165.223 74.9296C165.223 74.9296 152.664 73.2281 146.373 65.8772C139.153 56.7948 149.62 33.388 150.1 32.3455C150.1 32.3216 150.112 32.3096 150.112 32.3096L154.941 33.6815V57.3879L165.223 59.7544L168.986 64.9545Z" fill="#F27E55"/>
<path d="M167.967 70.7238L165.223 74.9295C165.223 74.9295 152.664 73.2281 146.373 65.8771C139.153 56.7947 149.62 33.3879 150.1 32.3455C149.746 33.5556 141.28 62.5701 150.112 65.8771C156.768 68.3753 164.42 70.0289 167.967 70.7238Z" fill="#E86E43"/>
<path d="M205.194 65.8771L205.991 65.1042C205.991 65.1042 209.119 65.961 211.306 70.4302C213.493 74.8995 218.418 88.8526 218.418 88.8526C218.418 88.8526 215.68 92.2974 210.485 92.2255L205.194 65.8831V65.8771Z" fill="#FF951C"/>
<path d="M211.659 91.9021L213.457 112.673C195.583 119.563 176.344 108.18 176.344 108.18L181.802 92.3035L175.912 76.026L165.223 74.9296C162.227 69.1363 165.223 59.7544 165.223 59.7544L184.397 60.8507L188.795 64.3435L199.035 65.8772L202.252 63.8463L205.991 65.1044C205.991 65.1044 212.558 76.026 214.056 82.017C215.554 88.008 211.659 91.9021 211.659 91.9021Z" fill="#FFAC1C"/>
<path d="M203.121 80.0638C196.386 82.4242 186.356 69.0942 184.396 60.8506L189.957 61.1921L189.867 54.8656L189.819 51.4148L196.242 52.8107L197.225 58.2925L197.92 62.1686L202.252 63.8461C202.252 63.8461 209.862 77.7033 203.121 80.0638Z" fill="#F27E55"/>
<path d="M197.225 58.2925C196.464 58.2925 195.583 58.1786 194.589 57.8851C192.755 57.3339 191.144 56.2675 189.867 54.8656L189.819 51.4148L196.243 52.8107L197.225 58.2925Z" fill="#CC5D32"/>
<path d="M154.312 34.4124L154.947 33.6755C154.947 33.6755 160.783 30.5542 160.04 29.7454C159.291 28.9366 157.212 29.7454 157.212 29.7454C157.212 29.7454 159.357 25.2641 158.608 24.5811C157.859 23.8982 155.618 28.1877 155.618 28.1877C155.618 28.1877 157.799 23.4608 156.739 23.2092C155.678 22.9576 153.815 27.5047 153.815 27.5047C153.815 27.5047 155.181 22.652 154.372 22.2806C153.563 21.9092 151.885 27.0734 151.885 27.0734C151.885 27.0734 153.006 22.8437 151.885 22.8437C150.765 22.8437 149.333 29.7154 150.112 32.3155L151.634 35.0414L154.312 34.4184V34.4124Z" fill="#F27E55"/>
<path d="M237.741 112.99L238.664 113.284C238.664 113.284 243.829 117.43 244.278 116.423C244.727 115.417 243.169 113.823 243.169 113.823C243.169 113.823 248.131 114.039 248.466 113.08C248.802 112.122 243.972 111.75 243.972 111.75C243.972 111.75 249.179 111.894 248.993 110.828C248.808 109.755 243.894 109.821 243.894 109.821C243.894 109.821 248.898 109.174 248.922 108.281C248.946 107.389 243.535 107.874 243.535 107.874C243.535 107.874 247.867 107.245 247.43 106.215C246.992 105.184 240.108 106.568 238.023 108.305L236.117 110.774L237.741 112.99Z" fill="#F27E55"/>
<path d="M186.362 40.9844C186.458 38.8456 188.465 37.3239 190.562 37.7552C192.959 38.2525 196.021 39.5645 197.585 42.9734C200.383 49.0663 198.286 53.8591 198.286 53.8591C198.286 53.8591 196.093 55.0333 192.731 54.0268C190.311 53.3019 188.268 51.6664 186.883 49.5515L186.104 48.3653C186.104 48.3653 187.405 46.4662 186.602 43.3748C186.386 42.5421 186.332 41.7273 186.362 40.9844Z" fill="#F27E55"/>
<path d="M213.457 112.673C195.583 119.563 176.344 108.18 176.344 108.18L181.802 92.3035L175.912 76.026L165.223 74.9296C162.227 69.1363 165.223 59.7544 165.223 59.7544C165.223 59.7544 166.062 71.2332 168.59 72.4314L173.941 73.2042C178.225 73.8213 181.808 76.7868 183.216 80.8787L184.654 85.0604C185.913 88.7149 188.747 91.6385 192.396 92.9146C195.488 93.999 199.418 94.3884 203.475 92.2196C203.475 92.2196 200.826 97.33 192.755 96.5631C189.795 96.2815 187.039 98.1268 186.039 100.925L185.625 102.069C184.636 104.843 185.805 107.946 188.405 109.318C192.863 111.666 200.952 114.296 213.457 112.673Z" fill="#FF951C"/>
<path d="M203.534 178.232C203.534 178.232 203.534 178.274 203.534 178.292C203.534 178.328 203.534 178.364 203.522 178.394C201.898 194.839 198.411 211.063 193.126 226.712C192.934 226.664 192.743 226.61 192.545 226.544C197.83 210.925 201.317 194.732 202.935 178.31C198.189 159.54 193.444 140.765 188.698 121.995C186.367 120.851 184.648 118.568 184.336 115.68C184.294 115.297 184.893 115.303 184.935 115.68C185.211 118.25 186.709 120.287 188.752 121.366C188.908 121.27 189.141 121.3 189.195 121.528C189.201 121.546 189.207 121.564 189.213 121.581C190.651 122.217 192.317 122.396 194.013 121.971C194.384 121.875 194.546 122.456 194.169 122.546C192.491 122.971 190.849 122.84 189.393 122.294C194.091 140.879 198.788 159.457 203.48 178.041C203.522 178.089 203.546 178.149 203.54 178.232H203.534Z" fill="#171642"/>
<path d="M190.466 43.5847C189.927 43.6087 189.394 44.1119 189.028 44.4774C188.633 44.8728 188.249 45.358 188.07 45.8912C187.992 46.1189 188.285 46.2447 188.447 46.1069C188.842 45.7654 189.184 45.364 189.585 45.0285C189.951 44.723 190.496 44.4834 190.76 44.082C190.898 43.8723 190.718 43.5667 190.472 43.5787L190.466 43.5847Z" fill="#643427"/>
<path d="M190.442 47.6467C190.442 47.6467 189.4 45.9572 189.933 45.4659C190.466 44.9807 192.252 46.2987 192.252 46.2987L190.562 46.1669L190.448 47.6407L190.442 47.6467Z" fill="#643427"/>
<path d="M192.995 42.5902C193.217 42.0989 193.876 41.7874 194.355 41.5777C194.871 41.35 195.458 41.1703 196.021 41.2063C196.261 41.2182 196.273 41.5358 196.087 41.6376C195.625 41.8832 195.128 42.051 194.667 42.3026C194.247 42.5303 193.828 42.9496 193.361 43.0455C193.115 43.0934 192.893 42.8178 192.995 42.5902Z" fill="#643427"/>
<path d="M196.782 44.0521C196.782 44.0521 195.589 42.4645 194.942 42.782C194.295 43.0995 194.87 45.2443 194.87 45.2443L195.368 43.6207L196.782 44.0521Z" fill="#643427"/>
<path d="M196.374 46.7899C195.871 46.5563 195.308 46.5023 194.805 46.2387C194.271 45.9572 193.876 45.5018 193.468 45.0705C193.456 45.0585 193.426 45.0705 193.432 45.0885C193.75 45.9452 194.823 46.9936 195.829 47.1913C195.763 47.2512 195.691 47.3171 195.625 47.383C195.386 47.6047 195.116 47.7724 194.858 47.9641C194.559 48.1918 194.84 48.701 195.158 48.4794C195.434 48.2817 195.661 48.042 195.889 47.7964C196.057 47.6167 196.219 47.4369 196.296 47.2153C196.482 47.1673 196.59 46.8918 196.374 46.7959V46.7899Z" fill="#CC5D32"/>
<path d="M191.784 49.7255C193.36 50.5223 195.337 50.4564 196.853 49.5518C196.943 49.9651 196.985 50.5403 196.949 50.9596C196.913 51.385 196.721 51.8164 196.362 52.044C196.014 52.2597 195.577 52.2597 195.176 52.1878C193.737 51.9422 192.341 51.0735 191.79 49.7195L191.784 49.7255Z" fill="white"/>
<path d="M84.353 233.877C84.9342 232.714 85.2937 231.468 85.4375 230.192C85.5094 229.533 85.5154 228.874 85.4674 228.209C85.4195 227.568 85.6352 226.933 86.0906 226.484L90.3567 222.266C91.1476 221.481 92.4059 221.439 93.2508 222.17L94.3652 223.129L100.039 228.042L83.8617 244.037C82.5854 240.736 82.7652 237.046 84.353 233.877Z" fill="#9EBA00"/>
<path d="M93.3822 233.559C93.562 233.739 93.7477 233.913 93.9455 234.068L100.039 228.042L94.3649 223.129C94.0353 223.357 93.7298 223.608 93.4422 223.896C90.7578 226.55 90.7339 230.875 93.3882 233.559H93.3822Z" fill="#232163"/>
<path d="M85.2773 245.488L101.454 229.493L100.03 228.053L83.8533 244.048L85.2773 245.488Z" fill="#232163"/>
<path d="M60.6371 221.134C61.0385 219.9 61.2123 218.612 61.1584 217.329C61.1284 216.67 61.0385 216.011 60.8887 215.364C60.7449 214.735 60.8588 214.082 61.2482 213.567L64.8373 208.756C65.5024 207.864 66.7427 207.636 67.6834 208.229L68.9237 209.014L75.269 213.022L61.6617 231.253C59.9061 228.179 59.5286 224.501 60.6311 221.134H60.6371Z" fill="#9EBA00"/>
<path d="M69.5167 219.474C69.7205 219.63 69.9302 219.768 70.1459 219.894L75.2748 213.028L68.9295 209.02C68.6419 209.29 68.3723 209.589 68.1326 209.919C65.8737 212.944 66.4969 217.228 69.5227 219.486L69.5167 219.474Z" fill="#232163"/>
<path d="M63.2925 232.475L76.8984 214.243L75.2753 213.032L61.6693 231.264L63.2925 232.475Z" fill="#232163"/>
<path d="M87.87 217.18L91.8186 222.931C91.8186 222.931 90.6921 227.442 86.6297 227.328L81.5547 222.931L87.87 217.18Z" fill="#F27E55"/>
<path d="M61.8713 204.047L66.3711 209.373C66.3711 209.373 65.7 213.974 61.6496 214.268L56.1611 210.398L61.8713 204.047Z" fill="#F27E55"/>
<path d="M89.4154 216.652C89.4154 216.652 88.7084 218.432 87.1086 220.331C86.9827 220.487 86.8509 220.636 86.7071 220.786C84.9755 222.703 82.3451 224.609 78.6482 224.854C78.6482 224.854 56.2629 193.749 53.1832 185.889C50.1094 178.028 38.4854 142.652 38.4854 142.652L39.3422 131.035L61.7274 125.05L64.915 127.267C64.915 127.267 70.9607 137.014 70.6192 150.344C70.2777 163.674 70.6312 180.593 70.6312 180.593L89.4154 216.652Z" fill="#232163"/>
<path d="M62.9018 202.13C62.9018 203.311 62.6682 204.419 62.2787 205.437C60.4991 210.152 55.484 213.022 55.484 213.022C55.484 213.022 33.4703 200.686 25.687 194.618C17.9096 188.543 10.4199 183.42 10.4199 176.213C10.4199 171.846 30.2407 132.85 30.2407 132.85L34.8004 129.729L46.754 131.622L50.5468 155.341L45.9811 160.72L45.9391 160.768L42.392 164.95L34.6087 174.122L62.9018 202.13Z" fill="#232163"/>
<path d="M15.7828 114.236L10.4202 118.142L4.39844 156.623L8.55073 158.27C8.55073 158.27 22.9729 134.905 24.0215 121.875L15.7828 114.236Z" fill="#F27E55"/>
<path d="M94.7241 77.9908C89.4813 87.7262 73.6032 89.0741 73.6032 89.0741L71.2544 87.6842L69.5587 86.6777L68.3604 76.1935L71.506 72.6408L85.5867 72.1855L86.0301 48.6109L90.1824 46.5081C90.1824 46.5081 90.2483 46.6518 90.3621 46.9214C91.6743 49.9649 99.5415 69.0462 94.7241 77.9908Z" fill="#F27E55"/>
<path d="M94.7246 77.9907C89.4818 87.7261 73.6037 89.0741 73.6037 89.0741L71.2549 87.6842L71.8301 83.2209C71.8301 83.2209 87.193 81.0641 91.585 77.2958C95.9829 73.5274 90.1889 46.9513 90.1889 46.9513L90.3626 46.9214C91.6748 49.9648 99.542 69.0462 94.7246 77.9907Z" fill="#E86E43"/>
<path d="M22.6611 89.8231L15.7826 88.7747C15.7826 88.7747 13.6315 90.3024 12.7867 101.506C11.9718 112.319 10.4199 118.143 10.4199 118.143C10.4199 118.143 17.1307 123.972 24.0212 121.875L26.6337 106.897L22.6671 89.8231H22.6611Z" fill="#829900"/>
<path d="M63.4178 90.5719L64.9157 127.267C64.9157 127.267 46.6468 138.284 30.2413 132.85L30.0496 132.233L23.0932 110.043C23.0932 110.043 15.7832 100.008 15.7832 88.7746C15.7832 88.7746 22.1764 78.5899 37.7071 73.198C37.7071 73.198 55.7783 71.3528 71.5067 72.6409C70.9614 76.3673 71.1352 79.866 71.8302 83.221C72.2496 85.216 72.8548 87.163 73.6038 89.0742L63.4178 90.5719Z" fill="#9EBA00"/>
<path d="M36.3582 59.5326C36.3582 59.5326 37.2869 53.3319 34.1053 50.9295C31.6666 49.0902 30.2346 51.253 30.2346 51.253L23.0864 55.6264C23.0864 55.6264 18.8442 57.0703 20.7376 60.581C22.1457 63.1931 25.4052 65.236 25.4052 65.236L27.4244 64.1396L36.3522 59.5206L36.3582 59.5326Z" fill="#232163"/>
<path d="M31.4697 53.5117C32.1408 52.6729 32.4284 51.4627 31.949 50.4982C31.4517 49.4977 30.2534 48.9944 29.1389 49.0544C28.0244 49.1143 26.9879 49.6295 26.0471 50.2346C25.1064 50.8397 24.2256 51.5346 23.225 52.0199C22.2184 52.5052 21.05 52.7628 19.9835 52.4213C20.0793 52.9066 20.3969 53.3679 20.8343 53.5955C20.1812 53.6315 19.4802 53.5955 18.875 53.3379C19.2824 54.5481 20.2411 55.4168 21.4515 55.8242C20.6845 55.956 19.7857 55.8362 19.1087 55.4647C19.4742 56.5431 20.331 57.6694 21.3676 58.1427C22.4042 58.616 23.6325 58.6459 24.687 58.2146C25.4 57.0523 26.6883 56.2855 27.8746 55.6145C29.061 54.9375 30.6189 54.5601 31.4757 53.4997L31.4697 53.5117Z" fill="#232163"/>
<path d="M25.1482 64.2714C24.8007 64.1396 24.4472 64.0138 24.0757 63.9898C23.7042 63.9659 23.3147 64.0557 23.0391 64.3014C22.6856 64.6189 22.5837 65.1581 22.7155 65.6134C22.8473 66.0687 23.1949 66.4401 23.5963 66.6918C24.5071 67.2609 25.7653 67.201 26.6282 66.56L25.1482 64.2714Z" fill="#F27E55"/>
<path d="M34.8311 57.6453C34.903 57.2799 34.9868 56.9144 35.1606 56.5909C35.3344 56.2674 35.622 55.9798 35.9755 55.878C36.4309 55.7462 36.9402 55.9439 37.2577 56.2973C37.5753 56.6508 37.7071 57.1421 37.7071 57.6154C37.7071 58.6877 36.9941 59.7302 35.9875 60.1136L34.8311 57.6453Z" fill="#F27E55"/>
<path d="M38.2283 79.4645C35.6518 80.465 32.1886 78.7995 33.6506 74.8095L32.2245 71.5983L30.9902 68.8185L36.8142 65.5354L38.9413 69.9388L39.8101 71.7301C39.8101 71.7301 41.8054 72.2274 42.3027 74.8874C42.806 77.5534 40.0738 78.7516 38.2283 79.4645Z" fill="#F27E55"/>
<path d="M38.9413 69.9388C38.0605 71.5204 36.8202 72.1315 36.8202 72.1315C35.0886 72.5149 33.5547 72.2393 32.2245 71.5983L30.9902 68.8185L36.8142 65.5354L38.9413 69.9388Z" fill="#CC5D32"/>
<path d="M28.7843 54.2125C26.9748 54.3743 25.2012 55.207 24.1527 56.6868C23.1041 58.1666 22.8045 60.1556 23.3677 61.881C23.3677 61.881 27.1425 71.7781 34.3746 70.1726C34.3746 70.1726 40.642 67.0752 35.0816 56.8186C34.4345 55.6204 32.7329 52.8645 31.0132 52.9005C29.5033 52.9304 29.4733 54.1466 28.7783 54.2125H28.7843Z" fill="#F27E55"/>
<path d="M87.6057 49.0064C87.6057 49.0064 80.7091 48.4972 80.7511 47.3649C80.9548 46.4962 83.5972 46.6999 83.5972 46.6999C83.5972 46.6999 80.3377 44.2436 80.7511 43.3749C81.1645 42.5062 84.7955 44.9625 84.7955 44.9625C84.7955 44.9625 81.7457 42.2246 82.6445 41.2301C83.1059 40.7209 86.1736 43.8901 86.1736 43.8901C86.1736 43.8901 84.3342 40.7149 84.8435 40.0499C85.3528 39.3849 87.8633 43.0693 87.8633 43.0693C87.8633 43.0693 86.8387 40.4513 87.8633 39.972C88.8879 39.4867 90.5776 45.8851 90.1162 47.6225L87.6117 49.0124L87.6057 49.0064Z" fill="#F27E55"/>
<path d="M8.29292 157.413C8.29292 157.413 11.2109 163.482 10.2462 164.081C9.40739 164.399 8.10717 162.092 8.10717 162.092C8.10717 162.092 7.88548 166.166 6.93278 166.31C5.98009 166.454 5.99208 162.068 5.99208 162.068C5.99208 162.068 5.42286 166.124 4.09268 165.939C3.40962 165.843 4.33236 161.523 4.33236 161.523C4.33236 161.523 2.72656 164.824 1.88771 164.77C1.04887 164.717 2.70859 160.583 2.70859 160.583C2.70859 160.583 1.10878 162.889 0.138116 162.314C-0.832551 161.733 3.53545 156.766 5.23711 156.173L8.29292 157.419V157.413Z" fill="#F27E55"/>
<path d="M63.417 90.572L64.9149 127.267C64.9149 127.267 46.646 138.284 30.2406 132.85L30.0488 132.233C47.5927 133.27 60.0556 117.172 59.8159 103.65C59.5763 89.7033 57.0358 83.1072 57.0358 83.1072C64.5315 87.7562 69.4267 85.3239 71.8294 83.221C72.2489 85.216 72.854 87.1631 73.603 89.0742L63.417 90.572Z" fill="#829900"/>
<path d="M87.1089 220.331C86.983 220.487 86.8512 220.637 86.7074 220.786C78.0074 209.631 70.3559 197.691 63.8548 185.116C63.7529 185.08 63.6631 184.99 63.6571 184.846L63.6451 184.721C63.6151 184.655 63.5732 184.583 63.5372 184.517C63.4653 184.367 63.5193 184.229 63.6151 184.145C62.8122 169.186 62.0093 154.22 61.2064 139.255C58.8217 138.56 56.7366 136.918 55.4903 134.522C55.3105 134.18 55.8318 133.875 56.0056 134.216C57.156 136.421 59.0254 137.937 61.1885 138.614C61.2304 138.296 61.7577 138.314 61.7757 138.68C61.7757 138.71 61.7757 138.746 61.7757 138.782C63.4354 139.177 65.2389 139.099 66.9945 138.458C67.36 138.326 67.5158 138.901 67.1563 139.033C65.3647 139.686 63.5253 139.782 61.8116 139.405C62.6145 154.454 63.4234 169.503 64.2323 184.559C70.7274 197.164 78.3848 209.146 87.1029 220.331H87.1089Z" fill="#171642"/>
<path d="M45.9393 160.769L42.3921 164.95L39.9235 147.013C35.7233 143.533 36.658 133.563 36.658 133.563C37.401 143.592 41.7151 145.156 41.7151 145.156L45.9393 160.769Z" fill="#171642"/>
<path d="M62.902 202.13C62.902 203.311 62.6683 204.419 62.2788 205.437L26.6338 174.955C33.9318 174.063 42.9614 156.167 42.9614 156.167L45.9812 160.721L45.9393 160.769L42.3921 164.95L34.6088 174.123L62.902 202.13Z" fill="#171642"/>
<path d="M33.8296 58.3524C32.9608 58.1127 31.8104 58.628 31.1094 59.1192C30.7379 59.3768 31.1393 59.8981 31.4868 59.6105C31.8224 59.3349 32.1879 59.1072 32.5773 58.9155C32.9788 58.7118 33.4402 58.6939 33.8476 58.5141C33.9195 58.4842 33.8955 58.3704 33.8236 58.3524H33.8296Z" fill="#232163"/>
<path d="M32.8471 61.1861C32.8471 61.1861 31.9962 59.7483 32.6613 59.4128C33.3264 59.0773 34.1772 60.5571 34.1772 60.5571L32.919 59.928L32.8471 61.1861Z" fill="#232163"/>
<path d="M25.5371 62.546C25.7828 61.6773 26.8253 60.9644 27.6103 60.6229C28.0237 60.4431 28.2634 61.0542 27.832 61.204C27.4245 61.3478 27.041 61.5455 26.6696 61.7731C26.2861 62.0128 26.0284 62.3902 25.6689 62.6538C25.603 62.7017 25.5191 62.6179 25.5431 62.552L25.5371 62.546Z" fill="#232163"/>
<path d="M28.4671 63.1811C28.4671 63.1811 27.6822 61.7073 27.047 62.0968C26.4179 62.4922 27.2328 63.9839 27.2328 63.9839L27.3526 62.582L28.4611 63.1751L28.4671 63.1811Z" fill="#232163"/>
<path d="M32.8714 63.3069C32.4939 62.8696 31.9187 62.582 31.4873 62.1926C31.0918 61.8331 30.7923 61.3419 30.3608 61.0363C30.3309 61.0124 30.2889 61.0483 30.3009 61.0843C30.4567 61.5875 30.9181 62.0368 31.2656 62.4202C31.5951 62.7857 31.9606 63.2111 32.3921 63.4807C32.3202 63.5226 32.2542 63.5645 32.1883 63.6065C31.9487 63.7622 31.673 63.894 31.4693 64.1037C31.3495 64.2295 31.4693 64.4752 31.6491 64.4093C31.9187 64.3074 32.1524 64.1217 32.398 63.9599C32.5418 63.8641 32.6916 63.7742 32.7995 63.6424C32.9193 63.6005 32.9673 63.4148 32.8774 63.3129L32.8714 63.3069Z" fill="#CC5D32"/>
<path d="M29.8516 66.1346C31.739 65.7692 33.4646 64.6129 34.5192 63.0073C34.5192 63.0073 35.9811 66.5061 34.1716 67.6144C32.3621 68.7227 29.8516 66.1346 29.8516 66.1346Z" fill="white"/>
<path d="M114.892 11.7184L122.502 9.60958C122.502 9.60958 124.299 4.55317 122.963 4.002C122.963 4.002 124.287 1.52173 123.61 1.18024C122.55 0.64704 120.83 3.50475 120.83 3.50475C120.83 3.50475 122.46 0.70695 121.663 0.34749C120.872 -0.0119701 118.583 3.10934 118.583 3.10934C118.583 3.10934 120.033 0.473301 119.11 0.317535C118.188 0.161769 116.474 3.50475 116.474 3.50475C116.474 3.50475 117.84 1.08438 117.043 0.868707C116.252 0.64704 114.449 5.04444 114.449 5.04444C114.449 5.04444 112.028 6.58412 112.981 10.1428L114.886 11.7244L114.892 11.7184Z" fill="#F27E55"/>
<path d="M166.23 201.346L163.863 199.057L163.696 195.187L157.626 192.323L159.459 186.464L165.709 187.752L169.657 192.868L169.921 196.511L167.728 201.843L166.23 201.346Z" fill="#F27E55"/>
<path d="M166.913 209.529L165.93 210.787C165.93 210.787 163.438 206.737 163.857 199.063C163.857 199.063 167.093 199.291 168.68 201.106L166.907 209.529H166.913Z" fill="#6A0DAD"/>
<path d="M165.937 210.787C165.937 210.787 169.058 197.002 168.741 192.647C168.741 192.647 163.055 190.071 164.918 186.937L172.366 188.561L171.868 191.856L170.161 192.443L171.629 193.449L168.873 207.199C168.669 208.205 168.208 209.158 167.483 209.883C167.063 210.302 166.548 210.662 165.943 210.787H165.937Z" fill="#232163"/>
<path d="M150.232 201.579L147.865 199.291L147.698 195.42L141.628 192.551L143.461 186.698L149.711 187.986L153.659 193.096L153.923 196.744L151.73 202.076L150.232 201.579Z" fill="#F27E55"/>
<path d="M150.915 209.763L149.932 211.021C149.932 211.021 147.44 206.971 147.859 199.297C147.859 199.297 151.095 199.524 152.682 201.34L150.909 209.763H150.915Z" fill="#6A0DAD"/>
<path d="M149.939 211.015C149.939 211.015 153.06 197.23 152.743 192.874C152.743 192.874 147.057 190.298 148.92 187.165L156.368 188.788L155.87 192.083L154.163 192.671L155.631 193.677L152.875 207.426C152.671 208.433 152.209 209.385 151.484 210.11C151.065 210.53 150.55 210.889 149.945 211.015H149.939Z" fill="#232163"/>
<path d="M118.284 189.4C118.284 189.4 110.105 191.011 101.531 190.412C95.3591 189.987 88.9839 188.411 85.293 184.265C78.8278 177.004 93.1542 113.524 93.1542 113.524L98.7205 111.175L110.974 116.513L110.92 125.446L110.578 179.131L118.284 189.4Z" fill="#7F9DFF"/>
<path d="M118.283 189.4C118.283 189.4 110.105 191.011 101.53 190.412C97.2583 188.225 92.7525 187.434 91.1467 181.971C88.2647 172.169 100.949 125.619 100.949 125.619C98.6424 121.006 100.949 114.8 100.949 114.8L108.685 116.968L110.92 125.446L110.578 179.131L118.283 189.4Z" fill="#4B66BD"/>
<path d="M160.484 189.178C160.454 189.37 160.412 189.567 160.37 189.765C159.951 191.742 159.13 194.019 157.602 196.313C157.602 196.313 95.4791 195.127 93.1543 179.329C90.8235 163.525 105.246 115.525 105.246 115.525L125.594 112.559L131.801 114.722C131.801 114.722 138.919 126.979 136.505 136.859C132.904 153.052 116.223 165.891 116.223 165.891L160.562 183.475C160.562 183.475 161.083 185.847 160.484 189.178Z" fill="#7F9DFF"/>
<path d="M102.238 30.3025L110.231 47.5506L108.829 50.9176L104.131 55.0094L102.855 55.3209L98.0438 56.5072C98.0438 56.5072 91.0574 46.8197 92.1539 32.8427C93.2324 19.0814 112.376 8.80081 112.975 8.48329C112.975 8.4773 112.987 8.47729 112.987 8.47729L116.223 11.2751L102.238 30.3025Z" fill="#F27E55"/>
<path d="M96.5698 30.3024C95.5213 40.0737 98.3853 47.8021 102.855 55.3208L98.0438 56.507C98.0438 56.507 91.0574 46.8196 92.1539 32.8426C93.2324 19.0812 112.376 8.80068 112.975 8.48315C112.514 8.84261 97.6364 20.3154 96.5698 30.3024Z" fill="#E86E43"/>
<path d="M190.269 93.0044C190.269 93.0044 155.169 106.43 136.505 85.4677L136.733 82.0768L136.84 80.5371L142.85 75.3369L147.128 74.4802L161.754 87.96L189.526 88.8526L190.269 93.0044Z" fill="#F27E55"/>
<path d="M190.269 93.0044C190.269 93.0044 155.169 106.43 136.505 85.4677L136.733 82.0768L139.417 81.25C139.417 81.25 147.715 88.4632 158.465 93.0044C169.214 97.5515 190.269 93.0044 190.269 93.0044Z" fill="#E86E43"/>
<path d="M132.196 30.5121C135.51 30.4162 138.721 32.8486 139.524 36.0657C139.919 37.6354 139.788 39.3368 140.435 40.8226C141.064 42.2664 142.37 43.3867 142.742 44.9204C143.233 46.9634 141.909 48.9704 141.633 51.0552C141.399 52.7986 141.903 54.548 142.077 56.2974C142.256 58.0467 141.999 60.0357 140.638 61.1561C140.638 61.1561 139.907 59.5624 136.049 59.4726C132.19 59.3827 121.405 54.2964 118.505 47.898C116.839 44.3034 112.98 43.902 112.98 43.902C113.04 42.8356 113.831 41.8171 114.784 41.3318C115.737 40.8466 116.803 40.523 117.564 39.7742C118.781 38.5939 119.008 36.563 120.422 35.6284C121.591 34.8615 123.149 35.1192 124.467 34.6459C125.863 34.1426 126.821 32.8845 127.93 31.89C129.032 30.8955 130.872 29.8351 132.196 30.5121Z" fill="#232163"/>
<path d="M147.128 74.4802C147.128 74.4802 145.342 83.5686 136.505 85.4677L132.598 81.969L124.21 96.6469L131.801 114.722C131.801 114.722 110.932 124.906 93.1602 113.53L97.4503 82.8676C97.4503 82.8676 92.0577 71.8022 103.047 66.1946L98.0494 56.5072C98.0494 56.5072 101.459 46.2446 110.237 47.5507L115.929 54.1108L117.726 58.8018L127.924 62.3005L131.232 62.8936C131.232 62.8936 135.899 63.9241 147.134 74.4802H147.128Z" fill="#6A0DAD"/>
<path d="M131.226 62.8935C131.226 62.8935 125.876 73.857 117.895 70.7896C109.914 67.7163 115.923 54.1107 115.923 54.1107L119.698 55.9319L122.496 50.6359L124.126 47.5505L128.949 50.7917L128.908 56.0997L128.866 60.7607L131.226 62.8935Z" fill="#F27E55"/>
<path d="M128.949 50.7917L128.907 56.0997C125.816 56.6509 122.772 54.3084 122.514 50.9894C122.502 50.8755 122.496 50.7557 122.496 50.6359L124.126 47.5505L128.949 50.7917Z" fill="#CC5D32"/>
<path d="M199.346 89.1641C199.346 89.1641 202.989 90.8655 202.21 91.6803C201.767 92.1476 200.137 91.9499 200.137 91.9499C200.137 91.9499 201.509 92.6089 201.161 93.1301C200.814 93.6513 198.681 93.1301 198.681 93.1301C198.681 93.1301 199.705 93.7532 199.262 94.1186C198.819 94.4841 193.726 93.4416 193.726 93.4416L195.529 89.7032L199.346 89.1641Z" fill="#F27E55"/>
<path d="M199.31 87.6363C197.501 87.3907 189.519 88.8465 189.519 88.8465L189.256 92.6867C189.256 92.6867 193.414 96.4012 196.242 91.872C196.242 91.872 200.059 92.3153 199.981 91.3028C199.945 90.7876 199.136 90.4042 198.357 90.1525C199.729 89.1221 201.863 91.2309 202.606 90.5599C203.331 89.9069 201.12 87.8879 199.31 87.6363Z" fill="#F27E55"/>
<path d="M202.66 89.4037C200.503 87.0133 197.746 87.2949 194.876 88.0677C194.505 88.1695 194.661 88.7447 195.038 88.6428C196.674 88.2055 198.268 87.834 199.957 88.2534C200.73 88.4451 201.395 88.9783 201.953 89.5115C202.108 90.2724 201.911 90.4761 201.371 90.1346C200.922 89.9788 200.485 89.7931 200.065 89.5714C200.005 89.5415 199.951 89.5415 199.897 89.5475C199.849 89.5295 199.79 89.5175 199.73 89.5355C199.214 89.6613 198.699 89.7871 198.184 89.9069C198.016 89.9489 197.962 90.0807 197.974 90.2125C197.974 90.2245 197.974 90.2304 197.974 90.2424C197.974 90.2484 197.974 90.2604 197.974 90.2664C197.992 90.3982 198.082 90.518 198.256 90.524C198.675 90.536 199.071 90.542 199.424 90.8176C199.532 91.3028 199.412 91.5545 199.065 91.5664C198.855 91.5964 198.645 91.6144 198.429 91.6323C197.716 91.6982 197.003 91.7162 196.29 91.7042C196.141 91.7042 196.051 91.7941 196.015 91.9079C195.002 93.3338 193.378 93.9569 191.665 93.6034C191.287 93.5255 191.125 94.1006 191.503 94.1785C192.587 94.4002 193.624 94.2744 194.535 93.855C194.547 93.855 194.553 93.867 194.565 93.867C195.955 94.2684 197.639 94.7896 199.101 94.6578C199.849 94.5919 199.873 94.0108 199.64 93.5255C200.131 93.6094 200.634 93.6813 201.096 93.5315C201.371 93.4416 201.599 93.0642 201.527 92.7826C201.479 92.5969 201.401 92.4531 201.311 92.3393C201.623 92.3153 201.923 92.2614 202.192 92.1416C202.779 91.872 202.761 91.3268 202.522 90.8715C202.558 90.8535 202.6 90.8535 202.63 90.8295C203.187 90.506 203.013 89.7991 202.648 89.3917L202.66 89.4037ZM198.639 94.0767C198.178 94.0467 197.716 93.9628 197.255 93.891C196.59 93.7831 195.937 93.6214 195.284 93.4476C195.475 93.3098 195.667 93.166 195.847 92.9983C196.836 93.1301 197.824 93.2679 198.807 93.3997C198.813 93.4057 198.819 93.4177 198.831 93.4296C199.148 93.6873 199.1 94.1066 198.639 94.0767ZM200.029 92.9683C199.628 92.9144 199.226 92.8605 198.819 92.8066C197.992 92.6928 197.159 92.5789 196.332 92.4711C196.374 92.4172 196.428 92.3692 196.47 92.3093C197.219 92.3093 197.962 92.2854 198.705 92.2135C198.831 92.2015 198.981 92.1895 199.142 92.1655C199.19 92.2135 199.256 92.2554 199.346 92.2554C199.58 92.2614 199.826 92.2854 200.083 92.3093C200.119 92.3632 200.167 92.4052 200.245 92.4232C200.329 92.4411 200.413 92.4651 200.497 92.4831C201.03 92.7826 200.622 93.214 200.035 92.9623L200.029 92.9683ZM201.527 91.7222C201.329 91.7462 201.114 91.7222 200.91 91.7102C200.622 91.6982 200.329 91.6863 200.041 91.6803C200.395 90.9494 200.041 90.4701 199.49 90.2065C199.604 90.1765 199.718 90.1526 199.832 90.1226C200.341 90.3802 201.162 90.8535 201.863 90.9434C202.114 91.2849 202.007 91.6683 201.527 91.7222Z" fill="#CC5D32"/>
<path d="M123.335 0.772845C122.999 0.74289 122.645 0.964558 122.328 1.25213C122.328 1.09636 122.31 0.940594 122.268 0.772845C122.142 0.32352 121.591 -0.101841 121.112 0.0479342C120.482 0.245637 120.021 0.754872 119.614 1.26411C119.626 1.09037 119.614 0.910639 119.536 0.730909C119.326 0.233655 118.895 0.0898713 118.391 0.215682C118.086 0.293565 117.834 0.539196 117.612 0.832756C117.409 0.317529 116.857 0.155772 116.234 0.665007C115.659 1.13231 115.294 2.09686 114.994 2.74988C114.652 3.48677 114.383 4.25961 114.107 5.02646C113.975 5.39191 114.557 5.54767 114.682 5.18821C114.94 4.46929 115.198 3.75037 115.509 3.05542C115.665 2.69596 115.851 2.34848 116.043 2.00699C116.138 1.83924 116.24 1.6715 116.354 1.50375C116.72 1.03645 117.019 1.04843 117.103 1.42586C117.091 1.49177 117.103 1.54568 117.127 1.59361C117.097 1.64753 117.067 1.69546 117.037 1.74339C116.594 2.44434 116.234 3.18722 115.917 3.95407C115.767 4.31353 116.348 4.4633 116.492 4.11582C116.851 3.24713 117.295 2.43235 117.816 1.64753C117.978 1.4019 118.146 1.16825 118.343 0.952576C118.511 0.670998 118.667 0.700953 118.961 0.892666C119.038 1.09636 119.044 1.29406 118.979 1.49776C118.895 1.87519 118.739 2.19271 118.697 2.57015C118.439 2.99551 118.212 3.43285 118.008 3.88817C117.852 4.23564 118.367 4.54119 118.523 4.18772C118.727 3.7324 118.961 3.30704 119.218 2.88767C119.23 2.8697 119.242 2.85771 119.254 2.83375C119.392 2.60609 119.53 2.37843 119.686 2.15677C119.973 1.75537 120.309 1.38393 120.65 1.03046C120.938 0.659016 121.309 0.736899 121.759 1.25812C121.783 1.5996 121.537 1.96505 121.375 2.24663C121.363 2.2706 121.357 2.29456 121.351 2.31253C120.758 2.98353 120.249 3.72641 119.805 4.50524C119.614 4.84074 120.135 5.14628 120.321 4.80479C120.902 3.78033 121.603 2.86371 122.436 2.03096C122.639 1.82726 122.855 1.62956 123.089 1.46181C123.88 0.892666 123.544 2.22267 123.52 2.31253C123.359 2.89965 123.113 3.46281 122.843 4.00799C121.873 4.15177 121.273 5.77533 120.836 6.5961C119.032 5.71542 116.941 6.9975 116.983 9.07637C116.989 9.4598 117.588 9.46579 117.582 9.07637C117.546 7.36295 119.302 6.34448 120.77 7.23714C120.914 7.327 121.052 7.27308 121.136 7.17124C121.183 7.14727 121.231 7.11732 121.267 7.05741C121.681 6.36245 122.088 5.67349 122.502 4.97853C122.759 4.75686 123.125 4.70294 123.089 5.23015C123.065 5.53569 123.041 5.83524 123.005 6.14078C122.945 6.72191 122.849 7.29705 122.747 7.86619C122.526 9.11831 121.705 9.5257 120.578 9.85521C119.554 10.1548 118.535 10.4603 117.511 10.7598C117.139 10.8677 117.301 11.4488 117.672 11.335C118.697 11.0354 119.716 10.7299 120.74 10.4303C121.267 10.2746 121.95 10.1548 122.394 9.79529C123.448 8.93858 123.46 7.3929 123.61 6.13479C123.658 5.74538 123.856 4.61907 123.442 4.17573C123.964 3.15127 125.012 0.904648 123.353 0.754873L123.335 0.772845Z" fill="#CC5D32"/>
<path d="M130.644 52.1098C132.723 51.2231 135.048 49.0543 136.84 44.2136C136.84 44.2136 136.75 37.1981 131.447 35.269C131.447 35.269 126.666 36.1078 124.209 41.7573C123.233 44.0039 122.981 45.8551 123.095 47.3409C123.382 51.0733 127.199 53.5775 130.644 52.1098Z" fill="#F27E55"/>
<path d="M147.128 74.4801C147.128 74.4801 145.342 83.5685 136.505 85.4676L132.598 81.9689L124.21 96.6468L131.801 114.722C131.801 114.722 110.932 124.906 93.1602 113.529C104.736 116.243 115.192 114.824 120.525 113.697C122.604 113.26 123.952 111.241 123.55 109.15L122.082 101.506C121.639 99.211 120.069 97.3358 117.96 96.3293C112.711 93.831 112.777 87.5165 112.777 87.5165C122.664 96.5869 131.238 77.0443 131.238 77.0443L132.274 77.877C135.864 80.7647 141.058 80.6089 144.396 77.4277C146.02 75.882 147.14 74.4741 147.14 74.4741L147.128 74.4801Z" fill="#43115F"/>
<path d="M160.483 189.178C160.454 189.37 160.412 189.567 160.37 189.765C141.304 184.864 122.472 179.089 103.939 172.457C103.699 172.373 103.687 172.092 103.813 171.948C103.747 171.882 103.705 171.792 103.735 171.672C107.876 156.084 113.089 140.801 119.326 125.925C117.127 125.05 115.222 123.415 114.023 121.12C113.844 120.779 114.359 120.473 114.539 120.815C115.677 122.989 117.481 124.553 119.566 125.38C119.751 125.128 120.219 125.272 120.105 125.589C122.406 126.35 124.994 126.23 127.391 125.074C127.738 124.906 128.044 125.422 127.697 125.589C125.132 126.83 122.352 126.955 119.883 126.135C113.652 140.992 108.451 156.263 104.317 171.834C104.305 171.876 104.287 171.906 104.263 171.936C122.729 178.544 141.49 184.295 160.483 189.178Z" fill="#4B66BD"/>
<path d="M130.417 41.8053C130.124 40.8168 127.751 40.2656 127.008 40.9665C126.99 40.9785 126.996 41.0085 127.014 41.0205C127.475 41.302 128.122 41.2601 128.644 41.4159C129.189 41.5776 129.674 42.0329 130.255 42.021C130.363 42.021 130.447 41.9191 130.417 41.8113V41.8053Z" fill="#232163"/>
<path d="M132.807 43.0634C132.4 43.0035 132.16 43.4888 132.52 43.7404C132.909 44.01 133.299 44.2377 133.664 44.5312C134.036 44.8308 134.341 45.2022 134.605 45.5976C134.653 45.6695 134.767 45.6455 134.767 45.5557C134.767 44.4593 133.958 43.2312 132.807 43.0694V43.0634Z" fill="#232163"/>
<path d="M132.718 46.562C133.181 46.562 133.557 46.1865 133.557 45.7233C133.557 45.26 133.181 44.8845 132.718 44.8845C132.254 44.8845 131.879 45.26 131.879 45.7233C131.879 46.1865 132.254 46.562 132.718 46.562Z" fill="#232163"/>
<path d="M128.11 43.896C128.574 43.896 128.949 43.5205 128.949 43.0572C128.949 42.594 128.574 42.2185 128.11 42.2185C127.647 42.2185 127.271 42.594 127.271 43.0572C127.271 43.5205 127.647 43.896 128.11 43.896Z" fill="#232163"/>
<path d="M130.819 44.5551C130.843 44.4772 130.735 44.4353 130.693 44.5012C130.298 45.1542 130.196 45.915 130.028 46.6459C129.968 46.9215 129.896 47.257 129.908 47.5686C129.597 47.3229 129.243 47.1192 128.895 46.9335C128.53 46.7358 128.212 47.269 128.572 47.4907C129.051 47.7842 129.567 48.0718 130.118 48.1976C130.148 48.2336 130.172 48.2695 130.208 48.2995C130.286 48.3654 130.411 48.3654 130.465 48.2635C130.741 47.7722 130.441 47.2271 130.411 46.6939C130.369 45.927 130.609 45.268 130.813 44.5491L130.819 44.5551Z" fill="#CC5D32"/>
<path d="M125.719 46.4062C126.834 47.8022 128.439 48.7967 130.183 49.1801C129.32 50.0068 127.75 50.1267 126.75 49.4677C125.749 48.8086 125.3 47.5266 125.719 46.4062Z" fill="white"/>
</g>
<defs>
<clipPath id="clip0_115_468">
<rect width="249" height="265" fill="white"/>
</clipPath>
</defs>
</svg>
