<svg width="36" height="36" viewBox="0 0 36 36" fill="none" xmlns="http://www.w3.org/2000/svg">
<g filter="url(#filter0_d_105_15436)">
<path d="M26.4359 27.9998C25.2157 27.9998 23.5016 27.5585 20.9348 26.1247C17.8136 24.3747 15.3993 22.7591 12.2949 19.6634C9.30182 16.6727 7.84527 14.7365 5.80673 11.0277C3.50376 6.84013 3.89634 4.6451 4.33518 3.70696C4.85779 2.5857 5.6292 1.91507 6.62627 1.24944C7.19261 0.878453 7.79193 0.560438 8.41664 0.299424C8.47915 0.272548 8.53729 0.246923 8.58918 0.223798C8.89861 0.0844211 9.36746 -0.126206 9.96133 0.0987963C10.3577 0.247548 10.7115 0.551927 11.2653 1.09881C12.4012 2.21882 13.9534 4.71323 14.526 5.93824C14.9105 6.76388 15.1649 7.30888 15.1655 7.92014C15.1655 8.63577 14.8054 9.18766 14.3685 9.78329C14.2866 9.89516 14.2053 10.002 14.1266 10.1058C13.6508 10.7308 13.5464 10.9114 13.6152 11.2339C13.7546 11.8821 14.7942 13.8115 16.5027 15.5159C18.2111 17.2203 20.0853 18.194 20.736 18.3328C21.0724 18.4046 21.2568 18.2959 21.9019 17.8034C21.9944 17.7328 22.0894 17.6596 22.1888 17.5865C22.8552 17.0909 23.3816 16.7402 24.0805 16.7402H24.0842C24.6925 16.7402 25.2132 17.004 26.0759 17.439C27.2011 18.0065 29.771 19.5384 30.8981 20.6753C31.4463 21.2278 31.752 21.5803 31.9014 21.9759C32.1265 22.5716 31.9146 23.0384 31.7764 23.351C31.7533 23.4028 31.7277 23.4597 31.7008 23.5228C31.4376 24.1463 31.1177 24.7442 30.745 25.3091C30.0804 26.3029 29.4072 27.0722 28.2832 27.5954C27.706 27.8684 27.0744 28.0066 26.4359 27.9998Z" fill="#6A0DAD"/>
</g>
<defs>
<filter id="filter0_d_105_15436" x="0" y="0" width="36" height="36" filterUnits="userSpaceOnUse" color-interpolation-filters="sRGB">
<feFlood flood-opacity="0" result="BackgroundImageFix"/>
<feColorMatrix in="SourceAlpha" type="matrix" values="0 0 0 0 0 0 0 0 0 0 0 0 0 0 0 0 0 0 127 0" result="hardAlpha"/>
<feOffset dy="4"/>
<feGaussianBlur stdDeviation="2"/>
<feComposite in2="hardAlpha" operator="out"/>
<feColorMatrix type="matrix" values="0 0 0 0 0 0 0 0 0 0 0 0 0 0 0 0 0 0 0.25 0"/>
<feBlend mode="normal" in2="BackgroundImageFix" result="effect1_dropShadow_105_15436"/>
<feBlend mode="normal" in="SourceGraphic" in2="effect1_dropShadow_105_15436" result="shape"/>
</filter>
</defs>
</svg>
