<svg width="27" height="27" viewBox="0 0 27 27" fill="none" xmlns="http://www.w3.org/2000/svg">
<g filter="url(#filter0_d_105_14640)">
<path d="M13.5 0C14.7598 0 15.968 0.500445 16.8588 1.39124C17.7496 2.28204 18.25 3.49022 18.25 4.75C18.25 6.00978 17.7496 7.21796 16.8588 8.10876C15.968 8.99956 14.7598 9.5 13.5 9.5C12.2402 9.5 11.032 8.99956 10.1412 8.10876C9.25044 7.21796 8.75 6.00978 8.75 4.75C8.75 3.49022 9.25044 2.28204 10.1412 1.39124C11.032 0.500445 12.2402 0 13.5 0ZM13.5 11.875C18.7487 11.875 23 14.0006 23 16.625V19H4V16.625C4 14.0006 8.25125 11.875 13.5 11.875Z" fill="#6A0DAD"/>
</g>
<defs>
<filter id="filter0_d_105_14640" x="0" y="0" width="27" height="27" filterUnits="userSpaceOnUse" color-interpolation-filters="sRGB">
<feFlood flood-opacity="0" result="BackgroundImageFix"/>
<feColorMatrix in="SourceAlpha" type="matrix" values="0 0 0 0 0 0 0 0 0 0 0 0 0 0 0 0 0 0 127 0" result="hardAlpha"/>
<feOffset dy="4"/>
<feGaussianBlur stdDeviation="2"/>
<feComposite in2="hardAlpha" operator="out"/>
<feColorMatrix type="matrix" values="0 0 0 0 0 0 0 0 0 0 0 0 0 0 0 0 0 0 0.25 0"/>
<feBlend mode="normal" in2="BackgroundImageFix" result="effect1_dropShadow_105_14640"/>
<feBlend mode="normal" in="SourceGraphic" in2="effect1_dropShadow_105_14640" result="shape"/>
</filter>
</defs>
</svg>
