<svg width="36" height="36" viewBox="0 0 36 36" fill="none" xmlns="http://www.w3.org/2000/svg">
<g filter="url(#filter0_d_105_14698)">
<path d="M18 26C20.3734 26 22.6934 25.2962 24.6668 23.9776C26.6402 22.6591 28.1783 20.7849 29.0865 18.5922C29.9948 16.3995 30.2324 13.9867 29.7694 11.6589C29.3064 9.33115 28.1635 7.19295 26.4853 5.51472C24.807 3.83649 22.6688 2.6936 20.3411 2.23058C18.0133 1.76756 15.6005 2.0052 13.4078 2.91345C11.2151 3.8217 9.34094 5.35977 8.02236 7.33316C6.70379 9.30655 6 11.6266 6 14C6 15.92 6.45067 17.7333 7.25333 19.3427C7.85733 20.5573 7.01733 22.196 6.69733 23.392C6.62644 23.6565 6.62643 23.935 6.6973 24.1996C6.76817 24.4641 6.90742 24.7053 7.10107 24.8989C7.29471 25.0926 7.53592 25.2318 7.80044 25.3027C8.06496 25.3736 8.34348 25.3736 8.608 25.3027C9.804 24.9827 11.4427 24.1427 12.6573 24.748C14.3176 25.5724 16.1463 26.0009 18 26Z" stroke="#6A0DAD" stroke-width="3" stroke-linecap="round" stroke-linejoin="round" shape-rendering="crispEdges"/>
</g>
<defs>
<filter id="filter0_d_105_14698" x="0.5" y="0.5" width="35" height="35" filterUnits="userSpaceOnUse" color-interpolation-filters="sRGB">
<feFlood flood-opacity="0" result="BackgroundImageFix"/>
<feColorMatrix in="SourceAlpha" type="matrix" values="0 0 0 0 0 0 0 0 0 0 0 0 0 0 0 0 0 0 127 0" result="hardAlpha"/>
<feOffset dy="4"/>
<feGaussianBlur stdDeviation="2"/>
<feComposite in2="hardAlpha" operator="out"/>
<feColorMatrix type="matrix" values="0 0 0 0 0 0 0 0 0 0 0 0 0 0 0 0 0 0 0.25 0"/>
<feBlend mode="normal" in2="BackgroundImageFix" result="effect1_dropShadow_105_14698"/>
<feBlend mode="normal" in="SourceGraphic" in2="effect1_dropShadow_105_14698" result="shape"/>
</filter>
</defs>
</svg>
