<svg width="15" height="15" viewBox="0 0 15 15" fill="none" xmlns="http://www.w3.org/2000/svg">
<mask id="path-1-inside-1_97_3525" fill="white">
<path d="M6.75 5.25H8.25V3.75H6.75M7.5 13.5C4.1925 13.5 1.5 10.8075 1.5 7.5C1.5 4.1925 4.1925 1.5 7.5 1.5C10.8075 1.5 13.5 4.1925 13.5 7.5C13.5 10.8075 10.8075 13.5 7.5 13.5ZM7.5 0C6.51509 0 5.53982 0.193993 4.62987 0.570904C3.71993 0.947814 2.89314 1.50026 2.1967 2.1967C0.790176 3.60322 0 5.51088 0 7.5C0 9.48912 0.790176 11.3968 2.1967 12.8033C2.89314 13.4997 3.71993 14.0522 4.62987 14.4291C5.53982 14.806 6.51509 15 7.5 15C9.48912 15 11.3968 14.2098 12.8033 12.8033C14.2098 11.3968 15 9.48912 15 7.5C15 6.51509 14.806 5.53982 14.4291 4.62987C14.0522 3.71993 13.4997 2.89314 12.8033 2.1967C12.1069 1.50026 11.2801 0.947814 10.3701 0.570904C9.46018 0.193993 8.48491 0 7.5 0ZM6.75 11.25H8.25V6.75H6.75V11.25Z"/>
</mask>
<path d="M6.75 5.25H8.25V3.75H6.75M7.5 13.5C4.1925 13.5 1.5 10.8075 1.5 7.5C1.5 4.1925 4.1925 1.5 7.5 1.5C10.8075 1.5 13.5 4.1925 13.5 7.5C13.5 10.8075 10.8075 13.5 7.5 13.5ZM7.5 0C6.51509 0 5.53982 0.193993 4.62987 0.570904C3.71993 0.947814 2.89314 1.50026 2.1967 2.1967C0.790176 3.60322 0 5.51088 0 7.5C0 9.48912 0.790176 11.3968 2.1967 12.8033C2.89314 13.4997 3.71993 14.0522 4.62987 14.4291C5.53982 14.806 6.51509 15 7.5 15C9.48912 15 11.3968 14.2098 12.8033 12.8033C14.2098 11.3968 15 9.48912 15 7.5C15 6.51509 14.806 5.53982 14.4291 4.62987C14.0522 3.71993 13.4997 2.89314 12.8033 2.1967C12.1069 1.50026 11.2801 0.947814 10.3701 0.570904C9.46018 0.193993 8.48491 0 7.5 0ZM6.75 11.25H8.25V6.75H6.75V11.25Z" fill="white"/>
<path d="M8.25 5.25V6.25H9.25V5.25H8.25ZM8.25 3.75H9.25V2.75H8.25V3.75ZM0 7.5H-1H0ZM7.5 15V16V15ZM6.75 11.25H5.75V12.25H6.75V11.25ZM8.25 11.25V12.25H9.25V11.25H8.25ZM8.25 6.75H9.25V5.75H8.25V6.75ZM6.75 6.75V5.75H5.75V6.75H6.75ZM6.75 6.25H8.25V4.25H6.75V6.25ZM9.25 5.25V3.75H7.25V5.25H9.25ZM8.25 2.75H6.75V4.75H8.25V2.75ZM7.5 12.5C4.74478 12.5 2.5 10.2552 2.5 7.5H0.5C0.5 11.3598 3.64022 14.5 7.5 14.5V12.5ZM2.5 7.5C2.5 4.74478 4.74478 2.5 7.5 2.5V0.5C3.64022 0.5 0.5 3.64022 0.5 7.5H2.5ZM7.5 2.5C10.2552 2.5 12.5 4.74478 12.5 7.5H14.5C14.5 3.64022 11.3598 0.5 7.5 0.5V2.5ZM12.5 7.5C12.5 10.2552 10.2552 12.5 7.5 12.5V14.5C11.3598 14.5 14.5 11.3598 14.5 7.5H12.5ZM7.5 -1C6.38376 -1 5.27846 -0.780141 4.24719 -0.352976L5.01256 1.49478C5.80117 1.16813 6.64641 1 7.5 1V-1ZM4.24719 -0.352976C3.21592 0.074189 2.27889 0.700294 1.48959 1.48959L2.90381 2.90381C3.50739 2.30023 4.22394 1.82144 5.01256 1.49478L4.24719 -0.352976ZM1.48959 1.48959C-0.104467 3.08365 -1 5.24566 -1 7.5H1C1 5.77609 1.68482 4.12279 2.90381 2.90381L1.48959 1.48959ZM-1 7.5C-1 9.75434 -0.104467 11.9163 1.48959 13.5104L2.90381 12.0962C1.68482 10.8772 1 9.22391 1 7.5H-1ZM1.48959 13.5104C2.27889 14.2997 3.21592 14.9258 4.24719 15.353L5.01256 13.5052C4.22394 13.1786 3.50739 12.6998 2.90381 12.0962L1.48959 13.5104ZM4.24719 15.353C5.27846 15.7801 6.38376 16 7.5 16V14C6.64641 14 5.80117 13.8319 5.01256 13.5052L4.24719 15.353ZM7.5 16C9.75434 16 11.9163 15.1045 13.5104 13.5104L12.0962 12.0962C10.8772 13.3152 9.22391 14 7.5 14V16ZM13.5104 13.5104C15.1045 11.9163 16 9.75434 16 7.5H14C14 9.22391 13.3152 10.8772 12.0962 12.0962L13.5104 13.5104ZM16 7.5C16 6.38376 15.7801 5.27846 15.353 4.24719L13.5052 5.01256C13.8319 5.80117 14 6.64641 14 7.5H16ZM15.353 4.24719C14.9258 3.21592 14.2997 2.27889 13.5104 1.48959L12.0962 2.90381C12.6998 3.50739 13.1786 4.22394 13.5052 5.01256L15.353 4.24719ZM13.5104 1.48959C12.7211 0.700294 11.7841 0.074189 10.7528 -0.352976L9.98744 1.49478C10.7761 1.82144 11.4926 2.30023 12.0962 2.90381L13.5104 1.48959ZM10.7528 -0.352976C9.72154 -0.780141 8.61624 -1 7.5 -1V1C8.35359 1 9.19883 1.16813 9.98744 1.49478L10.7528 -0.352976ZM6.75 12.25H8.25V10.25H6.75V12.25ZM9.25 11.25V6.75H7.25V11.25H9.25ZM8.25 5.75H6.75V7.75H8.25V5.75ZM5.75 6.75V11.25H7.75V6.75H5.75Z" fill="#6A0DAD" mask="url(#path-1-inside-1_97_3525)"/>
</svg>
