<svg width="11" height="15" viewBox="0 0 11 15" fill="none" xmlns="http://www.w3.org/2000/svg">
<path d="M1 14V12.5556C1 11.7894 1.31607 11.0546 1.87868 10.5128C2.44129 9.97103 3.20435 9.66667 4 9.66667H7C7.79565 9.66667 8.55871 9.97103 9.12132 10.5128C9.68393 11.0546 10 11.7894 10 12.5556V14M2.5 3.88889C2.5 4.65507 2.81607 5.38987 3.37868 5.93164C3.94129 6.47341 4.70435 6.77778 5.5 6.77778C6.29565 6.77778 7.05871 6.47341 7.62132 5.93164C8.18393 5.38987 8.5 4.65507 8.5 3.88889C8.5 3.12271 8.18393 2.38791 7.62132 1.84614C7.05871 1.30436 6.29565 1 5.5 1C4.70435 1 3.94129 1.30436 3.37868 1.84614C2.81607 2.38791 2.5 3.12271 2.5 3.88889Z" stroke="#6A0DAD" stroke-width="2" stroke-linecap="round" stroke-linejoin="round"/>
</svg>
