<svg width="13" height="12" viewBox="0 0 13 12" fill="none" xmlns="http://www.w3.org/2000/svg">
<path d="M1.60643 10.8024L3.49329 10.1854L3.83314 10.3474C4.61964 10.7215 5.5185 10.9208 6.5 10.9208C9.74629 10.9208 12.0714 8.64742 12.0714 5.91541C12.0714 3.17339 9.763 0.910063 6.5 0.910063C3.237 0.910063 0.928571 3.17339 0.928571 5.91541C0.934058 6.96473 1.2866 7.98402 1.93329 8.82033L2.24714 9.22986L1.60643 10.8015V10.8024ZM0.949929 11.9764C0.865899 12.004 0.775567 12.0075 0.689603 11.9864C0.60364 11.9653 0.525635 11.9205 0.464803 11.8573C0.403971 11.7942 0.362854 11.7153 0.346308 11.6299C0.329762 11.5446 0.338479 11.4564 0.371429 11.3758L1.19136 9.36728C0.423596 8.37331 0.00555455 7.16206 0 5.91541C0 2.89946 2.49043 0 6.5 0C10.5096 0 13 2.89946 13 5.91541C13 8.93136 10.4836 11.8308 6.5 11.8308C5.34393 11.8308 4.31136 11.5869 3.42829 11.1665L0.949 11.9764H0.949929Z" fill="#6A0DAD"/>
</svg>
