<svg width="17" height="18" viewBox="0 0 17 18" fill="none" xmlns="http://www.w3.org/2000/svg">
<path d="M2.18359 7.31579C2.18359 4.33868 2.18359 2.84974 3.10886 1.92526C4.03412 1.00079 5.52228 1 8.49938 1H9.68359C12.6607 1 14.1496 1 15.0741 1.92526C15.9986 2.85053 15.9994 4.33868 15.9994 7.31579V10.4737C15.9994 13.4508 15.9994 14.9397 15.0741 15.8642C14.1489 16.7887 12.6607 16.7895 9.68359 16.7895H8.49938C5.52228 16.7895 4.03333 16.7895 3.10886 15.8642C2.18438 14.9389 2.18359 13.4508 2.18359 10.4737V7.31579Z" stroke="#6A0DAD" stroke-linecap="round" stroke-linejoin="round"/>
<path d="M6.76316 8.87403C6.42605 8.28666 6.26342 7.80745 6.16553 7.32114C6.02026 6.60271 6.35263 5.90008 6.90211 5.45166C7.135 5.26219 7.40105 5.32693 7.53842 5.57403L7.84868 6.13061C8.09421 6.57114 8.21737 6.79219 8.1929 7.02587C8.16921 7.25956 8.00342 7.44982 7.67184 7.83114L6.76316 8.87403ZM6.76316 8.87403C7.47377 10.0917 8.48707 11.105 9.70474 11.8156M9.70474 11.8156C10.2921 12.1527 10.7713 12.3153 11.2576 12.4132C11.9761 12.5585 12.6787 12.2261 13.1271 11.6767C13.3166 11.4438 13.2518 11.1777 13.0047 11.0403L12.4489 10.7301C12.0068 10.4846 11.7866 10.3614 11.5529 10.3859C11.3192 10.4096 11.1289 10.5753 10.7476 10.9069L9.70474 11.8156ZM2.97368 4.15771H1M2.97368 8.89456H1M2.97368 13.6314H1" stroke="#6A0DAD" stroke-linecap="round" stroke-linejoin="round"/>
</svg>
