<svg width="16" height="16" viewBox="0 0 16 16" fill="none" xmlns="http://www.w3.org/2000/svg">
<path d="M1.77778 1.27778H1.27778V1.77778V14.2222V14.7222H1.77778H7.11111C7.32386 14.7222 7.5 14.8984 7.5 15.1111C7.5 15.3239 7.32386 15.5 7.11111 15.5H1.77778C1.07614 15.5 0.5 14.9239 0.5 14.2222V1.77778C0.5 1.07614 1.07614 0.5 1.77778 0.5H7.11111C7.32386 0.5 7.5 0.676142 7.5 0.888889C7.5 1.10164 7.32386 1.27778 7.11111 1.27778H1.77778Z" fill="white" stroke="#6A0DAD"/>
<path d="M12.9451 7.11115V5.65159L15.2891 7.99559L12.9451 10.3396V8.88892V8.38892H12.4451H6.22287C6.01013 8.38892 5.83398 8.21278 5.83398 8.00004C5.83398 7.78729 6.01013 7.61115 6.22287 7.61115H12.4451H12.9451V7.11115ZM12.9451 5.51949C12.9451 5.51967 12.9451 5.51985 12.9451 5.52004L12.9451 5.51949Z" fill="white" stroke="#6A0DAD"/>
</svg>
