<svg width="14" height="15" viewBox="0 0 14 15" fill="none" xmlns="http://www.w3.org/2000/svg">
<path fill-rule="evenodd" clip-rule="evenodd" d="M1.49392 5.39553C1.49392 3.96454 2.06237 2.59217 3.07423 1.58031C4.08609 0.568455 5.45846 0 6.88944 0C8.32042 0 9.6928 0.568455 10.7047 1.58031C11.7165 2.59217 12.285 3.96454 12.285 5.39553V8.29678L13.6893 11.1055C13.754 11.2348 13.7845 11.3785 13.778 11.5229C13.7715 11.6673 13.7282 11.8076 13.6522 11.9305C13.5762 12.0535 13.4701 12.155 13.3438 12.2253C13.2176 12.2957 13.0754 12.3327 12.9309 12.3326H9.87548C9.70403 12.9942 9.31776 13.58 8.77731 13.9983C8.23685 14.4165 7.57282 14.6434 6.88944 14.6434C6.20606 14.6434 5.54203 14.4165 5.00157 13.9983C4.46112 13.58 4.07486 12.9942 3.9034 12.3326H0.847994C0.703454 12.3327 0.561308 12.2957 0.435056 12.2253C0.308805 12.155 0.202641 12.0535 0.126647 11.9305C0.0506525 11.8076 0.00735157 11.6673 0.000856569 11.5229C-0.00563843 11.3785 0.0248882 11.2348 0.089537 11.1055L1.49392 8.29678V5.39553ZM5.55443 12.3326C5.68974 12.567 5.88434 12.7615 6.11868 12.8968C6.35303 13.0321 6.61885 13.1034 6.88944 13.1034C7.16003 13.1034 7.42585 13.0321 7.6602 12.8968C7.89454 12.7615 8.08914 12.567 8.22445 12.3326H5.55443ZM6.88944 1.54158C5.86731 1.54158 4.88704 1.94762 4.16429 2.67037C3.44153 3.39313 3.03549 4.3734 3.03549 5.39553V8.29678C3.03548 8.53598 2.9798 8.7719 2.87286 8.98586L1.97103 10.7911H11.8086L10.9068 8.98586C10.7996 8.77196 10.7436 8.53604 10.7434 8.29678V5.39553C10.7434 4.3734 10.3373 3.39313 9.61459 2.67037C8.89184 1.94762 7.91157 1.54158 6.88944 1.54158Z" fill="#6A0DAD"/>
</svg>
