<svg width="13" height="16" viewBox="0 0 13 16" fill="none" xmlns="http://www.w3.org/2000/svg">
<path d="M3.35742 6.5V4.14286C3.35742 3.30932 3.68854 2.50992 4.27794 1.92052C4.86734 1.33112 5.66674 1 6.50028 1C7.33382 1 8.13321 1.33112 8.72262 1.92052C9.31202 2.50992 9.64314 3.30932 9.64314 4.14286V6.5" stroke="#6A0DAD" stroke-width="1.5" stroke-linecap="round"/>
<path d="M1 6.5H12V13.5714C12 13.9882 11.8344 14.3879 11.5397 14.6826C11.245 14.9773 10.8453 15.1429 10.4286 15.1429H2.57143C2.15466 15.1429 1.75496 14.9773 1.46026 14.6826C1.16556 14.3879 1 13.9882 1 13.5714V6.5Z" stroke="#6A0DAD" stroke-width="1.5" stroke-linejoin="round"/>
<path d="M8.46484 10.8213H8.47199V10.8284H8.46484V10.8213Z" stroke="#6A0DAD" stroke-linejoin="round"/>
</svg>
