<svg width="13" height="13" viewBox="0 0 13 13" fill="none" xmlns="http://www.w3.org/2000/svg">
<path d="M7.1517 0.996289V1.00954C7.1517 1.45331 7.44412 1.82422 7.8535 1.95669C9.70546 2.54618 11.0506 4.3014 11.0506 6.38116C11.0506 6.72558 11.0116 7.05013 10.9401 7.36806C10.8491 7.79196 11.0181 8.22911 11.3885 8.45431L11.395 8.46093C11.9538 8.7921 12.6816 8.49405 12.831 7.8582C12.9415 7.38131 13 6.88455 13 6.38116C13 3.40061 11.0636 0.870443 8.39934 0.0425106C7.78202 -0.14957 7.1517 0.333943 7.1517 0.996289ZM5.81309 10.9646C3.87016 10.6798 2.29112 9.07029 2.0052 7.0965C1.83674 5.99852 2.06102 4.87541 2.63716 3.93192C3.21329 2.98843 4.1029 2.28742 5.14379 1.95669C5.55967 1.83085 5.85208 1.45331 5.85208 1.00954V0.996289C5.85208 0.333943 5.22177 -0.14957 4.59795 0.0425106C3.11902 0.505905 1.85032 1.49097 1.01919 2.82119C0.188058 4.1514 -0.151178 5.73983 0.0622705 7.30183C0.445659 10.2029 2.74599 12.5476 5.59216 12.9384C7.63256 13.2166 9.51701 12.5344 10.8751 11.2627C11.356 10.8123 11.2715 10.0108 10.7062 9.67965C10.3293 9.45445 9.86141 9.52731 9.53651 9.82536C8.58129 10.7129 7.25567 11.1832 5.81309 10.9646Z" fill="#6A0DAD"/>
</svg>
